<?xml version="1.0" encoding="UTF-8" standalone="no"?>
<svg
   xmlns:dc="http://purl.org/dc/elements/1.1/"
   xmlns:cc="http://creativecommons.org/ns#"
   xmlns:rdf="http://www.w3.org/1999/02/22-rdf-syntax-ns#"
   xmlns:svg="http://www.w3.org/2000/svg"
   xmlns="http://www.w3.org/2000/svg"
   xmlns:sodipodi="http://sodipodi.sourceforge.net/DTD/sodipodi-0.dtd"
   xmlns:inkscape="http://www.inkscape.org/namespaces/inkscape"
   width="200"
   height="200"
   viewBox="0 0 52.916666 52.916666"
   version="1.1"
   id="svg947"
   inkscape:version="1.0.1 (c497b03c, 2020-09-10)"
   sodipodi:docname="gears.svg">
  <defs
     id="defs941" />
  <sodipodi:namedview
     id="base"
     pagecolor="#ffffff"
     bordercolor="#666666"
     borderopacity="1.0"
     inkscape:pageopacity="0.0"
     inkscape:pageshadow="2"
     inkscape:zoom="4"
     inkscape:cx="83.862086"
     inkscape:cy="94.291541"
     inkscape:document-units="mm"
     inkscape:current-layer="layer1"
     inkscape:document-rotation="0"
     showgrid="true"
     showguides="false"
     inkscape:window-width="1792"
     inkscape:window-height="1075"
     inkscape:window-x="0"
     inkscape:window-y="23"
     inkscape:window-maximized="1"
     units="px">
    <inkscape:grid
       type="xygrid"
       id="grid1518" />
  </sodipodi:namedview>
  <metadata
     id="metadata944">
    <rdf:RDF>
      <cc:Work
         rdf:about="">
        <dc:format>image/svg+xml</dc:format>
        <dc:type
           rdf:resource="http://purl.org/dc/dcmitype/StillImage" />
        <dc:title></dc:title>
      </cc:Work>
    </rdf:RDF>
  </metadata>
  <g
     inkscape:label="图层 1"
     inkscape:groupmode="layer"
     id="layer1">
    <path
       id="rect4847-3-3"
       style="fill:none;stroke:#333333;stroke-width:2.64583;stroke-linecap:square;stroke-linejoin:round;stroke-miterlimit:4;stroke-dasharray:none;stroke-opacity:1;paint-order:markers stroke fill"
       d="m 29.104167,3.9687507 c -2.931583,0 -5.291667,2.3600836 -5.291667,5.291667 V 13.229167 H 15.875 c -1.465791,0 -2.645833,1.180043 -2.645833,2.645834 V 23.8125 h -3.96875 c -2.931583,0 -5.2916666,2.360083 -5.2916666,5.291667 0,2.931583 2.3600836,5.291667 5.2916666,5.291667 h 3.96875 v 7.9375 c 0,1.465791 1.180042,2.645833 2.645833,2.645833 h 7.9375 v -3.96875 c 0,-2.931583 2.360084,-5.291667 5.291667,-5.291667 2.931583,0 5.291666,2.360084 5.291666,5.291667 v 3.96875 h 7.9375 c 1.465792,0 2.645834,-1.180042 2.645834,-2.645833 v -7.9375 h -3.96875 c -2.931584,0 -5.291667,-2.360084 -5.291667,-5.291667 0,-2.931584 2.360083,-5.291667 5.291667,-5.291667 h 3.96875 v -7.937499 c 0,-1.465791 -1.180042,-2.645834 -2.645834,-2.645834 h -7.9375 V 9.2604177 c 0,-2.9315834 -2.360083,-5.291667 -5.291666,-5.291667 z" />
  </g>
</svg>
