<?xml version="1.0" encoding="UTF-8" standalone="no"?>
<svg
   xmlns:dc="http://purl.org/dc/elements/1.1/"
   xmlns:cc="http://creativecommons.org/ns#"
   xmlns:rdf="http://www.w3.org/1999/02/22-rdf-syntax-ns#"
   xmlns:svg="http://www.w3.org/2000/svg"
   xmlns="http://www.w3.org/2000/svg"
   xmlns:sodipodi="http://sodipodi.sourceforge.net/DTD/sodipodi-0.dtd"
   xmlns:inkscape="http://www.inkscape.org/namespaces/inkscape"
   width="200"
   height="200"
   viewBox="0 0 52.916666 52.916666"
   version="1.1"
   id="svg8"
   inkscape:version="1.0.1 (c497b03c, 2020-09-10)"
   sodipodi:docname="nodejs.svg">
  <defs
     id="defs2" />
  <sodipodi:namedview
     id="base"
     pagecolor="#ffffff"
     bordercolor="#666666"
     borderopacity="1.0"
     inkscape:pageopacity="0"
     inkscape:pageshadow="2"
     inkscape:zoom="3.8583845"
     inkscape:cx="111.82259"
     inkscape:cy="106.65296"
     inkscape:document-units="mm"
     inkscape:current-layer="layer1"
     inkscape:document-rotation="0"
     showgrid="true"
     units="px"
     inkscape:window-width="1792"
     inkscape:window-height="1075"
     inkscape:window-x="0"
     inkscape:window-y="23"
     inkscape:window-maximized="1"
     showguides="false">
    <inkscape:grid
       type="xygrid"
       id="grid833" />
  </sodipodi:namedview>
  <metadata
     id="metadata5">
    <rdf:RDF>
      <cc:Work
         rdf:about="">
        <dc:format>image/svg+xml</dc:format>
        <dc:type
           rdf:resource="http://purl.org/dc/dcmitype/StillImage" />
        <dc:title></dc:title>
      </cc:Work>
    </rdf:RDF>
  </metadata>
  <g
     inkscape:label="图层 1"
     inkscape:groupmode="layer"
     id="layer1">
    <path
       d="M 44.96471,13.0711 28.442947,3.162082 a 3.9329937,3.9329937 0 0 0 -3.895789,0 L 8.0243312,13.070037 A 4.0605501,4.0605501 0 0 0 6.0854719,16.553395 V 36.34273 a 4.066928,4.066928 0 0 0 1.9388593,3.486546 l 4.3326718,2.587272 0.02444,0.01382 c 2.187595,1.119307 3.025216,1.119307 3.995709,1.119307 3.41639,0 5.539144,-2.210979 5.539144,-5.770869 V 18.59111 a 0.90458857,0.90458857 0 0 0 -0.895022,-0.912029 h -2.378929 a 0.90458857,0.90458857 0 0 0 -0.895023,0.912029 v 19.187695 a 1.5944569,1.5944569 0 0 1 -0.728135,1.389303 c -0.627149,0.38267 -1.538116,0.301883 -2.566009,-0.228539 l -4.151962,-2.499046 a 0.11692685,0.11692685 0 0 1 -0.05102,-0.09779 V 16.832956 a 0.14031221,0.14031221 0 0 1 0.06272,-0.112675 L 26.453064,6.8346469 a 0.08716365,0.08716365 0 0 1 0.0776,0 l 16.149724,9.8856341 a 0.14243815,0.14243815 0 0 1 0.05846,0.116927 V 36.34273 a 0.13606033,0.13606033 0 0 1 -0.04783,0.106298 l -16.163541,9.635834 a 0.1296825,0.1296825 0 0 1 -0.08503,0 l -4.127518,-2.451211 a 0.8291176,0.8291176 0 0 0 -0.832306,-0.04358 l -0.03614,0.02125 c -1.139505,0.674985 -1.445641,0.850375 -2.502234,1.235174 -0.172201,0.06271 -0.577193,0.212591 -0.612272,0.613331 -0.03508,0.400741 0.349718,0.685616 0.691994,0.884392 l 5.516821,3.387693 a 3.7916185,3.7916185 0 0 0 1.945238,0.538923 h 0.06165 v 0 a 3.812878,3.812878 0 0 0 1.89528,-0.538916 L 44.96471,39.832466 A 4.0786206,4.0786206 0 0 0 46.90357,36.34273 V 16.553395 A 4.0616132,4.0616132 0 0 0 44.96471,13.0711 Z"
       id="path2861"
       style="fill-rule:nonzero;stroke-width:0.106297;fill:#1a1a1a" />
    <path
       d="m 32.009215,33.052834 c -3.96382,0 -4.808882,-1.107616 -5.059743,-2.895533 A 0.8960848,0.8960848 0 0 0 26.07571,29.379206 h -2.104683 a 0.89714775,0.89714775 0 0 0 -0.878015,0.912029 c 0,1.549812 0.544242,6.608492 8.920455,6.608492 v 0 c 2.591525,0 4.747231,-0.605894 6.232201,-1.752839 1.484971,-1.146947 2.280074,-2.815811 2.280074,-4.80463 0,-3.991458 -2.60428,-5.084193 -7.733116,-5.798509 -5.213874,-0.724946 -5.213874,-1.093797 -5.213874,-1.901655 0,-0.581445 0,-1.943112 3.769296,-1.943112 2.681876,0 4.117951,0.339088 4.577154,2.125942 a 0.88758101,0.88758101 0 0 0 0.856755,0.709002 h 2.112124 a 0.87588835,0.87588835 0 0 0 0.65479,-0.30401 0.94710741,0.94710741 0 0 0 0.22535,-0.684553 c -0.273184,-3.778863 -3.035847,-5.6954 -8.422984,-5.6954 -4.896047,0 -7.818155,2.205666 -7.818155,5.899491 0,4.049921 3.028406,5.19474 7.577923,5.668825 5.314857,0.549556 5.314857,1.351037 5.314857,2.058975 0.0032,1.103364 -0.454952,2.57558 -4.416647,2.57558 z"
       id="path2863"
       style="stroke-width:0.106297;fill:#1a1a1a" />
  </g>
</svg>
