<?xml version="1.0" encoding="UTF-8" standalone="no"?>
<svg
   xmlns:dc="http://purl.org/dc/elements/1.1/"
   xmlns:cc="http://creativecommons.org/ns#"
   xmlns:rdf="http://www.w3.org/1999/02/22-rdf-syntax-ns#"
   xmlns:svg="http://www.w3.org/2000/svg"
   xmlns="http://www.w3.org/2000/svg"
   xmlns:sodipodi="http://sodipodi.sourceforge.net/DTD/sodipodi-0.dtd"
   xmlns:inkscape="http://www.inkscape.org/namespaces/inkscape"
   width="200"
   height="200"
   viewBox="0 0 52.916666 52.916666"
   version="1.1"
   id="svg8"
   inkscape:version="1.0.1 (c497b03c, 2020-09-10)"
   sodipodi:docname="react.svg">
  <defs
     id="defs2" />
  <sodipodi:namedview
     id="base"
     pagecolor="#ffffff"
     bordercolor="#666666"
     borderopacity="1.0"
     inkscape:pageopacity="0.0"
     inkscape:pageshadow="2"
     inkscape:zoom="4"
     inkscape:cx="86.994562"
     inkscape:cy="102.31467"
     inkscape:document-units="mm"
     inkscape:current-layer="layer1"
     inkscape:document-rotation="0"
     showgrid="true"
     units="px"
     inkscape:window-width="1792"
     inkscape:window-height="1075"
     inkscape:window-x="0"
     inkscape:window-y="23"
     inkscape:window-maximized="1"
     showguides="false">
    <inkscape:grid
       type="xygrid"
       id="grid833" />
  </sodipodi:namedview>
  <metadata
     id="metadata5">
    <rdf:RDF>
      <cc:Work
         rdf:about="">
        <dc:format>image/svg+xml</dc:format>
        <dc:type
           rdf:resource="http://purl.org/dc/dcmitype/StillImage" />
        <dc:title></dc:title>
      </cc:Work>
    </rdf:RDF>
  </metadata>
  <g
     inkscape:label="图层 1"
     inkscape:groupmode="layer"
     id="layer1">
    <g
       fill="#61dafb"
       id="g837"
       transform="matrix(0.09707501,0,0,0.09707501,-14.410246,-2.2404966)"
       style="fill:#333333">
      <path
         d="m 666.3,296.5 c 0,-32.5 -40.7,-63.3 -103.1,-82.4 14.4,-63.6 8,-114.2 -20.2,-130.4 a 43.8,43.8 0 0 0 -22.4,-5.6 v 22.3 c 4.6,0 8.3,0.9 11.4,2.6 13.6,7.8 19.5,37.5 14.9,75.7 -1.1,9.4 -2.9,19.3 -5.1,29.4 -19.6,-4.8 -41,-8.5 -63.5,-10.9 a 487.8,487.8 0 0 0 -41.6,-50 c 32.6,-30.3 63.2,-46.9 84,-46.9 V 78 C 493.2,78 457.2,97.6 420.8,131.6 384.4,97.8 348.4,78.4 320.9,78.4 v 22.3 c 20.7,0 51.4,16.5 84,46.6 -14,14.7 -28,31.4 -41.3,49.9 a 467,467 0 0 0 -63.6,11 c -2.3,-10 -4,-19.7 -5.2,-29 -4.7,-38.2 1.1,-67.9 14.6,-75.8 3,-1.8 6.9,-2.6 11.5,-2.6 V 78.5 c -8.4,0 -16,1.8 -22.6,5.6 -28.1,16.2 -34.4,66.7 -19.9,130.1 -62.2,19.2 -102.7,49.9 -102.7,82.3 0,32.5 40.7,63.3 103.1,82.4 -14.4,63.6 -8,114.2 20.2,130.4 a 44,44 0 0 0 22.5,5.6 c 27.5,0 63.5,-19.6 99.9,-53.6 36.4,33.8 72.4,53.2 99.9,53.2 8.4,0 16,-1.8 22.6,-5.6 28.1,-16.2 34.4,-66.7 19.9,-130.1 62,-19.1 102.5,-49.9 102.5,-82.3 z M 536.1,229.8 a 450.4,450.4 0 0 1 -13.5,39.5 473.3,473.3 0 0 0 -27.5,-47.4 c 14.2,2.1 27.9,4.7 41,7.9 z m -45.8,106.5 a 532.7,532.7 0 0 1 -24.1,38.2 520.3,520.3 0 0 1 -90.2,0.1 551.2,551.2 0 0 1 -45,-77.8 521.5,521.5 0 0 1 44.8,-78.1 520.3,520.3 0 0 1 90.2,-0.1 551.2,551.2 0 0 1 45,77.8 560,560 0 0 1 -20.7,39.9 z m 32.3,-13 c 5.4,13.4 10,26.8 13.8,39.8 a 448.8,448.8 0 0 1 -41.2,8 552.4,552.4 0 0 0 27.4,-47.8 z M 421.2,430 a 412.3,412.3 0 0 1 -27.8,-32 619,619 0 0 0 55.3,0 c -9,11.7 -18.3,22.4 -27.5,32 z m -74.4,-58.9 a 451.2,451.2 0 0 1 -41,-7.9 c 3.7,-12.9 8.3,-26.2 13.5,-39.5 a 473.3,473.3 0 0 0 27.5,47.4 z M 420.7,163 c 9.3,9.6 18.6,20.3 27.8,32 a 619,619 0 0 0 -55.3,0 c 9,-11.7 18.3,-22.4 27.5,-32 z m -74,58.9 a 552.4,552.4 0 0 0 -27.4,47.7 c -5.4,-13.4 -10,-26.8 -13.8,-39.8 13.1,-3.1 26.9,-5.8 41.2,-7.9 z m -90.5,125.2 c -35.4,-15.1 -58.3,-34.9 -58.3,-50.6 0,-15.7 22.9,-35.6 58.3,-50.6 8.6,-3.7 18,-7 27.7,-10.1 5.7,19.6 13.2,40 22.5,60.9 a 473.5,473.5 0 0 0 -22.2,60.6 c -9.9,-3.1 -19.3,-6.5 -28,-10.2 z M 310,490 c -13.6,-7.8 -19.5,-37.5 -14.9,-75.7 1.1,-9.4 2.9,-19.3 5.1,-29.4 19.6,4.8 41,8.5 63.5,10.9 a 487.8,487.8 0 0 0 41.6,50 c -32.6,30.3 -63.2,46.9 -84,46.9 -4.5,-0.1 -8.3,-1 -11.3,-2.7 z m 237.2,-76.2 c 4.7,38.2 -1.1,67.9 -14.6,75.8 -3,1.8 -6.9,2.6 -11.5,2.6 -20.7,0 -51.4,-16.5 -84,-46.6 14,-14.7 28,-31.4 41.3,-49.9 a 467,467 0 0 0 63.6,-11 280,280 0 0 1 5.2,29.1 z m 38.5,-66.7 c -8.6,3.7 -18,7 -27.7,10.1 -5.7,-19.6 -13.2,-40 -22.5,-60.9 a 473.5,473.5 0 0 0 22.2,-60.6 c 9.9,3.1 19.3,6.5 28.1,10.2 35.4,15.1 58.3,34.9 58.3,50.6 -0.1,15.7 -23,35.6 -58.4,50.6 z M 320.8,78.4 Z"
         id="path833"
         style="fill:#333333" />
      <circle
         cx="420.89999"
         cy="296.5"
         r="45.700001"
         id="circle835"
         style="fill:#333333" />
    </g>
  </g>
</svg>
