<?xml version="1.0" encoding="UTF-8" standalone="no"?>
<svg
   class="icon"
   width="200"
   height="200"
   viewBox="0 0 200 200"
   version="1.1"
   id="svg16"
   sodipodi:docname="ablogo.svg"
   inkscape:version="1.3.2 (091e20e, 2023-11-25)"
   inkscape:export-filename="acelogo4.png"
   inkscape:export-xdpi="300"
   inkscape:export-ydpi="300"
   xmlns:inkscape="http://www.inkscape.org/namespaces/inkscape"
   xmlns:sodipodi="http://sodipodi.sourceforge.net/DTD/sodipodi-0.dtd"
   xmlns="http://www.w3.org/2000/svg"
   xmlns:svg="http://www.w3.org/2000/svg"
   xmlns:rdf="http://www.w3.org/1999/02/22-rdf-syntax-ns#"
   xmlns:cc="http://creativecommons.org/ns#"
   xmlns:dc="http://purl.org/dc/elements/1.1/">
  <metadata
     id="metadata22">
    <rdf:RDF>
      <cc:Work
         rdf:about="">
        <dc:format>image/svg+xml</dc:format>
        <dc:type
           rdf:resource="http://purl.org/dc/dcmitype/StillImage" />
      </cc:Work>
    </rdf:RDF>
  </metadata>
  <defs
     id="defs20" />
  <sodipodi:namedview
     pagecolor="#ffffff"
     bordercolor="#666666"
     borderopacity="1"
     objecttolerance="10"
     gridtolerance="10"
     guidetolerance="10"
     inkscape:pageopacity="0"
     inkscape:pageshadow="2"
     inkscape:window-width="1728"
     inkscape:window-height="1051"
     id="namedview18"
     showgrid="true"
     inkscape:zoom="3.7463453"
     inkscape:cx="53.251899"
     inkscape:cy="84.081945"
     inkscape:window-x="0"
     inkscape:window-y="38"
     inkscape:window-maximized="0"
     inkscape:current-layer="svg16"
     inkscape:document-rotation="0"
     inkscape:showpageshadow="2"
     inkscape:pagecheckerboard="0"
     inkscape:deskcolor="#d1d1d1"
     inkscape:export-bgcolor="#ffffffff">
    <inkscape:grid
       type="xygrid"
       id="grid2131"
       originx="0"
       originy="0"
       spacingy="1"
       spacingx="1"
       units="px"
       visible="true" />
  </sodipodi:namedview>
  <path
     style="fill:none;stroke:#333333;stroke-width:5;stroke-linecap:round;stroke-linejoin:round;stroke-dasharray:none;stroke-opacity:1"
     id="path4-2"
     sodipodi:type="arc"
     sodipodi:cx="269.98801"
     sodipodi:cy="99.994247"
     sodipodi:rx="20"
     sodipodi:ry="20"
     sodipodi:start="0.031324581"
     sodipodi:end="4.712389"
     sodipodi:arc-type="arc"
     d="M 289.9782,100.62064 A 20,20 0 0 1 269.57038,119.98989 20,20 0 0 1 249.9891,99.78542 20,20 0 0 1 269.98801,79.994247"
     sodipodi:open="true" />
  <path
     style="fill:none;stroke:#333333;stroke-width:5;stroke-linecap:round;stroke-linejoin:round;stroke-dasharray:none;stroke-opacity:1"
     id="path4-6-4"
     sodipodi:type="arc"
     sodipodi:cx="319.98801"
     sodipodi:cy="99.994247"
     sodipodi:rx="20"
     sodipodi:ry="20"
     sodipodi:start="3.1791802"
     sodipodi:end="1.5707963"
     sodipodi:arc-type="arc"
     d="m 300.00213,99.242674 a 20,20 0 0 1 20.48699,-19.242148 20,20 0 0 1 19.49732,20.244294 20,20 0 0 1 -19.99843,19.74943"
     sodipodi:open="true" />
  <path
     style="fill:none;stroke:#333333;stroke-width:5;stroke-linecap:round;stroke-linejoin:round;stroke-dasharray:none;stroke-opacity:1"
     id="path5-0"
     sodipodi:type="arc"
     sodipodi:cx="269.98801"
     sodipodi:cy="99.994247"
     sodipodi:rx="40"
     sodipodi:ry="40"
     sodipodi:start="0.53158616"
     sodipodi:end="4.8344965"
     sodipodi:open="true"
     sodipodi:arc-type="arc"
     d="M 304.46817,120.2703 A 40,40 0 0 1 254.59224,136.91267 40,40 0 0 1 231.31805,89.765138 40,40 0 0 1 274.86018,60.292082" />
  <path
     style="fill:none;stroke:#333333;stroke-width:5;stroke-linecap:round;stroke-linejoin:round;stroke-dasharray:none;stroke-opacity:1"
     id="path5-9-4"
     sodipodi:type="arc"
     sodipodi:cx="319.98801"
     sodipodi:cy="99.994247"
     sodipodi:rx="40"
     sodipodi:ry="40"
     sodipodi:start="3.6677407"
     sodipodi:end="1.6648006"
     sodipodi:open="true"
     sodipodi:arc-type="arc"
     d="m 285.39809,79.906003 a 40,40 0 0 1 49.50471,-17.0271 40,40 0 0 1 23.95717,46.547757 40,40 0 0 1 -42.6266,30.39098" />
  <path
     style="fill:none;stroke:#333333;stroke-width:5;stroke-linecap:round;stroke-linejoin:round;stroke-dasharray:none;stroke-opacity:1"
     id="path6-3"
     sodipodi:type="arc"
     sodipodi:cx="319.98801"
     sodipodi:cy="99.994247"
     sodipodi:rx="60"
     sodipodi:ry="60"
     sodipodi:start="3.8646292"
     sodipodi:end="1.4877555"
     sodipodi:arc-type="arc"
     d="m 275.00001,60.294376 a 60,60 0 0 1 71.32038,-14.213074 60,60 0 0 1 32.63659,64.988168 60,60 0 0 1 -53.99225,48.71802"
     sodipodi:open="true" />
  <path
     style="fill:none;stroke:#333333;stroke-width:5;stroke-linecap:round;stroke-linejoin:round;stroke-dasharray:none;stroke-opacity:1"
     id="path6-9-1"
     sodipodi:type="arc"
     sodipodi:cx="-269.98801"
     sodipodi:cy="99.994247"
     sodipodi:rx="60"
     sodipodi:ry="60"
     sodipodi:start="4.7347999"
     sodipodi:end="2.4117248"
     sodipodi:arc-type="arc"
     d="m -268.64346,40.009314 a 60,60 0 0 1 57.09795,46.402771 60,60 0 0 1 -30.78322,66.826545 60,60 0 0 1 -72.37503,-13.23811"
     transform="scale(-1,1)"
     sodipodi:open="true" />
  <path
     style="fill:none;stroke:#333333;stroke-width:5;stroke-linecap:round;stroke-linejoin:round;stroke-dasharray:none;stroke-opacity:1"
     d="m 319.98801,39.994247 h -55"
     id="path8-7"
     sodipodi:nodetypes="cc" />
  <path
     style="fill:none;stroke:#333333;stroke-width:5;stroke-linecap:round;stroke-linejoin:round;stroke-dasharray:none;stroke-opacity:1"
     d="m 269.98801,159.99425 h 55"
     id="path9-9"
     sodipodi:nodetypes="cc" />
  <path
     style="fill:none;stroke:#333333;stroke-width:5;stroke-linecap:round;stroke-linejoin:round;stroke-dasharray:none;stroke-opacity:1"
     d="m 269.98801,79.994247 15.41008,-0.0882"
     id="path10-4"
     sodipodi:nodetypes="cc" />
  <path
     style="fill:none;stroke:#333333;stroke-width:5;stroke-linecap:round;stroke-linejoin:round;stroke-dasharray:none;stroke-opacity:1"
     d="m 319.98801,119.99425 -15.51983,0.27605"
     id="path11-7"
     sodipodi:nodetypes="cc" />
  <path
     style="fill:none;stroke:#333333;stroke-width:5;stroke-linecap:round;stroke-linejoin:round;stroke-dasharray:none;stroke-opacity:1"
     d="m 269.98801,99.994247 49.71575,0.002"
     id="path12-0" />
  <path
     style="fill:none;stroke:#333333;stroke-width:5;stroke-linecap:round;stroke-linejoin:round;stroke-dasharray:none;stroke-opacity:1"
     id="path5-0-6-38"
     sodipodi:type="arc"
     sodipodi:cx="-130"
     sodipodi:cy="-285"
     sodipodi:rx="40"
     sodipodi:ry="40"
     sodipodi:start="0.74109691"
     sodipodi:end="5.0476841"
     sodipodi:arc-type="arc"
     d="m -100.49086,-257.9961 a 40,40 0 0 1 -52.28691,5.8773 40,40 0 0 1 -12.87477,-51.0167 40,40 0 0 1 48.81445,-19.63703"
     sodipodi:open="true"
     transform="scale(-1)" />
  <path
     style="fill:none;stroke:#333333;stroke-width:5;stroke-linecap:round;stroke-linejoin:round;stroke-dasharray:none;stroke-opacity:1"
     id="path5-0-6-3-0"
     sodipodi:type="arc"
     sodipodi:cx="70"
     sodipodi:cy="-285"
     sodipodi:rx="40"
     sodipodi:ry="40"
     sodipodi:start="1.2501008"
     sodipodi:end="5.5787637"
     sodipodi:arc-type="arc"
     d="m 82.609068,-247.03934 a 40,40 0 0 1 -48.651202,-20.61233 40,40 0 0 1 14.237982,-50.88307 40,40 0 0 1 52.283602,7.63101"
     transform="scale(1,-1)"
     sodipodi:open="true" />
  <path
     style="fill:none;stroke:#333333;stroke-width:5;stroke-linecap:round;stroke-linejoin:round;stroke-dasharray:none;stroke-opacity:1"
     id="path6-9-1-2-24"
     sodipodi:type="arc"
     sodipodi:cx="70"
     sodipodi:cy="-285"
     sodipodi:rx="60"
     sodipodi:ry="60"
     sodipodi:start="1.0604132"
     sodipodi:end="5.6072733"
     sodipodi:arc-type="arc"
     d="m 99.310695,-232.64656 a 60,60 0 0 1 -79.968032,-20.20015 60,60 0 0 1 15.75931,-80.96034 60,60 0 0 1 81.706227,11.27051"
     transform="scale(1,-1)"
     sodipodi:open="true" />
  <rect
     style="fill:none;stroke:#333333;stroke-width:5;stroke-linecap:round;stroke-linejoin:round;stroke-dasharray:none;stroke-opacity:1"
     id="rect12-8"
     width="30"
     height="30"
     x="-85"
     y="-300"
     transform="scale(-1)" />
  <path
     style="fill:none;stroke:#333333;stroke-width:5;stroke-linecap:round;stroke-linejoin:round;stroke-dasharray:none;stroke-opacity:1"
     id="path6-9-1-2-7-39"
     sodipodi:type="arc"
     sodipodi:cx="-130"
     sodipodi:cy="-285"
     sodipodi:rx="60"
     sodipodi:ry="60"
     sodipodi:start="0.67755686"
     sodipodi:end="5.2101635"
     sodipodi:arc-type="arc"
     d="m -83.253602,-247.38651 a 60,60 0 0 1 -81.492648,11.30172 60,60 0 0 1 -16.16216,-80.66948 60,60 0 0 1 79.55669,-20.96457"
     sodipodi:open="true"
     transform="scale(-1)" />
  <rect
     style="fill:none;stroke:#333333;stroke-width:5;stroke-linecap:round;stroke-linejoin:round;stroke-dasharray:none;stroke-opacity:1"
     id="rect12-9-0"
     width="30"
     height="30"
     x="114.99998"
     y="-300"
     transform="scale(1,-1)" />
  <g
     id="g14-8"
     transform="translate(-205)"
     style="stroke-width:0.5;stroke-dasharray:none">
    <path
       style="fill:none;stroke:#333333;stroke-width:0.5;stroke-linecap:round;stroke-linejoin:round;stroke-dasharray:none;stroke-opacity:1"
       id="path5-0-6-0"
       sodipodi:type="arc"
       sodipodi:cx="70"
       sodipodi:cy="100"
       sodipodi:rx="40"
       sodipodi:ry="40"
       sodipodi:start="0.72624677"
       sodipodi:end="5.0476841"
       sodipodi:arc-type="arc"
       d="M 99.906883,126.56273 A 40,40 0 0 1 47.548867,133.10508 40,40 0 0 1 34.258128,82.041199 40,40 0 0 1 83.161915,62.22747"
       sodipodi:open="true" />
    <path
       style="fill:none;stroke:#333333;stroke-width:0.5;stroke-linecap:round;stroke-linejoin:round;stroke-dasharray:none;stroke-opacity:1"
       id="path5-0-6-3-9"
       sodipodi:type="arc"
       sodipodi:cx="-130"
       sodipodi:cy="100"
       sodipodi:rx="40"
       sodipodi:ry="40"
       sodipodi:start="1.2501008"
       sodipodi:end="5.5627146"
       sodipodi:arc-type="arc"
       d="m -117.39093,137.96066 a 40,40 0 0 1 -48.55788,-20.41976 40,40 0 0 1 13.78711,-50.840436 40,40 0 0 1 52.221511,6.909997"
       sodipodi:open="true"
       transform="scale(-1,1)" />
    <path
       style="fill:none;stroke:#333333;stroke-width:0.5;stroke-linecap:round;stroke-linejoin:round;stroke-dasharray:none;stroke-opacity:1"
       id="path6-9-1-2-2"
       sodipodi:type="arc"
       sodipodi:cx="-130"
       sodipodi:cy="100"
       sodipodi:rx="60"
       sodipodi:ry="60"
       sodipodi:start="1.6444945"
       sodipodi:end="6.0265879"
       sodipodi:arc-type="arc"
       d="m -134.41789,159.83713 a 60,60 0 0 1 -55.54236,-57.65359 60,60 0 0 1 51.20172,-61.540833 60,60 0 0 1 66.794077,44.129843"
       transform="scale(-1,1)"
       sodipodi:open="true" />
    <rect
       style="fill:none;stroke:#333333;stroke-width:0.5;stroke-linecap:round;stroke-linejoin:round;stroke-dasharray:none;stroke-opacity:1"
       id="rect12-4"
       width="30"
       height="30"
       x="115"
       y="85" />
    <path
       style="fill:none;stroke:#333333;stroke-width:0.5;stroke-linecap:round;stroke-linejoin:round;stroke-dasharray:none;stroke-opacity:1"
       id="path6-9-1-2-7-3"
       sodipodi:type="arc"
       sodipodi:cx="70"
       sodipodi:cy="100"
       sodipodi:rx="60"
       sodipodi:ry="60"
       sodipodi:start="0.25296337"
       sodipodi:end="4.7070781"
       sodipodi:arc-type="arc"
       d="M 128.0905,115.01645 A 60,60 0 0 1 60.034086,159.16655 60,60 0 0 1 10.195658,95.158437 60,60 0 0 1 69.681349,40.000846"
       sodipodi:open="true" />
    <rect
       style="fill:none;stroke:#333333;stroke-width:0.5;stroke-linecap:round;stroke-linejoin:round;stroke-dasharray:none;stroke-opacity:1"
       id="rect12-9-3"
       width="30"
       height="30"
       x="-85.000015"
       y="85"
       transform="scale(-1,1)" />
    <path
       style="fill:none;stroke:#333333;stroke-width:0.5;stroke-linecap:round;stroke-linejoin:round;stroke-dasharray:none;stroke-opacity:1"
       d="m 100,75 v 50.1724"
       id="path12-9"
       sodipodi:nodetypes="cc" />
    <path
       style="fill:none;stroke:#333333;stroke-width:0.5;stroke-linecap:round;stroke-linejoin:round;stroke-dasharray:none;stroke-opacity:1"
       d="M 69.681349,40.000846 135,40"
       id="path13-0" />
    <path
       style="fill:none;stroke:#333333;stroke-width:0.5;stroke-linecap:round;stroke-linejoin:round;stroke-dasharray:none;stroke-opacity:1"
       d="M 135,160 H 70"
       id="path14-5" />
  </g>
  <path
     style="fill:none;stroke:#333333;stroke-width:5;stroke-linecap:round;stroke-linejoin:round;stroke-dasharray:none;stroke-opacity:1"
     id="path6-9-1-2-2-9"
     sodipodi:type="arc"
     sodipodi:cx="-129.50636"
     sodipodi:cy="-72.502693"
     sodipodi:rx="60"
     sodipodi:ry="60"
     sodipodi:start="1.0458529"
     sodipodi:end="6.008767"
     sodipodi:arc-type="arc"
     d="m -99.43652,-20.581555 a 60,60 0 0 1 -69.44245,-6.646441 60,60 0 0 1 -16.21912,-67.848127 60,60 0 0 1 58.92897,-37.333687 60,60 0 0 1 54.417737,43.647894"
     transform="scale(-1,1)"
     sodipodi:open="true" />
  <path
     style="fill:none;stroke:#333333;stroke-width:5;stroke-linecap:round;stroke-linejoin:round;stroke-dasharray:none;stroke-opacity:1"
     id="path6-9-1-2-7-3-1"
     sodipodi:type="arc"
     sodipodi:cx="69.506363"
     sodipodi:cy="-72.502693"
     sodipodi:rx="60"
     sodipodi:ry="60"
     sodipodi:start="0.25933552"
     sodipodi:end="5.2105739"
     sodipodi:arc-type="arc"
     d="m 127.5,-57.116392 a 60,60 0 0 1 -53.578559,44.451037 60,60 0 0 1 -59.522425,-36.105918 60,60 0 0 1 14.666705,-68.054717 60,60 0 0 1 69.110554,-8.38378"
     sodipodi:open="true" />
  <circle
     style="fill:none;stroke:#333333;stroke-width:5;stroke-linecap:round;stroke-linejoin:round"
     id="path1-7-4"
     cx="69.253891"
     cy="-72.758308"
     r="15" />
  <circle
     style="fill:none;stroke:#333333;stroke-width:5;stroke-linecap:round;stroke-linejoin:round"
     id="path1-7-4-4"
     cx="129.25389"
     cy="-72.758308"
     r="15" />
  <path
     style="fill:none;stroke:#333333;stroke-width:5;stroke-linecap:round;stroke-linejoin:round;stroke-dasharray:none;stroke-opacity:1"
     id="path5-0-6-9"
     sodipodi:type="arc"
     sodipodi:cx="-130.6893"
     sodipodi:cy="-427.35345"
     sodipodi:rx="40"
     sodipodi:ry="40"
     sodipodi:start="0.74109691"
     sodipodi:end="5.0476841"
     sodipodi:arc-type="arc"
     d="m -101.18016,-400.34955 a 40,40 0 0 1 -52.28691,5.87729 40,40 0 0 1 -12.87477,-51.0167 40,40 0 0 1 48.81445,-19.63702"
     sodipodi:open="true"
     transform="scale(-1)" />
  <path
     style="fill:none;stroke:#333333;stroke-width:5;stroke-linecap:round;stroke-linejoin:round;stroke-dasharray:none;stroke-opacity:1"
     id="path5-0-6-3-8"
     sodipodi:type="arc"
     sodipodi:cx="70.689308"
     sodipodi:cy="-427.35345"
     sodipodi:rx="40"
     sodipodi:ry="40"
     sodipodi:start="1.2501008"
     sodipodi:end="5.5787637"
     sodipodi:arc-type="arc"
     d="m 83.298376,-389.3928 a 40,40 0 0 1 -48.651201,-20.61232 40,40 0 0 1 14.237981,-50.88308 40,40 0 0 1 52.283604,7.63102"
     transform="scale(1,-1)"
     sodipodi:open="true" />
  <path
     style="fill:none;stroke:#333333;stroke-width:5;stroke-linecap:round;stroke-linejoin:round;stroke-dasharray:none;stroke-opacity:1"
     id="path6-9-1-2-6"
     sodipodi:type="arc"
     sodipodi:cx="70.689308"
     sodipodi:cy="-427.35345"
     sodipodi:rx="60"
     sodipodi:ry="60"
     sodipodi:start="1.0604132"
     sodipodi:end="5.6072733"
     sodipodi:arc-type="arc"
     d="m 100,-375.00001 a 60,60 0 0 1 -79.968029,-20.20015 60,60 0 0 1 15.75931,-80.96034 60,60 0 0 1 81.706229,11.2705"
     transform="scale(1,-1)"
     sodipodi:open="true" />
  <path
     style="fill:none;stroke:#333333;stroke-width:5;stroke-linecap:round;stroke-linejoin:round;stroke-dasharray:none;stroke-opacity:1"
     id="path6-9-1-2-7-5"
     sodipodi:type="arc"
     sodipodi:cx="-130.6893"
     sodipodi:cy="-427.35345"
     sodipodi:rx="60"
     sodipodi:ry="60"
     sodipodi:start="0.67755686"
     sodipodi:end="5.2101635"
     sodipodi:arc-type="arc"
     d="m -83.942903,-389.73997 a 60,60 0 0 1 -81.492647,11.30173 60,60 0 0 1 -16.16216,-80.66948 60,60 0 0 1 79.55669,-20.96457"
     sodipodi:open="true"
     transform="scale(-1)" />
  <circle
     style="fill:none;stroke:#333333;stroke-width:5;stroke-linecap:round;stroke-linejoin:round"
     id="path1-7"
     cx="70.687332"
     cy="427.34888"
     r="20" />
  <circle
     style="fill:none;stroke:#333333;stroke-width:5;stroke-linecap:round;stroke-linejoin:round"
     id="path1-9-6"
     cx="130.68733"
     cy="427.34888"
     r="20" />
  <g
     id="g1"
     transform="rotate(135,100.00173,100.00419)">
    <path
       style="fill:none;stroke:#333333;stroke-width:10;stroke-linecap:round;stroke-linejoin:round;stroke-dasharray:none;stroke-opacity:1"
       id="path5-0-6-0-3"
       sodipodi:type="arc"
       sodipodi:cx="70.001846"
       sodipodi:cy="100.00372"
       sodipodi:rx="37.5"
       sodipodi:ry="37.5"
       sodipodi:start="0.55194301"
       sodipodi:end="4.9719441"
       sodipodi:arc-type="arc"
       d="M 101.93337,119.66657 A 37.5,37.5 0 0 1 53.539515,133.69707 37.5,37.5 0 0 1 34.866475,86.898163 37.5,37.5 0 0 1 79.626244,63.759814"
       sodipodi:open="true" />
    <path
       style="fill:none;stroke:#333333;stroke-width:10;stroke-linecap:round;stroke-linejoin:round;stroke-dasharray:none;stroke-opacity:1"
       id="path5-0-6-3-9-9"
       sodipodi:type="arc"
       sodipodi:cx="-130.00185"
       sodipodi:cy="100.00372"
       sodipodi:rx="37.5"
       sodipodi:ry="37.5"
       sodipodi:start="1.331696"
       sodipodi:end="5.7325126"
       sodipodi:arc-type="arc"
       d="M -121.12077,136.4369 A 37.5,37.5 0 0 1 -165.318,112.614 37.5,37.5 0 0 1 -146.20543,66.185181 37.5,37.5 0 0 1 -98.04537,80.38145"
       transform="scale(-1,1)"
       sodipodi:open="true" />
    <path
       style="fill:none;stroke:#333333;stroke-width:10;stroke-linecap:round;stroke-linejoin:round;stroke-dasharray:none;stroke-opacity:1"
       id="path6-9-1-2-2-97"
       sodipodi:type="arc"
       sodipodi:cx="-130.00185"
       sodipodi:cy="100.00372"
       sodipodi:rx="60"
       sodipodi:ry="60"
       sodipodi:start="1.6444945"
       sodipodi:end="6.0265879"
       sodipodi:arc-type="arc"
       d="m -134.41973,159.84085 a 60,60 0 0 1 -55.54237,-57.65359 60,60 0 0 1 51.20173,-61.54083 60,60 0 0 1 66.794071,44.129843"
       transform="scale(-1,1)"
       sodipodi:open="true" />
    <rect
       style="fill:none;stroke:#333333;stroke-width:10;stroke-linecap:round;stroke-linejoin:round;stroke-dasharray:none;stroke-opacity:1"
       id="rect12-4-0"
       width="30"
       height="30"
       x="115.00185"
       y="85.003716"
       ry="10"
       rx="10" />
    <path
       style="fill:none;stroke:#333333;stroke-width:10;stroke-linecap:round;stroke-linejoin:round;stroke-dasharray:none;stroke-opacity:1"
       id="path6-9-1-2-7-3-3"
       sodipodi:type="arc"
       sodipodi:cx="70.001846"
       sodipodi:cy="100.00372"
       sodipodi:rx="60"
       sodipodi:ry="60"
       sodipodi:start="0.25296337"
       sodipodi:end="4.7070781"
       sodipodi:arc-type="arc"
       d="M 128.09235,115.02017 A 60,60 0 0 1 60.035932,159.17027 60,60 0 0 1 10.197505,95.162161 60,60 0 0 1 69.683195,40.004569"
       sodipodi:open="true" />
    <rect
       style="fill:none;stroke:#333333;stroke-width:10;stroke-linecap:round;stroke-linejoin:round;stroke-dasharray:none;stroke-opacity:1"
       id="rect12-9-3-9"
       width="30"
       height="30"
       x="-85.001862"
       y="85.003716"
       transform="scale(-1,1)"
       ry="10"
       rx="10" />
    <path
       style="fill:none;stroke:#333333;stroke-width:10;stroke-linecap:round;stroke-linejoin:round;stroke-dasharray:none;stroke-opacity:1"
       d="m 69.683193,40.004564 65.318647,-8.46e-4"
       id="path13-0-6" />
    <path
       style="fill:none;stroke:#333333;stroke-width:10;stroke-linecap:round;stroke-linejoin:round;stroke-dasharray:none;stroke-opacity:1"
       d="M 135.00184,160.00372 H 70.001844"
       id="path14-5-5" />
  </g>
  <g
     id="g2"
     transform="translate(-215.00185,-145.00372)">
    <path
       style="fill:none;stroke:#333333;stroke-width:10;stroke-linecap:round;stroke-linejoin:round;stroke-dasharray:none;stroke-opacity:1"
       id="path5-0-6-0-3-8"
       sodipodi:type="arc"
       sodipodi:cx="70.001846"
       sodipodi:cy="100.00372"
       sodipodi:rx="37.5"
       sodipodi:ry="37.5"
       sodipodi:start="0.55194301"
       sodipodi:end="4.9719441"
       sodipodi:arc-type="arc"
       d="M 101.93337,119.66657 A 37.5,37.5 0 0 1 53.539515,133.69707 37.5,37.5 0 0 1 34.866475,86.898163 37.5,37.5 0 0 1 79.626244,63.759814"
       sodipodi:open="true" />
    <path
       style="fill:none;stroke:#333333;stroke-width:10;stroke-linecap:round;stroke-linejoin:round;stroke-dasharray:none;stroke-opacity:1"
       id="path5-0-6-3-9-9-5"
       sodipodi:type="arc"
       sodipodi:cx="-130.00185"
       sodipodi:cy="100.00372"
       sodipodi:rx="37.5"
       sodipodi:ry="37.5"
       sodipodi:start="1.331696"
       sodipodi:end="5.7325126"
       sodipodi:arc-type="arc"
       d="M -121.12077,136.4369 A 37.5,37.5 0 0 1 -165.318,112.614 37.5,37.5 0 0 1 -146.20543,66.185181 37.5,37.5 0 0 1 -98.04537,80.38145"
       transform="scale(-1,1)"
       sodipodi:open="true" />
    <path
       style="fill:none;stroke:#333333;stroke-width:10;stroke-linecap:round;stroke-linejoin:round;stroke-dasharray:none;stroke-opacity:1"
       id="path6-9-1-2-2-97-8"
       sodipodi:type="arc"
       sodipodi:cx="-130.00185"
       sodipodi:cy="100.00372"
       sodipodi:rx="60"
       sodipodi:ry="60"
       sodipodi:start="1.6444945"
       sodipodi:end="6.0265879"
       sodipodi:arc-type="arc"
       d="m -134.41973,159.84085 a 60,60 0 0 1 -55.54237,-57.65359 60,60 0 0 1 51.20173,-61.54083 60,60 0 0 1 66.794071,44.129843"
       transform="scale(-1,1)"
       sodipodi:open="true" />
    <rect
       style="fill:none;stroke:#333333;stroke-width:10;stroke-linecap:round;stroke-linejoin:round;stroke-dasharray:none;stroke-opacity:1"
       id="rect12-4-0-3"
       width="30"
       height="30"
       x="115.00185"
       y="85.003716"
       ry="10"
       rx="10" />
    <path
       style="fill:none;stroke:#333333;stroke-width:10;stroke-linecap:round;stroke-linejoin:round;stroke-dasharray:none;stroke-opacity:1"
       id="path6-9-1-2-7-3-3-0"
       sodipodi:type="arc"
       sodipodi:cx="70.001846"
       sodipodi:cy="100.00372"
       sodipodi:rx="60"
       sodipodi:ry="60"
       sodipodi:start="0.25296337"
       sodipodi:end="4.7070781"
       sodipodi:arc-type="arc"
       d="M 128.09235,115.02017 A 60,60 0 0 1 60.035932,159.17027 60,60 0 0 1 10.197505,95.162161 60,60 0 0 1 69.683195,40.004569"
       sodipodi:open="true" />
    <rect
       style="fill:none;stroke:#333333;stroke-width:10;stroke-linecap:round;stroke-linejoin:round;stroke-dasharray:none;stroke-opacity:1"
       id="rect12-9-3-9-6"
       width="30"
       height="30"
       x="-85.001862"
       y="85.003716"
       transform="scale(-1,1)"
       ry="10"
       rx="10" />
    <path
       style="fill:none;stroke:#333333;stroke-width:10;stroke-linecap:round;stroke-linejoin:round;stroke-dasharray:none;stroke-opacity:1"
       d="m 69.683193,40.004564 65.318647,-8.46e-4"
       id="path13-0-6-2" />
    <path
       style="fill:none;stroke:#333333;stroke-width:10;stroke-linecap:round;stroke-linejoin:round;stroke-dasharray:none;stroke-opacity:1"
       d="M 135.00184,160.00372 H 70.001844"
       id="path14-5-5-2" />
  </g>
</svg>
