<?xml version="1.0" encoding="UTF-8" standalone="no"?>
<svg
   xmlns:dc="http://purl.org/dc/elements/1.1/"
   xmlns:cc="http://creativecommons.org/ns#"
   xmlns:rdf="http://www.w3.org/1999/02/22-rdf-syntax-ns#"
   xmlns:svg="http://www.w3.org/2000/svg"
   xmlns="http://www.w3.org/2000/svg"
   xmlns:sodipodi="http://sodipodi.sourceforge.net/DTD/sodipodi-0.dtd"
   xmlns:inkscape="http://www.inkscape.org/namespaces/inkscape"
   width="200"
   height="200"
   viewBox="0 0 52.916666 52.916666"
   version="1.1"
   id="svg8"
   inkscape:version="1.0.1 (c497b03c, 2020-09-10)"
   sodipodi:docname="activity.svg">
  <defs
     id="defs2" />
  <sodipodi:namedview
     id="base"
     pagecolor="#ffffff"
     bordercolor="#666666"
     borderopacity="1.0"
     inkscape:pageopacity="0.0"
     inkscape:pageshadow="2"
     inkscape:zoom="4"
     inkscape:cx="95.287637"
     inkscape:cy="99.681047"
     inkscape:document-units="px"
     inkscape:current-layer="layer1"
     inkscape:document-rotation="0"
     showgrid="true"
     units="px"
     inkscape:window-width="1792"
     inkscape:window-height="1075"
     inkscape:window-x="0"
     inkscape:window-y="23"
     inkscape:window-maximized="1">
    <inkscape:grid
       type="xygrid"
       id="grid833" />
  </sodipodi:namedview>
  <metadata
     id="metadata5">
    <rdf:RDF>
      <cc:Work
         rdf:about="">
        <dc:format>image/svg+xml</dc:format>
        <dc:type
           rdf:resource="http://purl.org/dc/dcmitype/StillImage" />
        <dc:title></dc:title>
      </cc:Work>
    </rdf:RDF>
  </metadata>
  <g
     inkscape:label="图层 1"
     inkscape:groupmode="layer"
     id="layer1">
    <path
       id="rect884"
       style="fill:#1a1a1a;fill-opacity:1;fill-rule:evenodd;stroke:none;stroke-width:9.99999;stroke-opacity:0.7;paint-order:markers fill stroke"
       d="M 40 20 C 28.92 20 20 28.92 20 40 L 20 160 C 20 171.08 28.92 180 40 180 L 160 180 C 171.08 180 180 171.08 180 160 L 180 40 C 180 28.92 171.08 20 160 20 L 40 20 z M 94.898438 40.001953 A 5.0004934 5.0004934 0 0 1 95.085938 40.001953 A 5.0004934 5.0004934 0 0 1 99.980469 44.548828 L 105.78906 108.41016 L 110.04102 74.380859 A 5.0004934 5.0004934 0 0 1 119.9043 74.017578 L 126.21484 105.54688 L 130.25391 93.417969 A 5.0004934 5.0004934 0 0 1 138.53516 91.460938 L 147.07031 100.00195 L 165 100.00195 A 4.9999938 4.9999938 0 0 1 169.99805 105 A 4.9999938 4.9999938 0 0 1 165 109.99805 L 145.00195 109.99805 A 5.0004934 5.0004934 0 0 1 141.4668 108.53516 L 137.18555 104.25391 L 129.74414 126.58398 A 5.0004934 5.0004934 0 0 1 120.0957 125.97852 L 116.13867 106.20312 L 109.96094 155.61719 A 5.0004934 5.0004934 0 0 1 100.01758 155.45508 L 94.214844 91.587891 L 89.962891 125.61719 A 5.0004934 5.0004934 0 0 1 80.115234 126.08203 L 74.394531 100.32031 L 69.810547 116.375 A 5.0004934 5.0004934 0 0 1 61.460938 118.53906 L 52.927734 109.99805 L 34.998047 109.99805 A 4.9999938 4.9999938 0 0 1 30 105 A 4.9999938 4.9999938 0 0 1 34.998047 100.00195 L 55.001953 100.00195 A 5.0004934 5.0004934 0 0 1 58.539062 101.46484 L 62.525391 105.45703 L 70.195312 78.625 A 5.0004934 5.0004934 0 0 1 79.878906 78.912109 L 83.621094 95.742188 L 90.037109 44.380859 A 5.0004934 5.0004934 0 0 1 94.898438 40.001953 z "
       transform="scale(0.26458333)" />
  </g>
</svg>
