<svg width="48" height="48" viewBox="0 0 48 48" fill="none" xmlns="http://www.w3.org/2000/svg">
<path fill-rule="evenodd" clip-rule="evenodd" d="M22.4619 3.47465C23.4464 3.06452 24.5536 3.06452 25.5381 3.47465L41.5381 10.1407C43.0286 10.7617 43.9999 12.2184 44 13.833V35.6319C44 37.2815 42.9876 38.7624 41.4502 39.3604L25.4502 45.5821C24.5177 45.9447 23.4823 45.9447 22.5498 45.5821L6.5498 39.3604C5.01244 38.7624 4.00001 37.2815 4 35.6319V13.833C4.00013 12.2184 4.97143 10.7617 6.46191 10.1407L22.4619 3.47465ZM41 15.5088C40.9998 13.4282 38.9434 12.0008 37.0166 12.6748L36.8311 12.7461L24 18.1768L11.1689 12.7461L10.9834 12.6748C9.05659 12.0008 7.00023 13.4282 7 15.5088V35C7.00001 36.1046 7.89544 37 9 37C10.1046 37 11 36.1046 11 35V17.0176L24 22.5205L37 17.0176V35C37 36.1046 37.8954 37 39 37C40.1046 37 41 36.1046 41 35V15.5088Z" fill="black"/>
</svg>
