<svg width="36" height="36" viewBox="0 0 36 36" fill="none" xmlns="http://www.w3.org/2000/svg">
<path d="M6.66594 32C5.95703 32.0027 5.27823 31.721 4.78007 31.2178C3.73998 30.173 3.73998 28.4856 4.78007 27.4408L10.892 21.32C10.2296 20.2369 9.75613 19.0527 9.48789 17.8137C8.95142 15.3441 9.24155 12.7677 10.32 10.484C13.0297 4.80898 19.8314 2.40495 25.5109 5.11256C31.1904 7.82017 33.5963 14.6166 30.8866 20.2916C30.3282 21.4594 29.5755 22.5233 28.6613 23.4368C26.5318 25.581 23.6332 26.7844 20.6087 26.7762C19.5577 26.7762 18.5121 26.634 17.5021 26.3495C16.5031 26.0678 15.5478 25.6494 14.6638 25.1051L8.55454 31.2178C8.05365 31.721 7.37485 32.0027 6.66594 32ZM9.36472 25.3321L6.01998 28.6825C5.66416 29.0408 5.66416 29.6178 6.01998 29.9761C6.37581 30.3317 6.95333 30.3344 7.3119 29.9788L10.6594 26.6285L9.36472 25.3321ZM11.9376 22.7585L10.6074 24.0905L11.8993 25.3841L13.2295 24.0522C13.1173 23.9565 13.0105 23.8607 12.9038 23.765L12.86 23.724C12.7423 23.6118 12.6438 23.5216 12.5562 23.4313C12.4659 23.3411 12.3783 23.2508 12.2688 23.1332C12.2524 23.1141 12.2359 23.0977 12.2195 23.0785L12.2168 23.0758C12.1155 22.9664 12.0252 22.8625 11.9376 22.7613V22.7585ZM20.6087 5.72793C15.2769 5.74434 10.9659 10.0765 10.9796 15.407C10.9851 17.398 11.6064 19.3398 12.7615 20.9617C12.9065 21.1668 13.0626 21.3664 13.2213 21.5579L13.2541 21.5962C13.3308 21.6892 13.4129 21.7822 13.4978 21.8724C13.5087 21.8834 13.5196 21.897 13.5306 21.908L13.5388 21.9162C13.6346 22.0201 13.7195 22.1076 13.7988 22.1869C13.8864 22.2745 13.9767 22.3592 14.078 22.455L14.1081 22.485C14.2067 22.5753 14.3052 22.6628 14.401 22.7449L14.4119 22.7531C14.62 22.9281 14.8389 23.0977 15.0606 23.2536C15.0634 23.2563 15.0688 23.259 15.0716 23.2618L15.0798 23.2672C19.44 26.3195 25.4479 25.261 28.5026 20.9042C29.6385 19.2824 30.2488 17.3488 30.2461 15.3687C30.2598 10.0574 25.9598 5.7416 20.6443 5.72793H20.6087ZM20.6087 22.909C16.4483 22.909 13.0735 19.5368 13.0735 15.3769V15.2401C13.0817 14.7615 13.4704 14.3786 13.9494 14.3759H13.9658C14.4503 14.3841 14.8362 14.7861 14.828 15.2702C14.7897 18.4564 17.3406 21.0711 20.5294 21.1094C23.7181 21.1476 26.3348 18.5987 26.3731 15.4124C26.4032 13.0549 24.9936 10.9162 22.8121 10.0136C22.1169 9.72644 21.3724 9.57602 20.6197 9.57875C20.1735 9.57875 19.7274 9.63072 19.2922 9.73191C18.9747 9.80576 18.6654 9.90695 18.3643 10.0328C17.9154 10.2215 17.4009 10.0081 17.2147 9.56234C17.0259 9.11381 17.2394 8.59964 17.6855 8.41366C18.0769 8.24956 18.482 8.11828 18.8953 8.02256C19.4619 7.89128 20.0394 7.82291 20.6224 7.82291C21.6023 7.82291 22.574 8.01436 23.48 8.39178C27.3365 9.97806 29.1759 14.3868 27.5884 18.2376C26.4278 21.0629 23.6688 22.909 20.6087 22.909Z" fill="#333333"/>
<path d="M4.76638 28.9122L12.1506 21.8062L14.0442 23.774L6.66 30.88L4.76638 28.9122Z" fill="#333333"/>
</svg>
