<?xml version="1.0" encoding="UTF-8" standalone="no"?>
<svg
   xmlns:dc="http://purl.org/dc/elements/1.1/"
   xmlns:cc="http://creativecommons.org/ns#"
   xmlns:rdf="http://www.w3.org/1999/02/22-rdf-syntax-ns#"
   xmlns:svg="http://www.w3.org/2000/svg"
   xmlns="http://www.w3.org/2000/svg"
   xmlns:sodipodi="http://sodipodi.sourceforge.net/DTD/sodipodi-0.dtd"
   xmlns:inkscape="http://www.inkscape.org/namespaces/inkscape"
   width="200"
   height="200"
   viewBox="0 0 200 200"
   version="1.1"
   id="svg8"
   inkscape:version="1.0.1 (c497b03c, 2020-09-10)"
   sodipodi:docname="app.svg">
  <defs
     id="defs2" />
  <sodipodi:namedview
     id="base"
     pagecolor="#ffffff"
     bordercolor="#666666"
     borderopacity="1.0"
     inkscape:pageopacity="0.0"
     inkscape:pageshadow="2"
     inkscape:zoom="4"
     inkscape:cx="97.802849"
     inkscape:cy="103.27941"
     inkscape:document-units="px"
     inkscape:current-layer="layer1"
     inkscape:document-rotation="0"
     showgrid="true"
     units="px"
     inkscape:window-width="1792"
     inkscape:window-height="1075"
     inkscape:window-x="0"
     inkscape:window-y="23"
     inkscape:window-maximized="1">
    <inkscape:grid
       type="xygrid"
       id="grid833" />
  </sodipodi:namedview>
  <metadata
     id="metadata5">
    <rdf:RDF>
      <cc:Work
         rdf:about="">
        <dc:format>image/svg+xml</dc:format>
        <dc:type
           rdf:resource="http://purl.org/dc/dcmitype/StillImage" />
        <dc:title></dc:title>
      </cc:Work>
    </rdf:RDF>
  </metadata>
  <g
     inkscape:label="图层 1"
     inkscape:groupmode="layer"
     id="layer1">
    <path
       style="fill:none;fill-rule:evenodd;stroke:#000000;stroke-width:10;stroke-linejoin:round;stroke-miterlimit:4;stroke-dasharray:none;stroke-opacity:1;paint-order:markers fill stroke"
       id="path862"
       cx="100"
       cy="120"
       r="35" />
    <path
       id="rect859"
       style="fill:#333333;fill-rule:evenodd;stroke:none;stroke-width:10.0006;stroke-linejoin:round;stroke-miterlimit:4;stroke-dasharray:none;paint-order:markers fill stroke"
       d="m 20,134.99973 c -5.54,0 -10,4.46 -10,10 0,5.54 4.46,10 10,10 h 120.625 l -11.54688,-20 z m 132.17383,0 11.54687,20 H 180 c 5.54,0 10,-4.46 10,-10 0,-5.54 -4.46,-10 -10,-10 z" />
    <path
       id="rect859-2"
       style="fill:#333333;fill-rule:evenodd;stroke:none;stroke-width:10.0006;stroke-linejoin:round;stroke-miterlimit:4;stroke-dasharray:none;paint-order:markers fill stroke"
       d="m 84.744141,20.003631 c -1.611272,0.04352 -3.237022,0.478125 -4.736329,1.34375 -4.79778,2.77 -6.430156,8.862376 -3.660156,13.660156 L 90.960938,60.318084 102.50781,40.316131 93.669922,25.007537 C 91.765547,21.709063 88.288938,19.907882 84.744141,20.003631 Z M 114.05664,60.318084 102.50781,80.320037 156.34766,173.572 c 2.77,4.79778 8.86237,6.43015 13.66015,3.66015 4.79778,-2.77 6.43211,-8.86237 3.66211,-13.66015 z" />
    <path
       id="rect859-5"
       style="fill:#333333;fill-rule:evenodd;stroke:none;stroke-width:10.0006;stroke-linejoin:round;stroke-miterlimit:4;stroke-dasharray:none;paint-order:markers fill stroke"
       d="m 115.27148,20.003631 c -3.54479,-0.09575 -7.01945,1.705432 -8.92382,5.003906 L 44.980469,131.30051 H 68.076172 L 123.66992,35.007537 c 2.77,-4.79778 1.13567,-10.890156 -3.66211,-13.660156 -1.4993,-0.865625 -3.12505,-1.300228 -4.73633,-1.34375 z M 33.431641,151.30051 26.347656,163.572 c -2.77,4.79778 -1.137624,10.89015 3.660156,13.66015 4.797781,2.77 10.89211,1.13763 13.66211,-3.66015 l 12.859375,-22.27149 z" />
  </g>
</svg>
