<?xml version="1.0" encoding="UTF-8" standalone="no"?>
<svg
   xmlns:dc="http://purl.org/dc/elements/1.1/"
   xmlns:cc="http://creativecommons.org/ns#"
   xmlns:rdf="http://www.w3.org/1999/02/22-rdf-syntax-ns#"
   xmlns:svg="http://www.w3.org/2000/svg"
   xmlns="http://www.w3.org/2000/svg"
   xmlns:sodipodi="http://sodipodi.sourceforge.net/DTD/sodipodi-0.dtd"
   xmlns:inkscape="http://www.inkscape.org/namespaces/inkscape"
   width="200"
   height="200"
   viewBox="0 0 200 200"
   version="1.1"
   id="svg8"
   inkscape:version="1.0.1 (c497b03c, 2020-09-10)"
   sodipodi:docname="app.svg">
  <defs
     id="defs2" />
  <sodipodi:namedview
     id="base"
     pagecolor="#ffffff"
     bordercolor="#666666"
     borderopacity="1.0"
     inkscape:pageopacity="0.0"
     inkscape:pageshadow="2"
     inkscape:zoom="4"
     inkscape:cx="97.802849"
     inkscape:cy="103.27941"
     inkscape:document-units="px"
     inkscape:current-layer="layer1"
     inkscape:document-rotation="0"
     showgrid="true"
     units="px"
     inkscape:window-width="1792"
     inkscape:window-height="1075"
     inkscape:window-x="0"
     inkscape:window-y="23"
     inkscape:window-maximized="1">
    <inkscape:grid
       type="xygrid"
       id="grid833" />
  </sodipodi:namedview>
  <metadata
     id="metadata5">
    <rdf:RDF>
      <cc:Work
         rdf:about="">
        <dc:format>image/svg+xml</dc:format>
        <dc:type
           rdf:resource="http://purl.org/dc/dcmitype/StillImage" />
        <dc:title />
      </cc:Work>
    </rdf:RDF>
  </metadata>
  <g
     inkscape:label="图层 1"
     inkscape:groupmode="layer"
     id="layer1">
    <path
       style="fill:none;fill-rule:evenodd;stroke:#000000;stroke-width:10;stroke-linejoin:round;stroke-miterlimit:4;stroke-dasharray:none;stroke-opacity:1;paint-order:markers fill stroke"
       id="path862"
       cx="100"
       cy="120"
       r="35"
       d="" />
    <path
       id="rect841"
       style="fill:#1a1a1a;fill-rule:evenodd;stroke:none;stroke-width:10;stroke-linejoin:round;paint-order:markers fill stroke"
       d="m 20,130.35218 c -5.54,0 -10,4.46 -10,10 0,5.54 4.46,10 10,10 h 109.83789 l -11.54687,-20 z m 121.38477,0 11.54687,20 H 180 c 5.54,0 10,-4.46 10,-10 0,-5.54 -4.46,-10 -10,-10 z" />
    <path
       id="rect841-8"
       style="fill:#1a1a1a;fill-rule:evenodd;stroke:none;stroke-width:10;stroke-linejoin:round;paint-order:markers fill stroke"
       d="m 82.226562,21.007812 c -1.611271,0.04352 -3.237021,0.480079 -4.736328,1.345704 -4.79778,2.77 -6.430156,8.862376 -3.660156,13.660156 L 93.451172,70 105,50 91.150391,26.013672 c -1.904375,-3.298474 -5.379031,-5.101609 -8.923829,-5.00586 z m 34.320318,48.994142 -11.54688,20 48.83008,84.576166 c 2.77,4.79778 8.86237,6.43016 13.66015,3.66016 4.79779,-2.77 6.43016,-8.86238 3.66016,-13.66016 z" />
    <path
       id="rect841-2"
       style="fill:#1a1a1a;fill-rule:evenodd;stroke:none;stroke-width:10;stroke-linejoin:round;paint-order:markers fill stroke"
       d="m 117.77148,21.006482 c -3.54479,-0.09575 -7.01945,1.707385 -8.92382,5.005859 L 45.142578,136.35218 H 68.238281 L 126.16992,36.012341 c 2.77,-4.79778 1.13567,-10.890156 -3.66211,-13.660156 -1.4993,-0.865625 -3.12505,-1.302181 -4.73633,-1.345703 z m -84.175777,135.345698 -4.748047,8.22461 c -2.77,4.79778 -1.137624,10.89016 3.660156,13.66016 4.797781,2.77 10.89211,1.13762 13.66211,-3.66016 l 10.521484,-18.22461 z" />
  </g>
</svg>
