<?xml version="1.0" encoding="UTF-8" standalone="no"?>
<svg
   xmlns:dc="http://purl.org/dc/elements/1.1/"
   xmlns:cc="http://creativecommons.org/ns#"
   xmlns:rdf="http://www.w3.org/1999/02/22-rdf-syntax-ns#"
   xmlns:svg="http://www.w3.org/2000/svg"
   xmlns="http://www.w3.org/2000/svg"
   xmlns:sodipodi="http://sodipodi.sourceforge.net/DTD/sodipodi-0.dtd"
   xmlns:inkscape="http://www.inkscape.org/namespaces/inkscape"
   width="200"
   height="200"
   viewBox="0 0 52.916666 52.916666"
   version="1.1"
   id="svg8"
   sodipodi:docname="appdata.svg"
   inkscape:version="1.0.1 (c497b03c, 2020-09-10)">
  <defs
     id="defs2">
    <rect
       x="43.297665"
       y="70.024612"
       width="96.751572"
       height="65.748306"
       id="rect865" />
    <rect
       x="79.375"
       y="81.64286"
       width="77.10714"
       height="78.619049"
       id="rect869" />
    <rect
       x="58.964287"
       y="171.6012"
       width="142.875"
       height="77.10714"
       id="rect863" />
  </defs>
  <sodipodi:namedview
     id="base"
     pagecolor="#ffffff"
     bordercolor="#666666"
     borderopacity="1.0"
     inkscape:pageopacity="0.0"
     inkscape:pageshadow="2"
     inkscape:zoom="4"
     inkscape:cx="82.05138"
     inkscape:cy="101.98997"
     inkscape:document-units="mm"
     inkscape:current-layer="layer1"
     inkscape:document-rotation="0"
     showgrid="true"
     inkscape:object-paths="true"
     inkscape:snap-nodes="false"
     inkscape:snap-page="false"
     inkscape:window-width="1792"
     inkscape:window-height="1075"
     inkscape:window-x="0"
     inkscape:window-y="23"
     inkscape:window-maximized="1"
     units="px">
    <inkscape:grid
       type="xygrid"
       id="grid861" />
  </sodipodi:namedview>
  <metadata
     id="metadata5">
    <rdf:RDF>
      <cc:Work
         rdf:about="">
        <dc:format>image/svg+xml</dc:format>
        <dc:type
           rdf:resource="http://purl.org/dc/dcmitype/StillImage" />
        <dc:title />
      </cc:Work>
    </rdf:RDF>
  </metadata>
  <g
     inkscape:label="图层 1"
     inkscape:groupmode="layer"
     id="layer1">
    <g
       aria-label="P"
       transform="matrix(0.82767326,0,0,0.75025249,-44.978439,-43.35553)"
       id="text867"
       style="font-style:normal;font-weight:normal;font-size:10.58329999999999949px;line-height:1.25;font-family:sans-serif;white-space:pre;shape-inside:url(#rect869);fill:#ffffff;fill-opacity:1;stroke:none;stroke-width:0;stroke-miterlimit:4;stroke-dasharray:none" />
    <path
       style="fill:none;stroke:#333333;stroke-width:0;stroke-linecap:round;stroke-linejoin:round;stroke-miterlimit:4;stroke-dasharray:none;stroke-opacity:1"
       d="M 5.29219,33.07344 V 46.30261 H 47.625523 V 33.07344"
       id="path9254"
       sodipodi:nodetypes="cccc" />
    <path
       style="fill:none;stroke:#333333;stroke-width:0;stroke-linecap:round;stroke-linejoin:miter;stroke-miterlimit:4;stroke-dasharray:none;stroke-opacity:1"
       d="M 9.3270857,38.36511 H 43.524481"
       id="path9271" />
    <path
       style="fill:none;stroke:#333333;stroke-width:0;stroke-linecap:round;stroke-linejoin:miter;stroke-miterlimit:4;stroke-dasharray:none;stroke-opacity:1"
       d="M 9.2609383,42.33385 H 43.458333"
       id="path9271-7" />
    <path
       style="fill:none;stroke:#333333;stroke-width:0;stroke-linecap:round;stroke-linejoin:miter;stroke-miterlimit:4;stroke-dasharray:none;stroke-opacity:1"
       d="M 9.2609383,34.39635 H 43.458334"
       id="path9271-1" />
    <circle
       style="fill:none;stroke:#333333;stroke-width:2.64583;stroke-linecap:round;stroke-linejoin:round;stroke-miterlimit:4;stroke-dasharray:none;stroke-opacity:1;paint-order:markers stroke fill"
       id="path9437"
       cx="26.458332"
       cy="26.458332"
       r="5.2916665" />
    <path
       id="path9538"
       style="color:#000000;font-style:normal;font-variant:normal;font-weight:normal;font-stretch:normal;font-size:medium;line-height:normal;font-family:sans-serif;font-variant-ligatures:normal;font-variant-position:normal;font-variant-caps:normal;font-variant-numeric:normal;font-variant-alternates:normal;font-variant-east-asian:normal;font-feature-settings:normal;font-variation-settings:normal;text-indent:0;text-align:start;text-decoration:none;text-decoration-line:none;text-decoration-style:solid;text-decoration-color:#000000;letter-spacing:normal;word-spacing:normal;text-transform:none;writing-mode:lr-tb;direction:ltr;text-orientation:mixed;dominant-baseline:auto;baseline-shift:baseline;text-anchor:start;white-space:normal;shape-padding:0;shape-margin:0;inline-size:0;clip-rule:nonzero;display:inline;overflow:visible;visibility:visible;opacity:1;isolation:auto;mix-blend-mode:normal;color-interpolation:sRGB;color-interpolation-filters:linearRGB;solid-color:#000000;solid-opacity:1;vector-effect:none;fill:#333333;fill-opacity:1;fill-rule:nonzero;stroke:#333333;stroke-width:0.3175;stroke-linecap:round;stroke-linejoin:round;stroke-miterlimit:4;stroke-dasharray:none;stroke-dashoffset:0;stroke-opacity:1;paint-order:markers stroke fill;color-rendering:auto;image-rendering:auto;shape-rendering:auto;text-rendering:auto;enable-background:accumulate;stop-color:#000000;stop-opacity:1"
       d="m 16.029841,5.2923987 c -2.669086,0.029417 -5.336638,1.0103386 -7.5822107,3.258848 -2.2576558,2.2606063 -3.1868555,4.9949683 -3.1551822,7.7201273 0.029737,2.558536 0.8516468,5.11083 2.0281031,7.523755 l 1.849999,-1.552246 c -0.9302107,-2.036498 -1.5173185,-4.09398 -1.5394585,-5.99891 -0.025628,-2.205039 0.6356319,-4.201251 2.4715363,-6.039555 1.847986,-1.8504025 3.812099,-2.5497773 5.953243,-2.5733757 2.141145,-0.023599 4.469904,0.6903424 6.762475,1.8417788 4.585142,2.3028729 8.961767,6.3139339 11.529727,8.8732369 1.637919,1.73795 3.429176,3.678298 5.077794,5.71303 L 41.226088,22.5484 c -1.719194,-2.117057 -3.5546,-4.085481 -5.20201,-5.833136 a 1.1692103,1.1692103 0 0 0 -0.0242,-0.02603 C 33.361964,14.060218 28.884016,9.9019929 23.86779,7.3826099 21.359678,6.1229183 18.698927,5.2629815 16.029841,5.2923987 Z m 28.880262,22.4822153 -1.823971,1.530324 c 0.245631,0.433701 0.479401,0.867837 0.689583,1.301072 1.050697,2.165748 1.620569,4.290059 1.493334,6.269264 -0.127234,1.979207 -0.907455,3.853809 -2.778879,5.711206 -1.83087,1.817148 -3.822299,2.469135 -6.024029,2.437284 -2.201728,-0.03185 -4.60812,-0.814463 -6.952452,-2.009379 -4.688663,-2.389831 -9.07236,-6.385512 -11.276271,-8.567718 -1.453729,-1.439416 -3.702528,-3.847077 -5.751849,-6.668401 l -1.801591,1.511602 c 2.130181,2.916846 4.413507,5.337015 5.908489,6.817276 2.284798,2.262299 6.764615,6.393513 11.859905,8.990602 2.547644,1.298545 5.261566,2.223499 7.980889,2.262835 2.719321,0.03934 5.448958,-0.874433 7.705055,-3.113624 2.215547,-2.19894 3.301625,-4.699058 3.463898,-7.223262 0.16227,-2.524204 -0.555668,-5.033078 -1.722131,-7.437443 -0.295678,-0.609467 -0.62105,-1.213624 -0.96998,-1.811638 z" />
    <path
       id="path9511"
       style="color:#000000;font-style:normal;font-variant:normal;font-weight:normal;font-stretch:normal;font-size:medium;line-height:normal;font-family:sans-serif;font-variant-ligatures:normal;font-variant-position:normal;font-variant-caps:normal;font-variant-numeric:normal;font-variant-alternates:normal;font-variant-east-asian:normal;font-feature-settings:normal;font-variation-settings:normal;text-indent:0;text-align:start;text-decoration:none;text-decoration-line:none;text-decoration-style:solid;text-decoration-color:#000000;letter-spacing:normal;word-spacing:normal;text-transform:none;writing-mode:lr-tb;direction:ltr;text-orientation:mixed;dominant-baseline:auto;baseline-shift:baseline;text-anchor:start;white-space:normal;shape-padding:0;shape-margin:0;inline-size:0;clip-rule:nonzero;display:inline;overflow:visible;visibility:visible;opacity:1;isolation:auto;mix-blend-mode:normal;color-interpolation:sRGB;color-interpolation-filters:linearRGB;solid-color:#000000;solid-opacity:1;vector-effect:none;fill:#333333;fill-opacity:1;fill-rule:nonzero;stroke:#333333;stroke-width:0.3175;stroke-linecap:round;stroke-linejoin:round;stroke-miterlimit:4;stroke-dasharray:none;stroke-dashoffset:0;stroke-opacity:1;paint-order:markers stroke fill;color-rendering:auto;image-rendering:auto;shape-rendering:auto;text-rendering:auto;enable-background:accumulate;stop-color:#000000;stop-opacity:1"
       d="m 36.421388,5.3960644 c -2.725159,0.031673 -5.445156,0.9563696 -7.995047,2.257355 -0.112043,0.057166 -0.221952,0.1190247 -0.333374,0.1776475 l 1.950011,1.6358173 c 2.167941,-1.0398132 4.372533,-1.7085658 6.403983,-1.7321763 2.205038,-0.025628 4.203077,0.6338053 6.041381,2.4697101 1.850406,1.847982 2.549776,3.813926 2.573376,5.95507 0.0236,2.141142 -0.690341,4.468075 -1.841778,6.760648 -2.299334,4.57809 -6.299721,8.946459 -8.859535,11.516026 -1.805022,1.701332 -3.829415,3.569763 -5.951418,5.272337 l 1.834016,1.539002 c 2.078809,-1.695405 4.013175,-3.498512 5.733124,-5.119806 a 1.1692103,1.1692103 0 0 0 0.0274,-0.02603 c 2.629015,-2.63791 6.785411,-7.115856 9.304796,-12.132084 1.259693,-2.508114 2.121456,-5.167037 2.092039,-7.836123 C 47.370944,13.464371 46.388657,10.796815 44.140145,8.5512467 41.879537,6.2935908 39.146547,5.3643911 36.421388,5.3960644 Z M 22.504152,11.45891 c -2.51445,1.927135 -4.594413,3.898499 -5.919905,5.237173 -2.2623,2.284798 -6.392143,6.76279 -8.9892328,11.858077 -1.2985451,2.547644 -2.2253249,5.263395 -2.2646619,7.982718 -0.039337,2.719322 0.8762608,5.447131 3.1154514,7.703229 2.1989393,2.215546 4.6976893,3.301625 7.2218923,3.463895 2.524202,0.162272 5.033077,-0.554296 7.437443,-1.720758 0.589695,-0.286087 1.174173,-0.600557 1.753184,-0.936645 l -1.916217,-1.60796 c -0.285875,0.154314 -0.571657,0.302171 -0.857183,0.440692 -2.165748,1.0507 -4.288232,1.620114 -6.267437,1.492879 -1.979205,-0.127235 -3.855634,-0.907455 -5.713031,-2.778881 -1.8171486,-1.830871 -2.4673086,-3.821844 -2.4354592,-6.023572 0.03185,-2.201728 0.8144639,-4.60812 2.0093793,-6.952451 2.3898309,-4.688663 6.3855119,-9.072363 8.5677199,-11.276272 1.342361,-1.355711 3.525304,-3.403619 6.101206,-5.335815 z" />
  </g>
</svg>
