<?xml version="1.0" encoding="UTF-8" standalone="no"?>
<svg
   class="icon"
   width="200"
   height="200"
   viewBox="0 0 200 200"
   version="1.1"
   id="svg16"
   sodipodi:docname="ask.svg"
   inkscape:version="1.3.2 (091e20e, 2023-11-25)"
   xmlns:inkscape="http://www.inkscape.org/namespaces/inkscape"
   xmlns:sodipodi="http://sodipodi.sourceforge.net/DTD/sodipodi-0.dtd"
   xmlns="http://www.w3.org/2000/svg"
   xmlns:svg="http://www.w3.org/2000/svg"
   xmlns:rdf="http://www.w3.org/1999/02/22-rdf-syntax-ns#"
   xmlns:cc="http://creativecommons.org/ns#"
   xmlns:dc="http://purl.org/dc/elements/1.1/">
  <metadata
     id="metadata22">
    <rdf:RDF>
      <cc:Work
         rdf:about="">
        <dc:format>image/svg+xml</dc:format>
        <dc:type
           rdf:resource="http://purl.org/dc/dcmitype/StillImage" />
      </cc:Work>
    </rdf:RDF>
  </metadata>
  <defs
     id="defs20" />
  <sodipodi:namedview
     pagecolor="#ffffff"
     bordercolor="#666666"
     borderopacity="1"
     objecttolerance="10"
     gridtolerance="10"
     guidetolerance="10"
     inkscape:pageopacity="0"
     inkscape:pageshadow="2"
     inkscape:window-width="1728"
     inkscape:window-height="1051"
     id="namedview18"
     showgrid="true"
     inkscape:zoom="3.7463453"
     inkscape:cx="93.023993"
     inkscape:cy="105.43609"
     inkscape:window-x="0"
     inkscape:window-y="38"
     inkscape:window-maximized="0"
     inkscape:current-layer="g1"
     inkscape:document-rotation="0"
     inkscape:showpageshadow="2"
     inkscape:pagecheckerboard="0"
     inkscape:deskcolor="#d1d1d1">
    <inkscape:grid
       type="xygrid"
       id="grid2131"
       originx="0"
       originy="0"
       spacingy="1"
       spacingx="1"
       units="px"
       visible="true" />
  </sodipodi:namedview>
  <g
     id="g1"
     style="stroke-width:10;stroke-dasharray:none">
    <g
       aria-label="?"
       id="text862"
       style="font-style:normal;font-weight:normal;font-size:10.5833px;line-height:1.25;font-family:sans-serif;fill:#000000;fill-opacity:1;stroke:none;stroke-width:0;stroke-dasharray:none"
       transform="matrix(6.7191601,0,0,6.7191601,-77.444442,-68.888891)">
      <path
         d="m 25.037098,31.069465 q -0.01588,-0.555594 -0.01588,-0.83339 0,-1.635915 0.476556,-2.824267 0.349473,-0.895123 1.127848,-1.805679 0.571866,-0.663625 2.049189,-1.929145 1.493207,-1.280952 1.937993,-2.037176 0.444784,-0.756225 0.444784,-1.651348 0,-1.620481 -1.302584,-2.8397 -1.302585,-1.234653 -3.192923,-1.234653 -1.826797,0 -3.049956,1.111188 -1.22316,1.111187 -1.604404,3.472459 l -2.93876,-0.339529 Q 19.36609,16.994429 21.319968,15.312215 23.289732,13.63 26.514424,13.63 q 3.415316,0 5.448621,1.80568 2.033304,1.805679 2.033304,4.367582 0,1.481583 -0.714835,2.731669 -0.714832,1.250085 -2.795791,3.040331 -1.397898,1.203786 -1.826797,1.774813 -0.4289,0.571026 -0.635408,1.311819 -0.206507,0.74079 -0.238277,2.407571 z m -0.174736,5.571369 v -3.163796 h 3.256463 v 3.163796 z"
         style="font-style:normal;font-variant:normal;font-weight:normal;font-stretch:normal;font-size:31.75px;font-family:Arial;-inkscape-font-specification:Arial;stroke:#000000;stroke-width:0;stroke-miterlimit:4;stroke-dasharray:none;stroke-opacity:1"
         id="path864" />
    </g>
    <text
       xml:space="preserve"
       style="font-style:normal;font-variant:normal;font-weight:normal;font-stretch:normal;font-size:64px;font-family:Arial;-inkscape-font-specification:Arial;fill:none;fill-opacity:0.204489;stroke:#333333;stroke-width:10;stroke-linecap:round"
       x="35"
       y="65"
       id="text1"><tspan
         sodipodi:role="line"
         id="tspan1"></tspan></text>
  </g>
</svg>
