<?xml version="1.0" encoding="UTF-8" standalone="no"?>
<svg
   xmlns:dc="http://purl.org/dc/elements/1.1/"
   xmlns:cc="http://creativecommons.org/ns#"
   xmlns:rdf="http://www.w3.org/1999/02/22-rdf-syntax-ns#"
   xmlns:svg="http://www.w3.org/2000/svg"
   xmlns="http://www.w3.org/2000/svg"
   xmlns:sodipodi="http://sodipodi.sourceforge.net/DTD/sodipodi-0.dtd"
   xmlns:inkscape="http://www.inkscape.org/namespaces/inkscape"
   width="200"
   height="200"
   viewBox="0 0 200 200"
   version="1.1"
   id="svg8"
   inkscape:version="1.0.1 (c497b03c, 2020-09-10)"
   sodipodi:docname="btn_text.svg">
  <defs
     id="defs2" />
  <sodipodi:namedview
     id="base"
     pagecolor="#ffffff"
     bordercolor="#666666"
     borderopacity="1.0"
     inkscape:pageopacity="0.0"
     inkscape:pageshadow="2"
     inkscape:zoom="4"
     inkscape:cx="97.802849"
     inkscape:cy="103.27941"
     inkscape:document-units="px"
     inkscape:current-layer="layer1"
     inkscape:document-rotation="0"
     showgrid="true"
     units="px"
     inkscape:window-width="1792"
     inkscape:window-height="1075"
     inkscape:window-x="0"
     inkscape:window-y="23"
     inkscape:window-maximized="1">
    <inkscape:grid
       type="xygrid"
       id="grid833" />
  </sodipodi:namedview>
  <metadata
     id="metadata5">
    <rdf:RDF>
      <cc:Work
         rdf:about="">
        <dc:format>image/svg+xml</dc:format>
        <dc:type
           rdf:resource="http://purl.org/dc/dcmitype/StillImage" />
        <dc:title />
      </cc:Work>
    </rdf:RDF>
  </metadata>
  <g
     inkscape:label="图层 1"
     inkscape:groupmode="layer"
     id="layer1">
    <path
       id="rect858"
       style="fill:#333333;fill-opacity:0.80000001;fill-rule:evenodd;stroke:none;stroke-width:10.5409;stroke-linecap:square;stroke-linejoin:bevel;stroke-opacity:1;paint-order:markers fill stroke"
       d="M 22.222222,50 C 9.911111,50 0,58.92 0,70 v 60 c 0,11.08 9.911111,20 22.222222,20 H 177.77778 C 190.08889,150 200,141.08 200,130 V 70 c 0,-11.08 -9.91111,-20 -22.22222,-20 z m 11.111111,35 h 12.371964 c 2.449193,0 4.272303,0.101393 5.46875,0.302734 1.210521,0.187919 2.288254,0.589582 3.231335,1.207033 0.957158,0.617448 1.75157,1.443005 2.384982,2.476561 0.633414,1.020133 0.950523,2.168194 0.950523,3.443361 0,1.382546 -0.394479,2.650321 -1.182726,3.804688 -0.774171,1.154358 -1.82903,2.020473 -3.166233,2.597652 1.886162,0.523494 3.335499,1.415991 4.348959,2.677741 1.01346,1.26174 1.519095,2.74452 1.519095,4.44921 0,1.34228 -0.330189,2.65257 -0.991752,3.92774 -0.647489,1.26174 -1.539979,2.27396 -2.680121,3.03906 -1.126068,0.75168 -2.52091,1.21418 -4.181859,1.38867 -1.041611,0.10738 -3.55343,0.17628 -7.536891,0.20313 H 33.333333 Z m 63.847657,0.583984 v 7.550783 h 4.05382 v 4.509766 h -4.05382 v 8.617187 c 0,1.74496 0.036,2.76525 0.10635,3.06055 0.0845,0.28187 0.2599,0.51715 0.52734,0.70507 0.28152,0.18792 0.61933,0.28125 1.01345,0.28125 0.54896,0 1.34337,-0.18051 2.38498,-0.54297 l 0.50781,4.38868 c -1.37943,0.56375 -2.9421,0.8457 -4.6875,0.8457 -1.06977,0 -2.03417,-0.16834 -2.8928,-0.50391 -0.85862,-0.34899 -1.49067,-0.79121 -1.89887,-1.32812 -0.39412,-0.55033 -0.66982,-1.28864 -0.82465,-2.21485 -0.12668,-0.6577 -0.1888,-1.98632 -0.1888,-3.98632 V 97.644533 H 88.502604 V 93.134767 H 91.2283 V 88.88672 Z m 14.44228,0 v 7.550783 h 4.05382 v 4.509766 h -4.05382 v 8.617187 c 0,1.74496 0.0359,2.76525 0.10633,3.06055 0.0844,0.28187 0.2599,0.51715 0.52734,0.70507 0.28153,0.18792 0.61934,0.28125 1.01346,0.28125 0.54897,0 1.34337,-0.18052 2.38498,-0.54297 l 0.50782,4.38868 c -1.37943,0.56375 -2.94208,0.8457 -4.68751,0.8457 -1.06973,0 -2.03417,-0.16834 -2.89279,-0.50391 -0.85862,-0.34899 -1.49283,-0.79121 -1.90104,-1.32812 -0.39413,-0.55033 -0.66765,-1.28865 -0.82248,-2.21485 -0.12669,-0.6577 -0.19098,-1.98632 -0.19098,-3.98632 v -9.322267 h -2.72352 v -4.509766 h 2.72352 V 88.88672 Z M 39.583333,89.91211 v 6.826168 h 4.095054 c 2.435117,0 3.948744,-0.03447 4.53993,-0.101556 1.069763,-0.120807 1.907761,-0.469701 2.513021,-1.04688 0.619335,-0.590601 0.92882,-1.361432 0.92882,-2.31445 0,-0.912752 -0.26807,-1.651087 -0.802954,-2.214845 -0.520804,-0.57718 -1.302136,-0.92607 -2.34375,-1.046874 -0.619335,-0.06711 -2.398862,-0.101563 -5.340711,-0.101563 z m 90.429687,2.738281 c 3.39228,0 6.17217,1.054728 8.33985,3.162111 2.16766,2.093958 3.25086,4.745088 3.25086,7.953118 0,3.2349 -1.09626,5.91851 -3.2921,8.05274 -2.18175,2.1208 -4.93331,3.18164 -8.25521,3.18164 -2.05505,0 -4.01983,-0.44223 -5.89192,-1.32812 -1.85801,-0.88591 -3.27139,-2.18202 -4.24262,-3.88672 -0.97124,-1.71812 -1.45834,-3.80535 -1.45834,-6.26172 0,-1.87919 0.4871,-3.698648 1.45834,-5.457032 0.97123,-1.758393 2.3432,-3.099219 4.11675,-4.025392 1.78764,-0.926174 3.77857,-1.390625 5.97439,-1.390625 z m 29.11676,0 c 1.30904,0 2.50556,0.229172 3.58941,0.685547 1.08383,0.442952 1.89895,1.012951 2.44791,1.710934 0.56303,0.697986 0.94989,1.489095 1.16102,2.375001 0.22521,0.885906 0.33855,2.155635 0.33855,3.806647 v 13.28906 h -5.93316 v -10.91406 c 0,-2.30873 -0.12641,-3.79761 -0.37978,-4.468758 -0.25336,-0.684558 -0.66854,-1.215954 -1.24565,-1.591794 -0.56304,-0.37584 -1.24629,-0.5625 -2.04861,-0.5625 -1.02754,0 -1.94836,0.267777 -2.76477,0.80469 -0.8164,0.536913 -1.38087,1.248858 -1.69053,2.134764 -0.29559,0.885908 -0.4427,2.522848 -0.4427,4.912108 v 9.68555 H 146.2283 V 93.134767 h 5.50998 v 3.140623 c 1.95654,-2.416104 4.4215,-3.624999 7.3915,-3.624999 z m -94.737419,0.484376 h 5.933161 v 9.824213 c 0,3.00671 0.1057,4.85255 0.31684,5.53711 0.225212,0.67114 0.625148,1.20864 1.202257,1.61133 0.577109,0.38926 1.309403,0.58399 2.196181,0.58399 1.01346,0 1.921201,-0.26167 2.723523,-0.78516 0.802324,-0.53691 1.351544,-1.19413 1.647136,-1.97266 0.295594,-0.79194 0.442709,-2.71889 0.442709,-5.77929 v -9.019533 h 5.93316 v 21.382813 h -5.509985 v -3.20313 c -0.816396,1.14094 -1.894131,2.0415 -3.231335,2.69922 C 74.72288,114.67139 73.322581,115 71.844619,115 c -1.506116,0 -2.857375,-0.3164 -4.053819,-0.94727 -1.196447,-0.63087 -2.062776,-1.51531 -2.597658,-2.65625 -0.534881,-1.14093 -0.800781,-2.719 -0.800781,-4.73242 z m 65.642359,4.126951 c -1.54834,0 -2.85055,0.563895 -3.90625,1.691406 -1.05567,1.127516 -1.5842,2.752246 -1.5842,4.873046 0,2.12081 0.52853,3.74358 1.5842,4.8711 1.0557,1.12751 2.35791,1.6914 3.90625,1.6914 1.54835,0 2.84295,-0.56389 3.88455,-1.6914 1.0557,-1.12752 1.58421,-2.76446 1.5842,-4.91211 0,-2.09396 -0.5285,-3.70452 -1.5842,-4.832036 -1.0416,-1.127511 -2.3362,-1.691406 -3.88455,-1.691406 z m -90.451387,4.388672 v 7.89258 h 5.78559 c 2.252135,0 3.680765,-0.0589 4.286026,-0.17969 0.929004,-0.16107 1.682004,-0.55052 2.259113,-1.16797 0.591187,-0.63087 0.885418,-1.4706 0.885418,-2.51758 0,-0.8859 -0.224487,-1.6384 -0.674913,-2.25585 -0.450427,-0.61747 -1.105349,-1.06578 -1.963977,-1.34766 -0.844549,-0.28188 -2.688366,-0.42383 -5.531682,-0.42383 z" />
    <g
       aria-label="Button"
       transform="scale(0.97148621,1.0293507)"
       id="text880"
       style="font-size:40.0591px;line-height:1.25;font-family:'Apple Braille';-inkscape-font-specification:'Apple Braille';letter-spacing:10.0148px;word-spacing:10.0148px;stroke-width:1.00148" />
  </g>
</svg>
