<?xml version="1.0" standalone="no"?><!DOCTYPE svg PUBLIC "-//W3C//DTD SVG 1.1//EN" "http://www.w3.org/Graphics/SVG/1.1/DTD/svg11.dtd"><svg class="icon" width="32px" height="32px" viewBox="0 0 1289 1024" version="1.1" xmlns="http://www.w3.org/2000/svg"><path d="M1179.219896 781.257359L1004.819141 26.595309c-3.868409-15.151267-19.019676-26.595309-37.878168-26.595309H337.357469c-19.019676 0-34.170943 11.444042-37.878168 26.595309L128.785771 792.701401c-3.868409 15.151267-3.868409 26.595309-3.868409 41.746576 0 106.220054 83.493153 189.552023 189.552023 189.552023h682.612938c106.220054 0 189.552023-83.493153 189.552023-189.552023 0.161184-19.019676-3.546041-38.039351-7.41445-53.190618zM367.660003 75.917519H936.477255l136.522588 584.129703c-22.726901-11.444042-49.32221-15.151267-75.91752-15.151267H314.469385c-26.595309 0-53.029435 7.575634-75.91752 15.151267l129.108138-584.129703z m629.583504 872.164962H314.469385c-64.473477 0-113.795687-49.32221-113.795688-113.795687 0-64.473477 49.32221-113.795687 113.795688-113.795687h682.612938c49.32221 0 91.068786 30.302534 106.220054 75.917519 3.868409 11.444042 7.575634 22.726901 7.575633 37.878168 0.161184 64.473477-49.161026 113.795687-113.634503 113.795687z m0 0"  /><path d="M686.15898 796.408626H284.16685c-3.868409 0-7.575634 3.868409-7.575633 7.575633v60.605069c0 3.868409 3.868409 7.575634 7.575633 7.575633h401.99213c3.868409 0 7.575634-3.868409 7.575634-7.575633V803.984259c0-3.707225-3.707225-7.575634-7.575634-7.575633z m0 0M807.530301 834.286794c0 20.95388 16.924288 37.878168 37.878167 37.878167s37.878168-16.924288 37.878168-37.878167-16.924288-37.878168-37.878168-37.878168c-20.792696 0-37.878168 17.085471-37.878167 37.878168z m0 0M959.204156 834.286794c0 20.95388 16.924288 37.878168 37.878167 37.878167s37.878168-16.924288 37.878168-37.878167-16.924288-37.878168-37.878168-37.878168c-20.792696 0-37.878168 17.085471-37.878167 37.878168z m0 0"  /></svg>