<?xml version="1.0" encoding="UTF-8" standalone="no"?>
<svg
   xmlns:dc="http://purl.org/dc/elements/1.1/"
   xmlns:cc="http://creativecommons.org/ns#"
   xmlns:rdf="http://www.w3.org/1999/02/22-rdf-syntax-ns#"
   xmlns:svg="http://www.w3.org/2000/svg"
   xmlns="http://www.w3.org/2000/svg"
   xmlns:sodipodi="http://sodipodi.sourceforge.net/DTD/sodipodi-0.dtd"
   xmlns:inkscape="http://www.inkscape.org/namespaces/inkscape"
   class="icon"
   width="32px"
   height="32px"
   viewBox="0 0 1289 1024"
   version="1.1"
   id="svg62"
   sodipodi:docname="cipanadd.svg"
   inkscape:version="1.0.1 (c497b03c, 2020-09-10)">
  <metadata
     id="metadata68">
    <rdf:RDF>
      <cc:Work
         rdf:about="">
        <dc:format>image/svg+xml</dc:format>
        <dc:type
           rdf:resource="http://purl.org/dc/dcmitype/StillImage" />
        <dc:title></dc:title>
      </cc:Work>
    </rdf:RDF>
  </metadata>
  <defs
     id="defs66" />
  <sodipodi:namedview
     pagecolor="#ffffff"
     bordercolor="#666666"
     borderopacity="1"
     objecttolerance="10"
     gridtolerance="10"
     guidetolerance="10"
     inkscape:pageopacity="0"
     inkscape:pageshadow="2"
     inkscape:window-width="1792"
     inkscape:window-height="1094"
     id="namedview64"
     showgrid="false"
     inkscape:zoom="22.96875"
     inkscape:cx="16"
     inkscape:cy="16"
     inkscape:window-x="0"
     inkscape:window-y="26"
     inkscape:window-maximized="0"
     inkscape:current-layer="svg62" />
  <path
     d="M1179.219896 781.257359L1004.819141 26.595309c-3.868409-15.151267-19.019676-26.595309-37.878168-26.595309H337.357469c-19.019676 0-34.170943 11.444042-37.878168 26.595309L128.785771 792.701401c-3.868409 15.151267-3.868409 26.595309-3.868409 41.746576 0 106.220054 83.493153 189.552023 189.552023 189.552023h682.612938c106.220054 0 189.552023-83.493153 189.552023-189.552023 0.161184-19.019676-3.546041-38.039351-7.41445-53.190618zM367.660003 75.917519H936.477255l136.522588 584.129703c-22.726901-11.444042-49.32221-15.151267-75.91752-15.151267H314.469385c-26.595309 0-53.029435 7.575634-75.91752 15.151267l129.108138-584.129703z m629.583504 872.164962H314.469385c-64.473477 0-113.795687-49.32221-113.795688-113.795687 0-64.473477 49.32221-113.795687 113.795688-113.795687h682.612938c49.32221 0 91.068786 30.302534 106.220054 75.917519 3.868409 11.444042 7.575634 22.726901 7.575633 37.878168 0.161184 64.473477-49.161026 113.795687-113.634503 113.795687z m0 0"
     id="path58" />
  <path
     d="M686.15898 796.408626H284.16685c-3.868409 0-7.575634 3.868409-7.575633 7.575633v60.605069c0 3.868409 3.868409 7.575634 7.575633 7.575633h401.99213c3.868409 0 7.575634-3.868409 7.575634-7.575633V803.984259c0-3.707225-3.707225-7.575634-7.575634-7.575633z m0 0M807.530301 834.286794c0 20.95388 16.924288 37.878168 37.878167 37.878167s37.878168-16.924288 37.878168-37.878167-16.924288-37.878168-37.878168-37.878168c-20.792696 0-37.878168 17.085471-37.878167 37.878168z m0 0M959.204156 834.286794c0 20.95388 16.924288 37.878168 37.878167 37.878167s37.878168-16.924288 37.878168-37.878167-16.924288-37.878168-37.878168-37.878168c-20.792696 0-37.878168 17.085471-37.878167 37.878168z m0 0"
     id="path60" />
  <g
     id="g1073"
     transform="matrix(1.0506325,0,0,1.0506325,-15.105491,-743.08841)">
    <ellipse
       style="fill:#ffffff;fill-opacity:1;fill-rule:evenodd;stroke-width:38.34"
       id="path246"
       cx="912.97125"
       cy="905.78247"
       rx="256.39874"
       ry="268.38" />
    <path
       d="m 1118.6839,703.31355 c -54.3092,-54.04505 -126.49158,-83.81086 -203.29051,-83.81086 -76.79888,0 -149.00785,29.76581 -203.32153,83.81022 -54.31372,54.04433 -84.25434,125.97621 -84.25434,202.46697 0,76.49081 29.92572,148.40842 84.25371,202.47222 54.32789,54.0638 126.49668,83.8102 203.30275,83.8102 76.80607,0 149.00072,-29.7335 203.28982,-83.8096 54.2891,-54.076 84.2537,-126.0021 84.2537,-202.49228 0,-76.49004 -29.8811,-148.38305 -84.2349,-202.44687 z m -59.5058,223.00879 H 935.93581 v 123.24876 c 0,11.3449 -9.19687,20.5424 -20.54179,20.5424 -11.34487,0 -20.54242,-9.1975 -20.54242,-20.5418 V 926.32167 H 771.60224 c -11.34493,0 -20.54178,-9.19692 -20.54178,-20.54179 0,-11.34492 9.19685,-20.54242 20.54178,-20.54242 H 894.85098 V 761.99455 c 0,-11.34494 9.19686,-20.54178 20.54178,-20.54178 11.34618,0 20.54237,9.19684 20.54237,20.54178 v 123.24871 h 123.24227 c 11.345,0 20.5418,9.19754 20.5418,20.54179 0,11.34429 -9.1968,20.54309 -20.5418,20.54309 v -0.005 z"
       fill="#515151"
       id="path203"
       style="stroke-width:0.64739" />
  </g>
</svg>
