<?xml version="1.0" encoding="UTF-8" standalone="no"?>
<svg
   xmlns:dc="http://purl.org/dc/elements/1.1/"
   xmlns:cc="http://creativecommons.org/ns#"
   xmlns:rdf="http://www.w3.org/1999/02/22-rdf-syntax-ns#"
   xmlns:svg="http://www.w3.org/2000/svg"
   xmlns="http://www.w3.org/2000/svg"
   xmlns:sodipodi="http://sodipodi.sourceforge.net/DTD/sodipodi-0.dtd"
   xmlns:inkscape="http://www.inkscape.org/namespaces/inkscape"
   width="200"
   height="200"
   viewBox="0 0 52.916666 52.916666"
   version="1.1"
   id="svg947"
   inkscape:version="1.0.1 (c497b03c, 2020-09-10)"
   sodipodi:docname="ckfiles.svg">
  <defs
     id="defs941" />
  <sodipodi:namedview
     id="base"
     pagecolor="#ffffff"
     bordercolor="#666666"
     borderopacity="1.0"
     inkscape:pageopacity="0.0"
     inkscape:pageshadow="2"
     inkscape:zoom="4"
     inkscape:cx="113.36209"
     inkscape:cy="97.291541"
     inkscape:document-units="mm"
     inkscape:current-layer="layer1"
     inkscape:document-rotation="0"
     showgrid="true"
     showguides="false"
     inkscape:window-width="1792"
     inkscape:window-height="1075"
     inkscape:window-x="0"
     inkscape:window-y="23"
     inkscape:window-maximized="1"
     units="px">
    <inkscape:grid
       type="xygrid"
       id="grid1518" />
  </sodipodi:namedview>
  <metadata
     id="metadata944">
    <rdf:RDF>
      <cc:Work
         rdf:about="">
        <dc:format>image/svg+xml</dc:format>
        <dc:type
           rdf:resource="http://purl.org/dc/dcmitype/StillImage" />
        <dc:title></dc:title>
      </cc:Work>
    </rdf:RDF>
  </metadata>
  <g
     inkscape:label="图层 1"
     inkscape:groupmode="layer"
     id="layer1">
    <path
       id="rect4125"
       style="fill:none;stroke:#333333;stroke-width:2.19003;stroke-linejoin:round;stroke-miterlimit:4;stroke-dasharray:none;paint-order:markers stroke fill"
       d="M 32.30896,16.117108 V 13.19798 c 0,-1.376089 -1.543038,-2.919126 -2.919128,-2.919126 H 21.60549 L 18.686363,6.3866817 H 7.9828937 c -1.617197,0 -2.9191279,1.3019307 -2.919128,2.9191286 l -7e-7,18.3657807 c -1e-7,1.617195 1.3019312,2.919092 2.9191281,2.919092 H 25.256455"
       sodipodi:nodetypes="cssccssssc" />
    <path
       id="path2115"
       style="color:#000000;font-style:normal;font-variant:normal;font-weight:normal;font-stretch:normal;font-size:medium;line-height:normal;font-family:sans-serif;font-variant-ligatures:normal;font-variant-position:normal;font-variant-caps:normal;font-variant-numeric:normal;font-variant-alternates:normal;font-variant-east-asian:normal;font-feature-settings:normal;font-variation-settings:normal;text-indent:0;text-align:start;text-decoration:none;text-decoration-line:none;text-decoration-style:solid;text-decoration-color:#000000;letter-spacing:normal;word-spacing:normal;text-transform:none;writing-mode:lr-tb;direction:ltr;text-orientation:mixed;dominant-baseline:auto;baseline-shift:baseline;text-anchor:start;white-space:normal;shape-padding:0;shape-margin:0;inline-size:0;clip-rule:nonzero;display:inline;overflow:visible;visibility:visible;opacity:1;isolation:auto;mix-blend-mode:normal;color-interpolation:sRGB;color-interpolation-filters:linearRGB;solid-color:#000000;solid-opacity:1;vector-effect:none;fill:#333333;fill-opacity:1;fill-rule:nonzero;stroke:none;stroke-width:2.19003;stroke-linecap:butt;stroke-linejoin:round;stroke-miterlimit:4;stroke-dasharray:none;stroke-dashoffset:0;stroke-opacity:1;paint-order:markers stroke fill;color-rendering:auto;image-rendering:auto;shape-rendering:auto;text-rendering:auto;enable-background:accumulate;stop-color:#000000;stop-opacity:1"
       d="m 14.796492,13.942313 c -1.218687,-0.0028 -2.185273,0.232419 -2.932588,0.67583 -0.747315,0.44341 -1.226643,1.090805 -1.498375,1.692569 L 4.8459669,28.531254 c -0.1046381,0.231996 -0.1252072,0.493193 -0.058173,0.738708 0.06192,0.226276 0.1943788,1.07548 0.9234915,1.663481 0.7291127,0.588002 1.7555827,0.816558 3.4159346,0.816558 l 9.559143,-1.382482 v 0 L 9.1272203,29.560824 C 7.7017493,29.440529 7.1784655,29.303172 7.0868988,29.229326 7.0540967,29.202872 7.0341427,29.068017 7.0205994,29.037271 L 12.36051,17.211105 c 0.134512,-0.297885 0.292974,-0.515198 0.620651,-0.709621 0.327677,-0.194424 0.873056,-0.370882 1.810626,-0.368713 l 21.018306,0.04876 c 0.816991,0.0019 1.063833,0.134758 1.155756,0.164681 l -0.476503,1.055235 h 2.403471 l 0.129606,-0.287014 c 0.154682,-0.342552 0.26737,-0.737545 0.21986,-1.189974 -0.04751,-0.452428 -0.304557,-0.924997 -0.658293,-1.222482 -0.70747,-0.59497 -1.577415,-0.706876 -2.769191,-0.709622 z"
       sodipodi:nodetypes="cscccssccssccscccccssscc" />
    <path
       style="fill:#b3b3b3;fill-opacity:1;stroke:none;stroke-width:0.198437px;stroke-linecap:butt;stroke-linejoin:miter;stroke-opacity:1"
       d="m 44.979166,30.776976 -15.875003,3.96875 v 6.945314 l 15.875003,-3.968751 z"
       id="path917" />
    <path
       style="fill:none;stroke:#333333;stroke-width:1.98447;stroke-linecap:butt;stroke-linejoin:miter;stroke-miterlimit:4;stroke-dasharray:none;stroke-opacity:1"
       d="M 28.111978,24.823852 H 45.971353 L 43.98698,46.651975 H 30.096355 Z"
       id="path915"
       sodipodi:nodetypes="ccccc" />
    <path
       id="rect919"
       style="fill:none;fill-opacity:1;stroke:#333333;stroke-width:1.0554;stroke-linecap:round;stroke-linejoin:miter;stroke-miterlimit:4;stroke-dasharray:none;stroke-opacity:1;paint-order:markers stroke fill"
       d="m 42.241349,13.905524 -2.353732,6.467047 1.325887,0.48253 h 1.599128 l 2.166534,-5.953125 z" />
    <rect
       style="fill:none;stroke:#333333;stroke-width:1.98437;stroke-linecap:round;stroke-linejoin:miter;stroke-miterlimit:4;stroke-dasharray:none;stroke-opacity:1;paint-order:markers stroke fill"
       id="rect913"
       width="21.828125"
       height="3.96875"
       x="26.127604"
       y="20.855101" />
  </g>
</svg>
