<?xml version="1.0" encoding="UTF-8" standalone="no"?>
<svg
   xmlns:dc="http://purl.org/dc/elements/1.1/"
   xmlns:cc="http://creativecommons.org/ns#"
   xmlns:rdf="http://www.w3.org/1999/02/22-rdf-syntax-ns#"
   xmlns:svg="http://www.w3.org/2000/svg"
   xmlns="http://www.w3.org/2000/svg"
   xmlns:sodipodi="http://sodipodi.sourceforge.net/DTD/sodipodi-0.dtd"
   xmlns:inkscape="http://www.inkscape.org/namespaces/inkscape"
   width="600"
   height="200"
   viewBox="0 0 158.75 52.916666"
   version="1.1"
   id="svg8"
   inkscape:version="1.0.1 (c497b03c, 2020-09-10)"
   sodipodi:docname="cklogo_text.svg">
  <defs
     id="defs2" />
  <sodipodi:namedview
     id="base"
     pagecolor="#414b55"
     bordercolor="#666666"
     borderopacity="1.0"
     inkscape:pageopacity="0"
     inkscape:pageshadow="2"
     inkscape:zoom="2"
     inkscape:cx="292.77844"
     inkscape:cy="109.65024"
     inkscape:document-units="mm"
     inkscape:current-layer="text979-9"
     inkscape:document-rotation="0"
     showgrid="true"
     units="px"
     inkscape:window-width="1792"
     inkscape:window-height="1075"
     inkscape:window-x="0"
     inkscape:window-y="23"
     inkscape:window-maximized="1"
     showguides="false">
    <inkscape:grid
       type="xygrid"
       id="grid833" />
    <sodipodi:guide
       position="-17.197916,46.302083"
       orientation="1,0"
       id="guide921" />
  </sodipodi:namedview>
  <metadata
     id="metadata5">
    <rdf:RDF>
      <cc:Work
         rdf:about="">
        <dc:format>image/svg+xml</dc:format>
        <dc:type
           rdf:resource="http://purl.org/dc/dcmitype/StillImage" />
        <dc:title></dc:title>
      </cc:Work>
    </rdf:RDF>
  </metadata>
  <g
     inkscape:label="图层 1"
     inkscape:groupmode="layer"
     id="layer1">
    <g
       aria-label="CokeCodes"
       transform="matrix(1.0149177,0,0,0.98530156,9.767805e-5,1.3170856)"
       id="text979"
       style="font-style:normal;font-variant:normal;font-weight:normal;font-stretch:normal;font-size:27.6509px;line-height:1.25;font-family:'Hiragino Maru Gothic Pro';-inkscape-font-specification:'Hiragino Maru Gothic Pro';fill:#fafafa;fill-opacity:1;stroke:#ffffff;stroke-width:0.793489;stroke-miterlimit:4;stroke-dasharray:none;stroke-opacity:1">
      <path
         d="m 12.537417,4.4306172 c -5.751387,0 -9.5395603,4.4517949 -9.5395603,11.1709638 0,6.885074 3.7881733,11.226265 9.7331163,11.226265 4.921861,0 7.244536,-3.096901 8.212318,-5.83434 0.0553,-0.165905 0.08295,-0.30416 0.08295,-0.470065 0,-0.580669 -0.497716,-0.995432 -0.967781,-1.106036 -0.193556,-0.0553 -0.387113,-0.08295 -0.553018,-0.08295 -0.525367,0 -1.023083,0.248858 -1.244291,0.857178 -0.718923,2.212072 -2.295024,4.202937 -5.613132,4.202937 -4.1476352,0 -6.8850743,-3.428712 -6.8850743,-8.765335 0,-5.447228 2.7374391,-8.7929865 6.8850743,-8.7929865 3.152202,0 4.534747,1.6314031 5.364274,3.6222675 0.248858,0.525368 0.691273,0.718924 1.161338,0.718924 0.221207,0 0.442415,-0.02765 0.663622,-0.110604 0.414763,-0.138254 0.857178,-0.525367 0.857178,-1.1060358 0,-0.1659054 -0.02765,-0.3594617 -0.110604,-0.553018 -0.99543,-2.4332822 -3.179851,-4.977165 -8.04641,-4.977165 z"
         style="font-style:normal;font-variant:normal;font-weight:normal;font-stretch:normal;font-family:'Hiragino Maru Gothic Pro';-inkscape-font-specification:'Hiragino Maru Gothic Pro';fill:#fafafa;fill-opacity:1;stroke:#ffffff;stroke-width:0.793489;stroke-miterlimit:4;stroke-dasharray:none;stroke-opacity:1"
         id="path1028" />
      <path
         d="m 30.460385,10.679721 c -4.479446,0 -7.161584,3.235155 -7.161584,8.018761 0,4.92186 2.654487,8.129364 7.216885,8.129364 4.313541,0 6.968027,-3.318108 6.968027,-8.129364 0,-4.811257 -2.599185,-8.018761 -7.023328,-8.018761 z m 0.08295,2.129119 c 2.820392,0 4.396493,2.377977 4.396493,5.861991 0,3.677569 -1.576101,6.027896 -4.590049,6.027896 -2.848043,0 -4.507097,-2.405628 -4.507097,-5.917293 0,-3.677569 1.714356,-5.972594 4.700653,-5.972594 z"
         style="font-style:normal;font-variant:normal;font-weight:normal;font-stretch:normal;font-family:'Hiragino Maru Gothic Pro';-inkscape-font-specification:'Hiragino Maru Gothic Pro';fill:#fafafa;fill-opacity:1;stroke:#ffffff;stroke-width:0.793489;stroke-miterlimit:4;stroke-dasharray:none;stroke-opacity:1"
         id="path1030" />
      <path
         d="m 43.221705,20.938204 2.101468,-2.018515 5.143067,7.189234 c 0.221208,0.30416 0.580669,0.442414 0.940131,0.442414 0.276509,0 0.525367,-0.0553 0.746574,-0.193556 0.359462,-0.221207 0.635971,-0.635971 0.635971,-1.050734 0,-0.221208 -0.0553,-0.414764 -0.193556,-0.60832 l -5.502529,-7.327489 4.673002,-4.368842 c 0.248858,-0.248858 0.359461,-0.497716 0.359461,-0.774225 0,-0.30416 -0.165905,-0.635971 -0.414763,-0.91248 -0.221207,-0.276509 -0.553018,-0.414763 -0.91248,-0.414763 -0.276509,0 -0.580669,0.110603 -0.829527,0.359462 l -6.746819,6.719168 V 5.7025586 c 0,-0.7189234 -0.497717,-1.0230833 -1.21664,-1.0230833 -0.774225,0 -1.271941,0.3594617 -1.271941,1.0783851 V 25.445301 c 0,0.746574 0.470065,1.106036 1.24429,1.106036 0.746574,0 1.244291,-0.359462 1.244291,-1.106036 z"
         style="font-style:normal;font-variant:normal;font-weight:normal;font-stretch:normal;font-family:'Hiragino Maru Gothic Pro';-inkscape-font-specification:'Hiragino Maru Gothic Pro';fill:#fafafa;fill-opacity:1;stroke:#ffffff;stroke-width:0.793489;stroke-miterlimit:4;stroke-dasharray:none;stroke-opacity:1"
         id="path1032" />
      <path
         d="m 66.97815,19.196198 c 0.857178,0 1.382545,-0.525367 1.382545,-1.5208 0,-0.08295 0,-0.138254 0,-0.221207 -0.276509,-3.622268 -2.543883,-6.77447 -6.580914,-6.77447 -4.507097,0 -6.995678,3.345759 -6.995678,8.129364 0,4.783606 2.626836,7.99111 7.161583,7.99111 3.594617,0 5.19837,-1.824959 6.083198,-3.649919 0.110604,-0.165905 0.138255,-0.33181 0.138255,-0.497716 0,-0.497716 -0.387113,-0.829527 -0.857178,-0.967781 -0.193556,-0.0553 -0.387113,-0.110604 -0.580669,-0.110604 -0.387112,0 -0.746574,0.193556 -0.995432,0.691273 -0.663622,1.465497 -1.769658,2.46093 -3.760523,2.46093 -2.986297,0 -4.673002,-2.12912 -4.728303,-5.53018 z m -9.650164,-2.018516 c 0.359462,-2.709788 1.797309,-4.479446 4.451795,-4.479446 2.543883,0 3.732872,2.018516 4.064682,3.98173 0,0.0553 0,0.110603 0,0.138254 0,0.248858 -0.110603,0.359462 -0.414763,0.359462 z"
         style="font-style:normal;font-variant:normal;font-weight:normal;font-stretch:normal;font-family:'Hiragino Maru Gothic Pro';-inkscape-font-specification:'Hiragino Maru Gothic Pro';fill:#fafafa;fill-opacity:1;stroke:#ffffff;stroke-width:0.793489;stroke-miterlimit:4;stroke-dasharray:none;stroke-opacity:1"
         id="path1034" />
      <path
         d="m 80.422534,4.4306172 c -5.751387,0 -9.539561,4.4517949 -9.539561,11.1709638 0,6.885074 3.788174,11.226265 9.733117,11.226265 4.92186,0 7.244536,-3.096901 8.212317,-5.83434 0.0553,-0.165905 0.08295,-0.30416 0.08295,-0.470065 0,-0.580669 -0.497716,-0.995432 -0.967781,-1.106036 -0.193557,-0.0553 -0.387113,-0.08295 -0.553018,-0.08295 -0.525368,0 -1.023084,0.248858 -1.244291,0.857178 -0.718923,2.212072 -2.295025,4.202937 -5.613133,4.202937 -4.147635,0 -6.885074,-3.428712 -6.885074,-8.765335 0,-5.447228 2.737439,-8.7929865 6.885074,-8.7929865 3.152203,0 4.534748,1.6314031 5.364275,3.6222675 0.248858,0.525368 0.691272,0.718924 1.161338,0.718924 0.221207,0 0.442414,-0.02765 0.663621,-0.110604 0.414764,-0.138254 0.857178,-0.525367 0.857178,-1.1060358 0,-0.1659054 -0.02765,-0.3594617 -0.110603,-0.553018 C 87.473513,6.9745 85.289092,4.4306172 80.422534,4.4306172 Z"
         style="font-style:normal;font-variant:normal;font-weight:normal;font-stretch:normal;font-family:'Hiragino Maru Gothic Pro';-inkscape-font-specification:'Hiragino Maru Gothic Pro';fill:#fafafa;fill-opacity:1;stroke:#ffffff;stroke-width:0.793489;stroke-miterlimit:4;stroke-dasharray:none;stroke-opacity:1"
         id="path1036" />
      <path
         d="m 98.345505,10.679721 c -4.479446,0 -7.161583,3.235155 -7.161583,8.018761 0,4.92186 2.654486,8.129364 7.216885,8.129364 4.313543,0 6.968023,-3.318108 6.968023,-8.129364 0,-4.811257 -2.59918,-8.018761 -7.023325,-8.018761 z m 0.08295,2.129119 c 2.820395,0 4.396495,2.377977 4.396495,5.861991 0,3.677569 -1.5761,6.027896 -4.590052,6.027896 -2.848042,0 -4.507096,-2.405628 -4.507096,-5.917293 0,-3.677569 1.714355,-5.972594 4.700653,-5.972594 z"
         style="font-style:normal;font-variant:normal;font-weight:normal;font-stretch:normal;font-family:'Hiragino Maru Gothic Pro';-inkscape-font-specification:'Hiragino Maru Gothic Pro';fill:#fafafa;fill-opacity:1;stroke:#ffffff;stroke-width:0.793489;stroke-miterlimit:4;stroke-dasharray:none;stroke-opacity:1"
         id="path1038" />
      <path
         d="m 119.4574,11.813408 c 0,0.608319 0.0553,1.410195 0.1106,2.046166 -0.96778,-1.963214 -2.51623,-3.179853 -5.08776,-3.179853 -4.09233,0 -6.60857,3.124551 -6.60857,7.963459 0,4.977162 2.54389,8.157015 6.58092,8.157015 2.57153,0 4.14763,-1.188988 5.08776,-3.124551 -0.0277,0.387112 -0.0829,0.967781 -0.0829,1.271941 v 0.580669 c 0,0.580669 0.38711,1.023083 1.18899,1.023083 0.77422,0 1.27194,-0.359462 1.27194,-1.106036 V 5.7855113 c 0,-0.7465743 -0.47006,-1.106036 -1.24429,-1.106036 -0.69127,0 -1.21664,0.3594617 -1.21664,1.106036 z m -4.64535,1.023083 c 3.0416,0 4.70065,2.488581 4.70065,5.861991 0,3.428711 -1.79731,5.944943 -4.70065,5.944943 -2.79274,0 -4.39649,-2.350326 -4.39649,-5.972594 0,-3.511665 1.60375,-5.83434 4.39649,-5.83434 z"
         style="font-style:normal;font-variant:normal;font-weight:normal;font-stretch:normal;font-family:'Hiragino Maru Gothic Pro';-inkscape-font-specification:'Hiragino Maru Gothic Pro';fill:#fafafa;fill-opacity:1;stroke:#ffffff;stroke-width:0.793489;stroke-miterlimit:4;stroke-dasharray:none;stroke-opacity:1"
         id="path1040" />
      <path
         d="m 137.34753,19.196198 c 0.85718,0 1.38254,-0.525367 1.38254,-1.5208 0,-0.08295 0,-0.138254 0,-0.221207 -0.27651,-3.622268 -2.54388,-6.77447 -6.58091,-6.77447 -4.5071,0 -6.99568,3.345759 -6.99568,8.129364 0,4.783606 2.62684,7.99111 7.16158,7.99111 3.59462,0 5.19837,-1.824959 6.0832,-3.649919 0.11061,-0.165905 0.13826,-0.33181 0.13826,-0.497716 0,-0.497716 -0.38712,-0.829527 -0.85718,-0.967781 -0.19356,-0.0553 -0.38711,-0.110604 -0.58067,-0.110604 -0.38711,0 -0.74657,0.193556 -0.99543,0.691273 -0.66362,1.465497 -1.76966,2.46093 -3.76053,2.46093 -2.98629,0 -4.673,-2.12912 -4.7283,-5.53018 z m -9.65017,-2.018516 c 0.35947,-2.709788 1.79731,-4.479446 4.4518,-4.479446 2.54388,0 3.73287,2.018516 4.06468,3.98173 0,0.0553 0,0.110603 0,0.138254 0,0.248858 -0.1106,0.359462 -0.41476,0.359462 z"
         style="font-style:normal;font-variant:normal;font-weight:normal;font-stretch:normal;font-family:'Hiragino Maru Gothic Pro';-inkscape-font-specification:'Hiragino Maru Gothic Pro';fill:#fafafa;fill-opacity:1;stroke:#ffffff;stroke-width:0.793489;stroke-miterlimit:4;stroke-dasharray:none;stroke-opacity:1"
         id="path1042" />
      <path
         d="m 147.69502,19.666263 c 2.51623,0.497716 3.23515,1.244291 3.23515,2.599185 0,1.410196 -1.43784,2.377977 -3.64992,2.377977 -2.18442,0 -3.3181,-0.801876 -3.81582,-2.405628 -0.16591,-0.525367 -0.66362,-0.746575 -1.18899,-0.746575 -0.1106,0 -0.24886,0.02765 -0.38711,0.0553 -0.52537,0.110604 -0.99543,0.497716 -0.99543,1.050734 0,0.110604 0.0276,0.221208 0.0553,0.359462 0.71892,2.46093 2.79274,3.871126 6.33205,3.871126 3.87113,0 6.1385,-1.963214 6.1385,-4.6177 0,-2.903345 -1.43784,-3.954079 -5.03246,-4.700653 l -1.71436,-0.359462 c -2.32267,-0.497716 -2.84804,-1.050734 -2.84804,-2.322675 0,-1.161338 1.05074,-2.073818 3.29046,-2.073818 1.5761,0 2.79274,0.635971 3.1522,1.880261 0.13826,0.525367 0.63597,0.746575 1.13369,0.746575 0.13825,0 0.30416,-0.02765 0.44241,-0.0553 0.49772,-0.138255 0.96778,-0.497716 0.96778,-1.023083 0,-0.110604 -0.0276,-0.221208 -0.0553,-0.331811 -0.69127,-2.018516 -2.65448,-3.318108 -5.72373,-3.318108 -3.56697,0 -5.72374,1.714356 -5.72374,4.230587 0,2.626836 1.4102,3.815825 4.81126,4.479446 z"
         style="font-style:normal;font-variant:normal;font-weight:normal;font-stretch:normal;font-family:'Hiragino Maru Gothic Pro';-inkscape-font-specification:'Hiragino Maru Gothic Pro';fill:#fafafa;fill-opacity:1;stroke:#ffffff;stroke-width:0.793489;stroke-miterlimit:4;stroke-dasharray:none;stroke-opacity:1"
         id="path1044" />
    </g>
    <g
       aria-label="Concept Preview"
       transform="matrix(0.78925228,0,0,0.77827687,0.57363277,10.928444)"
       id="text979-9"
       style="font-style:normal;font-variant:normal;font-weight:normal;font-stretch:normal;font-size:18.4656px;line-height:1.25;font-family:'Hiragino Maru Gothic Pro';-inkscape-font-specification:'Hiragino Maru Gothic Pro';fill:#95a5af;fill-opacity:1;stroke:#95a5af;stroke-width:0.5299;stroke-miterlimit:4;stroke-dasharray:none;stroke-opacity:1">
      <path
         d="m 9.2611054,32.239901 c -3.8408447,0 -6.3706317,2.972961 -6.3706317,7.460102 0,4.597934 2.529787,7.497033 6.4998908,7.497033 3.2868765,0 4.8379875,-2.068147 5.4842825,-3.896241 0.03693,-0.110794 0.0554,-0.203122 0.0554,-0.313915 0,-0.387778 -0.332381,-0.664762 -0.646296,-0.738624 -0.129259,-0.03693 -0.258518,-0.0554 -0.369312,-0.0554 -0.350846,0 -0.683227,0.16619 -0.830952,0.572433 -0.480105,1.477248 -1.532644,2.806771 -3.7485163,2.806771 -2.7698398,0 -4.5979341,-2.289734 -4.5979341,-5.853594 0,-3.637723 1.8280943,-5.872061 4.5979341,-5.872061 2.1050783,0 3.0283583,1.08947 3.5823263,2.418994 0.16619,0.350846 0.46164,0.480105 0.775555,0.480105 0.147725,0 0.29545,-0.01847 0.443175,-0.07386 0.276983,-0.09233 0.572433,-0.350847 0.572433,-0.738624 0,-0.110794 -0.01847,-0.240053 -0.07386,-0.369312 C 13.969838,33.938735 12.511056,32.2399 9.2611104,32.2399 Z"
         style="font-style:normal;font-variant:normal;font-weight:normal;font-stretch:normal;font-family:'Hiragino Maru Gothic Pro';-inkscape-font-specification:'Hiragino Maru Gothic Pro';fill:#95a5af;fill-opacity:1;stroke:#95a5af;stroke-width:0.5299;stroke-miterlimit:4;stroke-dasharray:none;stroke-opacity:1"
         id="path999" />
      <path
         d="m 21.230276,36.413126 c -2.991427,0 -4.78259,2.160475 -4.78259,5.355024 0,3.286877 1.772697,5.428886 4.819521,5.428886 2.880634,0 4.653331,-2.215872 4.653331,-5.428886 0,-3.213014 -1.735766,-5.355024 -4.690262,-5.355024 z m 0.0554,1.421851 c 1.883491,0 2.93603,1.588042 2.93603,3.914707 0,2.455925 -1.052539,4.025501 -3.065289,4.025501 -1.901957,0 -3.009893,-1.606507 -3.009893,-3.951638 0,-2.455925 1.144867,-3.98857 3.139152,-3.98857 z"
         style="font-style:normal;font-variant:normal;font-weight:normal;font-stretch:normal;font-family:'Hiragino Maru Gothic Pro';-inkscape-font-specification:'Hiragino Maru Gothic Pro';fill:#95a5af;fill-opacity:1;stroke:#95a5af;stroke-width:0.5299;stroke-miterlimit:4;stroke-dasharray:none;stroke-opacity:1"
         id="path1001" />
      <path
         d="m 36.566245,40.013918 c 0,-2.271269 -1.181799,-3.600792 -3.379205,-3.600792 -1.754232,0 -2.862168,0.830952 -3.508464,2.14201 0.01847,-0.350847 0.07386,-0.535503 0.07386,-0.775555 V 37.28101 c 0,-0.480106 -0.332381,-0.720159 -0.812487,-0.720159 -0.517037,0 -0.867883,0.240053 -0.867883,0.720159 v 8.992746 c 0,0.498571 0.332381,0.738624 0.849418,0.738624 0.480105,0 0.830952,-0.240053 0.830952,-0.738624 v -5.170367 c 0,-0.720159 0.184656,-1.255661 0.646295,-1.883492 0.627831,-0.867883 1.458783,-1.311057 2.455925,-1.311057 1.38492,0 2.01275,0.886349 2.01275,2.455925 v 5.908991 c 0,0.498571 0.350847,0.738624 0.849418,0.738624 0.480106,0 0.849418,-0.240053 0.849418,-0.738624 z"
         style="font-style:normal;font-variant:normal;font-weight:normal;font-stretch:normal;font-family:'Hiragino Maru Gothic Pro';-inkscape-font-specification:'Hiragino Maru Gothic Pro';fill:#95a5af;fill-opacity:1;stroke:#95a5af;stroke-width:0.5299;stroke-miterlimit:4;stroke-dasharray:none;stroke-opacity:1"
         id="path1003" />
      <path
         d="m 38.664109,41.823547 c 0,3.176083 1.680369,5.373489 4.671796,5.373489 2.511322,0 3.489999,-1.329523 3.98857,-2.603649 0.0554,-0.129259 0.07386,-0.221587 0.07386,-0.332381 0,-0.332381 -0.258518,-0.553968 -0.590899,-0.62783 -0.129259,-0.0554 -0.258518,-0.07386 -0.387777,-0.07386 -0.29545,0 -0.553968,0.147725 -0.683228,0.498571 -0.350846,0.997143 -0.92328,1.698835 -2.363596,1.698835 -1.957354,0 -2.991427,-1.532644 -2.991427,-3.951638 0,-2.345131 1.052539,-3.970104 2.972961,-3.970104 1.403386,0 1.957354,0.720159 2.3082,1.661904 0.129259,0.313916 0.369312,0.424709 0.646296,0.424709 0.129259,0 0.276984,-0.01846 0.406243,-0.0554 0.276984,-0.110793 0.553968,-0.33238 0.553968,-0.683227 0,-0.07386 -0.01847,-0.184656 -0.0554,-0.276984 -0.46164,-1.163333 -1.458782,-2.511321 -3.896241,-2.511321 -3.028358,0 -4.653331,2.271268 -4.653331,5.428886 z"
         style="font-style:normal;font-variant:normal;font-weight:normal;font-stretch:normal;font-family:'Hiragino Maru Gothic Pro';-inkscape-font-specification:'Hiragino Maru Gothic Pro';fill:#95a5af;fill-opacity:1;stroke:#95a5af;stroke-width:0.5299;stroke-miterlimit:4;stroke-dasharray:none;stroke-opacity:1"
         id="path1005" />
      <path
         d="m 57.050076,42.100531 c 0.572433,0 0.92328,-0.350847 0.92328,-1.015608 0,-0.0554 0,-0.09233 0,-0.147725 -0.184656,-2.418993 -1.698835,-4.524072 -4.394813,-4.524072 -3.009893,0 -4.671796,2.234338 -4.671796,5.428886 0,3.194549 1.754231,5.336559 4.78259,5.336559 2.400528,0 3.471532,-1.21873 4.062431,-2.437459 0.07386,-0.110794 0.09233,-0.221588 0.09233,-0.332381 0,-0.332381 -0.258518,-0.553968 -0.572433,-0.646296 -0.129259,-0.03693 -0.258518,-0.07386 -0.387778,-0.07386 -0.258518,0 -0.498571,0.12926 -0.664761,0.46164 -0.443175,0.978677 -1.181799,1.643439 -2.511322,1.643439 -1.994284,0 -3.120686,-1.421851 -3.157617,-3.69312 z m -6.444494,-1.347989 c 0.240052,-1.809629 1.200264,-2.991427 2.972961,-2.991427 1.698835,0 2.492856,1.347989 2.714443,2.659046 0,0.03693 0,0.07386 0,0.09233 0,0.166191 -0.07386,0.240053 -0.276984,0.240053 z"
         style="font-style:normal;font-variant:normal;font-weight:normal;font-stretch:normal;font-family:'Hiragino Maru Gothic Pro';-inkscape-font-specification:'Hiragino Maru Gothic Pro';fill:#95a5af;fill-opacity:1;stroke:#95a5af;stroke-width:0.5299;stroke-miterlimit:4;stroke-dasharray:none;stroke-opacity:1"
         id="path1007" />
      <path
         d="m 61.633585,46.107566 c 0,-0.332381 -0.01847,-0.720159 -0.09233,-1.071005 0.62783,1.292592 1.680369,2.14201 3.39767,2.14201 2.751374,0 4.413278,-2.178941 4.413278,-5.465818 0,-3.286876 -1.569576,-5.299627 -4.339416,-5.299627 -1.791163,0 -2.806771,0.867884 -3.453067,2.178941 0.0554,-0.313915 0.07386,-0.75709 0.07386,-1.015608 v -0.332381 c 0,-0.46164 -0.350847,-0.683227 -0.812487,-0.683227 -0.517036,0 -0.830952,0.240053 -0.830952,0.720159 v 12.888988 c 0,0.46164 0.313916,0.720158 0.830952,0.720158 0.498572,0 0.812487,-0.258518 0.812487,-0.720158 z m 3.139152,-8.254123 c 1.865025,0 2.880633,1.495714 2.880633,3.896241 0,2.382063 -1.052539,3.970104 -2.917565,3.970104 -1.938887,0 -3.139151,-1.661904 -3.139151,-3.951638 0,-2.271269 1.144867,-3.914707 3.176083,-3.914707 z"
         style="font-style:normal;font-variant:normal;font-weight:normal;font-stretch:normal;font-family:'Hiragino Maru Gothic Pro';-inkscape-font-specification:'Hiragino Maru Gothic Pro';fill:#95a5af;fill-opacity:1;stroke:#95a5af;stroke-width:0.5299;stroke-miterlimit:4;stroke-dasharray:none;stroke-opacity:1"
         id="path1009" />
      <path
         d="m 72.584549,36.671645 h -1.421851 c -0.46164,0 -0.664761,0.313915 -0.664761,0.738624 0,0.424708 0.203121,0.720158 0.646296,0.720158 h 1.440316 v 6.333701 c 0,1.938887 1.107936,2.695977 2.622115,2.695977 0.794021,0 1.292592,-0.147725 1.828095,-0.406243 0.276984,-0.147725 0.387777,-0.406243 0.387777,-0.664762 0,-0.129259 -0.01846,-0.276984 -0.07386,-0.406243 -0.110794,-0.276984 -0.332381,-0.480105 -0.609365,-0.480105 -0.110794,0 -0.221587,0.03693 -0.332381,0.09233 -0.313915,0.184656 -0.62783,0.313916 -1.08947,0.313916 -0.683227,0 -1.071005,-0.387778 -1.071005,-1.292592 V 38.13043 h 2.363597 c 0.443174,0 0.683227,-0.29545 0.683227,-0.720158 0,-0.443175 -0.221587,-0.738624 -0.683227,-0.738624 H 74.246455 V 34.43731 c 0,-0.480105 -0.350846,-0.738624 -0.830952,-0.738624 -0.517037,0 -0.830952,0.258519 -0.830952,0.738624 z"
         style="font-style:normal;font-variant:normal;font-weight:normal;font-stretch:normal;font-family:'Hiragino Maru Gothic Pro';-inkscape-font-specification:'Hiragino Maru Gothic Pro';fill:#95a5af;fill-opacity:1;stroke:#95a5af;stroke-width:0.5299;stroke-miterlimit:4;stroke-dasharray:none;stroke-opacity:1"
         id="path1011" />
      <path
         d="m 87.123036,41.011061 h 4.173225 c 2.93603,0 4.634865,-1.606508 4.634865,-4.376347 0,-2.622116 -1.643438,-4.117829 -4.561003,-4.117829 H 87.27076 c -1.311057,0 -1.883491,0.572434 -1.883491,1.994285 v 11.707189 c 0,0.535503 0.350847,0.794021 0.867883,0.794021 0.498572,0 0.867884,-0.258518 0.867884,-0.775555 z m 0,-1.551111 v -4.727193 c 0,-0.406243 0.184655,-0.646296 0.590899,-0.646296 h 3.545395 c 1.84656,0 2.862168,0.92328 2.862168,2.585184 0,1.791163 -0.997143,2.788305 -2.862168,2.788305 z"
         style="font-style:normal;font-variant:normal;font-weight:normal;font-stretch:normal;font-family:'Hiragino Maru Gothic Pro';-inkscape-font-specification:'Hiragino Maru Gothic Pro';fill:#95a5af;fill-opacity:1;stroke:#95a5af;stroke-width:0.5299;stroke-miterlimit:4;stroke-dasharray:none;stroke-opacity:1"
         id="path1013" />
      <path
         d="m 98.261829,46.273756 c 0,0.498571 0.350847,0.738624 0.867884,0.738624 0.46164,0 0.830952,-0.240053 0.830952,-0.738624 v -5.096505 c 0.01846,-0.775555 0.295445,-1.458782 0.775555,-2.049682 0.46164,-0.590899 1.071,-0.997142 1.86503,-1.015608 0.38777,0 0.62783,0.0554 0.88634,0.110794 0.0554,0.01847 0.1108,0.01847 0.16619,0.01847 0.38778,0 0.6463,-0.332381 0.72016,-0.720159 0.0185,-0.110793 0.0369,-0.221587 0.0369,-0.313915 0,-0.350846 -0.16619,-0.609365 -0.5909,-0.664761 -0.25851,-0.0554 -0.46164,-0.09233 -0.73862,-0.09233 -0.12926,0 -0.25852,0 -0.40624,0.01846 -1.58804,0.0554 -2.52979,1.200264 -2.825239,2.086613 0.03693,-0.29545 0.110794,-0.609365 0.110794,-0.867883 v -0.40624 c 0,-0.480106 -0.369312,-0.720159 -0.830952,-0.720159 -0.517037,0 -0.867884,0.240053 -0.867884,0.720159 z"
         style="font-style:normal;font-variant:normal;font-weight:normal;font-stretch:normal;font-family:'Hiragino Maru Gothic Pro';-inkscape-font-specification:'Hiragino Maru Gothic Pro';fill:#95a5af;fill-opacity:1;stroke:#95a5af;stroke-width:0.5299;stroke-miterlimit:4;stroke-dasharray:none;stroke-opacity:1"
         id="path1015" />
      <path
         d="m 113.63704,42.100531 c 0.57243,0 0.92328,-0.350847 0.92328,-1.015608 0,-0.0554 0,-0.09233 0,-0.147725 -0.18466,-2.418993 -1.69884,-4.524072 -4.39481,-4.524072 -3.0099,0 -4.6718,2.234338 -4.6718,5.428886 0,3.194549 1.75423,5.336559 4.78259,5.336559 2.40053,0 3.47153,-1.21873 4.06243,-2.437459 0.0739,-0.110794 0.0923,-0.221588 0.0923,-0.332381 0,-0.332381 -0.25852,-0.553968 -0.57243,-0.646296 -0.12926,-0.03693 -0.25852,-0.07386 -0.38778,-0.07386 -0.25852,0 -0.49857,0.12926 -0.66476,0.46164 -0.44318,0.978677 -1.1818,1.643439 -2.51132,1.643439 -1.99429,0 -3.12069,-1.421851 -3.15762,-3.69312 z m -6.44449,-1.347989 c 0.24005,-1.809629 1.20026,-2.991427 2.97296,-2.991427 1.69883,0 2.49285,1.347989 2.71444,2.659046 0,0.03693 0,0.07386 0,0.09233 0,0.166191 -0.0739,0.240053 -0.27698,0.240053 z"
         style="font-style:normal;font-variant:normal;font-weight:normal;font-stretch:normal;font-family:'Hiragino Maru Gothic Pro';-inkscape-font-specification:'Hiragino Maru Gothic Pro';fill:#95a5af;fill-opacity:1;stroke:#95a5af;stroke-width:0.5299;stroke-miterlimit:4;stroke-dasharray:none;stroke-opacity:1"
         id="path1017" />
      <path
         d="m 121.11965,42.802224 c -0.24006,0.62783 -0.5909,1.938888 -0.75709,2.622115 -0.14773,-0.664762 -0.51704,-1.901957 -0.73863,-2.529787 l -2.14201,-5.816664 c -0.12925,-0.369312 -0.40624,-0.517037 -0.73862,-0.517037 -0.11079,0 -0.24005,0.01847 -0.36931,0.0554 -0.35085,0.09233 -0.5909,0.369312 -0.5909,0.720158 0,0.09233 0.0185,0.184656 0.0554,0.29545 l 3.39767,8.623435 c 0.22158,0.572433 0.60936,0.757089 1.10793,0.757089 0.48011,0 0.88635,-0.16619 1.10794,-0.738624 l 3.39767,-8.6419 c 0.0554,-0.110794 0.0739,-0.221587 0.0739,-0.313915 0,-0.350847 -0.24005,-0.590899 -0.60936,-0.701693 -0.12926,-0.03693 -0.24006,-0.0554 -0.35085,-0.0554 -0.33238,0 -0.5909,0.166191 -0.73862,0.535503 z"
         style="font-style:normal;font-variant:normal;font-weight:normal;font-stretch:normal;font-family:'Hiragino Maru Gothic Pro';-inkscape-font-specification:'Hiragino Maru Gothic Pro';fill:#95a5af;fill-opacity:1;stroke:#95a5af;stroke-width:0.5299;stroke-miterlimit:4;stroke-dasharray:none;stroke-opacity:1"
         id="path1019" />
      <path
         d="m 126.74761,46.273756 c 0,0.498571 0.31392,0.738624 0.83095,0.738624 0.49857,0 0.84942,-0.240053 0.84942,-0.738624 V 37.28101 c 0,-0.480106 -0.35085,-0.720159 -0.84942,-0.720159 -0.51703,0 -0.83095,0.240053 -0.83095,0.720159 z m 0.84942,-13.88613 c -0.70169,0 -1.25566,0.535502 -1.25566,1.237195 0,0.720158 0.55397,1.255661 1.25566,1.255661 0.68323,0 1.23719,-0.535503 1.23719,-1.255661 0,-0.701693 -0.55396,-1.237195 -1.23719,-1.237195 z"
         style="font-style:normal;font-variant:normal;font-weight:normal;font-stretch:normal;font-family:'Hiragino Maru Gothic Pro';-inkscape-font-specification:'Hiragino Maru Gothic Pro';fill:#95a5af;fill-opacity:1;stroke:#95a5af;stroke-width:0.5299;stroke-miterlimit:4;stroke-dasharray:none;stroke-opacity:1"
         id="path1021" />
      <path
         d="m 138.73871,42.100531 c 0.57243,0 0.92328,-0.350847 0.92328,-1.015608 0,-0.0554 0,-0.09233 0,-0.147725 -0.18466,-2.418993 -1.69884,-4.524072 -4.39481,-4.524072 -3.0099,0 -4.6718,2.234338 -4.6718,5.428886 0,3.194549 1.75423,5.336559 4.78259,5.336559 2.40053,0 3.47153,-1.21873 4.06243,-2.437459 0.0739,-0.110794 0.0923,-0.221588 0.0923,-0.332381 0,-0.332381 -0.25852,-0.553968 -0.57243,-0.646296 -0.12926,-0.03693 -0.25852,-0.07386 -0.38778,-0.07386 -0.25852,0 -0.49857,0.12926 -0.66476,0.46164 -0.44318,0.978677 -1.1818,1.643439 -2.51132,1.643439 -1.99429,0 -3.12069,-1.421851 -3.15762,-3.69312 z m -6.4445,-1.347989 c 0.24006,-1.809629 1.20027,-2.991427 2.97297,-2.991427 1.69883,0 2.49285,1.347989 2.71444,2.659046 0,0.03693 0,0.07386 0,0.09233 0,0.166191 -0.0739,0.240053 -0.27698,0.240053 z"
         style="font-style:normal;font-variant:normal;font-weight:normal;font-stretch:normal;font-family:'Hiragino Maru Gothic Pro';-inkscape-font-specification:'Hiragino Maru Gothic Pro';fill:#95a5af;fill-opacity:1;stroke:#95a5af;stroke-width:0.5299;stroke-miterlimit:4;stroke-dasharray:none;stroke-opacity:1"
         id="path1023" />
      <path
         d="m 147.01535,41.786616 c 0.33238,-1.21873 0.5355,-2.418994 0.77555,-3.822379 0.24005,1.38492 0.46164,2.603649 0.77556,3.822379 l 1.16333,4.48714 c 0.12926,0.535503 0.5909,0.738624 1.1264,0.738624 0.48011,0 0.88635,-0.203121 1.05254,-0.738624 l 2.80677,-8.771159 c 0.0185,-0.07386 0.0369,-0.166191 0.0369,-0.221587 0,-0.387778 -0.35085,-0.627831 -0.70169,-0.701693 -0.0739,-0.01847 -0.16619,-0.01847 -0.24005,-0.01847 -0.35085,0 -0.6463,0.147725 -0.75709,0.535503 l -1.34799,4.690262 c -0.31392,1.144867 -0.5909,2.326665 -0.84942,3.822379 -0.27698,-1.495714 -0.48011,-2.714443 -0.77556,-3.822379 l -1.14486,-4.431744 c -0.14773,-0.553968 -0.60937,-0.794021 -1.14487,-0.794021 -0.51704,0 -0.97868,0.240053 -1.14487,0.794021 l -1.20026,4.431744 c -0.33238,1.181798 -0.5355,2.437459 -0.77556,3.803913 -0.24005,-1.366454 -0.49857,-2.622115 -0.81248,-3.803913 l -1.27413,-4.690262 c -0.11079,-0.406244 -0.40624,-0.535503 -0.73862,-0.535503 -0.1108,0 -0.20312,0.01847 -0.31392,0.03693 -0.35084,0.07386 -0.66476,0.29545 -0.66476,0.683228 0,0.0554 0.0185,0.147724 0.0369,0.221587 l 2.65905,8.771159 c 0.16619,0.535503 0.57243,0.738624 1.071,0.738624 0.51704,0 0.97868,-0.184656 1.1264,-0.738624 z"
         style="font-style:normal;font-variant:normal;font-weight:normal;font-stretch:normal;font-family:'Hiragino Maru Gothic Pro';-inkscape-font-specification:'Hiragino Maru Gothic Pro';fill:#95a5af;fill-opacity:1;stroke:#95a5af;stroke-width:0.5299;stroke-miterlimit:4;stroke-dasharray:none;stroke-opacity:1"
         id="path1025" />
      <path
         style="fill:#95a5af;stroke:#95a5af;stroke-width:0.33812002;stroke-linecap:butt;stroke-linejoin:miter;stroke-opacity:1;fill-opacity:1;stroke-miterlimit:4;stroke-dasharray:none"
         d="m 156.83266,47.15103 5.02849,-13.598417 h 35.19946 V 47.15103 Z"
         id="path2307" />
    </g>
  </g>
</svg>
