<?xml version="1.0" encoding="UTF-8" standalone="no"?>
<svg
   xmlns:dc="http://purl.org/dc/elements/1.1/"
   xmlns:cc="http://creativecommons.org/ns#"
   xmlns:rdf="http://www.w3.org/1999/02/22-rdf-syntax-ns#"
   xmlns:svg="http://www.w3.org/2000/svg"
   xmlns="http://www.w3.org/2000/svg"
   xmlns:sodipodi="http://sodipodi.sourceforge.net/DTD/sodipodi-0.dtd"
   xmlns:inkscape="http://www.inkscape.org/namespaces/inkscape"
   width="200mm"
   height="200mm"
   viewBox="0 0 200 200"
   version="1.1"
   id="svg8"
   inkscape:version="1.0.1 (c497b03c, 2020-09-10)"
   sodipodi:docname="code.svg">
  <defs
     id="defs2" />
  <sodipodi:namedview
     id="base"
     pagecolor="#ffffff"
     bordercolor="#666666"
     borderopacity="1.0"
     inkscape:pageopacity="0.0"
     inkscape:pageshadow="2"
     inkscape:zoom="0.98994949"
     inkscape:cx="527.55024"
     inkscape:cy="382.09318"
     inkscape:document-units="mm"
     inkscape:current-layer="layer1"
     inkscape:document-rotation="0"
     showgrid="true"
     inkscape:window-width="1792"
     inkscape:window-height="1075"
     inkscape:window-x="0"
     inkscape:window-y="23"
     inkscape:window-maximized="1">
    <inkscape:grid
       type="xygrid"
       id="grid1593" />
  </sodipodi:namedview>
  <metadata
     id="metadata5">
    <rdf:RDF>
      <cc:Work
         rdf:about="">
        <dc:format>image/svg+xml</dc:format>
        <dc:type
           rdf:resource="http://purl.org/dc/dcmitype/StillImage" />
        <dc:title></dc:title>
      </cc:Work>
    </rdf:RDF>
  </metadata>
  <g
     inkscape:label="图层 1"
     inkscape:groupmode="layer"
     id="layer1">
    <g
       aria-label="{ "
       id="text837"
       style="font-style:normal;font-weight:normal;font-size:10.58329999999999949px;line-height:1.25;font-family:sans-serif;fill:#333333;fill-opacity:1;stroke:#333333;stroke-width:2.80090575;stroke-linecap:round;stroke-linejoin:round;stroke-miterlimit:4;stroke-dasharray:none;stroke-opacity:1"
       transform="matrix(0.85677674,0,0,1.3389916,-0.73885248,-29.558072)">
      <path
         d="m 63.128348,147.21012 h -7.75144 q -9.250053,0 -15.037795,-5.16763 -5.736066,-5.11595 -5.736066,-14.83109 v -7.69976 q 0,-8.73329 -4.28913,-13.64254 -4.289131,-4.96092 -13.125773,-4.96092 h -2.635489 v -8.0615 h 2.635489 q 8.836642,0 13.125773,-4.909245 4.28913,-4.960922 4.28913,-13.694212 v -7.699764 q 0,-9.715139 5.736066,-14.831089 5.787742,-5.167627 15.037795,-5.167627 h 7.75144 v 7.131325 h -5.891095 q -7.027972,0 -10.231901,3.255605 -3.152253,3.255605 -3.152253,10.490283 v 9.043347 q 0,7.183001 -3.979072,12.092247 -3.979073,4.857569 -11.058722,7.699764 v 1.240231 q 7.079649,2.842195 11.058722,7.751435 3.979072,4.85757 3.979072,12.04058 v 9.04334 q 0,7.23468 3.152253,10.49029 3.203929,3.2556 10.231901,3.2556 h 5.891095 z"
         style="font-size:105.83299999999999841px;fill:#333333;stroke:#333333;stroke-width:2.80090575;stroke-linecap:round;stroke-linejoin:round;stroke-miterlimit:4;stroke-dasharray:none;stroke-opacity:1"
         id="path839" />
    </g>
    <g
       aria-label="{ "
       id="text837-7"
       style="font-style:normal;font-weight:normal;font-size:10.58329999999999949px;line-height:1.25;font-family:sans-serif;fill:#333333;fill-opacity:1;stroke:#333333;stroke-width:2.80326741;stroke-linecap:round;stroke-linejoin:round;stroke-miterlimit:4;stroke-dasharray:none;stroke-opacity:1"
       transform="matrix(-0.8553048,0,0,1.3390369,200.72053,-29.562455)">
      <path
         d="m 63.128348,147.21012 h -7.75144 q -9.250053,0 -15.037795,-5.16763 -5.736066,-5.11595 -5.736066,-14.83109 v -7.69976 q 0,-8.73329 -4.28913,-13.64254 -4.289131,-4.96092 -13.125773,-4.96092 h -2.635489 v -8.0615 h 2.635489 q 8.836642,0 13.125773,-4.909245 4.28913,-4.960922 4.28913,-13.694212 v -7.699764 q 0,-9.715139 5.736066,-14.831089 5.787742,-5.167627 15.037795,-5.167627 h 7.75144 v 7.131325 h -5.891095 q -7.027972,0 -10.231901,3.255605 -3.152253,3.255605 -3.152253,10.490283 v 9.043347 q 0,7.183001 -3.979072,12.092247 -3.979073,4.857569 -11.058722,7.699764 v 1.240231 q 7.079649,2.842195 11.058722,7.751435 3.979072,4.85757 3.979072,12.04058 v 9.04334 q 0,7.23468 3.152253,10.49029 3.203929,3.2556 10.231901,3.2556 h 5.891095 z"
         style="font-size:105.83299999999999841px;fill:#333333;stroke:#333333;stroke-width:2.80326741;stroke-linecap:round;stroke-linejoin:round;stroke-miterlimit:4;stroke-dasharray:none;stroke-opacity:1"
         id="path839-3" />
    </g>
    <rect
       style="fill:#333333;stroke-width:0;stroke-linecap:round;stroke-linejoin:round"
       id="rect1595"
       width="80"
       height="10"
       x="60"
       y="55"
       rx="5"
       ry="5" />
    <rect
       style="fill:#333333;stroke-width:0;stroke-linecap:round;stroke-linejoin:round"
       id="rect1595-5"
       width="35"
       height="10"
       x="60"
       y="95"
       rx="5"
       ry="5" />
    <rect
       style="fill:#333333;stroke-width:0;stroke-linecap:round;stroke-linejoin:round"
       id="rect1595-5-8"
       width="25"
       height="10"
       x="60"
       y="115"
       rx="5"
       ry="5" />
    <rect
       style="fill:#333333;stroke-width:0;stroke-linecap:round;stroke-linejoin:round"
       id="rect1595-7"
       width="80"
       height="10"
       x="60"
       y="75"
       rx="5"
       ry="5" />
    <rect
       style="fill:#333333;stroke-width:0;stroke-linecap:round;stroke-linejoin:round"
       id="rect1595-7-4"
       width="80"
       height="10"
       x="60"
       y="135"
       rx="5"
       ry="5" />
    <rect
       style="fill:#333333;stroke-width:0;stroke-linecap:round;stroke-linejoin:round"
       id="rect1595-5-1"
       width="50"
       height="10"
       x="90"
       y="115"
       rx="5"
       ry="5" />
    <rect
       style="fill:#333333;stroke-width:0;stroke-linecap:round;stroke-linejoin:round"
       id="rect1595-5-2"
       width="40"
       height="10"
       x="100"
       y="95"
       rx="5"
       ry="5" />
  </g>
</svg>
