<?xml version="1.0" encoding="UTF-8" standalone="no"?>
<svg
   xmlns:dc="http://purl.org/dc/elements/1.1/"
   xmlns:cc="http://creativecommons.org/ns#"
   xmlns:rdf="http://www.w3.org/1999/02/22-rdf-syntax-ns#"
   xmlns:svg="http://www.w3.org/2000/svg"
   xmlns="http://www.w3.org/2000/svg"
   xmlns:sodipodi="http://sodipodi.sourceforge.net/DTD/sodipodi-0.dtd"
   xmlns:inkscape="http://www.inkscape.org/namespaces/inkscape"
   width="200"
   height="200"
   viewBox="0 0 52.916666 52.916666"
   version="1.1"
   id="svg8"
   inkscape:version="1.0.1 (c497b03c, 2020-09-10)"
   sodipodi:docname="coke.svg">
  <defs
     id="defs2" />
  <sodipodi:namedview
     id="base"
     pagecolor="#ffffff"
     bordercolor="#666666"
     borderopacity="1.0"
     inkscape:pageopacity="0.0"
     inkscape:pageshadow="2"
     inkscape:zoom="4"
     inkscape:cx="114.13903"
     inkscape:cy="97.219462"
     inkscape:document-units="mm"
     inkscape:current-layer="layer1"
     inkscape:document-rotation="0"
     showgrid="true"
     units="px"
     inkscape:window-width="1792"
     inkscape:window-height="1075"
     inkscape:window-x="0"
     inkscape:window-y="23"
     inkscape:window-maximized="1"
     showguides="false">
    <inkscape:grid
       type="xygrid"
       id="grid833" />
  </sodipodi:namedview>
  <metadata
     id="metadata5">
    <rdf:RDF>
      <cc:Work
         rdf:about="">
        <dc:format>image/svg+xml</dc:format>
        <dc:type
           rdf:resource="http://purl.org/dc/dcmitype/StillImage" />
        <dc:title></dc:title>
      </cc:Work>
    </rdf:RDF>
  </metadata>
  <g
     inkscape:label="图层 1"
     inkscape:groupmode="layer"
     id="layer1">
    <path
       style="fill:#d40000;fill-opacity:1;stroke:#333333;stroke-width:1.32292;stroke-linecap:butt;stroke-linejoin:round;stroke-miterlimit:4;stroke-dasharray:none;stroke-opacity:1"
       d="m 32.066837,6.6571262 6.874077,3.9687498 -1.984375,3.437038 -6.874076,-3.96875 z"
       id="path858" />
    <path
       style="fill:none;fill-opacity:1;stroke:#333333;stroke-width:1.32292;stroke-linecap:butt;stroke-linejoin:round;stroke-miterlimit:4;stroke-dasharray:none;stroke-opacity:1"
       d="m 29.222492,11.583503 6.874076,3.96875 c 0,0 -1.322916,2.291358 -0.838695,4.098497 0.484221,1.807137 1.629901,2.468595 0.968442,3.614275 l -3.96875,6.874076 c -0.661458,1.14568 -2.468596,1.629901 -3.130055,2.77558 -0.661458,1.14568 -0.177236,2.952817 -0.838695,4.098497 l -1.984375,3.437038 c -0.661458,1.14568 -3.11911,2.75644 -5.421413,1.452664 L 13.975875,37.991417 C 11.673571,36.687643 11.894826,33.6584 12.556285,32.51272 l 1.984375,-3.437038 c 0.661458,-1.14568 2.468596,-1.629901 3.130055,-2.77558 0.661458,-1.14568 0.167551,-2.958464 0.838695,-4.098497 l 3.959892,-6.726433 c 0.671144,-1.140037 1.815998,-0.631868 3.623135,-1.116089 1.807138,-0.484222 3.130055,-2.77558 3.130055,-2.77558 z"
       id="path862"
       sodipodi:nodetypes="ccssssssssssssssc" />
    <path
       style="fill:none;stroke:#333333;stroke-width:2.64583;stroke-linecap:round;stroke-linejoin:miter;stroke-miterlimit:4;stroke-dasharray:none;stroke-opacity:1"
       d="m 11.90625,11.906249 c -5.2916667,0 0,14.552084 -5.2916668,14.552084"
       id="path864"
       sodipodi:nodetypes="cc" />
    <path
       style="fill:none;stroke:#333333;stroke-width:2.64583;stroke-linecap:round;stroke-linejoin:miter;stroke-miterlimit:4;stroke-dasharray:none;stroke-opacity:1"
       d="m 11.90625,41.010416 c -5.2916667,0 0,-14.552083 -5.2916667,-14.552083"
       id="path864-3"
       sodipodi:nodetypes="cc" />
    <path
       style="fill:none;stroke:#333333;stroke-width:2.64583;stroke-linecap:round;stroke-linejoin:miter;stroke-miterlimit:4;stroke-dasharray:none;stroke-opacity:1"
       d="m 41.010416,11.906249 c 5.291667,0 0,14.552084 5.291667,14.552084"
       id="path864-35"
       sodipodi:nodetypes="cc" />
    <path
       style="fill:none;stroke:#333333;stroke-width:2.64583;stroke-linecap:round;stroke-linejoin:miter;stroke-miterlimit:4;stroke-dasharray:none;stroke-opacity:1"
       d="m 41.010416,41.010417 c 5.291667,0 0,-14.552084 5.291667,-14.552084"
       id="path864-3-5"
       sodipodi:nodetypes="cc" />
    <rect
       style="fill:#808080;fill-opacity:1;stroke:#333333;stroke-width:1.32292;stroke-linecap:round;stroke-linejoin:round;stroke-miterlimit:4;stroke-dasharray:none;paint-order:markers stroke fill;stroke-opacity:1"
       id="rect899"
       width="15.875"
       height="7.9375"
       x="27.130426"
       y="2.034946"
       transform="rotate(30)" />
    <rect
       style="fill:#808080;fill-opacity:1;stroke:none;stroke-width:1.32292;stroke-linecap:round;stroke-linejoin:miter;stroke-miterlimit:4;stroke-dasharray:none;stroke-opacity:1;paint-order:markers stroke fill"
       id="rect901"
       width="7.9375"
       height="3.96875"
       x="31.099176"
       y="-10.268179"
       transform="rotate(30)" />
    <path
       style="fill:#d40000;fill-opacity:1;stroke:#333333;stroke-width:1.32292;stroke-linecap:butt;stroke-linejoin:round;stroke-miterlimit:4;stroke-dasharray:none;stroke-opacity:1"
       d="m 62.177252,6.2177094 h 7.937501 v 3.9687486 h -7.937501 z"
       id="path858-9" />
    <path
       style="fill:#333333;fill-opacity:1;stroke:#333333;stroke-width:1.32292;stroke-linecap:butt;stroke-linejoin:round;stroke-miterlimit:4;stroke-dasharray:none;stroke-opacity:1"
       d="m 62.177165,11.906249 h 7.937501 c 0,0 0,2.645833 1.322917,3.96875 1.322916,1.322916 2.645833,1.322916 2.645833,2.645833 v 7.9375 c 0,1.322917 -1.322917,2.645833 -1.322917,3.96875 0,1.322917 1.322917,2.645834 1.322917,3.96875 v 3.96875 c 0,1.322917 -1.323009,3.946703 -3.96875,3.96875 l -7.937501,0.06615 c -2.645741,0.02204 -3.96875,-2.711979 -3.96875,-4.034895 v -3.968753 c 0,-1.322917 1.322917,-2.645832 1.322917,-3.968749 0,-1.322917 -1.334128,-2.645881 -1.322917,-3.96875 l 0.06615,-7.805208 c 0.01121,-1.322872 1.256767,-1.455212 2.579683,-2.778128 1.322917,-1.322917 1.322917,-3.96875 1.322917,-3.96875 z"
       id="path862-0"
       sodipodi:nodetypes="ccssssssssssssssc" />
    <rect
       style="fill:#808080;fill-opacity:1;stroke:none;stroke-width:1.32292;stroke-linecap:round;stroke-linejoin:round;stroke-miterlimit:4;stroke-dasharray:none;paint-order:markers stroke fill"
       id="rect899-5"
       width="15.875"
       height="7.9375"
       x="58.20842"
       y="18.520834" />
    <rect
       style="fill:#808080;fill-opacity:1;stroke:none;stroke-width:1.32292;stroke-linecap:round;stroke-linejoin:miter;stroke-miterlimit:4;stroke-dasharray:none;stroke-opacity:1;paint-order:markers stroke fill"
       id="rect901-9"
       width="7.9375"
       height="3.96875"
       x="62.17717"
       y="6.21771" />
  </g>
</svg>
