<?xml version="1.0" encoding="UTF-8" standalone="no"?>
<svg
   xmlns:dc="http://purl.org/dc/elements/1.1/"
   xmlns:cc="http://creativecommons.org/ns#"
   xmlns:rdf="http://www.w3.org/1999/02/22-rdf-syntax-ns#"
   xmlns:svg="http://www.w3.org/2000/svg"
   xmlns="http://www.w3.org/2000/svg"
   xmlns:sodipodi="http://sodipodi.sourceforge.net/DTD/sodipodi-0.dtd"
   xmlns:inkscape="http://www.inkscape.org/namespaces/inkscape"
   class="icon"
   width="32"
   height="32"
   viewBox="0 0 896 896"
   version="1.1"
   id="svg12"
   sodipodi:docname="cunpan.svg"
   inkscape:version="1.0.1 (c497b03c, 2020-09-10)">
  <metadata
     id="metadata18">
    <rdf:RDF>
      <cc:Work
         rdf:about="">
        <dc:format>image/svg+xml</dc:format>
        <dc:type
           rdf:resource="http://purl.org/dc/dcmitype/StillImage" />
        <dc:title></dc:title>
      </cc:Work>
    </rdf:RDF>
  </metadata>
  <defs
     id="defs16" />
  <sodipodi:namedview
     pagecolor="#ffffff"
     bordercolor="#666666"
     borderopacity="1"
     objecttolerance="10"
     gridtolerance="10"
     guidetolerance="10"
     inkscape:pageopacity="0"
     inkscape:pageshadow="2"
     inkscape:window-width="1792"
     inkscape:window-height="1075"
     id="namedview14"
     showgrid="false"
     inkscape:zoom="3.285"
     inkscape:cx="100"
     inkscape:cy="100"
     inkscape:window-x="0"
     inkscape:window-y="23"
     inkscape:window-maximized="1"
     inkscape:current-layer="svg12" />
  <path
     d="M 777.38219,252.70446 661.82227,137.14863 C 636.75843,112.07967 602.76215,98 567.31585,98 H 168.61733 C 129.61606,98 98,129.61914 98,168.61734 v 577.3115 c 0,38.98796 31.6089,70.59687 70.59687,70.59687 h 577.31661 c 38.9982,0 70.61426,-31.61402 70.61426,-70.61222 V 347.21497 c 10e-4,-35.44835 -14.08171,-69.44156 -39.14555,-94.51051 z M 247.35154,144.25856 H 471.605 v 117.00483 c 0,6.9155 5.65888,12.57439 12.57438,12.57439 h 53.99782 c 6.91551,0 12.57439,-5.65888 12.57439,-12.57439 V 144.25856 h 29.78026 c 24.66577,0 44.6622,19.9954 44.6622,44.6622 v 150.3902 c 0,14.93208 -12.21726,27.14933 -27.14934,27.14933 H 274.50087 c -14.93208,0 -27.14934,-12.2193 -27.14934,-18.95879 z M 708.13301,765.9928 H 206.3937 V 517.69778 c 0,-14.92901 12.21726,-27.14933 27.14934,-27.14933 h 447.44064 c 14.93208,0 27.14933,12.2193 27.14933,27.14933 z"
     id="path10" />
</svg>
