<?xml version="1.0" encoding="UTF-8" standalone="no"?>
<svg
   xmlns:dc="http://purl.org/dc/elements/1.1/"
   xmlns:cc="http://creativecommons.org/ns#"
   xmlns:rdf="http://www.w3.org/1999/02/22-rdf-syntax-ns#"
   xmlns:svg="http://www.w3.org/2000/svg"
   xmlns="http://www.w3.org/2000/svg"
   xmlns:sodipodi="http://sodipodi.sourceforge.net/DTD/sodipodi-0.dtd"
   xmlns:inkscape="http://www.inkscape.org/namespaces/inkscape"
   width="200"
   height="200"
   viewBox="0 0 52.916666 52.916666"
   version="1.1"
   id="svg8"
   inkscape:version="1.0.1 (c497b03c, 2020-09-10)"
   sodipodi:docname="db.svg">
  <defs
     id="defs2" />
  <sodipodi:namedview
     id="base"
     pagecolor="#ffffff"
     bordercolor="#666666"
     borderopacity="1.0"
     inkscape:pageopacity="0"
     inkscape:pageshadow="2"
     inkscape:zoom="3.8583845"
     inkscape:cx="111.82259"
     inkscape:cy="106.65296"
     inkscape:document-units="mm"
     inkscape:current-layer="layer1"
     inkscape:document-rotation="0"
     showgrid="false"
     units="px"
     inkscape:window-width="1792"
     inkscape:window-height="1075"
     inkscape:window-x="0"
     inkscape:window-y="23"
     inkscape:window-maximized="1"
     showguides="false">
    <inkscape:grid
       type="xygrid"
       id="grid833" />
  </sodipodi:namedview>
  <metadata
     id="metadata5">
    <rdf:RDF>
      <cc:Work
         rdf:about="">
        <dc:format>image/svg+xml</dc:format>
        <dc:type
           rdf:resource="http://purl.org/dc/dcmitype/StillImage" />
        <dc:title />
      </cc:Work>
    </rdf:RDF>
  </metadata>
  <g
     inkscape:label="图层 1"
     inkscape:groupmode="layer"
     id="layer1">
    <path
       id="path2702"
       style="color:#000000;font-style:normal;font-variant:normal;font-weight:normal;font-stretch:normal;font-size:medium;line-height:normal;font-family:sans-serif;font-variant-ligatures:normal;font-variant-position:normal;font-variant-caps:normal;font-variant-numeric:normal;font-variant-alternates:normal;font-variant-east-asian:normal;font-feature-settings:normal;font-variation-settings:normal;text-indent:0;text-align:start;text-decoration:none;text-decoration-line:none;text-decoration-style:solid;text-decoration-color:#000000;letter-spacing:normal;word-spacing:normal;text-transform:none;writing-mode:lr-tb;direction:ltr;text-orientation:mixed;dominant-baseline:auto;baseline-shift:baseline;text-anchor:start;white-space:normal;shape-padding:0;shape-margin:0;inline-size:0;clip-rule:nonzero;display:inline;overflow:visible;visibility:visible;opacity:1;isolation:auto;mix-blend-mode:normal;color-interpolation:sRGB;color-interpolation-filters:linearRGB;solid-color:#000000;solid-opacity:1;vector-effect:none;fill:#666666;fill-opacity:1;fill-rule:nonzero;stroke:none;stroke-width:2.64583;stroke-linecap:round;stroke-linejoin:round;stroke-miterlimit:4;stroke-dasharray:none;stroke-dashoffset:0;stroke-opacity:1;paint-order:markers stroke fill;color-rendering:auto;image-rendering:auto;shape-rendering:auto;text-rendering:auto;enable-background:accumulate;stop-color:#000000;stop-opacity:1"
       d="m 46.302083,18.520833 v 0.444418 c 0.157816,-0.141577 0.309083,-0.287784 0.443899,-0.444418 z m -5.291667,0.151929 c -0.297595,0.09295 -0.603927,0.1843 -0.930174,0.271301 -0.533993,0.142397 -1.114827,0.273857 -1.715659,0.399459 v 2.703711 c 0.845897,-0.165158 1.648838,-0.347155 2.39727,-0.546737 0.08469,-0.02258 0.165201,-0.04628 0.248563,-0.06925 z M 11.15194,18.236677 v 2.449975 c 2.061881,1.257283 10.493959,2.278751 12.66056,2.362596 v -2.64635 c -2.823017,-0.01056 -9.946153,-0.833442 -12.66056,-2.166221 z m 25.889726,1.360064 c -0.838557,0.146553 -1.716852,0.280238 -2.645833,0.392225 v 2.664953 c 0.916617,-0.105389 1.799624,-0.228942 2.645833,-0.368453 z m -3.96875,0.535885 c -0.854644,0.08347 -1.737537,0.152715 -2.645833,0.204122 v 2.650484 c 0.905589,-0.04861 1.786662,-0.11533 2.645833,-0.195337 z"
       sodipodi:nodetypes="cccccsccsccccccccccccccccc" />
    <path
       style="color:#000000;font-style:normal;font-variant:normal;font-weight:normal;font-stretch:normal;font-size:medium;line-height:normal;font-family:sans-serif;font-variant-ligatures:normal;font-variant-position:normal;font-variant-caps:normal;font-variant-numeric:normal;font-variant-alternates:normal;font-variant-east-asian:normal;font-feature-settings:normal;font-variation-settings:normal;text-indent:0;text-align:start;text-decoration:none;text-decoration-line:none;text-decoration-style:solid;text-decoration-color:#000000;letter-spacing:normal;word-spacing:normal;text-transform:none;writing-mode:lr-tb;direction:ltr;text-orientation:mixed;dominant-baseline:auto;baseline-shift:baseline;text-anchor:start;white-space:normal;shape-padding:0;shape-margin:0;inline-size:0;clip-rule:nonzero;display:inline;overflow:visible;visibility:visible;opacity:1;isolation:auto;mix-blend-mode:normal;color-interpolation:sRGB;color-interpolation-filters:linearRGB;solid-color:#000000;solid-opacity:1;vector-effect:none;fill:#333333;fill-opacity:1;fill-rule:nonzero;stroke:none;stroke-width:2.64583;stroke-linecap:round;stroke-linejoin:round;stroke-miterlimit:4;stroke-dasharray:none;stroke-dashoffset:0;stroke-opacity:1;paint-order:markers stroke fill;color-rendering:auto;image-rendering:auto;shape-rendering:auto;text-rendering:auto;enable-background:accumulate;stop-color:#000000;stop-opacity:1"
       d="m 26.458984,3.96875 c -5.586943,0 -10.643705,0.668307 -14.412109,1.7988281 -1.884202,0.5652606 -3.4490214,1.2362832 -4.6386719,2.0800781 -1.1896505,0.843795 -2.1171875,1.9787325 -2.1171875,3.3964848 0,1.417752 0.927537,2.552689 2.1171875,3.396484 1.1896505,0.843795 2.7544699,1.514818 4.6386719,2.080078 3.768404,1.130521 8.825166,1.800781 14.412109,1.800781 5.586944,0 10.643706,-0.67026 14.41211,-1.800781 1.884202,-0.56526 3.447068,-1.236283 4.636718,-2.080078 C 46.697463,13.79683 47.625,12.661893 47.625,11.244141 47.625,9.8263887 46.697463,8.6914512 45.507812,7.8476562 44.318162,7.0038613 42.755296,6.3328387 40.871094,5.7675781 37.10269,4.637057 32.045928,3.96875 26.458984,3.96875 Z m 0,2.6464844 c 5.372457,0 10.23677,0.6634136 13.650391,1.6875 1.706811,0.5120432 3.048541,1.1224758 3.867187,1.7031246 0.818647,0.58065 1.001954,1.012124 1.001954,1.238282 0,0.226158 -0.183307,0.657632 -1.001954,1.238281 -0.818646,0.580649 -2.160376,1.193035 -3.867187,1.705078 -3.413621,1.024086 -8.277934,1.6875 -13.650391,1.6875 -5.372456,0 -10.238722,-0.663414 -13.652343,-1.6875 C 11.09983,13.675457 9.7580994,13.063071 8.9394531,12.482422 8.1208068,11.901773 7.9375,11.470299 7.9375,11.244141 c 0,-0.226158 0.1833068,-0.657632 1.0019531,-1.238282 0.8186463,-0.5806488 2.1603769,-1.1910814 3.8671879,-1.7031246 3.413621,-1.0240864 8.279887,-1.6875 13.652343,-1.6875 z"
       id="path2513" />
    <path
       id="path2463"
       style="color:#000000;font-style:normal;font-variant:normal;font-weight:normal;font-stretch:normal;font-size:medium;line-height:normal;font-family:sans-serif;font-variant-ligatures:normal;font-variant-position:normal;font-variant-caps:normal;font-variant-numeric:normal;font-variant-alternates:normal;font-variant-east-asian:normal;font-feature-settings:normal;font-variation-settings:normal;text-indent:0;text-align:start;text-decoration:none;text-decoration-line:none;text-decoration-style:solid;text-decoration-color:#000000;letter-spacing:normal;word-spacing:normal;text-transform:none;writing-mode:lr-tb;direction:ltr;text-orientation:mixed;dominant-baseline:auto;baseline-shift:baseline;text-anchor:start;white-space:normal;shape-padding:0;shape-margin:0;inline-size:0;clip-rule:nonzero;display:inline;overflow:visible;visibility:visible;opacity:1;isolation:auto;mix-blend-mode:normal;color-interpolation:sRGB;color-interpolation-filters:linearRGB;solid-color:#000000;solid-opacity:1;vector-effect:none;fill:#333333;fill-opacity:1;fill-rule:nonzero;stroke:none;stroke-width:2.64583;stroke-linecap:round;stroke-linejoin:round;stroke-miterlimit:4;stroke-dasharray:none;stroke-dashoffset:0;stroke-opacity:1;paint-order:markers stroke fill;color-rendering:auto;image-rendering:auto;shape-rendering:auto;text-rendering:auto;enable-background:accumulate;stop-color:#000000;stop-opacity:1"
       d="m 5.2999367,19.84375 c -0.00444,0.06857 -0.00827,0.137275 -0.00827,0.207222 0,1.417752 0.9275328,2.552379 2.1171833,3.396175 1.1896506,0.843796 2.754275,1.514716 4.638477,2.079977 3.768404,1.13052 8.825097,1.798857 14.412039,1.798857 5.586944,0 10.643637,-0.668337 14.412042,-1.798857 1.884201,-0.565261 3.447275,-1.236181 4.636926,-2.079977 1.189651,-0.843796 2.117182,-1.978423 2.117182,-3.396175 0,-0.06995 -0.0043,-0.138652 -0.0088,-0.207222 H 44.93781 c 0.02998,0.08133 0.04134,0.150683 0.04134,0.207222 0,0.226158 -0.183359,0.657519 -1.002006,1.238168 -0.818647,0.580649 -2.160654,1.191211 -3.867465,1.703254 -3.41362,1.024086 -8.277873,1.689304 -13.65033,1.689304 -5.372455,0 -10.238775,-0.665218 -13.652396,-1.689304 C 11.100142,22.480351 9.7586521,21.869789 8.9400056,21.28914 8.1213594,20.708491 7.9379997,20.27713 7.9379997,20.050972 c 0,-0.05654 0.011365,-0.125896 0.041341,-0.207222 z" />
    <rect
       style="fill:#333333;fill-opacity:1;stroke:none;stroke-width:2.13315;stroke-linecap:round;stroke-linejoin:round;stroke-miterlimit:4;stroke-dasharray:none;stroke-opacity:1;paint-order:markers stroke fill"
       id="rect2469"
       width="2.6458333"
       height="8.5989571"
       x="5.2916665"
       y="11.244792" />
    <rect
       style="fill:#333333;fill-opacity:1;stroke:none;stroke-width:2.13314;stroke-linecap:round;stroke-linejoin:round;stroke-miterlimit:4;stroke-dasharray:none;stroke-opacity:1;paint-order:markers stroke fill"
       id="rect2469-7"
       width="2.6458333"
       height="8.598959"
       x="44.979168"
       y="11.244792" />
    <path
       id="path2513-6"
       style="color:#000000;font-style:normal;font-variant:normal;font-weight:normal;font-stretch:normal;font-size:medium;line-height:normal;font-family:sans-serif;font-variant-ligatures:normal;font-variant-position:normal;font-variant-caps:normal;font-variant-numeric:normal;font-variant-alternates:normal;font-variant-east-asian:normal;font-feature-settings:normal;font-variation-settings:normal;text-indent:0;text-align:start;text-decoration:none;text-decoration-line:none;text-decoration-style:solid;text-decoration-color:#000000;letter-spacing:normal;word-spacing:normal;text-transform:none;writing-mode:lr-tb;direction:ltr;text-orientation:mixed;dominant-baseline:auto;baseline-shift:baseline;text-anchor:start;white-space:normal;shape-padding:0;shape-margin:0;inline-size:0;clip-rule:nonzero;display:inline;overflow:visible;visibility:visible;opacity:1;isolation:auto;mix-blend-mode:normal;color-interpolation:sRGB;color-interpolation-filters:linearRGB;solid-color:#000000;solid-opacity:1;vector-effect:none;fill:#333333;fill-opacity:1;fill-rule:nonzero;stroke:none;stroke-width:2.64583;stroke-linecap:round;stroke-linejoin:round;stroke-miterlimit:4;stroke-dasharray:none;stroke-dashoffset:0;stroke-opacity:1;paint-order:markers stroke fill;color-rendering:auto;image-rendering:auto;shape-rendering:auto;text-rendering:auto;enable-background:accumulate;stop-color:#000000;stop-opacity:1"
       d="m 46.792493,23.151042 c -0.353853,0.443454 -0.796176,0.839339 -1.28416,1.185457 -0.239012,0.169527 -0.49711,0.330159 -0.765845,0.486275 0.178708,0.233515 0.236678,0.417715 0.236678,0.540019 0,0.226158 -0.183359,0.657518 -1.002006,1.238166 -0.818645,0.580649 -2.160135,1.192763 -3.866946,1.704806 -3.41362,1.024088 -8.277873,1.687753 -13.65033,1.687753 -5.372457,0 -10.238777,-0.663665 -13.652397,-1.687753 C 11.100676,27.793722 9.7586691,27.181608 8.9400231,26.600959 8.1213759,26.020311 7.9380168,25.588951 7.9380168,25.362793 c 0,-0.122304 0.058487,-0.306504 0.237195,-0.540019 C 7.906321,24.666631 7.6479075,24.506057 7.4088501,24.336499 6.9210741,23.990529 6.4789863,23.594782 6.1252077,23.151558 c -0.5089178,0.637784 -0.833541,1.374922 -0.833541,2.211235 0,1.417752 0.9275324,2.55238 2.1171834,3.396174 1.18965,0.843796 2.7542749,1.515234 4.6384769,2.080495 3.768404,1.13052 8.825613,1.800405 14.412557,1.800405 5.586944,0 10.643634,-0.669885 14.412039,-1.800405 1.884201,-0.565261 3.446761,-1.236699 4.63641,-2.080495 1.189651,-0.843794 2.117182,-1.978422 2.117182,-3.396174 0,-0.836403 -0.324011,-1.573921 -0.833022,-2.211751 z"
       sodipodi:nodetypes="cscssssssscscsssssssc" />
    <path
       id="path2463-4"
       style="color:#000000;font-style:normal;font-variant:normal;font-weight:normal;font-stretch:normal;font-size:medium;line-height:normal;font-family:sans-serif;font-variant-ligatures:normal;font-variant-position:normal;font-variant-caps:normal;font-variant-numeric:normal;font-variant-alternates:normal;font-variant-east-asian:normal;font-feature-settings:normal;font-variation-settings:normal;text-indent:0;text-align:start;text-decoration:none;text-decoration-line:none;text-decoration-style:solid;text-decoration-color:#000000;letter-spacing:normal;word-spacing:normal;text-transform:none;writing-mode:lr-tb;direction:ltr;text-orientation:mixed;dominant-baseline:auto;baseline-shift:baseline;text-anchor:start;white-space:normal;shape-padding:0;shape-margin:0;inline-size:0;clip-rule:nonzero;display:inline;overflow:visible;visibility:visible;opacity:1;isolation:auto;mix-blend-mode:normal;color-interpolation:sRGB;color-interpolation-filters:linearRGB;solid-color:#000000;solid-opacity:1;vector-effect:none;fill:#333333;fill-opacity:1;fill-rule:nonzero;stroke:none;stroke-width:2.64583;stroke-linecap:round;stroke-linejoin:round;stroke-miterlimit:4;stroke-dasharray:none;stroke-dashoffset:0;stroke-opacity:1;paint-order:markers stroke fill;color-rendering:auto;image-rendering:auto;shape-rendering:auto;text-rendering:auto;enable-background:accumulate;stop-color:#000000;stop-opacity:1"
       d="m 5.2999667,30.427084 c -0.0044,0.06857 -0.0083,0.137275 -0.0083,0.207222 0,1.417752 0.927533,2.552379 2.117183,3.396175 1.189651,0.843796 2.7542763,1.514716 4.6384783,2.079977 3.768404,1.13052 8.825097,1.798857 14.412039,1.798857 5.586943,0 10.643636,-0.668337 14.412041,-1.798857 1.884201,-0.565261 3.447275,-1.236181 4.636926,-2.079977 1.189651,-0.843796 2.117183,-1.978423 2.117183,-3.396175 0,-0.06995 -0.0043,-0.138652 -0.0088,-0.207222 h -2.678906 c 0.02998,0.08133 0.04134,0.150683 0.04134,0.207222 0,0.226158 -0.183359,0.657519 -1.002006,1.238168 -0.818648,0.580649 -2.160654,1.191211 -3.867465,1.703254 -3.41362,1.024086 -8.277873,1.689304 -13.650331,1.689304 -5.372455,0 -10.238775,-0.665218 -13.652396,-1.689304 -1.706811,-0.512043 -3.0483023,-1.122605 -3.8669483,-1.703254 -0.818646,-0.580649 -1.002006,-1.01201 -1.002006,-1.238168 0,-0.05654 0.01136,-0.125896 0.04134,-0.207222 z" />
    <rect
       style="fill:#333333;fill-opacity:1;stroke:none;stroke-width:1.67337;stroke-linecap:round;stroke-linejoin:round;stroke-miterlimit:4;stroke-dasharray:none;stroke-opacity:1;paint-order:markers stroke fill"
       id="rect2469-3"
       width="2.6458333"
       height="5.2916651"
       x="5.2916665"
       y="25.135418" />
    <rect
       style="fill:#333333;fill-opacity:1;stroke:none;stroke-width:1.67337;stroke-linecap:round;stroke-linejoin:round;stroke-miterlimit:4;stroke-dasharray:none;stroke-opacity:1;paint-order:markers stroke fill"
       id="rect2469-3-3"
       width="2.6458333"
       height="5.2916651"
       x="44.979168"
       y="25.135418" />
    <path
       id="path2513-6-1"
       style="color:#000000;font-style:normal;font-variant:normal;font-weight:normal;font-stretch:normal;font-size:medium;line-height:normal;font-family:sans-serif;font-variant-ligatures:normal;font-variant-position:normal;font-variant-caps:normal;font-variant-numeric:normal;font-variant-alternates:normal;font-variant-east-asian:normal;font-feature-settings:normal;font-variation-settings:normal;text-indent:0;text-align:start;text-decoration:none;text-decoration-line:none;text-decoration-style:solid;text-decoration-color:#000000;letter-spacing:normal;word-spacing:normal;text-transform:none;writing-mode:lr-tb;direction:ltr;text-orientation:mixed;dominant-baseline:auto;baseline-shift:baseline;text-anchor:start;white-space:normal;shape-padding:0;shape-margin:0;inline-size:0;clip-rule:nonzero;display:inline;overflow:visible;visibility:visible;opacity:1;isolation:auto;mix-blend-mode:normal;color-interpolation:sRGB;color-interpolation-filters:linearRGB;solid-color:#000000;solid-opacity:1;vector-effect:none;fill:#333333;fill-opacity:1;fill-rule:nonzero;stroke:none;stroke-width:2.64583;stroke-linecap:round;stroke-linejoin:round;stroke-miterlimit:4;stroke-dasharray:none;stroke-dashoffset:0;stroke-opacity:1;paint-order:markers stroke fill;color-rendering:auto;image-rendering:auto;shape-rendering:auto;text-rendering:auto;enable-background:accumulate;stop-color:#000000;stop-opacity:1"
       d="m 46.833848,33.734375 c -0.353854,0.443454 -0.796176,0.839339 -1.28416,1.185457 -0.239012,0.169527 -0.49711,0.330159 -0.765845,0.486275 0.178708,0.233515 0.236678,0.417715 0.236678,0.540019 0,0.226158 -0.183359,0.657518 -1.002006,1.238166 -0.818645,0.580649 -2.160135,1.192763 -3.866946,1.704806 -3.41362,1.024088 -8.277874,1.687753 -13.65033,1.687753 -5.372457,0 -10.238777,-0.663665 -13.652398,-1.687753 -1.706811,-0.512043 -3.0488183,-1.124157 -3.8674643,-1.704806 -0.818647,-0.580648 -1.002006,-1.012008 -1.002006,-1.238166 0,-0.122304 0.05849,-0.306504 0.237195,-0.540019 -0.268891,-0.156143 -0.527304,-0.316717 -0.766362,-0.486275 -0.487776,-0.34597 -0.929863,-0.741717 -1.283642,-1.184941 -0.508918,0.637784 -0.833541,1.374922 -0.833541,2.211235 0,1.417752 0.927532,2.55238 2.117183,3.396174 1.18965,0.843796 2.7542753,1.515234 4.6384773,2.080495 3.768405,1.13052 8.825614,1.800405 14.412558,1.800405 5.586943,0 10.643634,-0.669885 14.412038,-1.800405 1.884202,-0.565261 3.446762,-1.236699 4.636411,-2.080495 1.189651,-0.843794 2.117182,-1.978422 2.117182,-3.396174 0,-0.836403 -0.324011,-1.573921 -0.833022,-2.211751 z"
       sodipodi:nodetypes="cscssssssscscsssssssc" />
    <path
       id="path2463-4-6"
       style="color:#000000;font-style:normal;font-variant:normal;font-weight:normal;font-stretch:normal;font-size:medium;line-height:normal;font-family:sans-serif;font-variant-ligatures:normal;font-variant-position:normal;font-variant-caps:normal;font-variant-numeric:normal;font-variant-alternates:normal;font-variant-east-asian:normal;font-feature-settings:normal;font-variation-settings:normal;text-indent:0;text-align:start;text-decoration:none;text-decoration-line:none;text-decoration-style:solid;text-decoration-color:#000000;letter-spacing:normal;word-spacing:normal;text-transform:none;writing-mode:lr-tb;direction:ltr;text-orientation:mixed;dominant-baseline:auto;baseline-shift:baseline;text-anchor:start;white-space:normal;shape-padding:0;shape-margin:0;inline-size:0;clip-rule:nonzero;display:inline;overflow:visible;visibility:visible;opacity:1;isolation:auto;mix-blend-mode:normal;color-interpolation:sRGB;color-interpolation-filters:linearRGB;solid-color:#000000;solid-opacity:1;vector-effect:none;fill:#333333;fill-opacity:1;fill-rule:nonzero;stroke:none;stroke-width:2.64583;stroke-linecap:round;stroke-linejoin:round;stroke-miterlimit:4;stroke-dasharray:none;stroke-dashoffset:0;stroke-opacity:1;paint-order:markers stroke fill;color-rendering:auto;image-rendering:auto;shape-rendering:auto;text-rendering:auto;enable-background:accumulate;stop-color:#000000;stop-opacity:1"
       d="m 5.3413207,41.010417 c -0.0044,0.06857 -0.0083,0.137275 -0.0083,0.207222 0,1.417752 0.927533,2.552379 2.117183,3.396175 1.189651,0.843796 2.7542763,1.514716 4.6384783,2.079977 3.768405,1.13052 8.825098,1.798857 14.41204,1.798857 5.586942,0 10.643635,-0.668337 14.41204,-1.798857 1.884201,-0.565261 3.447277,-1.236181 4.636926,-2.079977 1.189651,-0.843796 2.117185,-1.978423 2.117185,-3.396175 0,-0.06995 -0.0043,-0.138652 -0.0088,-0.207222 h -2.678906 c 0.02998,0.08133 0.04134,0.150683 0.04134,0.207222 0,0.226158 -0.183359,0.657519 -1.002007,1.238168 -0.818647,0.580649 -2.160653,1.191211 -3.867465,1.703254 -3.413619,1.024086 -8.277873,1.689304 -13.65033,1.689304 -5.372455,0 -10.238775,-0.665218 -13.652396,-1.689304 -1.706823,-0.512043 -3.0483153,-1.122605 -3.8669613,-1.703254 -0.818646,-0.580649 -1.002005,-1.01201 -1.002005,-1.238168 0,-0.05654 0.01136,-0.125896 0.04134,-0.207222 z" />
    <rect
       style="fill:#333333;fill-opacity:1;stroke:none;stroke-width:1.67337;stroke-linecap:round;stroke-linejoin:round;stroke-miterlimit:4;stroke-dasharray:none;stroke-opacity:1;paint-order:markers stroke fill"
       id="rect2469-3-6"
       width="2.6458333"
       height="5.2916651"
       x="5.3330207"
       y="35.718754" />
    <rect
       style="fill:#333333;fill-opacity:1;stroke:none;stroke-width:1.67337;stroke-linecap:round;stroke-linejoin:round;stroke-miterlimit:4;stroke-dasharray:none;stroke-opacity:1;paint-order:markers stroke fill"
       id="rect2469-3-3-4"
       width="2.6458333"
       height="5.2916651"
       x="45.020519"
       y="35.718754" />
  </g>
</svg>
