<?xml version="1.0" encoding="UTF-8" standalone="no"?>
<svg
   width="200"
   height="200"
   viewBox="0 0 52.916666 52.916666"
   version="1.1"
   id="svg8"
   inkscape:version="1.3 (0e150ed, 2023-07-21)"
   sodipodi:docname="dbinsert.svg"
   xmlns:inkscape="http://www.inkscape.org/namespaces/inkscape"
   xmlns:sodipodi="http://sodipodi.sourceforge.net/DTD/sodipodi-0.dtd"
   xmlns="http://www.w3.org/2000/svg"
   xmlns:svg="http://www.w3.org/2000/svg"
   xmlns:rdf="http://www.w3.org/1999/02/22-rdf-syntax-ns#"
   xmlns:cc="http://creativecommons.org/ns#"
   xmlns:dc="http://purl.org/dc/elements/1.1/">
  <defs
     id="defs2" />
  <sodipodi:namedview
     id="base"
     pagecolor="#ffffff"
     bordercolor="#666666"
     borderopacity="1.0"
     inkscape:pageopacity="0"
     inkscape:pageshadow="2"
     inkscape:zoom="3.8583845"
     inkscape:cx="100.17146"
     inkscape:cy="100.04187"
     inkscape:document-units="px"
     inkscape:current-layer="layer1"
     inkscape:document-rotation="0"
     showgrid="true"
     units="px"
     inkscape:window-width="1792"
     inkscape:window-height="1067"
     inkscape:window-x="0"
     inkscape:window-y="25"
     inkscape:window-maximized="0"
     showguides="false"
     inkscape:showpageshadow="2"
     inkscape:pagecheckerboard="0"
     inkscape:deskcolor="#d1d1d1">
    <inkscape:grid
       type="xygrid"
       id="grid833"
       originx="0"
       originy="0"
       spacingy="1.3229167"
       spacingx="1.3229167"
       units="px"
       visible="true"
       dotted="false"
       snapvisiblegridlinesonly="false" />
  </sodipodi:namedview>
  <metadata
     id="metadata5">
    <rdf:RDF>
      <cc:Work
         rdf:about="">
        <dc:format>image/svg+xml</dc:format>
        <dc:type
           rdf:resource="http://purl.org/dc/dcmitype/StillImage" />
      </cc:Work>
    </rdf:RDF>
  </metadata>
  <g
     inkscape:label="图层 1"
     inkscape:groupmode="layer"
     id="layer1">
    <path
       id="path2702"
       style="color:#000000;font-style:normal;font-variant:normal;font-weight:normal;font-stretch:normal;font-size:medium;line-height:normal;font-family:sans-serif;font-variant-ligatures:normal;font-variant-position:normal;font-variant-caps:normal;font-variant-numeric:normal;font-variant-alternates:normal;font-variant-east-asian:normal;font-feature-settings:normal;font-variation-settings:normal;text-indent:0;text-align:start;text-decoration:none;text-decoration-line:none;text-decoration-style:solid;text-decoration-color:#000000;letter-spacing:normal;word-spacing:normal;text-transform:none;writing-mode:lr-tb;direction:ltr;text-orientation:mixed;dominant-baseline:auto;baseline-shift:baseline;text-anchor:start;white-space:normal;shape-padding:0;shape-margin:0;inline-size:0;clip-rule:nonzero;display:inline;overflow:visible;visibility:visible;opacity:1;isolation:auto;mix-blend-mode:normal;color-interpolation:sRGB;color-interpolation-filters:linearRGB;solid-color:#000000;solid-opacity:1;vector-effect:none;fill:#666666;fill-opacity:1;fill-rule:nonzero;stroke:none;stroke-width:2.64583;stroke-linecap:round;stroke-linejoin:round;stroke-miterlimit:4;stroke-dasharray:none;stroke-dashoffset:0;stroke-opacity:1;paint-order:markers stroke fill;color-rendering:auto;image-rendering:auto;shape-rendering:auto;text-rendering:auto;enable-background:accumulate;stop-color:#000000;stop-opacity:1"
       d="m 46.302734,39.351602 v 0.444418 c 0.157816,-0.141577 0.309083,-0.287784 0.443899,-0.444418 z m -5.291667,0.151929 c -0.297595,0.09295 -0.603927,0.1843 -0.930174,0.271301 -0.533993,0.142397 -1.114827,0.273857 -1.715659,0.399459 v 2.703711 c 0.845897,-0.165158 1.648838,-0.347155 2.39727,-0.546737 0.08469,-0.02258 0.165201,-0.04628 0.248563,-0.06925 z M 11.152591,39.067446 v 2.449975 c 2.061881,1.257283 10.493959,2.278751 12.66056,2.362596 v -2.64635 c -2.823017,-0.01056 -9.946153,-0.833442 -12.66056,-2.166221 z m 25.889726,1.360064 c -0.838557,0.146553 -1.716852,0.280238 -2.645833,0.392225 v 2.664953 c 0.916617,-0.105389 1.799624,-0.228942 2.645833,-0.368453 z m -3.96875,0.535885 c -0.854644,0.08347 -1.737537,0.152715 -2.645833,0.204122 v 2.650484 c 0.905589,-0.04861 1.786662,-0.11533 2.645833,-0.195337 z"
       sodipodi:nodetypes="cccccsccsccccccccccccccccc" />
    <path
       id="path2513"
       style="color:#000000;font-style:normal;font-variant:normal;font-weight:normal;font-stretch:normal;font-size:medium;line-height:normal;font-family:sans-serif;font-variant-ligatures:normal;font-variant-position:normal;font-variant-caps:normal;font-variant-numeric:normal;font-variant-alternates:normal;font-variant-east-asian:normal;font-feature-settings:normal;font-variation-settings:normal;text-indent:0;text-align:start;text-decoration:none;text-decoration-line:none;text-decoration-style:solid;text-decoration-color:#000000;letter-spacing:normal;word-spacing:normal;text-transform:none;writing-mode:lr-tb;direction:ltr;text-orientation:mixed;dominant-baseline:auto;baseline-shift:baseline;text-anchor:start;white-space:normal;shape-padding:0;shape-margin:0;inline-size:0;clip-rule:nonzero;display:inline;overflow:visible;visibility:visible;opacity:1;isolation:auto;mix-blend-mode:normal;color-interpolation:sRGB;color-interpolation-filters:linearRGB;solid-color:#000000;solid-opacity:1;fill:#333333;fill-opacity:1;fill-rule:nonzero;stroke:none;stroke-width:2.646;stroke-linecap:round;stroke-linejoin:round;stroke-miterlimit:4;stroke-dasharray:none;stroke-dashoffset:0;stroke-opacity:1;paint-order:markers stroke fill;color-rendering:auto;image-rendering:auto;shape-rendering:auto;text-rendering:auto;enable-background:accumulate;stop-color:#000000;stop-opacity:1"
       d="M 35.71875 25.481132 L 35.71875 28.166239 C 37.346614 28.430171 38.839168 28.752309 40.110213 29.133622 C 41.81702 29.645665 43.158516 30.256229 43.97716 30.836877 C 44.795805 31.417525 44.979166 31.848887 44.979166 32.075044 C 44.979166 32.301202 44.795805 32.732564 43.97716 33.313212 C 43.158516 33.89386 41.81702 34.505975 40.110213 35.018017 C 36.696598 36.042101 31.83233 36.705769 26.459883 36.705769 C 21.087439 36.705769 16.2211 36.042101 12.807487 35.018017 C 11.10068 34.505975 9.7586681 33.89386 8.9400227 33.313212 C 8.1213783 32.732564 7.9380167 32.301202 7.9380167 32.075044 C 7.9380167 31.848887 8.1213783 31.417525 8.9400227 30.836877 C 9.7586681 30.256229 11.10068 29.645665 12.807487 29.133622 C 14.078195 28.75241 15.570334 28.430558 17.197916 28.166756 L 17.197916 25.481648 C 15.308594 25.77177 13.565417 26.142949 12.047327 26.598376 C 10.163127 27.163636 8.5984986 27.834559 7.40885 28.678353 C 6.2192024 29.522146 5.2916666 30.657295 5.2916666 32.075044 C 5.2916666 33.492793 6.2192024 34.627426 7.40885 35.471219 C 8.5984986 36.315013 10.163127 36.986454 12.047327 37.551713 C 15.815723 38.682231 20.872952 39.352119 26.459883 39.352119 C 32.046817 39.352119 37.103527 38.682231 40.871923 37.551713 C 42.756121 36.986454 44.318685 36.315013 45.508333 35.471219 C 46.697982 34.627426 47.625516 33.492793 47.625516 32.075044 C 47.625516 30.657295 46.697982 29.522146 45.508333 28.678353 C 44.318685 27.834559 42.756121 27.163636 40.871923 26.598376 C 39.353203 26.142759 37.608973 25.771373 35.71875 25.481132 z " />
    <path
       id="path2463"
       style="color:#000000;font-style:normal;font-variant:normal;font-weight:normal;font-stretch:normal;font-size:medium;line-height:normal;font-family:sans-serif;font-variant-ligatures:normal;font-variant-position:normal;font-variant-caps:normal;font-variant-numeric:normal;font-variant-alternates:normal;font-variant-east-asian:normal;font-feature-settings:normal;font-variation-settings:normal;text-indent:0;text-align:start;text-decoration:none;text-decoration-line:none;text-decoration-style:solid;text-decoration-color:#000000;letter-spacing:normal;word-spacing:normal;text-transform:none;writing-mode:lr-tb;direction:ltr;text-orientation:mixed;dominant-baseline:auto;baseline-shift:baseline;text-anchor:start;white-space:normal;shape-padding:0;shape-margin:0;inline-size:0;clip-rule:nonzero;display:inline;overflow:visible;visibility:visible;opacity:1;isolation:auto;mix-blend-mode:normal;color-interpolation:sRGB;color-interpolation-filters:linearRGB;solid-color:#000000;solid-opacity:1;vector-effect:none;fill:#333333;fill-opacity:1;fill-rule:nonzero;stroke:none;stroke-width:2.64583;stroke-linecap:round;stroke-linejoin:round;stroke-miterlimit:4;stroke-dasharray:none;stroke-dashoffset:0;stroke-opacity:1;paint-order:markers stroke fill;color-rendering:auto;image-rendering:auto;shape-rendering:auto;text-rendering:auto;enable-background:accumulate;stop-color:#000000;stop-opacity:1"
       d="m 5.3005877,40.674519 c -0.0044,0.06857 -0.0083,0.137275 -0.0083,0.207222 0,1.417752 0.927533,2.552379 2.117183,3.396175 1.189651,0.843796 2.7542753,1.514716 4.6384773,2.079977 3.768404,1.13052 8.825097,1.798857 14.412039,1.798857 5.586944,0 10.643637,-0.668337 14.412042,-1.798857 1.884201,-0.565261 3.447275,-1.236181 4.636926,-2.079977 1.189651,-0.843796 2.117182,-1.978423 2.117182,-3.396175 0,-0.06995 -0.0043,-0.138652 -0.0088,-0.207222 h -2.678906 c 0.02998,0.08133 0.04134,0.150683 0.04134,0.207222 0,0.226158 -0.183359,0.657519 -1.002006,1.238168 -0.818647,0.580649 -2.160654,1.191211 -3.867465,1.703254 -3.41362,1.024086 -8.277873,1.689304 -13.65033,1.689304 -5.372455,0 -10.238775,-0.665218 -13.652396,-1.689304 -1.706811,-0.512043 -3.0483013,-1.122605 -3.8669473,-1.703254 -0.818646,-0.580649 -1.002006,-1.01201 -1.002006,-1.238168 0,-0.05654 0.01136,-0.125896 0.04134,-0.207222 z" />
    <rect
       style="fill:#333333;fill-opacity:1;stroke:none;stroke-width:2.13315;stroke-linecap:round;stroke-linejoin:round;stroke-miterlimit:4;stroke-dasharray:none;stroke-opacity:1;paint-order:markers stroke fill"
       id="rect2469"
       width="2.6458333"
       height="8.5989571"
       x="5.2923188"
       y="32.075562" />
    <rect
       style="fill:#333333;fill-opacity:1;stroke:none;stroke-width:2.13314;stroke-linecap:round;stroke-linejoin:round;stroke-miterlimit:4;stroke-dasharray:none;stroke-opacity:1;paint-order:markers stroke fill"
       id="rect2469-7"
       width="2.6458333"
       height="8.598959"
       x="44.979824"
       y="32.075562" />
    <ellipse
       style="fill:none;fill-rule:evenodd;stroke:#333333;stroke-width:2.16477;stroke-linecap:round;stroke-linejoin:round;paint-order:markers fill stroke"
       id="path1"
       cx="26.458334"
       cy="17.197916"
       rx="10.823865"
       ry="10.823864" />
    <rect
       style="fill:#333333;fill-opacity:1;fill-rule:evenodd;stroke:none;stroke-width:2.16477;stroke-linecap:round;stroke-linejoin:round;paint-order:markers fill stroke"
       id="rect1"
       width="3.2471597"
       height="12.988637"
       x="24.834757"
       y="10.703599" />
    <rect
       style="fill:#333333;fill-opacity:1;fill-rule:evenodd;stroke:none;stroke-width:2.16477;stroke-linecap:round;stroke-linejoin:round;paint-order:markers fill stroke"
       id="rect1-3"
       width="3.2471592"
       height="12.988639"
       x="15.574338"
       y="-32.952656"
       transform="rotate(90)" />
  </g>
</svg>
