<?xml version="1.0" encoding="UTF-8" standalone="no"?>
<svg
   width="200"
   height="200"
   viewBox="0 0 52.916666 52.916666"
   version="1.1"
   id="svg8"
   inkscape:version="1.3 (0e150ed, 2023-07-21)"
   sodipodi:docname="dbload.svg"
   xmlns:inkscape="http://www.inkscape.org/namespaces/inkscape"
   xmlns:sodipodi="http://sodipodi.sourceforge.net/DTD/sodipodi-0.dtd"
   xmlns="http://www.w3.org/2000/svg"
   xmlns:svg="http://www.w3.org/2000/svg"
   xmlns:rdf="http://www.w3.org/1999/02/22-rdf-syntax-ns#"
   xmlns:cc="http://creativecommons.org/ns#"
   xmlns:dc="http://purl.org/dc/elements/1.1/">
  <defs
     id="defs2" />
  <sodipodi:namedview
     id="base"
     pagecolor="#ffffff"
     bordercolor="#666666"
     borderopacity="1.0"
     inkscape:pageopacity="0"
     inkscape:pageshadow="2"
     inkscape:zoom="3.8583845"
     inkscape:cx="100.04187"
     inkscape:cy="99.912282"
     inkscape:document-units="px"
     inkscape:current-layer="layer1"
     inkscape:document-rotation="0"
     showgrid="true"
     units="px"
     inkscape:window-width="1792"
     inkscape:window-height="1120"
     inkscape:window-x="0"
     inkscape:window-y="0"
     inkscape:window-maximized="0"
     showguides="false"
     inkscape:showpageshadow="2"
     inkscape:pagecheckerboard="0"
     inkscape:deskcolor="#d1d1d1">
    <inkscape:grid
       type="xygrid"
       id="grid833"
       originx="0"
       originy="0"
       spacingy="1.3229167"
       spacingx="1.3229167"
       units="px"
       visible="true"
       dotted="false"
       snapvisiblegridlinesonly="false" />
  </sodipodi:namedview>
  <metadata
     id="metadata5">
    <rdf:RDF>
      <cc:Work
         rdf:about="">
        <dc:format>image/svg+xml</dc:format>
        <dc:type
           rdf:resource="http://purl.org/dc/dcmitype/StillImage" />
      </cc:Work>
    </rdf:RDF>
  </metadata>
  <g
     inkscape:label="图层 1"
     inkscape:groupmode="layer"
     id="layer1">
    <path
       id="path2702"
       style="color:#000000;font-style:normal;font-variant:normal;font-weight:normal;font-stretch:normal;font-size:medium;line-height:normal;font-family:sans-serif;font-variant-ligatures:normal;font-variant-position:normal;font-variant-caps:normal;font-variant-numeric:normal;font-variant-alternates:normal;font-variant-east-asian:normal;font-feature-settings:normal;font-variation-settings:normal;text-indent:0;text-align:start;text-decoration:none;text-decoration-line:none;text-decoration-style:solid;text-decoration-color:#000000;letter-spacing:normal;word-spacing:normal;text-transform:none;writing-mode:lr-tb;direction:ltr;text-orientation:mixed;dominant-baseline:auto;baseline-shift:baseline;text-anchor:start;white-space:normal;shape-padding:0;shape-margin:0;inline-size:0;clip-rule:nonzero;display:inline;overflow:visible;visibility:visible;opacity:1;isolation:auto;mix-blend-mode:normal;color-interpolation:sRGB;color-interpolation-filters:linearRGB;solid-color:#000000;solid-opacity:1;vector-effect:none;fill:#666666;fill-opacity:1;fill-rule:nonzero;stroke:none;stroke-width:2.64583;stroke-linecap:round;stroke-linejoin:round;stroke-miterlimit:4;stroke-dasharray:none;stroke-dashoffset:0;stroke-opacity:1;paint-order:markers stroke fill;color-rendering:auto;image-rendering:auto;shape-rendering:auto;text-rendering:auto;enable-background:accumulate;stop-color:#000000;stop-opacity:1"
       d="m 46.302734,39.351602 v 0.444418 c 0.157816,-0.141577 0.309083,-0.287784 0.443899,-0.444418 z m -5.291667,0.151929 c -0.297595,0.09295 -0.603927,0.1843 -0.930174,0.271301 -0.533993,0.142397 -1.114827,0.273857 -1.715659,0.399459 v 2.703711 c 0.845897,-0.165158 1.648838,-0.347155 2.39727,-0.546737 0.08469,-0.02258 0.165201,-0.04628 0.248563,-0.06925 z M 11.152591,39.067446 v 2.449975 c 2.061881,1.257283 10.493959,2.278751 12.66056,2.362596 v -2.64635 c -2.823017,-0.01056 -9.946153,-0.833442 -12.66056,-2.166221 z m 25.889726,1.360064 c -0.838557,0.146553 -1.716852,0.280238 -2.645833,0.392225 v 2.664953 c 0.916617,-0.105389 1.799624,-0.228942 2.645833,-0.368453 z m -3.96875,0.535885 c -0.854644,0.08347 -1.737537,0.152715 -2.645833,0.204122 v 2.650484 c 0.905589,-0.04861 1.786662,-0.11533 2.645833,-0.195337 z"
       sodipodi:nodetypes="cccccsccsccccccccccccccccc" />
    <path
       id="path2513"
       style="color:#000000;font-style:normal;font-variant:normal;font-weight:normal;font-stretch:normal;font-size:medium;line-height:normal;font-family:sans-serif;font-variant-ligatures:normal;font-variant-position:normal;font-variant-caps:normal;font-variant-numeric:normal;font-variant-alternates:normal;font-variant-east-asian:normal;font-feature-settings:normal;font-variation-settings:normal;text-indent:0;text-align:start;text-decoration:none;text-decoration-line:none;text-decoration-style:solid;text-decoration-color:#000000;letter-spacing:normal;word-spacing:normal;text-transform:none;writing-mode:lr-tb;direction:ltr;text-orientation:mixed;dominant-baseline:auto;baseline-shift:baseline;text-anchor:start;white-space:normal;shape-padding:0;shape-margin:0;inline-size:0;clip-rule:nonzero;display:inline;overflow:visible;visibility:visible;opacity:1;isolation:auto;mix-blend-mode:normal;color-interpolation:sRGB;color-interpolation-filters:linearRGB;solid-color:#000000;solid-opacity:1;fill:#333333;fill-opacity:1;fill-rule:nonzero;stroke:none;stroke-width:2.646;stroke-linecap:round;stroke-linejoin:round;stroke-miterlimit:4;stroke-dasharray:none;stroke-dashoffset:0;stroke-opacity:1;paint-order:markers stroke fill;color-rendering:auto;image-rendering:auto;shape-rendering:auto;text-rendering:auto;enable-background:accumulate;stop-color:#000000;stop-opacity:1"
       d="m 33.072916,25.135416 v 2.665987 c 2.69343,0.293612 5.103568,0.7521 7.037297,1.332218 1.706809,0.512044 3.048302,1.122607 3.866947,1.703256 0.818646,0.580649 1.002006,1.012009 1.002006,1.238167 0,0.226158 -0.18336,0.657519 -1.002006,1.238167 -0.818645,0.580649 -2.160138,1.192763 -3.866947,1.704806 -3.413618,1.024085 -8.277878,1.687752 -13.65033,1.687752 -5.37245,0 -10.238779,-0.663667 -13.652396,-1.687752 -1.706809,-0.512043 -3.0488181,-1.124157 -3.8674643,-1.704806 -0.8186452,-0.580648 -1.002006,-1.012009 -1.002006,-1.238167 0,-0.226158 0.1833608,-0.657518 1.002006,-1.238167 0.8186462,-0.580649 2.1606553,-1.191212 3.8674643,-1.703256 1.933291,-0.579987 4.343033,-1.038079 7.036263,-1.331701 v -2.665987 c -2.93575,0.303699 -5.591151,0.800861 -7.796423,1.462443 -1.884201,0.56526 -3.4488272,1.236182 -4.638477,2.079976 -1.1896488,0.843794 -2.1171834,1.978941 -2.1171834,3.396692 0,1.41775 0.9275346,2.552381 2.1171834,3.396175 1.1896498,0.843794 2.754276,1.515234 4.638477,2.080493 3.7684,1.13052 8.825619,1.800407 14.412556,1.800407 5.586939,0 10.64364,-0.669887 14.41204,-1.800407 1.8842,-0.565259 3.446761,-1.236699 4.63641,-2.080493 1.18965,-0.843794 2.117183,-1.978425 2.117183,-3.396175 0,-1.417751 -0.927533,-2.552898 -2.117183,-3.396692 -1.189649,-0.843794 -2.75221,-1.514716 -4.63641,-2.079976 -2.205931,-0.66178 -4.862207,-1.15929 -7.799007,-1.46296 z" />
    <path
       id="path2463"
       style="color:#000000;font-style:normal;font-variant:normal;font-weight:normal;font-stretch:normal;font-size:medium;line-height:normal;font-family:sans-serif;font-variant-ligatures:normal;font-variant-position:normal;font-variant-caps:normal;font-variant-numeric:normal;font-variant-alternates:normal;font-variant-east-asian:normal;font-feature-settings:normal;font-variation-settings:normal;text-indent:0;text-align:start;text-decoration:none;text-decoration-line:none;text-decoration-style:solid;text-decoration-color:#000000;letter-spacing:normal;word-spacing:normal;text-transform:none;writing-mode:lr-tb;direction:ltr;text-orientation:mixed;dominant-baseline:auto;baseline-shift:baseline;text-anchor:start;white-space:normal;shape-padding:0;shape-margin:0;inline-size:0;clip-rule:nonzero;display:inline;overflow:visible;visibility:visible;opacity:1;isolation:auto;mix-blend-mode:normal;color-interpolation:sRGB;color-interpolation-filters:linearRGB;solid-color:#000000;solid-opacity:1;vector-effect:none;fill:#333333;fill-opacity:1;fill-rule:nonzero;stroke:none;stroke-width:2.64583;stroke-linecap:round;stroke-linejoin:round;stroke-miterlimit:4;stroke-dasharray:none;stroke-dashoffset:0;stroke-opacity:1;paint-order:markers stroke fill;color-rendering:auto;image-rendering:auto;shape-rendering:auto;text-rendering:auto;enable-background:accumulate;stop-color:#000000;stop-opacity:1"
       d="m 5.3005877,40.674519 c -0.0044,0.06857 -0.0083,0.137275 -0.0083,0.207222 0,1.417752 0.927533,2.552379 2.117183,3.396175 1.189651,0.843796 2.7542753,1.514716 4.6384773,2.079977 3.768404,1.13052 8.825097,1.798857 14.412039,1.798857 5.586944,0 10.643637,-0.668337 14.412042,-1.798857 1.884201,-0.565261 3.447275,-1.236181 4.636926,-2.079977 1.189651,-0.843796 2.117182,-1.978423 2.117182,-3.396175 0,-0.06995 -0.0043,-0.138652 -0.0088,-0.207222 h -2.678906 c 0.02998,0.08133 0.04134,0.150683 0.04134,0.207222 0,0.226158 -0.183359,0.657519 -1.002006,1.238168 -0.818647,0.580649 -2.160654,1.191211 -3.867465,1.703254 -3.41362,1.024086 -8.277873,1.689304 -13.65033,1.689304 -5.372455,0 -10.238775,-0.665218 -13.652396,-1.689304 -1.706811,-0.512043 -3.0483013,-1.122605 -3.8669473,-1.703254 -0.818646,-0.580649 -1.002006,-1.01201 -1.002006,-1.238168 0,-0.05654 0.01136,-0.125896 0.04134,-0.207222 z" />
    <rect
       style="fill:#333333;fill-opacity:1;stroke:none;stroke-width:2.13315;stroke-linecap:round;stroke-linejoin:round;stroke-miterlimit:4;stroke-dasharray:none;stroke-opacity:1;paint-order:markers stroke fill"
       id="rect2469"
       width="2.6458333"
       height="8.5989571"
       x="5.2923188"
       y="32.075562" />
    <rect
       style="fill:#333333;fill-opacity:1;stroke:none;stroke-width:2.13314;stroke-linecap:round;stroke-linejoin:round;stroke-miterlimit:4;stroke-dasharray:none;stroke-opacity:1;paint-order:markers stroke fill"
       id="rect2469-7"
       width="2.6458333"
       height="8.598959"
       x="44.979824"
       y="32.075562" />
    <rect
       style="fill:#333333;fill-opacity:1;fill-rule:evenodd;stroke:#333333;stroke-width:2.6458333;stroke-linecap:round;stroke-linejoin:round;stroke-dasharray:none;paint-order:markers fill stroke;stroke-opacity:1"
       id="rect1"
       width="2.6458333"
       height="21.166666"
       x="25.135418"
       y="9.260417" />
    <g
       id="g5"
       transform="translate(-0.22697705,0.34286802)"
       style="stroke-width:2.6458333;stroke-dasharray:none;stroke:#333333;stroke-opacity:1">
      <rect
         style="fill:#333333;fill-opacity:1;fill-rule:evenodd;stroke:#333333;stroke-width:2.6458333;stroke-linecap:round;stroke-linejoin:round;stroke-dasharray:none;paint-order:markers fill stroke;stroke-opacity:1"
         id="rect4"
         width="15.874999"
         height="2.6458333"
         x="-1.0684032"
         y="22.932133"
         transform="rotate(-45)" />
      <rect
         style="fill:#333333;fill-opacity:1;fill-rule:evenodd;stroke:#333333;stroke-width:2.6458333;stroke-linecap:round;stroke-linejoin:round;stroke-dasharray:none;paint-order:markers fill stroke;stroke-opacity:1"
         id="rect5"
         width="2.6458333"
         height="15.874999"
         x="12.160765"
         y="22.932133"
         transform="rotate(-45)" />
    </g>
  </g>
</svg>
