<?xml version="1.0" encoding="UTF-8" standalone="no"?>
<svg
   xmlns:dc="http://purl.org/dc/elements/1.1/"
   xmlns:cc="http://creativecommons.org/ns#"
   xmlns:rdf="http://www.w3.org/1999/02/22-rdf-syntax-ns#"
   xmlns:svg="http://www.w3.org/2000/svg"
   xmlns="http://www.w3.org/2000/svg"
   xmlns:sodipodi="http://sodipodi.sourceforge.net/DTD/sodipodi-0.dtd"
   xmlns:inkscape="http://www.inkscape.org/namespaces/inkscape"
   width="200"
   height="200"
   viewBox="0 0 52.916666 52.916666"
   version="1.1"
   id="svg8"
   inkscape:version="1.0.1 (c497b03c, 2020-09-10)"
   sodipodi:docname="diskadd.svg">
  <defs
     id="defs2" />
  <sodipodi:namedview
     id="base"
     pagecolor="#ffffff"
     bordercolor="#666666"
     borderopacity="1.0"
     inkscape:pageopacity="0.0"
     inkscape:pageshadow="2"
     inkscape:zoom="4"
     inkscape:cx="116.19674"
     inkscape:cy="101.957"
     inkscape:document-units="mm"
     inkscape:current-layer="layer1"
     inkscape:document-rotation="0"
     showgrid="true"
     units="px"
     inkscape:window-width="1792"
     inkscape:window-height="1075"
     inkscape:window-x="0"
     inkscape:window-y="23"
     inkscape:window-maximized="1">
    <inkscape:grid
       type="xygrid"
       id="grid833" />
  </sodipodi:namedview>
  <metadata
     id="metadata5">
    <rdf:RDF>
      <cc:Work
         rdf:about="">
        <dc:format>image/svg+xml</dc:format>
        <dc:type
           rdf:resource="http://purl.org/dc/dcmitype/StillImage" />
        <dc:title></dc:title>
      </cc:Work>
    </rdf:RDF>
  </metadata>
  <g
     inkscape:label="图层 1"
     inkscape:groupmode="layer"
     id="layer1">
    <path
       id="path5000"
       style="color:#000000;font-style:normal;font-variant:normal;font-weight:normal;font-stretch:normal;font-size:medium;line-height:normal;font-family:sans-serif;font-variant-ligatures:normal;font-variant-position:normal;font-variant-caps:normal;font-variant-numeric:normal;font-variant-alternates:normal;font-variant-east-asian:normal;font-feature-settings:normal;font-variation-settings:normal;text-indent:0;text-align:start;text-decoration:none;text-decoration-line:none;text-decoration-style:solid;text-decoration-color:#000000;letter-spacing:normal;word-spacing:normal;text-transform:none;writing-mode:lr-tb;direction:ltr;text-orientation:mixed;dominant-baseline:auto;baseline-shift:baseline;text-anchor:start;white-space:normal;shape-padding:0;shape-margin:0;inline-size:0;clip-rule:nonzero;display:inline;overflow:visible;visibility:visible;opacity:1;isolation:auto;mix-blend-mode:normal;color-interpolation:sRGB;color-interpolation-filters:linearRGB;solid-color:#000000;solid-opacity:1;vector-effect:none;fill:#333333;fill-opacity:1;fill-rule:nonzero;stroke:none;stroke-width:7.49998;stroke-linecap:round;stroke-linejoin:round;stroke-miterlimit:4;stroke-dasharray:none;stroke-dashoffset:0;stroke-opacity:1;paint-order:markers stroke fill;color-rendering:auto;image-rendering:auto;shape-rendering:auto;text-rendering:auto;enable-background:accumulate;stop-color:#000000;stop-opacity:1"
       d="M 38.748047 10.001953 A 5.0004933 5.0004933 0 0 0 33.898438 13.789062 L 15.160156 88.746094 L 15.148438 88.789062 A 5.0004933 5.0004933 0 0 0 15.054688 89.261719 A 5.0004933 5.0004933 0 0 0 15.046875 89.322266 A 5.0004933 5.0004933 0 0 0 15.042969 89.34375 A 5.0004933 5.0004933 0 0 0 15.027344 89.486328 A 5.0004933 5.0004933 0 0 0 15.011719 89.673828 A 5.0004933 5.0004933 0 0 0 15.001953 89.861328 A 5.0004933 5.0004933 0 0 0 15 90 A 5.0004933 5.0004933 0 0 0 15 90.09375 L 15 127.5 A 5.0004933 5.0004933 0 0 0 19.998047 132.49805 L 86.441406 132.49805 A 54.999999 54.999999 0 0 1 89.8125 122.50195 L 25.001953 122.50195 L 25.001953 94.998047 L 117.09375 94.998047 A 54.999999 54.999999 0 0 1 140 90 A 54.999999 54.999999 0 0 1 145.00195 90.228516 L 145.00195 90 A 5.0004933 5.0004933 0 0 0 144.79492 88.578125 L 126.09766 13.789062 A 5.0004933 5.0004933 0 0 0 121.24805 10.001953 L 38.748047 10.001953 z M 42.652344 19.998047 L 117.3418 19.998047 L 133.59766 85.001953 L 26.398438 85.001953 L 42.652344 19.998047 z M 49.998047 97.5 C 43.830413 97.5 38.748047 102.58237 38.748047 108.75 C 38.748047 114.91763 43.830413 120 49.998047 120 C 56.165676 120 61.248047 114.91763 61.248047 108.75 C 61.248047 102.58237 56.165676 97.5 49.998047 97.5 z M 72.498047 103.75195 L 72.498047 113.74805 L 94.744141 113.74805 A 54.999999 54.999999 0 0 1 103.62109 103.75195 L 72.498047 103.75195 z M 49.998047 105 C 52.140415 105 53.748047 106.60763 53.748047 108.75 C 53.748047 110.89237 52.140415 112.5 49.998047 112.5 C 47.855675 112.5 46.248047 110.89237 46.248047 108.75 C 46.248047 106.60763 47.855675 105 49.998047 105 z "
       transform="scale(0.26458333)" />
    <circle
       style="fill:none;stroke:#333333;stroke-width:2.64583;stroke-linejoin:round;stroke-miterlimit:4;stroke-dasharray:none;stroke-opacity:1;paint-order:markers stroke fill"
       id="path4258"
       cx="37.041664"
       cy="38.364582"
       r="10.583333" />
    <rect
       style="fill:#333333;stroke:none;stroke-width:2.64583;stroke-linejoin:round;stroke-miterlimit:4;stroke-dasharray:none;stroke-opacity:1;paint-order:markers stroke fill"
       id="rect4296"
       width="10.583333"
       height="2.6458333"
       x="31.750002"
       y="37.041668" />
    <rect
       style="fill:#333333;stroke:none;stroke-width:2.64583;stroke-linejoin:round;stroke-miterlimit:4;stroke-dasharray:none;stroke-opacity:1;paint-order:markers stroke fill"
       id="rect4298"
       width="2.6458333"
       height="10.583333"
       x="35.71875"
       y="33.072914" />
  </g>
</svg>
