<?xml version="1.0" encoding="UTF-8" standalone="no"?>
<svg
   class="icon"
   width="200"
   height="200"
   viewBox="0 0 200 200"
   version="1.1"
   id="svg16"
   sodipodi:docname="dojo.svg"
   inkscape:version="1.3.2 (091e20e, 2023-11-25)"
   xmlns:inkscape="http://www.inkscape.org/namespaces/inkscape"
   xmlns:sodipodi="http://sodipodi.sourceforge.net/DTD/sodipodi-0.dtd"
   xmlns="http://www.w3.org/2000/svg"
   xmlns:svg="http://www.w3.org/2000/svg"
   xmlns:rdf="http://www.w3.org/1999/02/22-rdf-syntax-ns#"
   xmlns:cc="http://creativecommons.org/ns#"
   xmlns:dc="http://purl.org/dc/elements/1.1/">
  <metadata
     id="metadata22">
    <rdf:RDF>
      <cc:Work
         rdf:about="">
        <dc:format>image/svg+xml</dc:format>
        <dc:type
           rdf:resource="http://purl.org/dc/dcmitype/StillImage" />
      </cc:Work>
    </rdf:RDF>
  </metadata>
  <defs
     id="defs20" />
  <sodipodi:namedview
     pagecolor="#ffffff"
     bordercolor="#666666"
     borderopacity="1"
     objecttolerance="10"
     gridtolerance="10"
     guidetolerance="10"
     inkscape:pageopacity="0"
     inkscape:pageshadow="2"
     inkscape:window-width="1728"
     inkscape:window-height="1051"
     id="namedview18"
     showgrid="true"
     inkscape:zoom="3.7463453"
     inkscape:cx="93.023993"
     inkscape:cy="105.43609"
     inkscape:window-x="0"
     inkscape:window-y="38"
     inkscape:window-maximized="0"
     inkscape:current-layer="g1"
     inkscape:document-rotation="0"
     inkscape:showpageshadow="2"
     inkscape:pagecheckerboard="0"
     inkscape:deskcolor="#d1d1d1">
    <inkscape:grid
       type="xygrid"
       id="grid2131"
       originx="0"
       originy="0"
       spacingy="1"
       spacingx="1"
       units="px"
       visible="true" />
  </sodipodi:namedview>
  <g
     id="g1"
     style="stroke-width:10;stroke-dasharray:none">
    <path
       id="path1"
       style="fill:none;fill-opacity:0.204489;stroke:#333333;stroke-width:10;stroke-linecap:round;stroke-linejoin:round;stroke-dasharray:none"
       d="m 155.2469,20.05794 c -4.79778,-2.769997 -10.89026,-1.137522 -13.66026,3.660254 l -3.03906,5.263811 A 40,35 30 0 0 93.581649,42.63481 40,35 30 0 0 94.67545,77.127009 60,50 30 0 0 40.926202,98.836721 60,50 30 0 0 67.887727,172.13799 60,50 30 0 0 144.84925,158.83672 60,50 30 0 0 134.51336,98.817121 40,35 30 0 0 162.86368,82.63481 40,35 30 0 0 155.94761,40.383338 l 3.62598,-6.280376 c 2.76999,-4.797776 1.13752,-10.890259 -3.66026,-13.660254 z" />
    <rect
       style="fill:none;fill-opacity:0.204489;stroke:#333333;stroke-width:10.0673;stroke-linecap:round;stroke-linejoin:miter;stroke-dasharray:none"
       id="rect1"
       width="50"
       height="50"
       x="116.43774"
       y="-73.553902"
       transform="matrix(0.33679557,0.9415778,-0.98382807,0.17911538,0,0)" />
    <path
       style="fill:none;fill-opacity:0.204489;stroke:#333333;stroke-width:5;stroke-linecap:round;stroke-linejoin:miter;stroke-dasharray:none"
       d="m 94.911919,115.37617 8.660251,5"
       id="path2" />
    <path
       style="fill:none;fill-opacity:0.204489;stroke:#333333;stroke-width:5;stroke-linecap:round;stroke-linejoin:miter;stroke-dasharray:none"
       d="m 86.882871,129.23745 8.660256,5"
       id="path2-8" />
    <path
       style="fill:none;fill-opacity:0.204489;stroke:#333333;stroke-width:5;stroke-linecap:round;stroke-linejoin:miter;stroke-dasharray:none"
       d="m 82.397345,117.00659 25.680035,15.6118"
       id="path3" />
  </g>
</svg>
