<?xml version="1.0" encoding="UTF-8" standalone="no"?>
<svg
   xmlns:dc="http://purl.org/dc/elements/1.1/"
   xmlns:cc="http://creativecommons.org/ns#"
   xmlns:rdf="http://www.w3.org/1999/02/22-rdf-syntax-ns#"
   xmlns:svg="http://www.w3.org/2000/svg"
   xmlns="http://www.w3.org/2000/svg"
   xmlns:sodipodi="http://sodipodi.sourceforge.net/DTD/sodipodi-0.dtd"
   xmlns:inkscape="http://www.inkscape.org/namespaces/inkscape"
   width="200"
   height="200"
   viewBox="0 0 52.916665 52.916668"
   version="1.1"
   id="svg8"
   inkscape:version="1.0.1 (c497b03c, 2020-09-10)"
   sodipodi:docname="edit.svg">
  <defs
     id="defs2">
    <rect
       x="5.2916667"
       y="3.96875"
       width="33.072917"
       height="23.8125"
       id="rect1273" />
  </defs>
  <sodipodi:namedview
     id="base"
     pagecolor="#ffffff"
     bordercolor="#666666"
     borderopacity="1.0"
     inkscape:pageopacity="0.0"
     inkscape:pageshadow="2"
     inkscape:zoom="4"
     inkscape:cx="97.783579"
     inkscape:cy="99.885004"
     inkscape:document-units="mm"
     inkscape:current-layer="layer1"
     inkscape:document-rotation="0"
     showgrid="true"
     units="px"
     inkscape:window-width="1792"
     inkscape:window-height="1075"
     inkscape:window-x="0"
     inkscape:window-y="23"
     inkscape:window-maximized="1">
    <inkscape:grid
       type="xygrid"
       id="grid833" />
  </sodipodi:namedview>
  <metadata
     id="metadata5">
    <rdf:RDF>
      <cc:Work
         rdf:about="">
        <dc:format>image/svg+xml</dc:format>
        <dc:type
           rdf:resource="http://purl.org/dc/dcmitype/StillImage" />
        <dc:title></dc:title>
      </cc:Work>
    </rdf:RDF>
  </metadata>
  <g
     inkscape:label="图层 1"
     inkscape:groupmode="layer"
     id="layer1">
    <path
       id="path1519"
       style="color:#000000;font-style:normal;font-variant:normal;font-weight:normal;font-stretch:normal;font-size:medium;line-height:normal;font-family:sans-serif;font-variant-ligatures:normal;font-variant-position:normal;font-variant-caps:normal;font-variant-numeric:normal;font-variant-alternates:normal;font-variant-east-asian:normal;font-feature-settings:normal;font-variation-settings:normal;text-indent:0;text-align:start;text-decoration:none;text-decoration-line:none;text-decoration-style:solid;text-decoration-color:#000000;letter-spacing:normal;word-spacing:normal;text-transform:none;writing-mode:lr-tb;direction:ltr;text-orientation:mixed;dominant-baseline:auto;baseline-shift:baseline;text-anchor:start;white-space:normal;shape-padding:0;shape-margin:0;inline-size:0;clip-rule:nonzero;display:inline;overflow:visible;visibility:visible;opacity:1;isolation:auto;mix-blend-mode:normal;color-interpolation:sRGB;color-interpolation-filters:linearRGB;solid-color:#000000;solid-opacity:1;vector-effect:none;fill:#333333;fill-opacity:1;fill-rule:nonzero;stroke:none;stroke-width:9.99999;stroke-linecap:round;stroke-linejoin:round;stroke-miterlimit:4;stroke-dasharray:none;stroke-dashoffset:0;stroke-opacity:1;paint-order:markers stroke fill;color-rendering:auto;image-rendering:auto;shape-rendering:auto;text-rendering:auto;enable-background:accumulate;stop-color:#000000;stop-opacity:1"
       d="M 144.99805 12.611328 C 142.42588 12.611328 139.85389 13.573846 137.92578 15.501953 L 49.539062 103.88867 L 49.541016 103.89062 L 56.611328 110.96289 L 70.751953 125.10352 L 77.824219 132.17578 L 84.896484 125.10352 L 166.21094 43.789062 C 170.06716 39.932849 170.06716 33.498796 166.21094 29.642578 L 152.07031 15.501953 C 150.1422 13.573846 147.57022 12.611328 144.99805 12.611328 z M 144.99805 22.574219 L 159.13867 36.714844 L 77.824219 118.03125 L 63.683594 103.89062 L 144.99805 22.574219 z M 45.984375 109.49414 A 5.0004933 5.0004933 0 0 0 45.908203 109.49609 A 5.0004933 5.0004933 0 0 0 41.457031 112.42578 L 23.777344 151.32227 A 5.0004933 5.0004933 0 0 0 30.398438 157.94336 L 69.287109 140.26367 A 5.0004933 5.0004933 0 0 0 70.755859 132.17188 L 49.539062 110.96484 A 5.0004933 5.0004933 0 0 0 45.984375 109.49414 z M 47.568359 123.13672 L 58.582031 134.14453 L 38.400391 143.32031 L 47.568359 123.13672 z M 15 170 L 15 180 L 185 180 L 185 170 L 15 170 z "
       transform="scale(0.26458333)" />
    <rect
       style="fill:#333333;stroke:none;stroke-width:2.64583;stroke-linecap:round;stroke-linejoin:round;stroke-miterlimit:4;stroke-dasharray:none;stroke-opacity:1;paint-order:markers stroke fill"
       id="rect1533"
       width="10.583333"
       height="2.6458333"
       x="28.705286"
       y="-17.612926"
       transform="rotate(45)" />
  </g>
</svg>
