<?xml version="1.0" encoding="UTF-8" standalone="no"?>
<svg
   xmlns:dc="http://purl.org/dc/elements/1.1/"
   xmlns:cc="http://creativecommons.org/ns#"
   xmlns:rdf="http://www.w3.org/1999/02/22-rdf-syntax-ns#"
   xmlns:svg="http://www.w3.org/2000/svg"
   xmlns="http://www.w3.org/2000/svg"
   xmlns:sodipodi="http://sodipodi.sourceforge.net/DTD/sodipodi-0.dtd"
   xmlns:inkscape="http://www.inkscape.org/namespaces/inkscape"
   class="icon"
   width="200"
   height="200"
   viewBox="0 0 200 200"
   version="1.1"
   id="svg12"
   sodipodi:docname="faces.svg"
   inkscape:version="1.0.1 (c497b03c, 2020-09-10)">
  <metadata
     id="metadata18">
    <rdf:RDF>
      <cc:Work
         rdf:about="">
        <dc:format>image/svg+xml</dc:format>
        <dc:type
           rdf:resource="http://purl.org/dc/dcmitype/StillImage" />
        <dc:title />
      </cc:Work>
    </rdf:RDF>
  </metadata>
  <defs
     id="defs16" />
  <sodipodi:namedview
     pagecolor="#ffffff"
     bordercolor="#666666"
     borderopacity="1"
     objecttolerance="10"
     gridtolerance="10"
     guidetolerance="10"
     inkscape:pageopacity="0"
     inkscape:pageshadow="2"
     inkscape:window-width="1792"
     inkscape:window-height="1075"
     id="namedview14"
     showgrid="true"
     inkscape:zoom="3.675"
     inkscape:cx="80.237327"
     inkscape:cy="111.94737"
     inkscape:window-x="0"
     inkscape:window-y="23"
     inkscape:window-maximized="1"
     inkscape:current-layer="svg12"
     inkscape:document-rotation="0">
    <inkscape:grid
       type="xygrid"
       id="grid1457" />
  </sodipodi:namedview>
  <path
     id="path1459"
     style="fill:none;stroke:#333333;stroke-width:10;stroke-linecap:square;stroke-linejoin:round;stroke-miterlimit:4;stroke-dasharray:none;stroke-opacity:1;paint-order:markers stroke fill"
     d="M 99.941406 20 A 80 80 0 0 0 45.908203 41.060547 A 34.375 34.375 0 0 0 20 74.375 A 34.375 34.375 0 0 0 21.521484 84.482422 A 80 80 0 0 0 20 100 A 80 80 0 0 0 100 180 A 80 80 0 0 0 180 100 A 80 80 0 0 0 177.91992 81.876953 A 34.375 34.375 0 0 0 178.75 74.375 A 34.375 34.375 0 0 0 154.64258 41.570312 A 80 80 0 0 0 100 20 A 80 80 0 0 0 99.941406 20 z " />
  <circle
     style="fill:none;stroke:#333333;stroke-width:10;stroke-linecap:square;stroke-linejoin:round;stroke-miterlimit:4;stroke-dasharray:none;stroke-opacity:1;paint-order:markers stroke fill"
     id="path1459-3-1"
     cx="144.375"
     cy="74.375"
     r="34.375" />
  <circle
     style="fill:none;stroke:#333333;stroke-width:10;stroke-linecap:square;stroke-linejoin:round;stroke-miterlimit:4;stroke-dasharray:none;stroke-opacity:1;paint-order:markers stroke fill"
     id="path1459-3-1-9"
     cx="54.375"
     cy="74.375"
     r="34.375" />
  <rect
     style="fill:#333333;fill-opacity:1;stroke:none;stroke-width:10;stroke-linecap:round;stroke-linejoin:round;paint-order:markers stroke fill"
     id="rect7063"
     width="20"
     height="10"
     x="90"
     y="70" />
</svg>
