<?xml version="1.0" encoding="UTF-8" standalone="no"?>
<svg
   xmlns:dc="http://purl.org/dc/elements/1.1/"
   xmlns:cc="http://creativecommons.org/ns#"
   xmlns:rdf="http://www.w3.org/1999/02/22-rdf-syntax-ns#"
   xmlns:svg="http://www.w3.org/2000/svg"
   xmlns="http://www.w3.org/2000/svg"
   xmlns:sodipodi="http://sodipodi.sourceforge.net/DTD/sodipodi-0.dtd"
   xmlns:inkscape="http://www.inkscape.org/namespaces/inkscape"
   class="icon"
   width="200"
   height="200"
   viewBox="0 0 7000 7000"
   version="1.1"
   id="svg12"
   sodipodi:docname="fanhui.svg"
   inkscape:version="1.0.1 (c497b03c, 2020-09-10)">
  <metadata
     id="metadata18">
    <rdf:RDF>
      <cc:Work
         rdf:about="">
        <dc:format>image/svg+xml</dc:format>
        <dc:type
           rdf:resource="http://purl.org/dc/dcmitype/StillImage" />
        <dc:title></dc:title>
      </cc:Work>
    </rdf:RDF>
  </metadata>
  <defs
     id="defs16" />
  <sodipodi:namedview
     pagecolor="#ffffff"
     bordercolor="#666666"
     borderopacity="1"
     objecttolerance="10"
     gridtolerance="10"
     guidetolerance="10"
     inkscape:pageopacity="0"
     inkscape:pageshadow="2"
     inkscape:window-width="1792"
     inkscape:window-height="1075"
     id="namedview14"
     showgrid="false"
     inkscape:zoom="1.8375001"
     inkscape:cx="108.01414"
     inkscape:cy="107.25502"
     inkscape:window-x="0"
     inkscape:window-y="23"
     inkscape:window-maximized="1"
     inkscape:current-layer="svg12"
     inkscape:document-rotation="0"
     scale-x="35" />
  <path
     d="m 2150.2846,3169.4854 c 83.1608,0 166.3216,34.6503 232.6821,100.801 l 2699.3645,2791.5554 c 129.5712,135.4506 129.5712,350.703 3.36,486.1542 a 320.2529,320.2529 0 0 1 -465.3642,3.57 L 1920.7525,3759.8008 c -129.7811,-131.8812 -129.7811,-350.7031 -3.36,-486.1544 59.8505,-72.8706 146.3713,-104.161 232.6821,-104.161 z M 4819.6188,350 c 83.1608,0 166.3215,34.65032 232.8921,100.80092 129.5712,135.24121 129.5712,350.70312 3.15,485.94438 L 2382.9667,3756.2308 a 320.2529,320.2529 0 0 1 -465.3643,3.57 c -129.571,-131.8812 -129.571,-350.7031 -3.3599,-486.1544 L 4586.9366,454.16094 C 4650.1473,384.86031 4736.8781,350 4819.6188,350 Z"
     fill="#000000"
     id="path10"
     style="stroke-width:5.99996" />
</svg>
