<?xml version="1.0" encoding="UTF-8" standalone="no"?>
<svg
   xmlns:dc="http://purl.org/dc/elements/1.1/"
   xmlns:cc="http://creativecommons.org/ns#"
   xmlns:rdf="http://www.w3.org/1999/02/22-rdf-syntax-ns#"
   xmlns:svg="http://www.w3.org/2000/svg"
   xmlns="http://www.w3.org/2000/svg"
   xmlns:sodipodi="http://sodipodi.sourceforge.net/DTD/sodipodi-0.dtd"
   xmlns:inkscape="http://www.inkscape.org/namespaces/inkscape"
   class="icon"
   width="200"
   height="200"
   viewBox="0 0 200 200"
   version="1.1"
   id="svg12"
   sodipodi:docname="fat_right.svg"
   inkscape:version="1.0.1 (c497b03c, 2020-09-10)">
  <metadata
     id="metadata18">
    <rdf:RDF>
      <cc:Work
         rdf:about="">
        <dc:format>image/svg+xml</dc:format>
        <dc:type
           rdf:resource="http://purl.org/dc/dcmitype/StillImage" />
        <dc:title></dc:title>
      </cc:Work>
    </rdf:RDF>
  </metadata>
  <defs
     id="defs16" />
  <sodipodi:namedview
     pagecolor="#ffffff"
     bordercolor="#666666"
     borderopacity="1"
     objecttolerance="10"
     gridtolerance="10"
     guidetolerance="10"
     inkscape:pageopacity="0"
     inkscape:pageshadow="2"
     inkscape:window-width="1792"
     inkscape:window-height="1075"
     id="namedview14"
     showgrid="true"
     scale-x="35"
     inkscape:zoom="3.6749999"
     inkscape:cx="134.18503"
     inkscape:cy="117.07016"
     inkscape:window-x="0"
     inkscape:window-y="23"
     inkscape:window-maximized="1"
     inkscape:current-layer="svg12"
     inkscape:document-rotation="0">
    <inkscape:grid
       type="xygrid"
       id="grid838" />
  </sodipodi:namedview>
  <path
     d="M 110.63091,170.11042 175.04732,112.7918 C 178.51735,108.34386 180,104.46372 180,99.858037 c 0,-4.984223 -1.73502,-9.495264 -4.88959,-12.649833 L 110.94637,28.911673 C 107.57098,26.92429 103.88013,25 98.99053,25 c -8.70662,0 -16.30915,7.602522 -16.30915,16.277596 0,4.38487 2.20821,9.211356 5.86752,12.870672 L 120.7571,83.61199 35,83.203831 c -9.90528,-0.04714 -15,6.40378 -15,16.277594 0,9.716085 5.3122,16.484355 14.902,16.529965 l 85.82355,0.40817 -32.30284,29.52681 c -4.03786,4.03786 -5.80442,7.5079 -5.80442,11.54575 0,9.65298 7.31862,17.50788 16.30915,17.50788 4.47949,0 8.51735,-1.70347 11.70347,-4.88958 z"
     id="path10"
     sodipodi:nodetypes="ccsccssccsssccssc"
     style="fill:#333333;stroke-width:0.315456" />
</svg>
