<?xml version="1.0" encoding="UTF-8" standalone="no"?>
<svg
   xmlns:dc="http://purl.org/dc/elements/1.1/"
   xmlns:cc="http://creativecommons.org/ns#"
   xmlns:rdf="http://www.w3.org/1999/02/22-rdf-syntax-ns#"
   xmlns:svg="http://www.w3.org/2000/svg"
   xmlns="http://www.w3.org/2000/svg"
   xmlns:sodipodi="http://sodipodi.sourceforge.net/DTD/sodipodi-0.dtd"
   xmlns:inkscape="http://www.inkscape.org/namespaces/inkscape"
   class="icon"
   width="200"
   height="200"
   viewBox="0 0 200 200"
   version="1.1"
   id="svg12"
   sodipodi:docname="fat_down.svg"
   inkscape:version="1.0.1 (c497b03c, 2020-09-10)">
  <metadata
     id="metadata18">
    <rdf:RDF>
      <cc:Work
         rdf:about="">
        <dc:format>image/svg+xml</dc:format>
        <dc:type
           rdf:resource="http://purl.org/dc/dcmitype/StillImage" />
        <dc:title></dc:title>
      </cc:Work>
    </rdf:RDF>
  </metadata>
  <defs
     id="defs16" />
  <sodipodi:namedview
     pagecolor="#ffffff"
     bordercolor="#666666"
     borderopacity="1"
     objecttolerance="10"
     gridtolerance="10"
     guidetolerance="10"
     inkscape:pageopacity="0"
     inkscape:pageshadow="2"
     inkscape:window-width="1792"
     inkscape:window-height="1075"
     id="namedview14"
     showgrid="true"
     scale-x="35"
     inkscape:zoom="3.6749999"
     inkscape:cx="134.18503"
     inkscape:cy="117.07016"
     inkscape:window-x="0"
     inkscape:window-y="23"
     inkscape:window-maximized="1"
     inkscape:current-layer="svg12"
     inkscape:document-rotation="0">
    <inkscape:grid
       type="xygrid"
       id="grid838" />
  </sodipodi:namedview>
  <path
     d="M 29.88958,110.63091 87.2082,175.04732 C 91.65614,178.51735 95.53628,180 100.14196,180 c 4.98423,0 9.49527,-1.73502 12.64984,-4.88959 l 58.29653,-64.16404 C 173.07571,107.57098 175,103.88013 175,98.99053 c 0,-8.70662 -7.60252,-16.30915 -16.2776,-16.30915 -4.38487,0 -9.21135,2.20821 -12.87067,5.86752 L 116.38801,120.7571 116.79617,35 c 0.0471,-9.90528 -6.40378,-15 -16.27759,-15 -9.71609,0 -16.48436,5.3122 -16.52997,14.902 L 83.58044,120.72555 54.05363,88.42271 C 50.01577,84.38485 46.54573,82.61829 42.50788,82.61829 32.8549,82.61829 25,89.93691 25,98.92744 c 0,4.47949 1.70347,8.51735 4.88958,11.70347 z"
     id="path10"
     sodipodi:nodetypes="ccsccssccsssccssc"
     style="fill:#333333;stroke-width:0.315456" />
</svg>
