<?xml version="1.0" encoding="UTF-8" standalone="no"?>
<svg
   xmlns:dc="http://purl.org/dc/elements/1.1/"
   xmlns:cc="http://creativecommons.org/ns#"
   xmlns:rdf="http://www.w3.org/1999/02/22-rdf-syntax-ns#"
   xmlns:svg="http://www.w3.org/2000/svg"
   xmlns="http://www.w3.org/2000/svg"
   xmlns:sodipodi="http://sodipodi.sourceforge.net/DTD/sodipodi-0.dtd"
   xmlns:inkscape="http://www.inkscape.org/namespaces/inkscape"
   class="icon"
   width="200"
   height="200"
   viewBox="0 0 200 200"
   version="1.1"
   id="svg12"
   sodipodi:docname="fat_left.svg"
   inkscape:version="1.0.1 (c497b03c, 2020-09-10)">
  <metadata
     id="metadata18">
    <rdf:RDF>
      <cc:Work
         rdf:about="">
        <dc:format>image/svg+xml</dc:format>
        <dc:type
           rdf:resource="http://purl.org/dc/dcmitype/StillImage" />
        <dc:title></dc:title>
      </cc:Work>
    </rdf:RDF>
  </metadata>
  <defs
     id="defs16" />
  <sodipodi:namedview
     pagecolor="#ffffff"
     bordercolor="#666666"
     borderopacity="1"
     objecttolerance="10"
     gridtolerance="10"
     guidetolerance="10"
     inkscape:pageopacity="0"
     inkscape:pageshadow="2"
     inkscape:window-width="1792"
     inkscape:window-height="1075"
     id="namedview14"
     showgrid="true"
     scale-x="35"
     inkscape:zoom="3.6749999"
     inkscape:cx="134.18503"
     inkscape:cy="117.07016"
     inkscape:window-x="0"
     inkscape:window-y="23"
     inkscape:window-maximized="1"
     inkscape:current-layer="svg12"
     inkscape:document-rotation="0">
    <inkscape:grid
       type="xygrid"
       id="grid838" />
  </sodipodi:namedview>
  <path
     d="M 89.36909,29.88958 24.95268,87.2082 C 21.48265,91.65614 20,95.53628 20,100.14196 c 0,4.98423 1.73502,9.49527 4.88959,12.64984 l 64.16404,58.29653 C 92.42902,173.07571 96.11987,175 101.00947,175 c 8.70662,0 16.30915,-7.60252 16.30915,-16.2776 0,-4.38487 -2.20821,-9.21135 -5.86752,-12.87067 L 79.2429,116.38801 165,116.79617 c 9.90528,0.0471 15,-6.40378 15,-16.27759 0,-9.71609 -5.3122,-16.48436 -14.902,-16.52997 L 79.27445,83.58044 111.57729,54.05363 c 4.03786,-4.03786 5.80442,-7.5079 5.80442,-11.54575 C 117.38171,32.8549 110.06309,25 101.07256,25 c -4.47949,0 -8.51735,1.70347 -11.70347,4.88958 z"
     id="path10"
     sodipodi:nodetypes="ccsccssccsssccssc"
     style="fill:#333333;stroke-width:0.315456" />
</svg>
