<?xml version="1.0" encoding="UTF-8" standalone="no"?>
<svg
   xmlns:dc="http://purl.org/dc/elements/1.1/"
   xmlns:cc="http://creativecommons.org/ns#"
   xmlns:rdf="http://www.w3.org/1999/02/22-rdf-syntax-ns#"
   xmlns:svg="http://www.w3.org/2000/svg"
   xmlns="http://www.w3.org/2000/svg"
   xmlns:sodipodi="http://sodipodi.sourceforge.net/DTD/sodipodi-0.dtd"
   xmlns:inkscape="http://www.inkscape.org/namespaces/inkscape"
   width="200"
   height="200"
   viewBox="0 0 52.916666 52.916666"
   version="1.1"
   id="svg947"
   inkscape:version="1.0.1 (c497b03c, 2020-09-10)"
   sodipodi:docname="folderdownload.svg">
  <defs
     id="defs941" />
  <sodipodi:namedview
     id="base"
     pagecolor="#ffffff"
     bordercolor="#666666"
     borderopacity="1.0"
     inkscape:pageopacity="0.0"
     inkscape:pageshadow="2"
     inkscape:zoom="4"
     inkscape:cx="113.36209"
     inkscape:cy="97.291541"
     inkscape:document-units="mm"
     inkscape:current-layer="layer1"
     inkscape:document-rotation="0"
     showgrid="true"
     showguides="false"
     inkscape:window-width="1792"
     inkscape:window-height="1075"
     inkscape:window-x="0"
     inkscape:window-y="23"
     inkscape:window-maximized="1"
     units="px">
    <inkscape:grid
       type="xygrid"
       id="grid1518" />
  </sodipodi:namedview>
  <metadata
     id="metadata944">
    <rdf:RDF>
      <cc:Work
         rdf:about="">
        <dc:format>image/svg+xml</dc:format>
        <dc:type
           rdf:resource="http://purl.org/dc/dcmitype/StillImage" />
        <dc:title></dc:title>
      </cc:Work>
    </rdf:RDF>
  </metadata>
  <g
     inkscape:label="图层 1"
     inkscape:groupmode="layer"
     id="layer1">
    <path
       id="path4262"
       style="color:#000000;font-style:normal;font-variant:normal;font-weight:normal;font-stretch:normal;font-size:medium;line-height:normal;font-family:sans-serif;font-variant-ligatures:normal;font-variant-position:normal;font-variant-caps:normal;font-variant-numeric:normal;font-variant-alternates:normal;font-variant-east-asian:normal;font-feature-settings:normal;font-variation-settings:normal;text-indent:0;text-align:start;text-decoration:none;text-decoration-line:none;text-decoration-style:solid;text-decoration-color:#000000;letter-spacing:normal;word-spacing:normal;text-transform:none;writing-mode:lr-tb;direction:ltr;text-orientation:mixed;dominant-baseline:auto;baseline-shift:baseline;text-anchor:start;white-space:normal;shape-padding:0;shape-margin:0;inline-size:0;clip-rule:nonzero;display:inline;overflow:visible;visibility:visible;opacity:1;isolation:auto;mix-blend-mode:normal;color-interpolation:sRGB;color-interpolation-filters:linearRGB;solid-color:#000000;solid-opacity:1;vector-effect:none;fill:#333333;fill-opacity:1;fill-rule:nonzero;stroke:none;stroke-width:2.20417;stroke-linecap:butt;stroke-linejoin:round;stroke-miterlimit:4;stroke-dasharray:none;stroke-dashoffset:0;stroke-opacity:1;paint-order:markers stroke fill;color-rendering:auto;image-rendering:auto;shape-rendering:auto;text-rendering:auto;enable-background:accumulate;stop-color:#000000;stop-opacity:1"
       d="m 8.3772663,5.2916667 c -2.4231578,0 -4.4085163,1.9848409 -4.4085163,4.4079995 V 31.740697 c 0,2.42316 1.9853579,4.410586 4.4085163,4.410586 H 22.495784 a 14.552083,14.552083 0 0 1 -0.0067,-0.432533 14.552083,14.552083 0 0 1 0.108521,-1.773018 H 9.6738281 c -1.6347501,0 -2.2543762,-0.290105 -2.3983032,-0.406178 C 7.2023396,33.480533 7.1735662,33.28711 7.1447835,33.193839 L 13.209013,19.764168 c 0.161007,-0.356558 0.360489,-0.62915 0.758093,-0.865063 0.397605,-0.235914 1.041159,-0.440199 2.120801,-0.4377 l 23.804747,0.05478 c 1.018053,0.0024 1.423633,0.198718 1.503786,0.234611 L 40.153621,21.5036 a 14.552083,14.552083 0 0 1 2.12907,0.639754 l 1.123444,-2.48822 C 43.574627,19.282 43.695209,18.856967 43.64488,18.377692 43.59455,17.898417 43.324358,17.401881 42.94725,17.084748 42.193031,16.450482 41.233816,16.316336 39.89834,16.313219 l -2.867009,-0.0067 v -2.198315 c 0,-1.191222 -0.600721,-2.225945 -1.392679,-3.017904 C 34.846693,10.298321 33.814553,9.6996662 32.62333,9.6996662 H 24.357686 L 21.381124,5.7329835 A 1.1021952,1.1021952 0 0 0 20.500041,5.2916667 Z m 0,2.2050332 H 19.94917 l 2.975012,3.9666831 a 1.1021952,1.1021952 0 0 0 0.880566,0.441317 h 8.818582 c 0.367364,0 0.985237,0.272616 1.456759,0.74414 0.471525,0.471524 0.74621,1.091982 0.74621,1.459343 V 16.30133 L 16.094108,16.25637 c -1.362573,-0.0032 -2.432047,0.259699 -3.251998,0.746208 -0.819951,0.486508 -1.341614,1.193302 -1.640726,1.8557 L 6.1722331,29.994034 V 9.6996662 c 0,-1.2401748 0.9648589,-2.2029663 2.2050332,-2.2029663 z" />
    <path
       id="path6978"
       style="color:#000000;font-style:normal;font-variant:normal;font-weight:normal;font-stretch:normal;font-size:medium;line-height:normal;font-family:sans-serif;font-variant-ligatures:normal;font-variant-position:normal;font-variant-caps:normal;font-variant-numeric:normal;font-variant-alternates:normal;font-variant-east-asian:normal;font-feature-settings:normal;font-variation-settings:normal;text-indent:0;text-align:start;text-decoration:none;text-decoration-line:none;text-decoration-style:solid;text-decoration-color:#000000;letter-spacing:normal;word-spacing:normal;text-transform:none;writing-mode:lr-tb;direction:ltr;text-orientation:mixed;dominant-baseline:auto;baseline-shift:baseline;text-anchor:start;white-space:normal;shape-padding:0;shape-margin:0;inline-size:0;clip-rule:nonzero;display:inline;overflow:visible;visibility:visible;opacity:1;isolation:auto;mix-blend-mode:normal;color-interpolation:sRGB;color-interpolation-filters:linearRGB;solid-color:#000000;solid-opacity:1;vector-effect:none;fill:#333333;fill-opacity:1;fill-rule:nonzero;stroke:none;stroke-width:2.64583;stroke-linecap:butt;stroke-linejoin:round;stroke-miterlimit:4;stroke-dasharray:none;stroke-dashoffset:0;stroke-opacity:1;paint-order:markers stroke fill;color-rendering:auto;image-rendering:auto;shape-rendering:auto;text-rendering:auto;enable-background:accumulate;stop-color:#000000;stop-opacity:1"
       d="m 36.96622,23.8125 c -6.112568,0 -11.169196,4.642427 -11.830803,10.582817 h 2.665988 c 0.638681,-4.498599 4.484497,-7.938016 9.164815,-7.938016 4.680315,0 8.527458,3.439417 9.166365,7.938016 h 2.664437 C 48.135415,28.454927 43.078783,23.8125 36.96622,23.8125 Z" />
    <rect
       style="fill:#333333;stroke:none;stroke-width:2.64582;stroke-linecap:round;stroke-linejoin:round;stroke-miterlimit:4;stroke-dasharray:none;stroke-opacity:1;paint-order:markers stroke fill"
       id="rect6991"
       width="7.9374986"
       height="7.9375014"
       x="32.99799"
       y="30.426569" />
    <path
       style="fill:#333333;stroke:none;stroke-width:0.264583px;stroke-linecap:butt;stroke-linejoin:miter;stroke-opacity:1"
       d="m 27.70632,38.364067 18.520833,1e-6 -9.260417,9.260416 z"
       id="path6993"
       sodipodi:nodetypes="cccc" />
  </g>
</svg>
