<?xml version="1.0" encoding="UTF-8" standalone="no"?>
<svg
   xmlns:dc="http://purl.org/dc/elements/1.1/"
   xmlns:cc="http://creativecommons.org/ns#"
   xmlns:rdf="http://www.w3.org/1999/02/22-rdf-syntax-ns#"
   xmlns:svg="http://www.w3.org/2000/svg"
   xmlns="http://www.w3.org/2000/svg"
   xmlns:sodipodi="http://sodipodi.sourceforge.net/DTD/sodipodi-0.dtd"
   xmlns:inkscape="http://www.inkscape.org/namespaces/inkscape"
   width="200mm"
   height="200mm"
   viewBox="0 0 200 200"
   version="1.1"
   id="svg8"
   inkscape:version="1.0.1 (c497b03c, 2020-09-10)"
   sodipodi:docname="func.svg">
  <defs
     id="defs2" />
  <sodipodi:namedview
     id="base"
     pagecolor="#ffffff"
     bordercolor="#666666"
     borderopacity="1.0"
     inkscape:pageopacity="0.0"
     inkscape:pageshadow="2"
     inkscape:zoom="0.98994949"
     inkscape:cx="655.12598"
     inkscape:cy="341.68708"
     inkscape:document-units="mm"
     inkscape:current-layer="layer1"
     inkscape:document-rotation="0"
     showgrid="false"
     inkscape:window-width="1792"
     inkscape:window-height="1075"
     inkscape:window-x="0"
     inkscape:window-y="23"
     inkscape:window-maximized="1" />
  <metadata
     id="metadata5">
    <rdf:RDF>
      <cc:Work
         rdf:about="">
        <dc:format>image/svg+xml</dc:format>
        <dc:type
           rdf:resource="http://purl.org/dc/dcmitype/StillImage" />
        <dc:title />
      </cc:Work>
    </rdf:RDF>
  </metadata>
  <g
     inkscape:label="图层 1"
     inkscape:groupmode="layer"
     id="layer1">
    <g
       aria-label="{ "
       id="text837"
       style="font-style:normal;font-weight:normal;font-size:10.58329999999999949px;line-height:1.25;font-family:sans-serif;fill:#333333;fill-opacity:1;stroke:#333333;stroke-width:4.03728055;stroke-opacity:1;stroke-miterlimit:4;stroke-dasharray:none;stroke-linecap:round;stroke-linejoin:round"
       transform="matrix(0.82345711,0,0,1.1920683,10.016513,-15.484513)">
      <path
         d="m 63.128348,147.21012 h -7.75144 q -9.250053,0 -15.037795,-5.16763 -5.736066,-5.11595 -5.736066,-14.83109 v -7.69976 q 0,-8.73329 -4.28913,-13.64254 -4.289131,-4.96092 -13.125773,-4.96092 h -2.635489 v -8.0615 h 2.635489 q 8.836642,0 13.125773,-4.909245 4.28913,-4.960922 4.28913,-13.694212 v -7.699764 q 0,-9.715139 5.736066,-14.831089 5.787742,-5.167627 15.037795,-5.167627 h 7.75144 v 7.131325 h -5.891095 q -7.027972,0 -10.231901,3.255605 -3.152253,3.255605 -3.152253,10.490283 v 9.043347 q 0,7.183001 -3.979072,12.092247 -3.979073,4.857569 -11.058722,7.699764 v 1.240231 q 7.079649,2.842195 11.058722,7.751435 3.979072,4.85757 3.979072,12.04058 v 9.04334 q 0,7.23468 3.152253,10.49029 3.203929,3.2556 10.231901,3.2556 h 5.891095 z"
         style="font-size:105.83299999999999841px;fill:#333333;stroke-width:4.03728055;stroke:#333333;stroke-opacity:1;stroke-miterlimit:4;stroke-dasharray:none;stroke-linecap:round;stroke-linejoin:round"
         id="path839" />
    </g>
    <g
       aria-label="{ "
       id="text837-7"
       style="font-style:normal;font-weight:normal;font-size:10.58329999999999949px;line-height:1.25;font-family:sans-serif;fill:#333333;fill-opacity:1;stroke:#333333;stroke-width:4.03728058;stroke-miterlimit:4;stroke-dasharray:none;stroke-opacity:1;stroke-linejoin:round;stroke-linecap:round"
       transform="matrix(-0.8234571,0,0,1.1920683,189.98349,-15.484513)">
      <path
         d="m 63.128348,147.21012 h -7.75144 q -9.250053,0 -15.037795,-5.16763 -5.736066,-5.11595 -5.736066,-14.83109 v -7.69976 q 0,-8.73329 -4.28913,-13.64254 -4.289131,-4.96092 -13.125773,-4.96092 h -2.635489 v -8.0615 h 2.635489 q 8.836642,0 13.125773,-4.909245 4.28913,-4.960922 4.28913,-13.694212 v -7.699764 q 0,-9.715139 5.736066,-14.831089 5.787742,-5.167627 15.037795,-5.167627 h 7.75144 v 7.131325 h -5.891095 q -7.027972,0 -10.231901,3.255605 -3.152253,3.255605 -3.152253,10.490283 v 9.043347 q 0,7.183001 -3.979072,12.092247 -3.979073,4.857569 -11.058722,7.699764 v 1.240231 q 7.079649,2.842195 11.058722,7.751435 3.979072,4.85757 3.979072,12.04058 v 9.04334 q 0,7.23468 3.152253,10.49029 3.203929,3.2556 10.231901,3.2556 h 5.891095 z"
         style="font-size:105.83299999999999841px;fill:#333333;stroke-width:4.03728058;stroke-miterlimit:4;stroke-dasharray:none;stroke:#333333;stroke-opacity:1;stroke-linejoin:round;stroke-linecap:round"
         id="path839-3" />
    </g>
    <path
       d="M 97.780247,137.44551 C 95.876408,144.25377 90.695655,150 83.541831,150 h -0.01118 c -8.180746,0 -14.1115,-6.76354 -16.303798,-14.7792 -0.876918,-3.21966 0.865379,-6.59586 3.899978,-7.52376 3.034609,-0.92788 6.207674,0.9279 7.073073,4.13639 0.04621,0.14538 0.161433,0.52544 0.346153,0.98378 0.311517,0.77139 0.680758,1.53159 1.119222,2.2359 1.130771,1.82225 2.434603,2.81721 3.853823,2.81721 0.726923,0 1.453836,-0.52543 2.146143,-1.54277 0.507706,-0.74901 0.876947,-1.57628 1.107703,-2.26941 l 2.411535,-10.58693 c 1.592292,-6.99832 3.126911,-13.6948 4.580746,-19.98881 l 0.138436,-0.61487 c 0.680768,-2.973743 1.338469,-5.790943 1.938446,-8.406933 h -9.242275 c -2.042293,0 -3.923045,-1.15149 -4.949987,-3.04081 -1.015372,-1.87813 -1.015372,-4.19229 0,-6.07043 1.015403,-1.87814 2.907694,-3.04081 4.949987,-3.04081 h 12.069206 c 1.165377,-4.93012 1.961528,-8.18334 2.284598,-9.346 l 0.31155,-1.11794 c 1.64999,-6.01453 2.86152,-9.502516 4.94998,-13.169369 C 109.35363,53.186137 113.47285,50 118.78052,50 c 8.60765,0 13.58073,7.724986 14.20379,16.277247 0.23077,3.33148 -2.11153,6.23812 -5.24998,6.49526 -3.13845,0.2683 -5.87305,-2.21353 -6.14997,-5.54501 -0.0922,-1.01732 -0.32309,-2.02347 -0.69231,-2.97372 -0.55385,-1.43097 -1.24616,-2.112917 -2.11153,-2.112917 -2.07691,0 -4.33844,5.008377 -6.55383,13.113477 l -0.32307,1.15148 c -0.21926,0.78256 -0.71539,2.81721 -1.45385,5.88038 h 7.04998 c 3.16154,0 5.71153,2.71659 5.71153,6.07044 0,3.35381 -2.56154,6.07042 -5.71153,6.07042 h -9.88843 c -3.28845,14.343203 -6.57689,28.675243 -9.830734,43.018453 z"
       fill="#666666"
       id="path881"
       style="fill:#333333;stroke-width:2;stroke:#333333;stroke-opacity:1;stroke-miterlimit:4;stroke-dasharray:none"
       sodipodi:nodetypes="csscscccsccccccsccsccccsccccscccsssccc" />
  </g>
</svg>
