<?xml version="1.0" encoding="UTF-8" standalone="no"?>
<svg
   xmlns:dc="http://purl.org/dc/elements/1.1/"
   xmlns:cc="http://creativecommons.org/ns#"
   xmlns:rdf="http://www.w3.org/1999/02/22-rdf-syntax-ns#"
   xmlns:svg="http://www.w3.org/2000/svg"
   xmlns="http://www.w3.org/2000/svg"
   xmlns:sodipodi="http://sodipodi.sourceforge.net/DTD/sodipodi-0.dtd"
   xmlns:inkscape="http://www.inkscape.org/namespaces/inkscape"
   width="200mm"
   height="200mm"
   viewBox="0 0 200 200"
   version="1.1"
   id="svg8"
   inkscape:version="1.0.1 (c497b03c, 2020-09-10)"
   sodipodi:docname="func.svg">
  <defs
     id="defs2" />
  <sodipodi:namedview
     id="base"
     pagecolor="#ffffff"
     bordercolor="#666666"
     borderopacity="1.0"
     inkscape:pageopacity="0.0"
     inkscape:pageshadow="2"
     inkscape:zoom="0.98994949"
     inkscape:cx="655.12598"
     inkscape:cy="341.68708"
     inkscape:document-units="mm"
     inkscape:current-layer="layer1"
     inkscape:document-rotation="0"
     showgrid="false"
     inkscape:window-width="1792"
     inkscape:window-height="1075"
     inkscape:window-x="0"
     inkscape:window-y="23"
     inkscape:window-maximized="1" />
  <metadata
     id="metadata5">
    <rdf:RDF>
      <cc:Work
         rdf:about="">
        <dc:format>image/svg+xml</dc:format>
        <dc:type
           rdf:resource="http://purl.org/dc/dcmitype/StillImage" />
        <dc:title></dc:title>
      </cc:Work>
    </rdf:RDF>
  </metadata>
  <g
     inkscape:label="图层 1"
     inkscape:groupmode="layer"
     id="layer1">
    <rect
       style="fill:#333333;fill-opacity:1;stroke:#000000;stroke-width:0.527616"
       id="rect833"
       width="179.47238"
       height="179.47238"
       x="10.263808"
       y="10.263808"
       rx="20"
       ry="20" />
    <g
       aria-label="{ "
       id="text837"
       style="font-style:normal;font-weight:normal;font-size:10.58329999999999949px;line-height:1.25;font-family:sans-serif;fill:#ffffff;fill-opacity:1;stroke:#ffffff;stroke-width:2.01864028;stroke-opacity:1;stroke-miterlimit:4;stroke-dasharray:none"
       transform="matrix(0.82345711,0,0,1.1920683,10.016513,-15.484513)">
      <path
         d="m 63.128348,147.21012 h -7.75144 q -9.250053,0 -15.037795,-5.16763 -5.736066,-5.11595 -5.736066,-14.83109 v -7.69976 q 0,-8.73329 -4.28913,-13.64254 -4.289131,-4.96092 -13.125773,-4.96092 h -2.635489 v -8.0615 h 2.635489 q 8.836642,0 13.125773,-4.909245 4.28913,-4.960922 4.28913,-13.694212 v -7.699764 q 0,-9.715139 5.736066,-14.831089 5.787742,-5.167627 15.037795,-5.167627 h 7.75144 v 7.131325 h -5.891095 q -7.027972,0 -10.231901,3.255605 -3.152253,3.255605 -3.152253,10.490283 v 9.043347 q 0,7.183001 -3.979072,12.092247 -3.979073,4.857569 -11.058722,7.699764 v 1.240231 q 7.079649,2.842195 11.058722,7.751435 3.979072,4.85757 3.979072,12.04058 v 9.04334 q 0,7.23468 3.152253,10.49029 3.203929,3.2556 10.231901,3.2556 h 5.891095 z"
         style="font-size:105.83299999999999841px;fill:#ffffff;stroke-width:2.01864028;stroke:#ffffff;stroke-opacity:1;stroke-miterlimit:4;stroke-dasharray:none"
         id="path839" />
    </g>
    <g
       aria-label="{ "
       id="text837-7"
       style="font-style:normal;font-weight:normal;font-size:10.58329999999999949px;line-height:1.25;font-family:sans-serif;fill:#000000;fill-opacity:1;stroke:#ffffff;stroke-width:2.01864029;stroke-miterlimit:4;stroke-dasharray:none;stroke-opacity:1"
       transform="matrix(-0.8234571,0,0,1.1920683,189.98349,-15.484513)">
      <path
         d="m 63.128348,147.21012 h -7.75144 q -9.250053,0 -15.037795,-5.16763 -5.736066,-5.11595 -5.736066,-14.83109 v -7.69976 q 0,-8.73329 -4.28913,-13.64254 -4.289131,-4.96092 -13.125773,-4.96092 h -2.635489 v -8.0615 h 2.635489 q 8.836642,0 13.125773,-4.909245 4.28913,-4.960922 4.28913,-13.694212 v -7.699764 q 0,-9.715139 5.736066,-14.831089 5.787742,-5.167627 15.037795,-5.167627 h 7.75144 v 7.131325 h -5.891095 q -7.027972,0 -10.231901,3.255605 -3.152253,3.255605 -3.152253,10.490283 v 9.043347 q 0,7.183001 -3.979072,12.092247 -3.979073,4.857569 -11.058722,7.699764 v 1.240231 q 7.079649,2.842195 11.058722,7.751435 3.979072,4.85757 3.979072,12.04058 v 9.04334 q 0,7.23468 3.152253,10.49029 3.203929,3.2556 10.231901,3.2556 h 5.891095 z"
         style="font-size:105.83299999999999841px;fill:#ffffff;stroke-width:2.01864029;stroke-miterlimit:4;stroke-dasharray:none;stroke:#ffffff;stroke-opacity:1"
         id="path839-3" />
    </g>
    <path
       d="M 90.836842,137.44551 C 88.929503,144.25377 83.739224,150 76.572246,150 h -0.0112 c -8.195788,0 -14.137447,-6.76354 -16.333776,-14.7792 -0.87853,-3.21966 0.86697,-6.59586 3.907149,-7.52376 3.040189,-0.92788 6.219088,0.9279 7.086078,4.13639 0.0463,0.14538 0.16173,0.52544 0.34679,0.98378 0.31209,0.77139 0.68201,1.53159 1.12128,2.2359 1.13285,1.82225 2.439079,2.81721 3.860909,2.81721 0.72826,0 1.456509,-0.52543 2.150089,-1.54277 0.50864,-0.74901 0.87856,-1.57628 1.10974,-2.26941 l 2.415969,-10.58693 c 1.59522,-6.99832 3.13266,-13.6948 4.589169,-19.98881 l 0.13869,-0.61487 c 0.68202,-2.973743 1.34093,-5.790943 1.94201,-8.406933 h -9.259268 c -2.046049,0 -3.930259,-1.15149 -4.959089,-3.04081 -1.017239,-1.87813 -1.017239,-4.19229 0,-6.07043 1.01727,-1.87814 2.91304,-3.04081 4.959089,-3.04081 h 12.091397 c 1.16752,-4.93012 1.965139,-8.18334 2.288799,-9.346 l 0.31212,-1.11794 c 1.65303,-6.01453 2.86678,-9.502516 4.959089,-13.169369 C 102.43151,53.186137 106.5583,50 111.87573,50 c 8.62348,0 13.6057,7.724986 14.22991,16.277247 0.23119,3.33148 -2.11542,6.23812 -5.25964,6.49526 -3.14422,0.2683 -5.88385,-2.21353 -6.16127,-5.54501 -0.0924,-1.01732 -0.32369,-2.02347 -0.69359,-2.97372 -0.55487,-1.43097 -1.24845,-2.112917 -2.11541,-2.112917 -2.08073,0 -4.34642,5.008377 -6.56588,13.113477 l -0.32366,1.15148 c -0.21967,0.78256 -0.71671,2.81721 -1.45653,5.88038 h 7.06294 c 3.16736,0 5.72204,2.71659 5.72204,6.07044 0,3.35381 -2.56625,6.07042 -5.72204,6.07042 h -9.90661 C 97.391491,108.77026 94.097011,123.1023 90.837182,137.44551 Z m 47.221128,-9.41309 c 1.29469,1.60984 1.94203,3.19733 1.94203,4.96369 0,3.73392 -2.65872,6.41697 -6.0457,6.41697 -2.3235,0 -4.09212,-1.0844 -5.73358,-3.2532 l -5.00533,-6.97597 -5.03999,7.02068 c -1.57211,2.04584 -3.27139,3.20849 -5.39835,3.20849 -3.41011,0 -6.11507,-2.63834 -6.11507,-6.17105 0,-1.75517 0.58955,-3.21968 1.69928,-4.57237 l 7.19009,-9.02181 -6.46183,-7.90385 c -1.29469,-1.62102 -1.94203,-3.19732 -1.94203,-4.96367 0,-3.73393 2.65872,-6.42817 6.05726,-6.42817 2.31193,0 4.08056,1.0844 5.73358,3.26439 l 4.46201,6.32755 4.6123,-6.38345 c 1.58368,-2.04584 3.27137,-3.1973 5.39836,-3.1973 3.41008,0 6.11504,2.63833 6.11504,6.17102 0,1.69929 -0.57798,3.09671 -1.69926,4.58358 l -6.76239,8.37338 z m 0,0"
       fill="#666666"
       id="path881"
       style="stroke-width:0.113679;fill:#ffffff" />
  </g>
</svg>
