<?xml version="1.0" encoding="UTF-8" standalone="no"?>
<svg
   xmlns:dc="http://purl.org/dc/elements/1.1/"
   xmlns:cc="http://creativecommons.org/ns#"
   xmlns:rdf="http://www.w3.org/1999/02/22-rdf-syntax-ns#"
   xmlns:svg="http://www.w3.org/2000/svg"
   xmlns="http://www.w3.org/2000/svg"
   xmlns:sodipodi="http://sodipodi.sourceforge.net/DTD/sodipodi-0.dtd"
   xmlns:inkscape="http://www.inkscape.org/namespaces/inkscape"
   width="200mm"
   height="200mm"
   viewBox="0 0 200 200"
   version="1.1"
   id="svg933"
   inkscape:version="1.0.1 (c497b03c, 2020-09-10)"
   sodipodi:docname="huitu_work.svg">
  <defs
     id="defs927" />
  <sodipodi:namedview
     id="base"
     pagecolor="#ffffff"
     bordercolor="#666666"
     borderopacity="1.0"
     inkscape:pageopacity="0.0"
     inkscape:pageshadow="2"
     inkscape:zoom="0.35"
     inkscape:cx="400"
     inkscape:cy="445.71429"
     inkscape:document-units="mm"
     inkscape:current-layer="layer1"
     inkscape:document-rotation="0"
     showgrid="true"
     inkscape:window-width="1792"
     inkscape:window-height="1075"
     inkscape:window-x="0"
     inkscape:window-y="23"
     inkscape:window-maximized="1">
    <inkscape:grid
       type="xygrid"
       id="grid935" />
  </sodipodi:namedview>
  <metadata
     id="metadata930">
    <rdf:RDF>
      <cc:Work
         rdf:about="">
        <dc:format>image/svg+xml</dc:format>
        <dc:type
           rdf:resource="http://purl.org/dc/dcmitype/StillImage" />
        <dc:title></dc:title>
      </cc:Work>
    </rdf:RDF>
  </metadata>
  <g
     inkscape:label="图层 1"
     inkscape:groupmode="layer"
     id="layer1">
    <path
       id="path937"
       style="fill:none;fill-opacity:1;stroke:#000000;stroke-width:0.999999px;stroke-linecap:butt;stroke-linejoin:miter;stroke-opacity:1"
       d="m -880,-240 40,334.488281 h 320 L -480,-240 H -699.21289 L -720,-120 -737.00781,-240 Z m 40,360 v 40 c 0,0 120,40 120,120 0,80 -39.99942,119.99999 -34.28516,200 2.84988,39.89832 74.28516,40 74.28516,40 0,0 80,-10e-6 80,-40 0,-80.00001 -40,-120 -40,-200 0,-80 120,-120 120,-120 v -40 z"
       transform="scale(0.26458333)" />
    <path
       id="path937-5"
       style="fill:#000000;fill-opacity:1;stroke:#000000;stroke-width:0.9px;stroke-linecap:butt;stroke-linejoin:miter;stroke-opacity:1"
       d="M 400 21.794922 L 212.58789 260.11719 L 416.23633 463.76367 L 647.67188 281.76953 C 634.45014 305.9641 594.85742 382.56502 594.85742 432.57227 C 594.85742 552.57227 711.99915 549.71399 713.42773 431.14258 C 714.08884 376.27069 662.69933 291.21184 653.82422 276.93164 L 654.55859 276.35352 L 515.05273 136.84766 L 425.45508 199.98633 L 491 112.79492 L 400 21.794922 z M 196.35352 276.35352 L 170.89648 301.80859 C 170.89648 301.80859 221.80816 403.63325 170.89648 454.54492 C 119.98477 505.45663 69.073985 505.45569 21.798828 560.00391 C -1.778658 587.20868 43.619141 632.73438 43.619141 632.73438 C 43.619141 632.73438 94.530486 683.6472 119.98633 658.19141 C 170.89802 607.2797 170.89687 556.36683 221.80859 505.45508 C 272.72027 454.54341 374.54492 505.45508 374.54492 505.45508 L 400 480 L 196.35352 276.35352 z M 89.283203 560.28516 A 30 29.999998 0 0 1 89.427734 560.28516 A 30 29.999998 0 0 1 119.42773 590.28516 A 30 29.999998 0 0 1 89.427734 620.28516 A 30 29.999998 0 0 1 59.427734 590.28516 A 30 29.999998 0 0 1 89.283203 560.28516 z "
       transform="scale(0.26458333)" />
  </g>
</svg>
