<?xml version="1.0" encoding="UTF-8" standalone="no"?>
<svg
   xmlns:dc="http://purl.org/dc/elements/1.1/"
   xmlns:cc="http://creativecommons.org/ns#"
   xmlns:rdf="http://www.w3.org/1999/02/22-rdf-syntax-ns#"
   xmlns:svg="http://www.w3.org/2000/svg"
   xmlns="http://www.w3.org/2000/svg"
   xmlns:sodipodi="http://sodipodi.sourceforge.net/DTD/sodipodi-0.dtd"
   xmlns:inkscape="http://www.inkscape.org/namespaces/inkscape"
   width="200mm"
   height="200mm"
   viewBox="0 0 200 200"
   version="1.1"
   id="svg933"
   inkscape:version="1.0.1 (c497b03c, 2020-09-10)"
   sodipodi:docname="huitu.svg">
  <defs
     id="defs927" />
  <sodipodi:namedview
     id="base"
     pagecolor="#ffffff"
     bordercolor="#666666"
     borderopacity="1.0"
     inkscape:pageopacity="0.0"
     inkscape:pageshadow="2"
     inkscape:zoom="0.35"
     inkscape:cx="400"
     inkscape:cy="445.71429"
     inkscape:document-units="mm"
     inkscape:current-layer="layer1"
     inkscape:document-rotation="0"
     showgrid="true"
     inkscape:window-width="1792"
     inkscape:window-height="1075"
     inkscape:window-x="0"
     inkscape:window-y="23"
     inkscape:window-maximized="1">
    <inkscape:grid
       type="xygrid"
       id="grid935" />
  </sodipodi:namedview>
  <metadata
     id="metadata930">
    <rdf:RDF>
      <cc:Work
         rdf:about="">
        <dc:format>image/svg+xml</dc:format>
        <dc:type
           rdf:resource="http://purl.org/dc/dcmitype/StillImage" />
        <dc:title></dc:title>
      </cc:Work>
    </rdf:RDF>
  </metadata>
  <g
     inkscape:label="图层 1"
     inkscape:groupmode="layer"
     id="layer1">
    <path
       id="path937-5"
       style="fill:#000000;fill-opacity:1;stroke:#000000;stroke-width:0.214312px;stroke-linecap:butt;stroke-linejoin:miter;stroke-opacity:1"
       d="M 109.64924,20.626832 65.021709,77.377323 113.51551,125.87068 168.6261,82.533287 c -3.14842,5.761332 -12.57644,24.001963 -12.57644,35.909933 0,28.575 27.89437,27.89437 28.23455,-0.34044 0.15743,-13.06637 -12.0797,-33.321043 -14.19308,-36.721516 L 170.266,81.2436 137.04617,48.023768 115.71073,63.058663 131.31861,42.296209 Z M 61.1559,81.2436 55.093941,87.305088 c 0,0 12.123344,24.247032 0,36.370372 -12.12335,12.12335 -24.24648,12.12313 -35.503879,25.11242 -5.614389,6.47814 5.195964,17.31894 5.195964,17.31894 0,0 12.123263,12.12362 18.184936,6.06196 12.123347,-12.12335 12.123073,-24.24698 24.246426,-36.37034 12.123344,-12.12334 36.370362,0 36.370362,0 l 6.06149,-6.06149 z m -25.496119,67.61125 a 7.1437499,7.1437495 0 0 1 0.03442,0 7.1437499,7.1437495 0 0 1 7.143749,7.14375 7.1437499,7.1437495 0 0 1 -7.143749,7.14375 7.1437499,7.1437495 0 0 1 -7.14375,-7.14375 7.1437499,7.1437495 0 0 1 7.109334,-7.14375 z" />
  </g>
</svg>
