<?xml version="1.0" encoding="UTF-8" standalone="no"?>
<svg
   xmlns:dc="http://purl.org/dc/elements/1.1/"
   xmlns:cc="http://creativecommons.org/ns#"
   xmlns:rdf="http://www.w3.org/1999/02/22-rdf-syntax-ns#"
   xmlns:svg="http://www.w3.org/2000/svg"
   xmlns="http://www.w3.org/2000/svg"
   xmlns:sodipodi="http://sodipodi.sourceforge.net/DTD/sodipodi-0.dtd"
   xmlns:inkscape="http://www.inkscape.org/namespaces/inkscape"
   class="icon"
   width="200px"
   height="194.31px"
   viewBox="0 0 1054 1024"
   version="1.1"
   id="svg1487"
   sodipodi:docname="jiegou.svg"
   inkscape:version="1.0.1 (c497b03c, 2020-09-10)">
  <metadata
     id="metadata1493">
    <rdf:RDF>
      <cc:Work
         rdf:about="">
        <dc:format>image/svg+xml</dc:format>
        <dc:type
           rdf:resource="http://purl.org/dc/dcmitype/StillImage" />
      </cc:Work>
    </rdf:RDF>
  </metadata>
  <defs
     id="defs1491" />
  <sodipodi:namedview
     pagecolor="#ffffff"
     bordercolor="#666666"
     borderopacity="1"
     objecttolerance="10"
     gridtolerance="10"
     guidetolerance="10"
     inkscape:pageopacity="0"
     inkscape:pageshadow="2"
     inkscape:window-width="1792"
     inkscape:window-height="1075"
     id="namedview1489"
     showgrid="false"
     inkscape:zoom="3.8752509"
     inkscape:cx="100"
     inkscape:cy="97.154999"
     inkscape:window-x="0"
     inkscape:window-y="23"
     inkscape:window-maximized="1"
     inkscape:current-layer="svg1487" />
  <path
     d="m 541.16646,839.55048 c -15.41777,0 -27.94771,-10.66713 -27.94771,-23.72163 V 557.83809 h 124.3087 V 492.63606 H 513.21875 V 233.99842 c 0,-12.85338 12.81724,-23.76796 27.95141,-23.76796 h 96.35729 v -65.20667 h -96.35637 c -49.70272,0 -90.09324,39.89748 -90.09324,88.97463 V 492.63235 H 338.90613 C 322.88598,434.84448 268.29546,392.2955 203.41316,392.2955 126.04077,392.29459 63.24,452.93412 63.24,527.76623 c 0,74.83397 62.8017,135.47351 140.17409,135.47351 66.76271,0 122.63032,-45.04848 136.79323,-105.40072 h 110.87144 v 257.99446 c 0,49.02896 40.3896,88.92552 90.09232,88.92552 h 96.35729 V 839.55139 H 541.16646 Z M 698.5136,527.76994 c 0,74.82933 62.75722,135.46887 140.22043,135.46887 77.46228,0 140.22043,-60.63954 140.22043,-135.46887 0,-74.83582 -62.75815,-135.47535 -140.22043,-135.47535 -77.46321,0 -140.22043,60.63953 -140.22043,135.47535 z m 3.83313,327.51247 c 0,74.78114 62.70717,135.47079 140.16945,135.47079 77.46785,0 140.26954,-60.68965 140.26954,-135.47079 0,-74.88401 -62.80262,-135.56896 -140.26954,-135.56896 -77.46228,0 -140.16945,60.68495 -140.16945,135.56896 z m 0.56625,-677.65391 c 0,74.88031 62.80726,135.56989 140.17408,135.56989 77.4623,0 140.26493,-60.68957 140.26493,-135.56989 0,-74.78483 -62.80263,-135.475344 -140.26584,-135.475344 -77.36683,0 -140.17317,60.690524 -140.17317,135.475344 z"
     id="path1485"
     style="stroke-width:0.899619" />
</svg>
