<?xml version="1.0" encoding="UTF-8" standalone="no"?>
<svg
   xmlns:dc="http://purl.org/dc/elements/1.1/"
   xmlns:cc="http://creativecommons.org/ns#"
   xmlns:rdf="http://www.w3.org/1999/02/22-rdf-syntax-ns#"
   xmlns:svg="http://www.w3.org/2000/svg"
   xmlns="http://www.w3.org/2000/svg"
   xmlns:sodipodi="http://sodipodi.sourceforge.net/DTD/sodipodi-0.dtd"
   xmlns:inkscape="http://www.inkscape.org/namespaces/inkscape"
   width="200"
   height="200"
   viewBox="0 0 52.916666 52.916666"
   version="1.1"
   id="svg8"
   inkscape:version="1.0.1 (c497b03c, 2020-09-10)"
   sodipodi:docname="lab.svg">
  <defs
     id="defs2" />
  <sodipodi:namedview
     id="base"
     pagecolor="#ffffff"
     bordercolor="#666666"
     borderopacity="1.0"
     inkscape:pageopacity="0.0"
     inkscape:pageshadow="2"
     inkscape:zoom="4"
     inkscape:cx="95.287637"
     inkscape:cy="99.681047"
     inkscape:document-units="px"
     inkscape:current-layer="layer1"
     inkscape:document-rotation="0"
     showgrid="true"
     units="px"
     inkscape:window-width="1792"
     inkscape:window-height="1075"
     inkscape:window-x="0"
     inkscape:window-y="23"
     inkscape:window-maximized="1">
    <inkscape:grid
       type="xygrid"
       id="grid833" />
  </sodipodi:namedview>
  <metadata
     id="metadata5">
    <rdf:RDF>
      <cc:Work
         rdf:about="">
        <dc:format>image/svg+xml</dc:format>
        <dc:type
           rdf:resource="http://purl.org/dc/dcmitype/StillImage" />
        <dc:title></dc:title>
      </cc:Work>
    </rdf:RDF>
  </metadata>
  <g
     inkscape:label="图层 1"
     inkscape:groupmode="layer"
     id="layer1">
    <path
       id="rect860"
       style="fill:none;fill-opacity:1;fill-rule:evenodd;stroke:#1a1a1a;stroke-width:2.64583;stroke-linecap:round;stroke-linejoin:round;stroke-opacity:1;paint-order:markers fill stroke"
       d="m 19.84375,6.614582 c -1.099344,0 -1.984375,0.8850312 -1.984375,1.984375 v 1.3229166 c 0,1.0993434 0.885031,1.9843754 1.984375,1.9843754 h 0.661458 v 14.552083 c 0,0 -11.9062498,14.552083 -11.9062498,17.197916 0,2.645833 1.3229169,3.96875 2.6458338,3.96875 h 30.427082 c 1.322917,0 2.645834,-1.322917 2.645834,-3.96875 0,-2.645833 -11.90625,-17.197916 -11.90625,-17.197916 V 11.906249 h 0.661458 c 1.099344,0 1.984375,-0.885032 1.984375,-1.9843754 V 8.598957 c 0,-1.0993438 -0.885031,-1.984375 -1.984375,-1.984375 z"
       sodipodi:nodetypes="ssssccssssccsssss" />
    <rect
       style="fill:#1a1a1a;fill-opacity:1;fill-rule:evenodd;stroke:none;stroke-width:1.32292;stroke-linecap:round;stroke-linejoin:round;stroke-miterlimit:4;stroke-dasharray:none;stroke-opacity:1;paint-order:markers fill stroke"
       id="rect886"
       width="3.96875"
       height="1.3229166"
       x="21.166666"
       y="14.552082" />
    <rect
       style="fill:#1a1a1a;fill-opacity:1;fill-rule:evenodd;stroke:none;stroke-width:1.32292;stroke-linecap:round;stroke-linejoin:round;stroke-miterlimit:4;stroke-dasharray:none;stroke-opacity:1;paint-order:markers fill stroke"
       id="rect886-9"
       width="3.96875"
       height="1.3229166"
       x="21.166666"
       y="17.197914" />
    <rect
       style="fill:#1a1a1a;fill-opacity:1;fill-rule:evenodd;stroke:none;stroke-width:1.32292;stroke-linecap:round;stroke-linejoin:round;stroke-miterlimit:4;stroke-dasharray:none;stroke-opacity:1;paint-order:markers fill stroke"
       id="rect886-4"
       width="3.96875"
       height="1.3229166"
       x="21.166666"
       y="19.84375" />
    <path
       id="rect860-4"
       style="fill:#1a1a1a;fill-opacity:1;fill-rule:evenodd;stroke:none;stroke-width:2.64583;stroke-linecap:round;stroke-linejoin:round;stroke-opacity:1;paint-order:markers fill stroke"
       d="m 14.258561,35.718748 c -2.875045,3.216333 -5.6596028,6.658306 -5.6596028,7.9375 0,2.645833 1.3229172,3.96875 2.6458338,3.96875 h 30.427082 c 1.322917,0 2.645834,-1.322917 2.645834,-3.96875 0,-1.279194 -2.784557,-4.721167 -5.659602,-7.9375 z" />
    <path
       style="fill:#1a1a1a;fill-opacity:1;stroke:none;stroke-width:0.264583px;stroke-linecap:butt;stroke-linejoin:miter;stroke-opacity:1"
       d="m 15.875,33.072916 c 2.645833,0 3.96875,2.645834 7.9375,2.645834 3.96875,0 5.225521,-2.71198 7.871354,-2.71198 2.645833,0 6.680729,1.389063 6.680729,1.389063 v 2.645833 H 13.229167 Z"
       id="path928"
       sodipodi:nodetypes="csscccc" />
  </g>
</svg>
