<?xml version="1.0" encoding="UTF-8" standalone="no"?>
<svg
   xmlns:dc="http://purl.org/dc/elements/1.1/"
   xmlns:cc="http://creativecommons.org/ns#"
   xmlns:rdf="http://www.w3.org/1999/02/22-rdf-syntax-ns#"
   xmlns:svg="http://www.w3.org/2000/svg"
   xmlns="http://www.w3.org/2000/svg"
   xmlns:sodipodi="http://sodipodi.sourceforge.net/DTD/sodipodi-0.dtd"
   xmlns:inkscape="http://www.inkscape.org/namespaces/inkscape"
   width="200"
   height="200"
   viewBox="0 0 52.916666 52.916666"
   version="1.1"
   id="svg8"
   inkscape:version="1.0.1 (c497b03c, 2020-09-10)"
   sodipodi:docname="labadd.svg">
  <defs
     id="defs2" />
  <sodipodi:namedview
     id="base"
     pagecolor="#ffffff"
     bordercolor="#666666"
     borderopacity="1.0"
     inkscape:pageopacity="0.0"
     inkscape:pageshadow="2"
     inkscape:zoom="4"
     inkscape:cx="95.287637"
     inkscape:cy="99.681047"
     inkscape:document-units="px"
     inkscape:current-layer="layer1"
     inkscape:document-rotation="0"
     showgrid="true"
     units="px"
     inkscape:window-width="1792"
     inkscape:window-height="1075"
     inkscape:window-x="0"
     inkscape:window-y="23"
     inkscape:window-maximized="1">
    <inkscape:grid
       type="xygrid"
       id="grid833" />
  </sodipodi:namedview>
  <metadata
     id="metadata5">
    <rdf:RDF>
      <cc:Work
         rdf:about="">
        <dc:format>image/svg+xml</dc:format>
        <dc:type
           rdf:resource="http://purl.org/dc/dcmitype/StillImage" />
        <dc:title></dc:title>
      </cc:Work>
    </rdf:RDF>
  </metadata>
  <g
     inkscape:label="图层 1"
     inkscape:groupmode="layer"
     id="layer1">
    <path
       id="path4736"
       style="color:#000000;font-style:normal;font-variant:normal;font-weight:normal;font-stretch:normal;font-size:medium;line-height:normal;font-family:sans-serif;font-variant-ligatures:normal;font-variant-position:normal;font-variant-caps:normal;font-variant-numeric:normal;font-variant-alternates:normal;font-variant-east-asian:normal;font-feature-settings:normal;font-variation-settings:normal;text-indent:0;text-align:start;text-decoration:none;text-decoration-line:none;text-decoration-style:solid;text-decoration-color:#000000;letter-spacing:normal;word-spacing:normal;text-transform:none;writing-mode:lr-tb;direction:ltr;text-orientation:mixed;dominant-baseline:auto;baseline-shift:baseline;text-anchor:start;white-space:normal;shape-padding:0;shape-margin:0;inline-size:0;clip-rule:nonzero;display:inline;overflow:visible;visibility:visible;opacity:1;isolation:auto;mix-blend-mode:normal;color-interpolation:sRGB;color-interpolation-filters:linearRGB;solid-color:#000000;solid-opacity:1;vector-effect:none;fill:#1a1a1a;fill-opacity:1;fill-rule:evenodd;stroke:none;stroke-width:2.64583;stroke-linecap:round;stroke-linejoin:round;stroke-miterlimit:4;stroke-dasharray:none;stroke-dashoffset:0;stroke-opacity:1;paint-order:markers fill stroke;color-rendering:auto;image-rendering:auto;shape-rendering:auto;text-rendering:auto;enable-background:accumulate;stop-color:#000000;stop-opacity:1"
       d="m 17.330725,3.175 c -1.809356,0 -3.306775,1.4989693 -3.306775,3.3083251 V 7.805725 c 0,1.5752921 1.156944,2.851767 2.6448,3.171899 v 12.910323 c -0.276917,0.3392 -2.839644,3.470105 -5.687508,7.267257 -1.4988654,1.998485 -3.0013823,4.080737 -4.1485841,5.865275 -0.5736011,0.892268 -1.0573806,1.708584 -1.4180013,2.429825 -0.360621,0.721243 -0.6521567,1.262973 -0.6521567,2.089795 0,1.543402 0.3836461,2.8256 1.0914063,3.769278 0.7077601,0.943682 1.7749125,1.521873 2.8773437,1.521873 H 25.842349 a 13.229166,13.229166 0 0 1 -2.955374,-8.333859 13.229166,13.229166 0 0 1 1.1529,-5.400704 c -0.766618,0.297487 -1.648764,0.505913 -2.7404,0.505913 -3.441274,0 -4.894223,-1.986831 -6.944279,-2.515608 2.48245,-3.241006 4.661214,-5.906101 4.661214,-5.906101 A 1.3230472,1.3230472 0 0 0 19.3151,24.342699 V 9.7901001 a 1.3230472,1.3230472 0 0 0 -1.3224,-1.3224 h -0.661975 c -0.389331,0 -0.661975,-0.272644 -0.661975,-0.6619751 V 6.4833251 c 0,-0.389332 0.272643,-0.6619751 0.661975,-0.6619751 h 13.22865 c 0.389332,0 0.661975,0.2726431 0.661975,0.6619751 V 7.805725 c 0,0.3893311 -0.272646,0.6619751 -0.661975,0.6619751 H 29.898949 A 1.3230472,1.3230472 0 0 0 28.575,9.7901001 V 24.342699 a 1.3230472,1.3230472 0 0 0 0.298689,0.838192 c 0,0 0.608369,0.753539 1.232484,1.531689 a 13.229166,13.229166 0 0 1 2.590538,-0.99477 C 31.91976,24.744913 31.337486,24.028134 31.22135,23.88588 V 10.977624 c 1.488331,-0.319758 2.646349,-1.5962639 2.646349,-3.171899 V 6.4833251 C 33.867699,4.6739693 32.368731,3.175 30.559375,3.175 Z" />
    <rect
       style="fill:#1a1a1a;fill-opacity:1;fill-rule:evenodd;stroke:none;stroke-width:1.32292;stroke-linecap:round;stroke-linejoin:round;stroke-miterlimit:4;stroke-dasharray:none;stroke-opacity:1;paint-order:markers fill stroke"
       id="rect886"
       width="3.96875"
       height="1.3229166"
       x="18.653641"
       y="12.435932" />
    <rect
       style="fill:#1a1a1a;fill-opacity:1;fill-rule:evenodd;stroke:none;stroke-width:1.32292;stroke-linecap:round;stroke-linejoin:round;stroke-miterlimit:4;stroke-dasharray:none;stroke-opacity:1;paint-order:markers fill stroke"
       id="rect886-9"
       width="3.96875"
       height="1.3229166"
       x="18.653641"
       y="15.081764" />
    <rect
       style="fill:#1a1a1a;fill-opacity:1;fill-rule:evenodd;stroke:none;stroke-width:1.32292;stroke-linecap:round;stroke-linejoin:round;stroke-miterlimit:4;stroke-dasharray:none;stroke-opacity:1;paint-order:markers fill stroke"
       id="rect886-4"
       width="3.96875"
       height="1.3229166"
       x="18.653641"
       y="17.7276" />
    <circle
       style="fill:none;fill-opacity:1;fill-rule:evenodd;stroke:#1a1a1a;stroke-width:2.64583;stroke-linecap:round;stroke-linejoin:bevel;stroke-miterlimit:4;stroke-dasharray:none;stroke-dashoffset:0;stroke-opacity:1;paint-order:markers fill stroke"
       id="path4740"
       cx="36.116142"
       cy="38.497391"
       r="10.583333" />
    <rect
       style="fill:#333333;fill-opacity:1;fill-rule:evenodd;stroke:none;stroke-width:2.16031;stroke-linecap:round;stroke-linejoin:bevel;stroke-miterlimit:4;stroke-dasharray:none;stroke-dashoffset:0;stroke-opacity:1;paint-order:markers fill stroke"
       id="rect4759"
       width="13.229166"
       height="2.6458333"
       x="29.236975"
       y="36.909374" />
    <rect
       style="fill:#333333;fill-opacity:1;fill-rule:evenodd;stroke:none;stroke-width:2.16031;stroke-linecap:round;stroke-linejoin:bevel;stroke-miterlimit:4;stroke-dasharray:none;stroke-dashoffset:0;stroke-opacity:1;paint-order:markers fill stroke"
       id="rect4759-2"
       width="13.229166"
       height="2.6458333"
       x="31.618225"
       y="-37.173958"
       transform="rotate(90)" />
  </g>
</svg>
