<?xml version="1.0" encoding="UTF-8" standalone="no"?>
<svg
   xmlns:dc="http://purl.org/dc/elements/1.1/"
   xmlns:cc="http://creativecommons.org/ns#"
   xmlns:rdf="http://www.w3.org/1999/02/22-rdf-syntax-ns#"
   xmlns:svg="http://www.w3.org/2000/svg"
   xmlns="http://www.w3.org/2000/svg"
   xmlns:sodipodi="http://sodipodi.sourceforge.net/DTD/sodipodi-0.dtd"
   xmlns:inkscape="http://www.inkscape.org/namespaces/inkscape"
   class="icon"
   width="200px"
   height="200.00px"
   viewBox="0 0 1024 1024"
   version="1.1"
   id="svg837"
   sodipodi:docname="lianjie.svg"
   inkscape:version="1.0.1 (c497b03c, 2020-09-10)">
  <metadata
     id="metadata843">
    <rdf:RDF>
      <cc:Work
         rdf:about="">
        <dc:format>image/svg+xml</dc:format>
        <dc:type
           rdf:resource="http://purl.org/dc/dcmitype/StillImage" />
        <dc:title></dc:title>
      </cc:Work>
    </rdf:RDF>
  </metadata>
  <defs
     id="defs841" />
  <sodipodi:namedview
     pagecolor="#ffffff"
     bordercolor="#666666"
     borderopacity="1"
     objecttolerance="10"
     gridtolerance="10"
     guidetolerance="10"
     inkscape:pageopacity="0"
     inkscape:pageshadow="2"
     inkscape:window-width="1792"
     inkscape:window-height="1075"
     id="namedview839"
     showgrid="false"
     inkscape:zoom="3.765"
     inkscape:cx="100"
     inkscape:cy="100"
     inkscape:window-x="0"
     inkscape:window-y="23"
     inkscape:window-maximized="1"
     inkscape:current-layer="svg837" />
  <path
     d="M 550.87043,683.36576 A 228.32904,228.32904 0 0 1 389.02864,616.28052 l -7.12169,-7.06733 100.68223,-100.68223 7.01296,7.01296 a 86.384486,86.384486 0 0 0 61.37702,25.65984 87.852315,87.852315 0 0 0 62.68176,-25.65984 L 778.60147,350.54901 a 87.743587,87.743587 0 0 0 0,-124.11314 l -7.01297,-6.9586 a 87.526131,87.526131 0 0 0 -124.00441,0 l -67.90071,67.79198 A 71.216914,71.216914 0 0 1 478.94679,186.69574 l 67.73761,-68.0638 a 229.95996,229.95996 0 0 1 325.36888,0 l 6.9586,6.9586 a 229.95996,229.95996 0 0 1 0,325.36888 L 714.01697,615.95433 A 229.95996,229.95996 0 0 1 550.9248,683.36576 h -0.38055 z"
     id="path833"
     style="stroke-width:0.9" />
  <path
     d="M 313.29951,972.8 A 228.92704,228.92704 0 0 1 151.24025,905.4973 l -7.01296,-7.06733 a 229.9056,229.9056 0 0 1 0,-325.31451 L 309.2222,408.12055 a 230.06869,230.06869 0 0 1 294.4901,-25.93166 71.814919,71.814919 0 0 1 18.10323,13.1561 l 12.77555,12.77556 7.01296,6.9586 -100.68223,100.68223 -7.01296,-6.9586 a 87.634859,87.634859 0 0 0 -124.05878,0 L 244.80079,673.79769 a 87.743587,87.743587 0 0 0 0,124.00441 l 7.01297,7.01297 a 86.656306,86.656306 0 0 0 61.43138,25.65983 87.689223,87.689223 0 0 0 62.68176,-25.65983 l 71.05382,-71.16255 a 71.216914,71.216914 0 0 1 100.68223,100.68223 l -71.05382,71.10819 A 230.55796,230.55796 0 0 1 313.51696,972.7456 h -0.38055 z"
     id="path835"
     style="stroke-width:0.9" />
</svg>
