<?xml version="1.0" standalone="no"?><!DOCTYPE svg PUBLIC "-//W3C//DTD SVG 1.1//EN" "http://www.w3.org/Graphics/SVG/1.1/DTD/svg11.dtd"><svg class="icon" width="200px" height="200.00px" viewBox="0 0 1024 1024" version="1.1" xmlns="http://www.w3.org/2000/svg"><path d="M192 224c0 35.36-28.64 64-64 64H64c-35.36 0-64-28.64-64-64v-64c0-35.36 28.64-64 64-64h64c35.36 0 64 28.64 64 64v64zM192 544c0 35.328-28.64 64-64 64H64c-35.36 0-64-28.672-64-64v-64c0-35.36 28.64-64 64-64h64c35.36 0 64 28.64 64 64v64zM192 864c0 35.328-28.64 64-64 64H64c-35.36 0-64-28.672-64-64v-64c0-35.36 28.64-64 64-64h64c35.36 0 64 28.64 64 64v64zM1024 224c0 35.36-28.64 64-64 64H384c-35.36 0-64-28.64-64-64v-64c0-35.36 28.64-64 64-64h576c35.36 0 64 28.64 64 64v64zM1024 544c0 35.328-28.64 64-64 64H384c-35.36 0-64-28.672-64-64v-64c0-35.36 28.64-64 64-64h576c35.36 0 64 28.64 64 64v64zM1024 864c0 35.328-28.64 64-64 64H384c-35.36 0-64-28.672-64-64v-64c0-35.36 28.64-64 64-64h576c35.36 0 64 28.64 64 64v64z" /></svg>