<?xml version="1.0" encoding="UTF-8" standalone="no"?>
<svg
   width="200"
   height="200"
   viewBox="0 0 52.916666 52.916666"
   version="1.1"
   id="svg8"
   inkscape:version="1.3.2 (091e20e, 2023-11-25)"
   sodipodi:docname="linux.svg"
   xmlns:inkscape="http://www.inkscape.org/namespaces/inkscape"
   xmlns:sodipodi="http://sodipodi.sourceforge.net/DTD/sodipodi-0.dtd"
   xmlns="http://www.w3.org/2000/svg"
   xmlns:svg="http://www.w3.org/2000/svg"
   xmlns:rdf="http://www.w3.org/1999/02/22-rdf-syntax-ns#"
   xmlns:cc="http://creativecommons.org/ns#"
   xmlns:dc="http://purl.org/dc/elements/1.1/">
  <defs
     id="defs2" />
  <sodipodi:namedview
     id="base"
     pagecolor="#ffffff"
     bordercolor="#666666"
     borderopacity="1.0"
     inkscape:pageopacity="0"
     inkscape:pageshadow="2"
     inkscape:zoom="3.8607142"
     inkscape:cx="124.71786"
     inkscape:cy="91.174841"
     inkscape:document-units="px"
     inkscape:current-layer="layer1"
     inkscape:document-rotation="0"
     showgrid="true"
     units="px"
     inkscape:window-width="1728"
     inkscape:window-height="1051"
     inkscape:window-x="0"
     inkscape:window-y="38"
     inkscape:window-maximized="1"
     showguides="false"
     inkscape:showpageshadow="2"
     inkscape:pagecheckerboard="0"
     inkscape:deskcolor="#d1d1d1">
    <inkscape:grid
       type="xygrid"
       id="grid833"
       originx="0"
       originy="0"
       spacingy="1.3229167"
       spacingx="1.3229167"
       units="px"
       visible="true"
       empspacing="4" />
  </sodipodi:namedview>
  <metadata
     id="metadata5">
    <rdf:RDF>
      <cc:Work
         rdf:about="">
        <dc:format>image/svg+xml</dc:format>
        <dc:type
           rdf:resource="http://purl.org/dc/dcmitype/StillImage" />
      </cc:Work>
    </rdf:RDF>
  </metadata>
  <g
     inkscape:label="图层 1"
     inkscape:groupmode="layer"
     id="layer1">
    <path
       id="path1"
       style="fill:#000000;fill-opacity:1;stroke-width:2.97656;stroke-linecap:round"
       d="M 26.458334,2.6458333 A 23.812499,23.812499 0 0 0 2.6458333,26.458334 23.812499,23.812499 0 0 0 26.458334,50.270833 23.812499,23.812499 0 0 0 50.270833,26.458334 23.812499,23.812499 0 0 0 26.458334,2.6458333 Z m 8.834344,5.3461854 a 2.9765625,2.9765625 0 0 1 1.630133,0.395325 2.9765625,2.9765625 0 0 1 1.089468,4.0660313 2.9765625,2.9765625 0 0 1 -4.066031,1.089468 2.9765625,2.9765625 0 0 1 -1.089468,-4.0660313 2.9765625,2.9765625 0 0 1 2.435898,-1.484793 z m -9.855212,2.1289393 a 16.371094,16.371094 0 0 1 6.136834,0.82088 3.8695312,3.8695312 0 0 0 1.925464,3.374213 3.8695312,3.8695312 0 0 0 3.873019,-0.01221 16.371094,16.371094 0 0 1 3.259104,3.970107 16.371094,16.371094 0 0 1 2.138241,7.441406 H 38.29482 A 11.90625,11.90625 0 0 0 36.764681,20.506371 11.90625,11.90625 0 0 0 21.157494,15.797938 L 18.921584,11.9255 a 16.371094,16.371094 0 0 1 6.515882,-1.804542 z m -7.786734,2.578913 2.238235,3.877089 a 11.90625,11.90625 0 0 0 -3.746283,15.835661 11.90625,11.90625 0 0 0 3.746283,3.929411 l -2.238235,3.875927 A 16.371094,16.371094 0 0 1 12.27606,34.645043 16.371094,16.371094 0 0 1 10.495936,29.933121 3.8695312,3.8695312 0 0 0 12.541741,26.531585 3.8695312,3.8695312 0 0 0 10.48489,23.112607 16.371094,16.371094 0 0 1 17.650732,12.699871 Z M 8.6722097,23.555022 a 2.9765625,2.9765625 0 0 1 2.9765633,2.976563 2.9765625,2.9765625 0 0 1 -2.9765633,2.976563 2.9765625,2.9765625 0 0 1 -2.9765626,-2.976563 2.9765625,2.9765625 0 0 1 2.9765626,-2.976563 z m 34.1333823,3.648615 a 16.371094,16.371094 0 0 1 -5.461876,11.42314 3.8695312,3.8695312 0 0 0 -3.863719,-0.0064 3.8695312,3.8695312 0 0 0 -1.926045,3.350959 16.371094,16.371094 0 0 1 -12.631205,-0.97901 l 2.255095,-3.905576 a 11.90625,11.90625 0 0 0 11.228965,-0.31626 11.90625,11.90625 0 0 0 5.888013,-9.566275 z m -7.248976,11.794628 a 2.9765625,2.9765625 0 0 1 2.435897,1.484793 2.9765625,2.9765625 0 0 1 -1.089468,4.066032 2.9765625,2.9765625 0 0 1 -4.066031,-1.089468 2.9765625,2.9765625 0 0 1 1.089468,-4.066032 2.9765625,2.9765625 0 0 1 1.630134,-0.395325 z" />
  </g>
</svg>
