<?xml version="1.0" encoding="UTF-8" standalone="no"?>
<svg
   xmlns:dc="http://purl.org/dc/elements/1.1/"
   xmlns:cc="http://creativecommons.org/ns#"
   xmlns:rdf="http://www.w3.org/1999/02/22-rdf-syntax-ns#"
   xmlns:svg="http://www.w3.org/2000/svg"
   xmlns="http://www.w3.org/2000/svg"
   xmlns:sodipodi="http://sodipodi.sourceforge.net/DTD/sodipodi-0.dtd"
   xmlns:inkscape="http://www.inkscape.org/namespaces/inkscape"
   width="200"
   height="200"
   viewBox="0 0 200 200"
   version="1.1"
   id="svg8"
   inkscape:version="1.0.1 (c497b03c, 2020-09-10)"
   sodipodi:docname="mark_install.svg">
  <defs
     id="defs2" />
  <sodipodi:namedview
     id="base"
     pagecolor="#ffffff"
     bordercolor="#666666"
     borderopacity="1.0"
     inkscape:pageopacity="0.0"
     inkscape:pageshadow="2"
     inkscape:zoom="4"
     inkscape:cx="97.802849"
     inkscape:cy="103.27941"
     inkscape:document-units="px"
     inkscape:current-layer="layer1"
     inkscape:document-rotation="0"
     showgrid="true"
     units="px"
     inkscape:window-width="1792"
     inkscape:window-height="1075"
     inkscape:window-x="0"
     inkscape:window-y="23"
     inkscape:window-maximized="1">
    <inkscape:grid
       type="xygrid"
       id="grid833" />
  </sodipodi:namedview>
  <metadata
     id="metadata5">
    <rdf:RDF>
      <cc:Work
         rdf:about="">
        <dc:format>image/svg+xml</dc:format>
        <dc:type
           rdf:resource="http://purl.org/dc/dcmitype/StillImage" />
        <dc:title></dc:title>
      </cc:Work>
    </rdf:RDF>
  </metadata>
  <g
     inkscape:label="图层 1"
     inkscape:groupmode="layer"
     id="layer1">
    <circle
       style="fill:#ff7a1d;fill-opacity:1;fill-rule:evenodd;stroke:#1a1a1a;stroke-width:15;stroke-linejoin:round;stroke-miterlimit:4;stroke-dasharray:none;paint-order:markers fill stroke"
       id="path861"
       cx="100"
       cy="100"
       r="77.5" />
    <path
       d="m 53.25972,105.42061 38.212413,42.94427 c 2.965294,2.31335 5.552054,3.30179 8.622507,3.30179 3.32282,0 6.33018,-1.15668 8.43323,-3.25973 l 38.86435,-42.77603 C 148.71714,103.38065 150,100.92009 150,97.660353 c 0,-5.804413 -5.06835,-10.872766 -10.85173,-10.872766 -2.92325,0 -6.1409,1.47214 -8.58045,3.91168 L 110.92534,112.1714 111.19745,55 c 0.0314,-6.60352 -4.26919,-10 -10.85173,-10 -6.477393,0 -10.989573,3.541467 -11.01998,9.934667 L 89.053627,112.15037 69.369087,90.61514 C 66.67718,87.923233 64.36382,86.745527 61.67192,86.745527 55.2366,86.745527 50,91.624607 50,97.618293 c 0,2.986327 1.135647,5.678237 3.25972,7.802317 z"
       id="path10"
       sodipodi:nodetypes="ccsccssccsssccssc"
       style="fill:#ffffff;stroke-width:0.210304" />
  </g>
</svg>
