<?xml version="1.0" encoding="UTF-8" standalone="no"?>
<svg
   xmlns:dc="http://purl.org/dc/elements/1.1/"
   xmlns:cc="http://creativecommons.org/ns#"
   xmlns:rdf="http://www.w3.org/1999/02/22-rdf-syntax-ns#"
   xmlns:svg="http://www.w3.org/2000/svg"
   xmlns="http://www.w3.org/2000/svg"
   xmlns:sodipodi="http://sodipodi.sourceforge.net/DTD/sodipodi-0.dtd"
   xmlns:inkscape="http://www.inkscape.org/namespaces/inkscape"
   width="200"
   height="200"
   viewBox="0 0 200 200"
   version="1.1"
   id="svg8"
   inkscape:version="1.0.1 (c497b03c, 2020-09-10)"
   sodipodi:docname="mark_link.svg">
  <defs
     id="defs2" />
  <sodipodi:namedview
     id="base"
     pagecolor="#ffffff"
     bordercolor="#666666"
     borderopacity="1.0"
     inkscape:pageopacity="0.0"
     inkscape:pageshadow="2"
     inkscape:zoom="4"
     inkscape:cx="97.802849"
     inkscape:cy="103.27941"
     inkscape:document-units="px"
     inkscape:current-layer="layer1"
     inkscape:document-rotation="0"
     showgrid="true"
     units="px"
     inkscape:window-width="1792"
     inkscape:window-height="1075"
     inkscape:window-x="0"
     inkscape:window-y="23"
     inkscape:window-maximized="1">
    <inkscape:grid
       type="xygrid"
       id="grid833" />
  </sodipodi:namedview>
  <metadata
     id="metadata5">
    <rdf:RDF>
      <cc:Work
         rdf:about="">
        <dc:format>image/svg+xml</dc:format>
        <dc:type
           rdf:resource="http://purl.org/dc/dcmitype/StillImage" />
        <dc:title></dc:title>
      </cc:Work>
    </rdf:RDF>
  </metadata>
  <g
     inkscape:label="图层 1"
     inkscape:groupmode="layer"
     id="layer1">
    <circle
       style="fill:#21c9dd;fill-opacity:1;fill-rule:evenodd;stroke:#1a1a1a;stroke-width:15;stroke-linejoin:round;stroke-miterlimit:4;stroke-dasharray:none;paint-order:markers fill stroke"
       id="path861"
       cx="100"
       cy="100"
       r="77.5" />
    <path
       d="m 102.15477,118.11096 a 24.775287,24.775287 0 0 1 -17.560956,-7.27922 l -0.772753,-0.76685 10.924721,-10.92472 0.760954,0.760953 a 9.3733168,9.3733168 0 0 0 6.659834,2.784267 9.532586,9.532586 0 0 0 6.8014,-2.784267 l 17.8972,-17.903092 a 9.5207885,9.5207885 0 0 0 0,-13.467138 l -0.76095,-0.755056 a 9.4971926,9.4971926 0 0 0 -13.45535,0 l -7.3677,7.355901 A 7.72753,7.72753 0 0 1 94.350557,64.218813 l 7.350003,-7.385395 a 24.952253,24.952253 0 0 1 35.30478,0 l 0.75506,0.755057 a 24.952253,24.952253 0 0 1 0,35.304783 l -17.90309,17.903092 a 24.952253,24.952253 0 0 1 -17.69664,7.31461 h -0.0412 z"
       id="path833"
       style="stroke-width:0.0976558" />
    <path
       d="m 76.376677,149.51658 a 24.840174,24.840174 0 0 1 -17.584555,-7.30281 l -0.760955,-0.76686 a 24.946354,24.946354 0 0 1 0,-35.29888 L 75.93426,88.244943 a 24.96405,24.96405 0 0 1 31.95422,-2.813765 7.7924173,7.7924173 0 0 1 1.96433,1.427528 l 1.38623,1.386237 L 112,89 101.07527,99.924718 100.31432,99.169665 a 9.508991,9.508991 0 0 0 -13.461237,0 L 68.94409,117.07276 a 9.5207885,9.5207885 0 0 0 0,13.45533 l 0.760956,0.76096 a 9.402811,9.402811 0 0 0 6.665732,2.78426 9.5148893,9.5148893 0 0 0 6.801405,-2.78426 l 7.709833,-7.72163 a 7.72753,7.72753 0 0 1 10.924724,10.92472 l -7.709836,7.71573 a 25.01714,25.01714 0 0 1 -17.696632,7.30281 h -0.04129 z"
       id="path835"
       style="stroke-width:0.0976558" />
  </g>
</svg>
