<?xml version="1.0" encoding="UTF-8" standalone="no"?>
<svg
   xmlns:dc="http://purl.org/dc/elements/1.1/"
   xmlns:cc="http://creativecommons.org/ns#"
   xmlns:rdf="http://www.w3.org/1999/02/22-rdf-syntax-ns#"
   xmlns:svg="http://www.w3.org/2000/svg"
   xmlns="http://www.w3.org/2000/svg"
   xmlns:sodipodi="http://sodipodi.sourceforge.net/DTD/sodipodi-0.dtd"
   xmlns:inkscape="http://www.inkscape.org/namespaces/inkscape"
   width="200"
   height="200"
   viewBox="0 0 52.916666 52.916666"
   version="1.1"
   id="svg8"
   inkscape:version="1.0.1 (c497b03c, 2020-09-10)"
   sodipodi:docname="matrix.svg">
  <defs
     id="defs2" />
  <sodipodi:namedview
     id="base"
     pagecolor="#ffffff"
     bordercolor="#666666"
     borderopacity="1.0"
     inkscape:pageopacity="0.0"
     inkscape:pageshadow="2"
     inkscape:zoom="4"
     inkscape:cx="101.47529"
     inkscape:cy="103.00912"
     inkscape:document-units="px"
     inkscape:current-layer="layer1"
     inkscape:document-rotation="0"
     showgrid="true"
     units="px"
     inkscape:window-width="1792"
     inkscape:window-height="1075"
     inkscape:window-x="0"
     inkscape:window-y="23"
     inkscape:window-maximized="1">
    <inkscape:grid
       type="xygrid"
       id="grid833" />
  </sodipodi:namedview>
  <metadata
     id="metadata5">
    <rdf:RDF>
      <cc:Work
         rdf:about="">
        <dc:format>image/svg+xml</dc:format>
        <dc:type
           rdf:resource="http://purl.org/dc/dcmitype/StillImage" />
        <dc:title></dc:title>
      </cc:Work>
    </rdf:RDF>
  </metadata>
  <g
     inkscape:label="图层 1"
     inkscape:groupmode="layer"
     id="layer1">
    <path
       style="fill:none;stroke:#1a1a1a;stroke-width:1.32292;stroke-linecap:butt;stroke-linejoin:miter;stroke-miterlimit:4;stroke-dasharray:none;stroke-opacity:1"
       d="m 26.458333,19.182291 -5.291667,2.645834 5.291667,2.645833 L 31.75,21.828125 Z"
       id="path860"
       sodipodi:nodetypes="ccccc" />
    <path
       style="fill:none;stroke:#1a1a1a;stroke-width:2.64583;stroke-linecap:butt;stroke-linejoin:round;stroke-miterlimit:4;stroke-dasharray:none;stroke-opacity:1"
       d="M 26.458333,38.364583 15.875,33.072916 V 21.166666 L 26.458333,15.875 37.041666,21.166666 v 11.90625 z"
       id="path862" />
    <path
       id="path982"
       style="color:#000000;font-style:normal;font-variant:normal;font-weight:normal;font-stretch:normal;font-size:medium;line-height:normal;font-family:sans-serif;font-variant-ligatures:normal;font-variant-position:normal;font-variant-caps:normal;font-variant-numeric:normal;font-variant-alternates:normal;font-variant-east-asian:normal;font-feature-settings:normal;font-variation-settings:normal;text-indent:0;text-align:start;text-decoration:none;text-decoration-line:none;text-decoration-style:solid;text-decoration-color:#000000;letter-spacing:normal;word-spacing:normal;text-transform:none;writing-mode:lr-tb;direction:ltr;text-orientation:mixed;dominant-baseline:auto;baseline-shift:baseline;text-anchor:start;white-space:normal;shape-padding:0;shape-margin:0;inline-size:0;clip-rule:nonzero;display:inline;overflow:visible;visibility:visible;opacity:1;isolation:auto;mix-blend-mode:normal;color-interpolation:sRGB;color-interpolation-filters:linearRGB;solid-color:#000000;solid-opacity:1;vector-effect:none;fill:#333333;fill-opacity:1;fill-rule:evenodd;stroke:none;stroke-width:9.99999;stroke-linecap:square;stroke-linejoin:miter;stroke-miterlimit:4;stroke-dasharray:none;stroke-dashoffset:0;stroke-opacity:1;paint-order:markers fill stroke;color-rendering:auto;image-rendering:auto;shape-rendering:auto;text-rendering:auto;enable-background:accumulate;stop-color:#000000;stop-opacity:1"
       d="M 75.619141 18.566406 C 63.136984 22.308405 51.8638 28.857187 42.509766 37.460938 A 24.999999 24.999999 0 0 1 44.333984 38.416016 A 24.999999 24.999999 0 0 1 50.607422 43.558594 C 58.131802 36.975396 66.979258 31.864238 76.714844 28.695312 A 24.999999 24.999999 0 0 1 75.5 21 A 24.999999 24.999999 0 0 1 75.619141 18.566406 z M 125.4082 18.875 A 24.999999 24.999999 0 0 1 125.5 21 A 24.999999 24.999999 0 0 1 124.18555 28.996094 C 133.87379 32.286077 142.65801 37.506749 150.10352 44.1875 A 24.999999 24.999999 0 0 1 156.16602 39.283203 A 24.999999 24.999999 0 0 1 158.2793 38.193359 C 149.02789 29.465058 137.83453 22.772848 125.4082 18.875 z M 17.294922 80.404297 C 15.804264 86.698923 15 93.256711 15 100.00195 C 15 106.37336 15.708788 112.58096 17.042969 118.55469 A 24.999999 24.999999 0 0 1 18.833984 117.41602 A 24.999999 24.999999 0 0 1 26.419922 114.55469 C 25.497277 109.84693 25.001953 104.98364 25.001953 100.00195 C 25.001953 94.689534 25.557271 89.510491 26.603516 84.513672 A 24.999999 24.999999 0 0 1 19.333984 81.716797 A 24.999999 24.999999 0 0 1 17.294922 80.404297 z M 182.94531 81.453125 A 24.999999 24.999999 0 0 1 181.16602 82.583984 A 24.999999 24.999999 0 0 1 173.58594 85.443359 C 174.50973 90.152356 175.00195 95.017959 175.00195 100.00195 C 175.00195 105.31329 174.4439 110.49165 173.39844 115.48828 A 24.999999 24.999999 0 0 1 180.66602 118.2832 A 24.999999 24.999999 0 0 1 182.71484 119.60352 C 184.20504 113.30902 184.99805 106.74698 184.99805 100.00195 C 184.99805 93.630548 184.27935 87.427005 182.94531 81.453125 z M 49.882812 155.82812 A 24.999999 24.999999 0 0 1 43.833984 160.7168 A 24.999999 24.999999 0 0 1 41.726562 161.80469 C 56.953879 176.16861 77.455731 184.99805 100.00195 184.99805 C 122.16379 184.99805 142.35726 176.47501 157.5 162.54297 A 24.999999 24.999999 0 0 1 155.66602 161.58398 A 24.999999 24.999999 0 0 1 149.40234 156.45117 C 136.21416 167.9975 118.94457 175.00195 100.00195 175.00195 C 80.716578 175.00195 63.157984 167.75047 49.882812 155.82812 z "
       transform="scale(0.26458333)" />
    <path
       id="path866-2"
       style="fill:#333333;fill-opacity:1;fill-rule:evenodd;stroke:none;stroke-width:1.32292;stroke-linecap:square;stroke-linejoin:miter;stroke-miterlimit:4;stroke-dasharray:none;stroke-opacity:1;paint-order:markers fill stroke"
       inkscape:transform-center-x="-0.13229167"
       inkscape:transform-center-y="-20.902083"
       d="M 26.590625,0.79374999 A 5.2916666,5.2916666 0 0 0 21.298958,6.0854166 5.2916666,5.2916666 0 0 0 26.590625,11.377083 5.2916666,5.2916666 0 0 0 31.882291,6.0854166 5.2916666,5.2916666 0 0 0 26.590625,0.79374999 Z m -0.02997,1.32291661 a 3.9687499,3.9687499 0 0 1 0.02997,0 3.9687499,3.9687499 0 0 1 3.96875,3.96875 3.9687499,3.9687499 0 0 1 -3.96875,3.9687504 3.9687499,3.9687499 0 0 1 -3.96875,-3.9687504 3.9687499,3.9687499 0 0 1 3.938778,-3.96875 z" />
    <circle
       style="fill:#333333;fill-opacity:1;fill-rule:evenodd;stroke:none;stroke-width:1.32292;stroke-linecap:square;stroke-linejoin:miter;stroke-miterlimit:4;stroke-dasharray:none;stroke-opacity:1;paint-order:markers fill stroke"
       id="path866-2-8"
       cx="36.275047"
       cy="-30.586506"
       r="5.2916665"
       inkscape:transform-center-x="-18.167881"
       inkscape:transform-center-y="-10.336474"
       transform="rotate(60)" />
    <circle
       style="fill:#333333;fill-opacity:1;fill-rule:evenodd;stroke:none;stroke-width:1.32292;stroke-linecap:square;stroke-linejoin:miter;stroke-miterlimit:4;stroke-dasharray:none;stroke-opacity:1;paint-order:markers fill stroke"
       id="path866-2-2"
       cx="-9.5521297"
       cy="15.240673"
       r="5.2916665"
       inkscape:transform-center-x="18.035589"
       inkscape:transform-center-y="-10.56561"
       transform="rotate(-60)" />
    <path
       id="path866-2-5"
       style="fill:#333333;fill-opacity:1;fill-rule:evenodd;stroke:none;stroke-width:5.00001;stroke-linecap:square;stroke-linejoin:miter;stroke-miterlimit:4;stroke-dasharray:none;stroke-opacity:1;paint-order:markers fill stroke"
       inkscape:transform-center-x="18.167881"
       inkscape:transform-center-y="10.336473"
       d="M 31.392578 119.06641 A 20 20 0 0 0 21.333984 121.74609 A 20 20 0 0 0 14.013672 149.06641 A 20 20 0 0 0 41.333984 156.38672 A 20 20 0 0 0 48.654297 129.06641 A 20 20 0 0 0 31.392578 119.06641 z M 31.296875 124.06641 A 15 15 0 0 1 44.324219 131.56641 A 15 15 0 0 1 38.833984 152.05664 A 15 15 0 0 1 18.34375 146.56641 A 15 15 0 0 1 23.833984 126.07617 A 15 15 0 0 1 31.296875 124.06641 z "
       transform="scale(0.26458333)" />
    <path
       id="path866-2-20"
       style="fill:#333333;fill-opacity:1;fill-rule:evenodd;stroke:none;stroke-width:5.00001;stroke-linecap:square;stroke-linejoin:miter;stroke-miterlimit:4;stroke-dasharray:none;stroke-opacity:1;paint-order:markers fill stroke"
       inkscape:transform-center-x="-18.035588"
       inkscape:transform-center-y="10.565609"
       d="M 168.28125 119.93359 A 20 20 0 0 0 150.8457 129.93359 A 20 20 0 0 0 158.16602 157.25391 A 20 20 0 0 0 185.48633 149.93359 A 20 20 0 0 0 178.16602 122.61328 A 20 20 0 0 0 168.28125 119.93359 z M 168.08984 124.93359 A 15 15 0 0 1 175.66602 126.94336 A 15 15 0 0 1 181.15625 147.43359 A 15 15 0 0 1 160.66602 152.92383 A 15 15 0 0 1 155.17578 132.43359 A 15 15 0 0 1 168.08984 124.93359 z "
       transform="scale(0.26458333)" />
    <circle
       style="fill:#333333;fill-opacity:1;fill-rule:evenodd;stroke:none;stroke-width:1.32292;stroke-linecap:square;stroke-linejoin:miter;stroke-miterlimit:4;stroke-dasharray:none;stroke-opacity:1;paint-order:markers fill stroke"
       id="path866-2-6"
       cx="-26.326042"
       cy="-47.360416"
       inkscape:transform-center-x="0.13229192"
       inkscape:transform-center-y="20.902083"
       transform="scale(-1)"
       r="3.96875" />
  </g>
</svg>
