<?xml version="1.0" encoding="UTF-8" standalone="no"?>
<svg
   width="200"
   height="200"
   viewBox="0 0 52.916666 52.916666"
   version="1.1"
   id="svg8"
   inkscape:version="1.3.2 (091e20e, 2023-11-25)"
   sodipodi:docname="mcp.svg"
   xmlns:inkscape="http://www.inkscape.org/namespaces/inkscape"
   xmlns:sodipodi="http://sodipodi.sourceforge.net/DTD/sodipodi-0.dtd"
   xmlns="http://www.w3.org/2000/svg"
   xmlns:svg="http://www.w3.org/2000/svg"
   xmlns:rdf="http://www.w3.org/1999/02/22-rdf-syntax-ns#"
   xmlns:cc="http://creativecommons.org/ns#"
   xmlns:dc="http://purl.org/dc/elements/1.1/">
  <defs
     id="defs2" />
  <sodipodi:namedview
     id="base"
     pagecolor="#ffffff"
     bordercolor="#666666"
     borderopacity="1.0"
     inkscape:pageopacity="0"
     inkscape:pageshadow="2"
     inkscape:zoom="3.8583845"
     inkscape:cx="95.247117"
     inkscape:cy="109.89055"
     inkscape:document-units="mm"
     inkscape:current-layer="layer1"
     inkscape:document-rotation="0"
     showgrid="true"
     units="px"
     inkscape:window-width="1728"
     inkscape:window-height="1051"
     inkscape:window-x="0"
     inkscape:window-y="38"
     inkscape:window-maximized="1"
     showguides="false"
     inkscape:showpageshadow="2"
     inkscape:pagecheckerboard="0"
     inkscape:deskcolor="#d1d1d1">
    <inkscape:grid
       type="xygrid"
       id="grid833"
       originx="0"
       originy="0"
       spacingy="1.3229167"
       spacingx="1.3229167"
       units="px"
       visible="true" />
  </sodipodi:namedview>
  <metadata
     id="metadata5">
    <rdf:RDF>
      <cc:Work
         rdf:about="">
        <dc:format>image/svg+xml</dc:format>
        <dc:type
           rdf:resource="http://purl.org/dc/dcmitype/StillImage" />
      </cc:Work>
    </rdf:RDF>
  </metadata>
  <g
     inkscape:label="图层 1"
     inkscape:groupmode="layer"
     id="layer1">
    <path
       id="rect2"
       style="fill:none;fill-rule:evenodd;stroke:#000000;stroke-width:3.96875;stroke-linecap:round;stroke-dasharray:none;stroke-opacity:1"
       d="M 58.208338,46.302085 V 10.583332 c 0,-4.3973749 3.540125,-7.9375002 7.9375,-7.9375002 h 10e-7 c 4.397375,0 7.9375,3.5401253 7.9375,7.9375002 v 25.166936"
       sodipodi:nodetypes="cssssc" />
    <path
       id="rect2-6"
       style="fill:none;fill-rule:evenodd;stroke:#000000;stroke-width:3.96875;stroke-linecap:round;stroke-dasharray:none;stroke-opacity:1"
       d="m 82.02084,13.229164 v 25.135417 c 0,4.397375 -3.540125,7.9375 -7.937499,7.9375 h -10e-7 c -4.397376,0 -7.937501,-3.540125 -7.937501,-7.9375 l -10e-7,-25.135417"
       sodipodi:nodetypes="cssssc" />
    <path
       id="rect2-3"
       style="fill:none;fill-rule:evenodd;stroke:#000000;stroke-width:3.96875;stroke-linecap:round;stroke-linejoin:round;stroke-dasharray:none;stroke-opacity:1"
       d="m 74.083339,35.750268 1e-6,-25.166934 c 0,-4.3973749 3.540125,-7.9375005 7.937499,-7.9375005 h 1e-6 c 4.397375,0 7.9375,3.5401256 7.9375,7.9375005 v 33.072917 c 0,2.645834 0,2.645834 2.645834,2.645834 h 5.291667"
       sodipodi:nodetypes="cssssccc" />
    <path
       id="rect2-8"
       style="fill:none;fill-rule:evenodd;stroke:#000000;stroke-width:3.17108;stroke-linecap:round;stroke-dasharray:none;stroke-opacity:1"
       d="M 6.4803317,26.262304 26.661018,6.0816185 c 2.484466,-2.4844665 6.484726,-2.4844667 8.969193,0 l 10e-7,6e-7 c 2.484466,2.4844665 2.484466,6.4847259 -10e-7,8.9691929 l -14.21903,14.219029"
       sodipodi:nodetypes="cssssc" />
    <path
       id="rect2-6-7"
       style="fill:none;fill-rule:evenodd;stroke:#000000;stroke-width:3.17108;stroke-linecap:round;stroke-dasharray:none;stroke-opacity:1"
       d="M 38.619944,21.030274 24.418721,35.231496 c -2.484466,2.484466 -6.484725,2.484466 -8.969192,0 v 0 c -2.484468,-2.484467 -2.484468,-6.484727 -10e-7,-8.969194 L 29.65075,12.061079"
       sodipodi:nodetypes="cssssc" />
    <path
       id="rect2-3-7"
       style="fill:none;fill-rule:evenodd;stroke:#000000;stroke-width:3.17108;stroke-linecap:round;stroke-linejoin:round;stroke-dasharray:none;stroke-opacity:1"
       d="m 21.411181,29.269841 14.21903,-14.219028 c 2.484466,-2.484466 6.484727,-2.484467 8.969194,-10e-7 v 10e-7 c 2.484466,2.484467 2.484465,6.484726 0,8.969193 L 26.442723,42.1767 c -1.494866,1.494865 -1.494866,2.553258 0,4.048125 l 2.460593,2.460463"
       sodipodi:nodetypes="cssssccc" />
  </g>
</svg>
