<?xml version="1.0" encoding="UTF-8" standalone="no"?>
<svg
   xmlns:dc="http://purl.org/dc/elements/1.1/"
   xmlns:cc="http://creativecommons.org/ns#"
   xmlns:rdf="http://www.w3.org/1999/02/22-rdf-syntax-ns#"
   xmlns:svg="http://www.w3.org/2000/svg"
   xmlns="http://www.w3.org/2000/svg"
   xmlns:sodipodi="http://sodipodi.sourceforge.net/DTD/sodipodi-0.dtd"
   xmlns:inkscape="http://www.inkscape.org/namespaces/inkscape"
   class="icon"
   width="200mm"
   height="200mm"
   viewBox="0 0 200 200"
   version="1.1"
   id="svg902"
   sodipodi:docname="mockup.svg"
   inkscape:version="1.0.1 (c497b03c, 2020-09-10)">
  <metadata
     id="metadata908">
    <rdf:RDF>
      <cc:Work
         rdf:about="">
        <dc:format>image/svg+xml</dc:format>
        <dc:type
           rdf:resource="http://purl.org/dc/dcmitype/StillImage" />
        <dc:title></dc:title>
      </cc:Work>
    </rdf:RDF>
  </metadata>
  <defs
     id="defs906" />
  <sodipodi:namedview
     pagecolor="#ffffff"
     bordercolor="#666666"
     borderopacity="1"
     objecttolerance="10"
     gridtolerance="10"
     guidetolerance="10"
     inkscape:pageopacity="0"
     inkscape:pageshadow="2"
     inkscape:window-width="1792"
     inkscape:window-height="1075"
     id="namedview904"
     showgrid="true"
     units="mm"
     inkscape:document-units="mm"
     inkscape:zoom="0.470625"
     inkscape:cx="429.30293"
     inkscape:cy="221.3775"
     inkscape:window-x="0"
     inkscape:window-y="23"
     inkscape:window-maximized="1"
     inkscape:current-layer="svg902"
     inkscape:document-rotation="0">
    <inkscape:grid
       type="xygrid"
       id="grid1471" />
  </sodipodi:namedview>
  <path
     id="path900"
     style="fill:#333333;stroke-width:0.511423"
     d="M 245.6582 23.794922 L 41.111328 141.88867 L 18.898438 154.71875 L 18.898438 416.56836 L 223.83789 534.90234 L 245.22266 547.25195 L 245.6582 547.49219 L 246.0957 547.25195 L 267.47852 534.90234 L 299.79883 516.24219 C 289.27104 505.36079 278.52276 494.17996 269.00781 483.63477 L 267.47852 484.51758 L 267.47852 481.91797 C 249.10389 461.39325 235.75574 443.5148 238.45898 435.41797 C 240.36414 429.71159 251.58256 424.91171 267.47852 420.69336 L 267.47852 297.79883 L 428.79883 204.68945 L 428.79883 369.61523 C 441.19509 348.54651 457.1846 316.38606 472.44141 289.34961 L 472.44141 154.71875 L 450.22656 141.88867 L 245.6582 23.794922 z M 245.6582 74.201172 L 406.58594 167.0918 L 245.6582 260.00391 L 84.751953 167.0918 L 245.6582 74.201172 z M 62.539062 204.68945 L 223.83789 297.79883 L 223.83789 484.51758 L 62.539062 391.36523 L 62.539062 204.68945 z "
     transform="scale(0.26458333)" />
  <path
     sodipodi:type="star"
     style="fill:#333333;stroke:none;stroke-width:11.0742;stroke-linecap:round;stroke-linejoin:round;paint-order:markers stroke fill"
     id="path858"
     sodipodi:sides="5"
     sodipodi:cx="134.84688"
     sodipodi:cy="138.01112"
     sodipodi:r1="63.013126"
     sodipodi:r2="36.547611"
     sodipodi:arg1="0.95054684"
     sodipodi:arg2="1.5788654"
     inkscape:flatsided="false"
     inkscape:rounded="0.13"
     inkscape:randomized="0"
     d="m 171.47251,189.28701 c -4.20499,3.00357 -31.75317,-14.68777 -36.92053,-14.72946 -5.16737,-0.0417 -32.99745,17.20278 -37.153427,14.13174 -4.155978,-3.07103 4.156627,-34.73783 2.599483,-39.66517 -1.557148,-4.92734 -26.557591,-26.06648 -24.921132,-30.96805 1.63646,-4.90158 34.322116,-6.78139 38.527106,-9.78496 4.205,-3.00357 16.58395,-33.312758 21.75132,-33.271061 5.16736,0.0417 17.0556,30.546701 21.21158,33.617741 4.15597,3.07103 36.80703,5.47806 38.36418,10.40541 1.55715,4.92734 -23.78117,25.66029 -25.41763,30.56186 -1.63646,4.90157 6.16405,36.69839 1.95905,39.70195 z"
     inkscape:transform-center-x="-0.15711316"
     inkscape:transform-center-y="-5.8675815" />
</svg>
