<?xml version="1.0" encoding="UTF-8" standalone="no"?>
<svg
   xmlns:dc="http://purl.org/dc/elements/1.1/"
   xmlns:cc="http://creativecommons.org/ns#"
   xmlns:rdf="http://www.w3.org/1999/02/22-rdf-syntax-ns#"
   xmlns:svg="http://www.w3.org/2000/svg"
   xmlns="http://www.w3.org/2000/svg"
   xmlns:sodipodi="http://sodipodi.sourceforge.net/DTD/sodipodi-0.dtd"
   xmlns:inkscape="http://www.inkscape.org/namespaces/inkscape"
   class="icon"
   width="32"
   height="32"
   viewBox="0 0 1226.88 1226.88"
   version="1.1"
   id="svg112"
   sodipodi:docname="muluadd.svg"
   inkscape:version="1.0.1 (c497b03c, 2020-09-10)">
  <metadata
     id="metadata118">
    <rdf:RDF>
      <cc:Work
         rdf:about="">
        <dc:format>image/svg+xml</dc:format>
        <dc:type
           rdf:resource="http://purl.org/dc/dcmitype/StillImage" />
        <dc:title></dc:title>
      </cc:Work>
    </rdf:RDF>
  </metadata>
  <defs
     id="defs116" />
  <sodipodi:namedview
     pagecolor="#ffffff"
     bordercolor="#666666"
     borderopacity="1"
     objecttolerance="10"
     gridtolerance="10"
     guidetolerance="10"
     inkscape:pageopacity="0"
     inkscape:pageshadow="2"
     inkscape:window-width="1792"
     inkscape:window-height="1094"
     id="namedview114"
     showgrid="false"
     scale-x="38.34"
     inkscape:pagecheckerboard="false"
     viewbox-x="0"
     inkscape:zoom="8"
     inkscape:cx="34.728169"
     inkscape:cy="32.859098"
     inkscape:window-x="0"
     inkscape:window-y="26"
     inkscape:window-maximized="0"
     inkscape:current-layer="svg112" />
  <path
     d="M 1088.5751,527.22603 V 402.2719 a 75.44981,74.618001 0 0 0 -75.5394,-74.70662 H 594.47744 l -26.2551,-80.8214 A 75.360202,74.529382 0 0 0 496.35684,194.8126 H 157.01191 A 75.44981,74.618001 0 0 0 81.47249,269.51921 V 983.6188 a 75.270594,74.440762 0 0 0 0.89608,11.1661 l 0.53765,3.1903 0.26882,0.7977 0.62726,2.6585 c 0,0.4432 0.26882,0.8862 0.35843,1.5066 l 0.35843,1.2406 a 29.57059,29.244585 0 0 0 1.07529,3.1904 v 0.088 a 74.553732,73.731801 0 0 0 18.81765,29.2446 l 0.26883,0.2659 2.41941,2.1269 1.1649,1.0634 1.07529,0.8862 c 0.62726,0.5317 1.43373,1.0635 2.15059,1.7724 l 0.62726,0.3545 2.68823,1.8609 0.0896,0.088 a 74.284909,73.465942 0 0 0 34.67823,12.4068 l 3.3155,0.1772 h 0.62726 l 3.4947,0.088 h 826.6325 a 75.718634,74.883861 0 0 0 73.3888,-56.5396 l 96.5076,-381.7747 a 75.629025,74.795241 0 0 0 -64.9657,-92.25337 z M 157.01191,269.51921 H 496.08802 L 539.279,402.2719 h 473.7567 V 526.78294 H 253.51956 a 75.718634,74.883861 0 0 0 -73.29922,56.53954 L 156.9223,675.48723 V 269.51921 Z M 983.6444,983.2644 H 157.01191 L 253.51956,601.48956 H 1080.152 Z"
     fill="#000000"
     fill-opacity="0.85"
     id="path110"
     style="stroke-width:0.870239" />
  <g
     id="g1073"
     transform="translate(-14.37752,-581.16269)">
    <ellipse
       style="fill:#ffffff;fill-opacity:1;fill-rule:evenodd;stroke-width:38.34"
       id="path246"
       cx="912.97125"
       cy="905.78247"
       rx="256.39874"
       ry="268.38" />
    <path
       d="m 1118.6839,703.31355 c -54.3092,-54.04505 -126.49158,-83.81086 -203.29051,-83.81086 -76.79888,0 -149.00785,29.76581 -203.32153,83.81022 -54.31372,54.04433 -84.25434,125.97621 -84.25434,202.46697 0,76.49081 29.92572,148.40842 84.25371,202.47222 54.32789,54.0638 126.49668,83.8102 203.30275,83.8102 76.80607,0 149.00072,-29.7335 203.28982,-83.8096 54.2891,-54.076 84.2537,-126.0021 84.2537,-202.49228 0,-76.49004 -29.8811,-148.38305 -84.2349,-202.44687 z m -59.5058,223.00879 H 935.93581 v 123.24876 c 0,11.3449 -9.19687,20.5424 -20.54179,20.5424 -11.34487,0 -20.54242,-9.1975 -20.54242,-20.5418 V 926.32167 H 771.60224 c -11.34493,0 -20.54178,-9.19692 -20.54178,-20.54179 0,-11.34492 9.19685,-20.54242 20.54178,-20.54242 H 894.85098 V 761.99455 c 0,-11.34494 9.19686,-20.54178 20.54178,-20.54178 11.34618,0 20.54237,9.19684 20.54237,20.54178 v 123.24871 h 123.24227 c 11.345,0 20.5418,9.19754 20.5418,20.54179 0,11.34429 -9.1968,20.54309 -20.5418,20.54309 v -0.005 z"
       fill="#515151"
       id="path203"
       style="stroke-width:0.64739" />
  </g>
</svg>
