<?xml version="1.0" encoding="UTF-8" standalone="no"?>
<svg
   xmlns:dc="http://purl.org/dc/elements/1.1/"
   xmlns:cc="http://creativecommons.org/ns#"
   xmlns:rdf="http://www.w3.org/1999/02/22-rdf-syntax-ns#"
   xmlns:svg="http://www.w3.org/2000/svg"
   xmlns="http://www.w3.org/2000/svg"
   xmlns:sodipodi="http://sodipodi.sourceforge.net/DTD/sodipodi-0.dtd"
   xmlns:inkscape="http://www.inkscape.org/namespaces/inkscape"
   width="200"
   height="200"
   viewBox="0 0 52.916665 52.916668"
   version="1.1"
   id="svg8"
   inkscape:version="1.0.1 (c497b03c, 2020-09-10)"
   sodipodi:docname="newarg.svg">
  <defs
     id="defs2">
    <rect
       x="5.2916667"
       y="3.96875"
       width="33.072917"
       height="23.8125"
       id="rect1273" />
  </defs>
  <sodipodi:namedview
     id="base"
     pagecolor="#ffffff"
     bordercolor="#666666"
     borderopacity="1.0"
     inkscape:pageopacity="0.0"
     inkscape:pageshadow="2"
     inkscape:zoom="4"
     inkscape:cx="97.783579"
     inkscape:cy="99.885004"
     inkscape:document-units="mm"
     inkscape:current-layer="layer1"
     inkscape:document-rotation="0"
     showgrid="true"
     units="px"
     inkscape:window-width="1792"
     inkscape:window-height="1075"
     inkscape:window-x="0"
     inkscape:window-y="23"
     inkscape:window-maximized="1">
    <inkscape:grid
       type="xygrid"
       id="grid833" />
  </sodipodi:namedview>
  <metadata
     id="metadata5">
    <rdf:RDF>
      <cc:Work
         rdf:about="">
        <dc:format>image/svg+xml</dc:format>
        <dc:type
           rdf:resource="http://purl.org/dc/dcmitype/StillImage" />
        <dc:title></dc:title>
      </cc:Work>
    </rdf:RDF>
  </metadata>
  <g
     inkscape:label="图层 1"
     inkscape:groupmode="layer"
     id="layer1">
    <rect
       style="fill:none;stroke:#333333;stroke-width:2.64583;stroke-linecap:round;stroke-linejoin:round;stroke-miterlimit:4;stroke-dasharray:none;stroke-opacity:1;paint-order:markers stroke fill"
       id="rect893-7"
       width="21.166666"
       height="21.166666"
       x="15.874998"
       y="11.906248"
       rx="1.3229166"
       ry="1.3229166" />
    <g
       aria-label="("
       transform="matrix(2.5515031,0,0,2.6016343,-13.240734,2.6719832)"
       id="text1271"
       style="font-style:normal;font-weight:normal;font-size:10.5833px;line-height:1.25;font-family:sans-serif;white-space:pre;shape-inside:url(#rect1273);fill:#333333;fill-opacity:1;stroke:none">
      <path
         d="M 9.3372674,15.753277 H 8.1538809 q -0.91467,-1.049028 -1.4210974,-2.289258 -0.5064274,-1.240231 -0.5064274,-2.795686 0,-1.5554561 0.5064274,-2.7956865 0.5064274,-1.2402304 1.4210974,-2.2892587 h 1.1833865 v 0.051676 Q 8.9186896,6.0123009 8.5362852,6.508393 8.1590485,6.9993176 7.833488,7.6556062 7.5234304,8.2912243 7.3270606,9.056033 q -0.1912022,0.7648088 -0.1912022,1.6123 0,0.883664 0.1860345,1.617467 0.1912022,0.733803 0.5115951,1.395259 0.3100576,0.635618 0.7079649,1.147213 0.3979072,0.516763 0.7958145,0.873329 z"
         id="path1277"
         style="fill:#333333" />
    </g>
    <g
       aria-label="("
       transform="matrix(-2.5515031,0,0,2.6016343,66.1574,2.6719832)"
       id="text1271-0"
       style="font-style:normal;font-weight:normal;font-size:10.5833px;line-height:1.25;font-family:sans-serif;white-space:pre;shape-inside:url(#rect1273);fill:#333333;fill-opacity:1;stroke:none">
      <path
         d="M 9.3372674,15.753277 H 8.1538809 q -0.91467,-1.049028 -1.4210974,-2.289258 -0.5064274,-1.240231 -0.5064274,-2.795686 0,-1.5554561 0.5064274,-2.7956865 0.5064274,-1.2402304 1.4210974,-2.2892587 h 1.1833865 v 0.051676 Q 8.9186896,6.0123009 8.5362852,6.508393 8.1590485,6.9993176 7.833488,7.6556062 7.5234304,8.2912243 7.3270606,9.056033 q -0.1912022,0.7648088 -0.1912022,1.6123 0,0.883664 0.1860345,1.617467 0.1912022,0.733803 0.5115951,1.395259 0.3100576,0.635618 0.7079649,1.147213 0.3979072,0.516763 0.7958145,0.873329 z"
         id="path1277-8"
         style="fill:#333333" />
    </g>
    <path
       style="fill:none;stroke:#333333;stroke-width:2.64583;stroke-linecap:butt;stroke-linejoin:miter;stroke-miterlimit:4;stroke-dasharray:none;stroke-opacity:1"
       d="M 26.458333,15.875001 V 29.104167"
       id="path1298"
       sodipodi:nodetypes="cc" />
    <path
       style="fill:none;stroke:#333333;stroke-width:2.64583;stroke-linecap:butt;stroke-linejoin:miter;stroke-miterlimit:4;stroke-dasharray:none;stroke-opacity:1"
       d="M 33.072917,22.489584 H 19.843751"
       id="path1298-4"
       sodipodi:nodetypes="cc" />
    <rect
       style="fill:#333333;stroke:#333333;stroke-width:2.64583;stroke-linecap:round;stroke-linejoin:round;stroke-miterlimit:4;stroke-dasharray:none;stroke-opacity:1;paint-order:markers stroke fill"
       id="rect1315"
       width="2.6458333"
       height="2.6458333"
       x="14.552084"
       y="39.6875"
       rx="1.3229166"
       ry="1.3229166" />
    <rect
       style="fill:#333333;stroke:#333333;stroke-width:2.64583;stroke-linecap:round;stroke-linejoin:round;stroke-miterlimit:4;stroke-dasharray:none;stroke-opacity:1;paint-order:markers stroke fill"
       id="rect1315-4"
       width="2.6458333"
       height="2.6458333"
       x="25.135416"
       y="39.6875"
       rx="1.3229166"
       ry="1.3229166" />
    <rect
       style="fill:#333333;stroke:#333333;stroke-width:2.64583;stroke-linecap:round;stroke-linejoin:round;stroke-miterlimit:4;stroke-dasharray:none;stroke-opacity:1;paint-order:markers stroke fill"
       id="rect1315-7"
       width="2.6458333"
       height="2.6458333"
       x="35.71875"
       y="39.6875"
       rx="1.3229166"
       ry="1.3229166" />
  </g>
</svg>
