<?xml version="1.0" encoding="UTF-8" standalone="no"?>
<svg
   xmlns:dc="http://purl.org/dc/elements/1.1/"
   xmlns:cc="http://creativecommons.org/ns#"
   xmlns:rdf="http://www.w3.org/1999/02/22-rdf-syntax-ns#"
   xmlns:svg="http://www.w3.org/2000/svg"
   xmlns="http://www.w3.org/2000/svg"
   xmlns:sodipodi="http://sodipodi.sourceforge.net/DTD/sodipodi-0.dtd"
   xmlns:inkscape="http://www.inkscape.org/namespaces/inkscape"
   class="icon"
   width="200"
   height="200"
   viewBox="0 0 200 200"
   version="1.1"
   id="svg12"
   sodipodi:docname="duixiang.svg"
   inkscape:version="1.0.1 (c497b03c, 2020-09-10)">
  <metadata
     id="metadata18">
    <rdf:RDF>
      <cc:Work
         rdf:about="">
        <dc:format>image/svg+xml</dc:format>
        <dc:type
           rdf:resource="http://purl.org/dc/dcmitype/StillImage" />
        <dc:title></dc:title>
      </cc:Work>
    </rdf:RDF>
  </metadata>
  <defs
     id="defs16" />
  <sodipodi:namedview
     pagecolor="#ffffff"
     bordercolor="#666666"
     borderopacity="1"
     objecttolerance="10"
     gridtolerance="10"
     guidetolerance="10"
     inkscape:pageopacity="0"
     inkscape:pageshadow="2"
     inkscape:window-width="1792"
     inkscape:window-height="1075"
     id="namedview14"
     showgrid="false"
     scale-x="28"
     inkscape:zoom="3.285"
     inkscape:cx="100"
     inkscape:cy="100"
     inkscape:window-x="0"
     inkscape:window-y="23"
     inkscape:window-maximized="0"
     inkscape:current-layer="svg12"
     inkscape:document-rotation="0" />
  <path
     d="m 84.178896,184.71139 c 4.785465,2.8847 8.609364,0.96157 8.609364,-4.78546 V 112.8847 c 0,-5.74703 -3.823899,-11.49406 -8.609364,-14.37876 L 28.631727,64.02376 C 23.846262,62.100629 20,64.02376 20,68.809224 v 67.063596 c 0,5.74703 3.8239,11.49406 8.631727,14.37875 z M 37.241091,42.95877 c -4.785465,2.862334 -4.785465,6.708595 0,9.57093 l 54.607966,34.48218 c 4.785464,2.862334 11.494063,2.862334 16.279523,0.961565 L 162.73655,60.19986 c 4.78546,-2.884696 4.78546,-6.708595 0,-9.570929 l -57.4703,-34.48218 c -3.8239,-2.862335 -11.494063,-2.862335 -16.279527,0 z m 70.887489,136.96716 c 0,5.74703 3.8239,7.67016 8.63173,4.78546 l 54.60796,-27.77358 C 176.15374,154.05311 180,148.30608 180,142.55905 V 75.51782 c 0,-5.74703 -3.8239,-7.670161 -8.63173,-4.785465 L 116.73795,98.50594 c -4.78547,2.8847 -8.60937,8.63173 -8.60937,14.37876 z m 0,0"
     id="path10"
     style="stroke-width:0.22362" />
</svg>
