<?xml version="1.0" encoding="UTF-8" standalone="no"?>
<svg
   class="icon"
   width="200"
   height="200"
   viewBox="0 0 200 200"
   version="1.1"
   id="svg837"
   sodipodi:docname="picktab.svg"
   inkscape:version="1.3.2 (091e20e, 2023-11-25)"
   xmlns:inkscape="http://www.inkscape.org/namespaces/inkscape"
   xmlns:sodipodi="http://sodipodi.sourceforge.net/DTD/sodipodi-0.dtd"
   xmlns="http://www.w3.org/2000/svg"
   xmlns:svg="http://www.w3.org/2000/svg"
   xmlns:rdf="http://www.w3.org/1999/02/22-rdf-syntax-ns#"
   xmlns:cc="http://creativecommons.org/ns#"
   xmlns:dc="http://purl.org/dc/elements/1.1/">
  <metadata
     id="metadata843">
    <rdf:RDF>
      <cc:Work
         rdf:about="">
        <dc:format>image/svg+xml</dc:format>
        <dc:type
           rdf:resource="http://purl.org/dc/dcmitype/StillImage" />
      </cc:Work>
    </rdf:RDF>
  </metadata>
  <defs
     id="defs841" />
  <sodipodi:namedview
     pagecolor="#ffffff"
     bordercolor="#666666"
     borderopacity="1"
     objecttolerance="10"
     gridtolerance="10"
     guidetolerance="10"
     inkscape:pageopacity="0"
     inkscape:pageshadow="2"
     inkscape:window-width="1544"
     inkscape:window-height="1050"
     id="namedview839"
     showgrid="true"
     inkscape:zoom="3.675"
     inkscape:cx="118.77551"
     inkscape:cy="113.33333"
     inkscape:window-x="0"
     inkscape:window-y="38"
     inkscape:window-maximized="0"
     inkscape:current-layer="svg837"
     inkscape:document-rotation="0"
     inkscape:showpageshadow="2"
     inkscape:pagecheckerboard="0"
     inkscape:deskcolor="#d1d1d1">
    <inkscape:grid
       type="xygrid"
       id="grid4613"
       originx="0"
       originy="0"
       spacingy="1"
       spacingx="1"
       units="px"
       visible="true" />
  </sodipodi:namedview>
  <path
     id="rect4622"
     style="fill:none;stroke:#333333;stroke-width:10;stroke-linecap:square;stroke-linejoin:round;stroke-miterlimit:4;stroke-dasharray:none;stroke-opacity:1;paint-order:markers stroke fill"
     d="m 90,70 c -5.54,0 -12.4997,4.46 -12.4997,10 v 46.69922 l -5,-8.66016 c -2.77,-4.79778 -9.86252,-5.43015 -14.6603,-2.66015 -4.797781,2.77 -7.43,9.86222 -4.66,14.66 0,0 18.334,37.137 25,43.301 6.666,6.164 13.342349,6.58073 19.3203,6.66009 h 40 c 11.08,0 20,-8.92 20,-20 v -20 c 0,-11.08 -8.92,-20 -20,-20 H 102.5 V 80 C 102.5,74.46 95.54,70 90,70 Z"
     sodipodi:nodetypes="ssccsczcsssscss" />
  <path
     style="fill:none;stroke:#333333;stroke-width:10"
     d="m 5,110 h 10 c 5,0 15,-5 15,-15 0,-15.001388 0,-30 0,-45 0,-15 10,-25 30,-25 h 80 c 25,0 30,10 30,25 0,15 0,45 0,45 0,10 10,15 15,15 h 10"
     id="path1"
     sodipodi:nodetypes="cssssssssc" />
</svg>
