<?xml version="1.0" standalone="no"?><!DOCTYPE svg PUBLIC "-//W3C//DTD SVG 1.1//EN" "http://www.w3.org/Graphics/SVG/1.1/DTD/svg11.dtd"><svg class="icon" width="200px" height="200.00px" viewBox="0 0 1024 1024" version="1.1" xmlns="http://www.w3.org/2000/svg"><path d="M796.43 171.92H261.22c-72.79 0-132 59.21-132 132v318.06c0 60.92 49.56 110.48 110.48 110.48h143.92l101.24 121.9c10.89 13.11 26.9 20.62 43.94 20.62s33.05-7.52 43.93-20.62l101.25-121.9h143.97c60.92 0 110.48-49.56 110.48-110.48V303.92c0-72.79-59.21-132-132-132zM344.99 496.2c-26.75 0-48.43-21.68-48.43-48.43s21.68-48.43 48.43-48.43 48.43 21.68 48.43 48.43c-0.01 26.75-21.69 48.43-48.43 48.43z m183.84 0c-26.75 0-48.43-21.68-48.43-48.43s21.68-48.43 48.43-48.43 48.43 21.68 48.43 48.43-21.69 48.43-48.43 48.43z m183.84 0c-26.75 0-48.43-21.68-48.43-48.43s21.68-48.43 48.43-48.43 48.43 21.68 48.43 48.43-21.68 48.43-48.43 48.43z" /></svg>