<?xml version="1.0" encoding="UTF-8" standalone="no"?>
<svg
   xmlns:dc="http://purl.org/dc/elements/1.1/"
   xmlns:cc="http://creativecommons.org/ns#"
   xmlns:rdf="http://www.w3.org/1999/02/22-rdf-syntax-ns#"
   xmlns:svg="http://www.w3.org/2000/svg"
   xmlns="http://www.w3.org/2000/svg"
   xmlns:sodipodi="http://sodipodi.sourceforge.net/DTD/sodipodi-0.dtd"
   xmlns:inkscape="http://www.inkscape.org/namespaces/inkscape"
   width="200"
   height="200"
   viewBox="0 0 52.916666 52.916666"
   version="1.1"
   id="svg8"
   inkscape:version="1.0.1 (c497b03c, 2020-09-10)"
   sodipodi:docname="prj_s.svg">
  <defs
     id="defs2" />
  <sodipodi:namedview
     id="base"
     pagecolor="#ffffff"
     bordercolor="#666666"
     borderopacity="1.0"
     inkscape:pageopacity="0.0"
     inkscape:pageshadow="2"
     inkscape:zoom="4"
     inkscape:cx="95.287637"
     inkscape:cy="99.681047"
     inkscape:document-units="mm"
     inkscape:current-layer="layer1"
     inkscape:document-rotation="0"
     showgrid="true"
     units="px"
     inkscape:window-width="1792"
     inkscape:window-height="1075"
     inkscape:window-x="0"
     inkscape:window-y="23"
     inkscape:window-maximized="1">
    <inkscape:grid
       type="xygrid"
       id="grid833" />
  </sodipodi:namedview>
  <metadata
     id="metadata5">
    <rdf:RDF>
      <cc:Work
         rdf:about="">
        <dc:format>image/svg+xml</dc:format>
        <dc:type
           rdf:resource="http://purl.org/dc/dcmitype/StillImage" />
        <dc:title></dc:title>
      </cc:Work>
    </rdf:RDF>
  </metadata>
  <g
     inkscape:label="图层 1"
     inkscape:groupmode="layer"
     id="layer1">
    <path
       id="path864"
       style="fill:#333333;fill-opacity:1;stroke:#333333;stroke-width:9.99999;stroke-linecap:butt;stroke-linejoin:round;stroke-miterlimit:4;stroke-dasharray:none;stroke-opacity:1"
       d="M 95 25 C 85.000001 25 55 70.000006 55 90 L 55 100 L 35 115 L 35 150 C 36.410787 148.58921 55 135 55 135 C 55 135 54.999999 145 60 145 L 75 145 C 75 145 80 145 80 140 C 80 135 80.000003 135 85 135 L 95 135 L 105 135 C 110 135 110 135.75 110 140.75 C 110 145 115 145 115 145 L 130 145 C 135.12499 145 135 135 135 135 L 155 150 L 155 115 L 135 100 L 135 90 C 135 69.999999 105 25 95 25 z M 95 52.5 A 19.999999 19.999999 0 0 1 115 72.5 A 19.999999 19.999999 0 0 1 95 92.5 A 19.999999 19.999999 0 0 1 75 72.5 A 19.999999 19.999999 0 0 1 95 52.5 z M 95.142578 95 A 13 13 0 0 1 95.25 95 A 13 13 0 0 1 108.25 108 A 13 13 0 0 1 95.25 121 A 13 13 0 0 1 82.25 108 A 13 13 0 0 1 95.142578 95 z "
       transform="scale(0.26458333)" />
    <path
       style="fill:none;stroke:#000000;stroke-width:1.32292;stroke-linecap:round;stroke-linejoin:miter;stroke-miterlimit:4;stroke-dasharray:none;stroke-opacity:0.5"
       d="m 29.765687,41.010416 c -1.322916,2.645834 1.322917,7.9375 2.645833,7.9375 1.322917,0 3.968751,-5.291666 2.645834,-7.9375"
       id="path894"
       sodipodi:nodetypes="csc" />
    <path
       style="fill:none;stroke:#000000;stroke-width:1.32292;stroke-linecap:round;stroke-linejoin:miter;stroke-miterlimit:4;stroke-dasharray:none;stroke-opacity:0.5"
       d="m 15.213606,41.010417 c -1.322916,2.645835 1.322917,7.9375 2.645833,7.9375 1.322917,0 3.968751,-5.291665 2.645834,-7.9375"
       id="path894-7"
       sodipodi:nodetypes="csc" />
  </g>
</svg>
