<?xml version="1.0" encoding="UTF-8" standalone="no"?>
<svg
   xmlns:dc="http://purl.org/dc/elements/1.1/"
   xmlns:cc="http://creativecommons.org/ns#"
   xmlns:rdf="http://www.w3.org/1999/02/22-rdf-syntax-ns#"
   xmlns:svg="http://www.w3.org/2000/svg"
   xmlns="http://www.w3.org/2000/svg"
   xmlns:sodipodi="http://sodipodi.sourceforge.net/DTD/sodipodi-0.dtd"
   xmlns:inkscape="http://www.inkscape.org/namespaces/inkscape"
   width="200"
   height="200"
   viewBox="0 0 200 200"
   version="1.1"
   id="svg8"
   inkscape:version="1.0.1 (c497b03c, 2020-09-10)"
   sodipodi:docname="range.svg">
  <defs
     id="defs2" />
  <sodipodi:namedview
     id="base"
     pagecolor="#ffffff"
     bordercolor="#666666"
     borderopacity="1.0"
     inkscape:pageopacity="0.0"
     inkscape:pageshadow="2"
     inkscape:zoom="4"
     inkscape:cx="97.802849"
     inkscape:cy="103.27941"
     inkscape:document-units="px"
     inkscape:current-layer="layer1"
     inkscape:document-rotation="0"
     showgrid="true"
     units="px"
     inkscape:window-width="1792"
     inkscape:window-height="1075"
     inkscape:window-x="0"
     inkscape:window-y="23"
     inkscape:window-maximized="1">
    <inkscape:grid
       type="xygrid"
       id="grid833" />
  </sodipodi:namedview>
  <metadata
     id="metadata5">
    <rdf:RDF>
      <cc:Work
         rdf:about="">
        <dc:format>image/svg+xml</dc:format>
        <dc:type
           rdf:resource="http://purl.org/dc/dcmitype/StillImage" />
        <dc:title></dc:title>
      </cc:Work>
    </rdf:RDF>
  </metadata>
  <g
     inkscape:label="图层 1"
     inkscape:groupmode="layer"
     id="layer1">
    <path
       id="path858"
       style="fill:#333333;fill-rule:evenodd;stroke-width:5;stroke-linejoin:round;paint-order:markers fill stroke"
       d="M 100,50 A 100,100 0 0 0 0,150 100,100 0 0 0 0.5,160 H 10.542969 A 87.5,90 0 0 1 10,150 87.5,90 0 0 1 97.5,60 a 87.5,90 0 0 1 87.5,90 87.5,90 0 0 1 -0.54297,10 h 15.04102 A 100,100 0 0 0 200,150 100,100 0 0 0 100,50 Z" />
    <circle
       style="fill:#000000;fill-rule:evenodd;stroke:#000000;stroke-width:5.00032;stroke-linejoin:round;stroke-miterlimit:4;stroke-dasharray:none;stroke-opacity:1;paint-order:markers fill stroke"
       id="path865"
       cx="100"
       cy="150"
       r="20" />
    <g
       aria-label="Min"
       id="text875"
       style="font-size:40px;line-height:1.25;font-family:'Big Caslon';-inkscape-font-specification:'Big Caslon';letter-spacing:10px;word-spacing:10px"
       transform="translate(5.5,-99.5)">
      <path
         d="M 30.898437,149.27734 H 27.03125 v -25.05859 l -8.085938,17.05078 H 16.640625 L 8.6132813,124.21875 v 25.05859 H 5 v -29.08203 h 5.273438 l 7.753906,16.19141 7.5,-16.19141 h 5.371093 z"
         style="font-style:normal;font-variant:normal;font-weight:normal;font-stretch:normal;font-family:sans-serif;-inkscape-font-specification:sans-serif;letter-spacing:0px;stroke:#000000;stroke-opacity:1"
         id="path902" />
      <path
         d="M 42.402344,123.80859 H 38.261719 V 120 h 4.140625 z m -0.234375,25.46875 h -3.671875 v -21.8164 h 3.671875 z"
         style="font-style:normal;font-variant:normal;font-weight:normal;font-stretch:normal;font-family:sans-serif;-inkscape-font-specification:sans-serif;letter-spacing:0px;stroke:#000000;stroke-opacity:1"
         id="path904" />
      <path
         d="m 67.714844,149.27734 h -3.671875 v -12.42187 q 0,-1.50391 -0.175782,-2.8125 -0.175781,-1.32813 -0.644531,-2.07031 -0.488281,-0.82032 -1.40625,-1.21094 -0.917969,-0.41016 -2.382812,-0.41016 -1.503907,0 -3.144532,0.74219 -1.640625,0.74219 -3.144531,1.89453 v 16.28906 h -3.671875 v -21.8164 h 3.671875 v 2.42187 q 1.71875,-1.42578 3.554688,-2.22656 1.835937,-0.80078 3.769531,-0.80078 3.535156,0 5.390625,2.1289 1.855469,2.12891 1.855469,6.13282 z"
         style="font-style:normal;font-variant:normal;font-weight:normal;font-stretch:normal;font-family:sans-serif;-inkscape-font-specification:sans-serif;letter-spacing:0px;stroke:#000000;stroke-opacity:1"
         id="path906" />
    </g>
    <g
       aria-label="Max"
       id="text875-2"
       style="font-size:40px;line-height:1.25;font-family:'Big Caslon';-inkscape-font-specification:'Big Caslon';letter-spacing:10px;word-spacing:10px;stroke:#000000;stroke-opacity:1"
       transform="translate(-5,-100)">
      <path
         d="m 151.39844,149.58203 h -3.86719 v -25.05859 l -8.08594,17.05078 h -2.30469 l -8.02734,-17.05078 v 25.05859 H 125.5 V 120.5 h 5.27344 l 7.7539,16.19141 7.5,-16.19141 h 5.3711 z"
         style="font-style:normal;font-variant:normal;font-weight:normal;font-stretch:normal;font-family:sans-serif;-inkscape-font-specification:sans-serif;letter-spacing:-3px;stroke:#000000;stroke-opacity:1"
         id="path895" />
      <path
         d="m 172.91016,149.58203 h -3.65235 v -2.32422 q -0.48828,0.33203 -1.32812,0.9375 -0.82032,0.58594 -1.60157,0.9375 -0.91796,0.44922 -2.10937,0.74219 -1.19141,0.3125 -2.79297,0.3125 -2.94922,0 -5,-1.95313 -2.05078,-1.95312 -2.05078,-4.98046 0,-2.48047 1.05469,-4.00391 1.07422,-1.54297 3.04687,-2.42188 1.99219,-0.8789 4.78516,-1.1914 2.79297,-0.3125 5.99609,-0.46875 v -0.56641 q 0,-1.25 -0.44922,-2.07031 -0.42968,-0.82031 -1.25,-1.28906 -0.78125,-0.44922 -1.875,-0.60547 -1.09375,-0.15625 -2.28515,-0.15625 -1.44532,0 -3.22266,0.39062 -1.77734,0.3711 -3.67187,1.09375 h -0.19532 v -3.73047 q 1.07422,-0.29296 3.10547,-0.64453 2.03125,-0.35156 4.00391,-0.35156 2.30469,0 4.0039,0.39063 1.71875,0.37109 2.96875,1.28906 1.23047,0.89844 1.875,2.32422 0.64454,1.42578 0.64454,3.53515 z m -3.65235,-5.37109 v -6.07422 q -1.67969,0.0977 -3.96484,0.29297 -2.26563,0.19531 -3.59375,0.5664 -1.58203,0.44922 -2.5586,1.40625 -0.97656,0.9375 -0.97656,2.59766 0,1.875 1.13281,2.83203 1.13282,0.9375 3.45704,0.9375 1.93359,0 3.53515,-0.74219 1.60156,-0.76172 2.96875,-1.8164 z"
         style="font-style:normal;font-variant:normal;font-weight:normal;font-stretch:normal;font-family:sans-serif;-inkscape-font-specification:sans-serif;letter-spacing:-3px;stroke:#000000;stroke-opacity:1"
         id="path897" />
      <path
         d="m 195.90625,149.58203 h -4.62891 l -6.1914,-8.37891 -6.23047,8.37891 h -4.27735 l 8.51563,-10.87891 -8.4375,-10.93749 h 4.62891 l 6.15234,8.24218 6.17187,-8.24218 h 4.29688 l -8.57422,10.74218 z"
         style="font-style:normal;font-variant:normal;font-weight:normal;font-stretch:normal;font-family:sans-serif;-inkscape-font-specification:sans-serif;letter-spacing:-3px;stroke:#000000;stroke-opacity:1"
         id="path899" />
    </g>
  </g>
</svg>
