<?xml version="1.0" encoding="UTF-8" standalone="no"?>
<svg
   xmlns:dc="http://purl.org/dc/elements/1.1/"
   xmlns:cc="http://creativecommons.org/ns#"
   xmlns:rdf="http://www.w3.org/1999/02/22-rdf-syntax-ns#"
   xmlns:svg="http://www.w3.org/2000/svg"
   xmlns="http://www.w3.org/2000/svg"
   xmlns:sodipodi="http://sodipodi.sourceforge.net/DTD/sodipodi-0.dtd"
   xmlns:inkscape="http://www.inkscape.org/namespaces/inkscape"
   width="200"
   height="200"
   viewBox="0 0 52.916666 52.916666"
   version="1.1"
   id="svg8"
   inkscape:version="1.0.1 (c497b03c, 2020-09-10)"
   sodipodi:docname="settings2.svg">
  <defs
     id="defs2" />
  <sodipodi:namedview
     id="base"
     pagecolor="#ffffff"
     bordercolor="#666666"
     borderopacity="1.0"
     inkscape:pageopacity="0.0"
     inkscape:pageshadow="2"
     inkscape:zoom="4"
     inkscape:cx="95.287637"
     inkscape:cy="99.681047"
     inkscape:document-units="px"
     inkscape:current-layer="layer1"
     inkscape:document-rotation="0"
     showgrid="true"
     units="px"
     inkscape:window-width="1792"
     inkscape:window-height="1075"
     inkscape:window-x="0"
     inkscape:window-y="23"
     inkscape:window-maximized="1">
    <inkscape:grid
       type="xygrid"
       id="grid833" />
  </sodipodi:namedview>
  <metadata
     id="metadata5">
    <rdf:RDF>
      <cc:Work
         rdf:about="">
        <dc:format>image/svg+xml</dc:format>
        <dc:type
           rdf:resource="http://purl.org/dc/dcmitype/StillImage" />
        <dc:title></dc:title>
      </cc:Work>
    </rdf:RDF>
  </metadata>
  <g
     inkscape:label="图层 1"
     inkscape:groupmode="layer"
     id="layer1">
    <path
       id="path841"
       style="fill:none;fill-rule:evenodd;stroke:#333333;stroke-width:2.11667;stroke-miterlimit:4;stroke-dasharray:none;stroke-opacity:1;paint-order:markers fill stroke"
       d="m 20.593676,4.7468336 a 22.489584,22.489584 0 0 0 -2.471227,0.8242665 l 1.035882,3.8659631 A 18.520834,18.520834 0 0 0 15.367547,11.626042 L 12.537131,8.7957115 A 22.489584,22.489584 0 0 0 8.7952741,12.536972 L 11.62569,15.367303 A 18.520834,18.520834 0 0 0 9.4368985,19.158401 L 5.5710516,18.12222 a 22.489584,22.489584 0 0 0 -1.3695975,5.111308 l 3.8658469,1.03618 a 18.520834,18.520834 0 0 0 1.798e-4,4.377271 l -3.8659632,1.035882 a 22.489584,22.489584 0 0 0 0.5335478,2.596204 22.489584,22.489584 0 0 0 0.8360363,2.515153 l 3.8659632,-1.035882 a 18.520834,18.520834 0 0 0 2.1889791,3.790785 l -2.8303309,2.830415 a 22.489584,22.489584 0 0 0 3.7412609,3.741856 l 2.830331,-2.830415 a 18.520834,18.520834 0 0 0 3.791097,2.188792 l -1.03618,3.865847 a 22.489584,22.489584 0 0 0 5.111307,1.369597 l 1.036181,-3.865847 a 18.520834,18.520834 0 0 0 4.377271,-1.8e-4 l 1.035881,3.865963 a 22.489584,22.489584 0 0 0 2.596205,-0.533547 22.489584,22.489584 0 0 0 2.515153,-0.836037 l -1.035882,-3.865963 a 18.520834,18.520834 0 0 0 3.790785,-2.188978 l 2.830414,2.83033 a 22.489584,22.489584 0 0 0 3.741857,-3.741261 l -2.830415,-2.83033 a 18.520834,18.520834 0 0 0 2.188791,-3.791098 l 3.865847,1.036179 a 22.489584,22.489584 0 0 0 1.369598,-5.111307 l -3.865847,-1.036179 a 18.520834,18.520834 0 0 0 -1.8e-4,-4.377271 l 3.865963,-1.035882 A 22.489584,22.489584 0 0 0 48.181604,20.6376 22.489584,22.489584 0 0 0 47.345566,18.122448 l -3.865962,1.035881 a 18.520834,18.520834 0 0 0 -2.188978,-3.790784 l 2.83033,-2.830416 A 22.489584,22.489584 0 0 0 40.379694,8.7952725 l -2.83033,2.8304155 A 18.520834,18.520834 0 0 0 33.758266,9.4368969 l 1.03618,-3.8658467 A 22.489584,22.489584 0 0 0 29.683139,4.2014525 L 28.64696,8.0672992 a 18.520834,18.520834 0 0 0 -4.377272,1.799e-4 L 23.233807,4.201516 a 22.489584,22.489584 0 0 0 -2.596205,0.5335477 22.489584,22.489584 0 0 0 -0.04393,0.01177 z" />
    <circle
       style="fill:none;fill-opacity:1;fill-rule:evenodd;stroke:#333333;stroke-width:2.11667;stroke-miterlimit:4;stroke-dasharray:none;stroke-opacity:1;paint-order:markers fill stroke"
       id="path1085"
       cx="26.458332"
       cy="26.458332"
       r="5.2916665" />
  </g>
</svg>
