<?xml version="1.0" encoding="UTF-8" standalone="no"?>
<svg
   xmlns:dc="http://purl.org/dc/elements/1.1/"
   xmlns:cc="http://creativecommons.org/ns#"
   xmlns:rdf="http://www.w3.org/1999/02/22-rdf-syntax-ns#"
   xmlns:svg="http://www.w3.org/2000/svg"
   xmlns="http://www.w3.org/2000/svg"
   xmlns:sodipodi="http://sodipodi.sourceforge.net/DTD/sodipodi-0.dtd"
   xmlns:inkscape="http://www.inkscape.org/namespaces/inkscape"
   class="icon"
   width="200px"
   height="200.00px"
   viewBox="0 0 1024 1024"
   version="1.1"
   id="svg14"
   sodipodi:docname="shanchu.svg"
   inkscape:version="1.0.1 (c497b03c, 2020-09-10)">
  <metadata
     id="metadata20">
    <rdf:RDF>
      <cc:Work
         rdf:about="">
        <dc:format>image/svg+xml</dc:format>
        <dc:type
           rdf:resource="http://purl.org/dc/dcmitype/StillImage" />
        <dc:title />
      </cc:Work>
    </rdf:RDF>
  </metadata>
  <defs
     id="defs18">
    <rect
       x="54.334694"
       y="98.917007"
       width="731.42857"
       height="571.21088"
       id="rect36" />
    <rect
       x="51.548299"
       y="150.46531"
       width="816.41361"
       height="367.80408"
       id="rect24" />
  </defs>
  <sodipodi:namedview
     pagecolor="#ffffff"
     bordercolor="#666666"
     borderopacity="1"
     objecttolerance="10"
     gridtolerance="10"
     guidetolerance="10"
     inkscape:pageopacity="0"
     inkscape:pageshadow="2"
     inkscape:window-width="1611"
     inkscape:window-height="1075"
     id="namedview16"
     showgrid="false"
     inkscape:zoom="3.675"
     inkscape:cx="92.537322"
     inkscape:cy="100"
     inkscape:window-x="0"
     inkscape:window-y="23"
     inkscape:window-maximized="0"
     inkscape:current-layer="svg14"
     inkscape:document-rotation="0" />
  <path
     d="m 515.20054,82.90968 c -83.89976,0 -151.99393,66.51318 -154.89155,150.01729 H 164.71937 c -21.73134,0 -39.51191,17.64924 -39.51191,39.51275 0,21.73218 17.64924,39.51358 39.51275,39.51358 h 43.59569 v 442.01815 c 0,82.97711 56.24017,150.80777 125.78398,150.80777 h 354.2981 c 69.41248,0 125.78398,-67.435 125.78398,-150.80777 V 312.2168 h 39.51275 c 21.73218,0 39.51275,-17.65008 39.51275,-39.51359 0,-21.73218 -17.64924,-39.51275 -39.51275,-39.51275 H 669.82776 C 667.32496,149.4237 599.09947,82.910517 515.20054,82.910517 Z m -80.86997,150.01729 c 2.89762,-42.8052 37.80127,-75.99571 81.0013,-75.99571 43.20003,0 78.10368,33.32184 80.60648,75.99571 z M 333.96771,830.88981 c -24.6298,0 -51.7624,-31.61037 -51.7624,-76.91836 V 312.2168 h 457.82375 v 442.14947 c 0,45.17667 -27.1326,76.9192 -51.76241,76.9192 H 333.96771 Z m 0,0"
     id="path10"
     style="stroke-width:0.999998" />
  <path
     d="m 387.04676,735.92738 c 18.04323,0 32.92702,-18.04407 32.92702,-40.69806 V 463.02457 c 0,-22.654 -14.75162,-40.6989 -32.92702,-40.6989 -18.0449,0 -32.92784,18.0449 -32.92784,40.6989 v 232.20475 c 0,22.52183 14.48812,40.69806 32.92784,40.69806 z m 119.19741,0 c 18.04407,0 32.92701,-18.04407 32.92701,-40.69806 V 463.02457 c 0,-22.654 -14.75161,-40.6989 -32.92701,-40.6989 -18.04406,0 -32.92785,18.0449 -32.92785,40.6989 v 232.20475 c 0,22.52183 14.88379,40.69806 32.92785,40.69806 z m 125.38748,0 c 18.04407,0 32.92785,-18.04407 32.92785,-40.69806 V 463.02457 c 0,-22.654 -14.75161,-40.6989 -32.92785,-40.6989 -18.04406,0 -32.92701,18.0449 -32.92701,40.6989 v 232.20475 c 0,22.52183 14.35596,40.69806 32.92701,40.69806 z m 0,0"
     id="path12"
     style="stroke-width:0.999998" />
</svg>
