<?xml version="1.0" encoding="UTF-8" standalone="no"?>
<svg
   xmlns:dc="http://purl.org/dc/elements/1.1/"
   xmlns:cc="http://creativecommons.org/ns#"
   xmlns:rdf="http://www.w3.org/1999/02/22-rdf-syntax-ns#"
   xmlns:svg="http://www.w3.org/2000/svg"
   xmlns="http://www.w3.org/2000/svg"
   xmlns:sodipodi="http://sodipodi.sourceforge.net/DTD/sodipodi-0.dtd"
   xmlns:inkscape="http://www.inkscape.org/namespaces/inkscape"
   class="icon"
   width="200"
   height="200"
   viewBox="0 0 200 200"
   version="1.1"
   id="svg12"
   sodipodi:docname="shangyi.svg"
   inkscape:version="1.0.1 (c497b03c, 2020-09-10)">
  <metadata
     id="metadata18">
    <rdf:RDF>
      <cc:Work
         rdf:about="">
        <dc:format>image/svg+xml</dc:format>
        <dc:type
           rdf:resource="http://purl.org/dc/dcmitype/StillImage" />
        <dc:title></dc:title>
      </cc:Work>
    </rdf:RDF>
  </metadata>
  <defs
     id="defs16" />
  <sodipodi:namedview
     pagecolor="#ffffff"
     bordercolor="#666666"
     borderopacity="1"
     objecttolerance="10"
     gridtolerance="10"
     guidetolerance="10"
     inkscape:pageopacity="0"
     inkscape:pageshadow="2"
     inkscape:window-width="1792"
     inkscape:window-height="1075"
     id="namedview14"
     showgrid="true"
     scale-x="35"
     inkscape:zoom="3.6749999"
     inkscape:cx="134.18503"
     inkscape:cy="117.07016"
     inkscape:window-x="0"
     inkscape:window-y="23"
     inkscape:window-maximized="1"
     inkscape:current-layer="svg12"
     inkscape:document-rotation="0" />
  <path
     d="M 186.97489,82.917552 151.51277,43.064145 C 148.7609,40.917292 146.36032,40 143.51086,40 c -3.08366,0 -5.87457,1.073427 -7.82625,3.025112 L 99.61747,82.722384 c -1.229562,2.088303 -2.42009,4.371774 -2.42009,7.396886 0,5.38665 4.70356,10.09021 10.07069,10.09021 2.71285,0 5.69892,-1.366179 7.96288,-3.630133 l 18.22874,-19.926704 v 74.632437 c 0,6.12829 3.96192,10.09021 10.07069,10.09021 6.01119,0 10.22683,-4.15709 10.22683,-10.09021 V 76.67216 l 18.26777,19.985254 c 2.49816,2.498157 4.64501,3.591096 7.14317,3.591096 5.97215,0 10.83185,-4.527905 10.83185,-10.090207 0,-2.771392 -1.05391,-5.269549 -3.02511,-7.240751 z M 77.801535,50.226829 H 20.636683 C 14.762111,50.226829 10,55.008457 10,60.883029 c 0,5.894089 4.762111,10.6562 10.636683,10.6562 h 57.164852 c 5.874572,0 10.636683,-4.781628 10.636683,-10.6562 0,-5.874572 -4.762111,-10.6562 -10.636683,-10.6562 z m 0,39.814373 H 20.636683 C 14.762111,90.041202 10,94.82283 10,100.6974 c 0,5.89409 4.762111,10.6562 10.636683,10.6562 h 57.164852 c 5.874572,0 10.636683,-4.78163 10.636683,-10.6562 0,-5.894086 -4.762111,-10.656198 -10.636683,-10.656198 z m 0,39.794858 H 20.636683 C 14.762111,129.83606 10,134.61769 10,140.49226 c 0,5.89409 4.762111,10.6562 10.636683,10.6562 h 57.164852 c 5.874572,0 10.636683,-4.78163 10.636683,-10.6562 0,-5.87457 -4.762111,-10.6562 -10.636683,-10.6562 z"
     id="path10"
     sodipodi:nodetypes="ccsccssccsssccsscsssssssssssssssssssss"
     style="stroke-width:0.195168" />
</svg>
