<?xml version="1.0" encoding="UTF-8" standalone="no"?>
<svg
   xmlns:dc="http://purl.org/dc/elements/1.1/"
   xmlns:cc="http://creativecommons.org/ns#"
   xmlns:rdf="http://www.w3.org/1999/02/22-rdf-syntax-ns#"
   xmlns:svg="http://www.w3.org/2000/svg"
   xmlns="http://www.w3.org/2000/svg"
   xmlns:sodipodi="http://sodipodi.sourceforge.net/DTD/sodipodi-0.dtd"
   xmlns:inkscape="http://www.inkscape.org/namespaces/inkscape"
   class="icon"
   width="200px"
   height="200.00px"
   viewBox="0 0 1024 1024"
   version="1.1"
   id="svg835"
   sodipodi:docname="shijian.svg"
   inkscape:version="1.0.1 (c497b03c, 2020-09-10)">
  <metadata
     id="metadata841">
    <rdf:RDF>
      <cc:Work
         rdf:about="">
        <dc:format>image/svg+xml</dc:format>
        <dc:type
           rdf:resource="http://purl.org/dc/dcmitype/StillImage" />
      </cc:Work>
    </rdf:RDF>
  </metadata>
  <defs
     id="defs839" />
  <sodipodi:namedview
     pagecolor="#ffffff"
     bordercolor="#666666"
     borderopacity="1"
     objecttolerance="10"
     gridtolerance="10"
     guidetolerance="10"
     inkscape:pageopacity="0"
     inkscape:pageshadow="2"
     inkscape:window-width="1792"
     inkscape:window-height="1075"
     id="namedview837"
     showgrid="false"
     inkscape:zoom="3.675"
     inkscape:cx="100"
     inkscape:cy="100"
     inkscape:window-x="0"
     inkscape:window-y="23"
     inkscape:window-maximized="1"
     inkscape:current-layer="svg835" />
  <path
     d="M 512.02561,51.2 C 257.46262,51.2 51.2,257.47629 51.2,511.97435 51.2,766.5237 257.51384,972.8 512.02561,972.8 766.48617,972.8 972.80005,766.5237 972.80005,511.97435 972.80005,257.52759 766.48617,51.2 512.02561,51.2 Z M 142.21779,544.65229 a 32.88323,32.934481 0 1 1 -0.10243,-65.86888 32.8832,32.934451 0 0 1 0.0512,65.86888 z M 512.02561,109.22002 a 32.9088,32.960091 0 1 1 0,65.92017 32.9088,32.960091 0 0 1 0,-65.92017 z m 0,808.63794 a 32.883198,32.934449 0 1 1 -0.0512,-65.86887 32.883188,32.93444 0 0 1 0,65.86887 z M 782.46679,313.75212 604.98977,479.70681 a 98.854447,99.00852 0 0 1 -22.07579,106.60087 99.264201,99.418913 0 0 1 -140.24013,0 98.854447,99.00852 0 0 1 -21.92213,-107.01127 L 298.48977,368.69415 a 38.927139,38.98781 0 0 1 0,-55.14724 39.029578,39.090409 0 0 1 55.11263,0 l 122.21073,110.65357 a 99.622741,99.778011 0 0 1 74.26889,0.15389 L 727.30294,258.60489 a 39.029578,39.090409 0 0 1 55.16385,0 38.927139,38.98781 0 0 1 0,55.09593 z m 99.36664,231.15667 a 32.88319,32.934441 0 1 1 0,-65.86888 32.88319,32.934441 0 0 1 0,65.86888 z"
     id="path833"
     style="stroke-width:1" />
</svg>
