<?xml version="1.0" encoding="UTF-8" standalone="no"?>
<svg
   xmlns:dc="http://purl.org/dc/elements/1.1/"
   xmlns:cc="http://creativecommons.org/ns#"
   xmlns:rdf="http://www.w3.org/1999/02/22-rdf-syntax-ns#"
   xmlns:svg="http://www.w3.org/2000/svg"
   xmlns="http://www.w3.org/2000/svg"
   xmlns:sodipodi="http://sodipodi.sourceforge.net/DTD/sodipodi-0.dtd"
   xmlns:inkscape="http://www.inkscape.org/namespaces/inkscape"
   class="icon"
   width="32"
   height="32"
   viewBox="0 0 192.64 192.64"
   version="1.1"
   id="svg12"
   sodipodi:docname="shuaxin.svg"
   inkscape:version="1.0.1 (c497b03c, 2020-09-10)">
  <metadata
     id="metadata18">
    <rdf:RDF>
      <cc:Work
         rdf:about="">
        <dc:format>image/svg+xml</dc:format>
        <dc:type
           rdf:resource="http://purl.org/dc/dcmitype/StillImage" />
        <dc:title></dc:title>
      </cc:Work>
    </rdf:RDF>
  </metadata>
  <defs
     id="defs16" />
  <sodipodi:namedview
     pagecolor="#ffffff"
     bordercolor="#666666"
     borderopacity="1"
     objecttolerance="10"
     gridtolerance="10"
     guidetolerance="10"
     inkscape:pageopacity="0"
     inkscape:pageshadow="2"
     inkscape:window-width="1792"
     inkscape:window-height="1120"
     id="namedview14"
     showgrid="false"
     inkscape:pagecheckerboard="true"
     scale-x="6.02"
     inkscape:zoom="3.675"
     inkscape:cx="100"
     inkscape:cy="100"
     inkscape:window-x="0"
     inkscape:window-y="0"
     inkscape:window-maximized="0"
     inkscape:current-layer="svg12" />
  <path
     d="m 159.53,24.08 c -5.418,0 -9.03,4.515 -9.03,9.03 V 48.461 C 136.955,34.013 117.992,24.08 96.32,24.08 c -39.732,0 -72.24,32.508 -72.24,72.24 0,5.418 4.515,9.03 9.03,9.03 4.515,0 9.03,-3.612 9.03,-9.03 0,-29.799 24.381,-54.18 54.18,-54.18 16.254,0 30.702,7.224 40.635,18.06 H 123.41 c -5.418,0 -9.03,3.612 -9.03,9.03 0,5.418 3.612,9.03 9.03,9.03 h 36.12 c 5.418,0 9.03,-3.612 9.03,-9.03 V 33.11 c 0,-4.515 -3.612,-9.03 -9.03,-9.03 z m 0,63.21 c -5.418,0 -9.03,3.612 -9.03,9.03 0,29.799 -24.381,54.18 -54.18,54.18 -16.254,0 -30.702,-7.224 -40.635,-18.06 H 69.23 c 5.418,0 9.03,-3.612 9.03,-9.03 0,-5.418 -3.612,-9.03 -9.03,-9.03 H 33.11 c -4.515,0 -9.03,3.612 -9.03,9.03 v 36.12 c 0,5.418 4.515,9.03 9.03,9.03 4.515,0 9.03,-3.612 9.03,-9.03 v -15.351 c 13.545,14.448 32.508,24.381 54.18,24.381 39.732,0 72.24,-32.508 72.24,-72.24 0,-5.418 -3.612,-9.03 -9.03,-9.03 z"
     id="path10"
     style="stroke-width:0.141093" />
</svg>
