<?xml version="1.0" encoding="UTF-8" standalone="no"?>
<svg
   xmlns:dc="http://purl.org/dc/elements/1.1/"
   xmlns:cc="http://creativecommons.org/ns#"
   xmlns:rdf="http://www.w3.org/1999/02/22-rdf-syntax-ns#"
   xmlns:svg="http://www.w3.org/2000/svg"
   xmlns="http://www.w3.org/2000/svg"
   xmlns:sodipodi="http://sodipodi.sourceforge.net/DTD/sodipodi-0.dtd"
   xmlns:inkscape="http://www.inkscape.org/namespaces/inkscape"
   width="200"
   height="200"
   viewBox="0 0 52.916666 52.916666"
   version="1.1"
   id="svg8"
   inkscape:version="1.0.1 (c497b03c, 2020-09-10)"
   sodipodi:docname="snapobj.svg">
  <defs
     id="defs2" />
  <sodipodi:namedview
     id="base"
     pagecolor="#ffffff"
     bordercolor="#666666"
     borderopacity="1.0"
     inkscape:pageopacity="0.0"
     inkscape:pageshadow="2"
     inkscape:zoom="3.959798"
     inkscape:cx="124.97458"
     inkscape:cy="100"
     inkscape:document-units="mm"
     inkscape:current-layer="layer1"
     inkscape:document-rotation="0"
     showgrid="true"
     units="px"
     inkscape:window-width="1792"
     inkscape:window-height="1075"
     inkscape:window-x="0"
     inkscape:window-y="23"
     inkscape:window-maximized="1">
    <inkscape:grid
       type="xygrid"
       id="grid833" />
  </sodipodi:namedview>
  <metadata
     id="metadata5">
    <rdf:RDF>
      <cc:Work
         rdf:about="">
        <dc:format>image/svg+xml</dc:format>
        <dc:type
           rdf:resource="http://purl.org/dc/dcmitype/StillImage" />
        <dc:title></dc:title>
      </cc:Work>
    </rdf:RDF>
  </metadata>
  <g
     inkscape:label="图层 1"
     inkscape:groupmode="layer"
     id="layer1">
    <path
       id="path2912"
       style="fill:#4d4d4d;stroke:none;stroke-width:5.00001;stroke-linecap:square;stroke-linejoin:round;stroke-miterlimit:4;stroke-dasharray:5.00001, 15;stroke-dashoffset:0;stroke-opacity:1;paint-order:markers stroke fill"
       d="M 65 15 L 65 30 L 70 30 L 70 15 L 65 15 z M 130 15 L 130 30 L 135 30 L 135 15 L 130 15 z M 65 40 L 65 55 L 70 55 L 70 40 L 65 40 z M 130 40 L 130 55 L 135 55 L 135 40 L 130 40 z M 15 65 L 15 70 L 30 70 L 30 65 L 15 65 z M 40 65 L 40 70 L 55 70 L 55 65 L 40 65 z M 65 65 L 65 70 L 65 80 L 70 80 L 70 70 L 80 70 L 80 65 L 70 65 L 65 65 z M 90 65 L 90 70 L 99.855469 70 A 30 30 0 0 0 70 100 A 30 30 0 0 0 99.855469 130 L 90 130 L 90 135 L 105 135 L 105 130 L 100 130 A 30 30 0 0 0 130 100.14453 L 130 105 L 135 105 L 135 90 L 130 90 L 130 100 A 30 30 0 0 0 100.14453 70 L 105 70 L 105 65 L 90 65 z M 70 100 L 70 90 L 65 90 L 65 105 L 70 105 L 70 100 z M 115 65 L 115 70 L 130 70 L 130 80 L 135 80 L 135 65 L 130 65 L 115 65 z M 140 65 L 140 70 L 155 70 L 155 65 L 140 65 z M 165 65 L 165 70 L 180 70 L 180 65 L 165 65 z M 100 80 A 19.999999 19.999999 0 0 1 120 100 A 19.999999 19.999999 0 0 1 100 120 A 19.999999 19.999999 0 0 1 80 100 A 19.999999 19.999999 0 0 1 100 80 z M 99.886719 85 A 15 15 0 0 0 85 100 A 15 15 0 0 0 100 115 A 15 15 0 0 0 115 100 A 15 15 0 0 0 100 85 A 15 15 0 0 0 99.886719 85 z M 65 115 L 65 130 L 65 135 L 80 135 L 80 130 L 70 130 L 70 115 L 65 115 z M 130 115 L 130 130 L 135 130 L 135 115 L 130 115 z M 130 130 L 115 130 L 115 135 L 130 135 L 130 130 z M 15 130 L 15 135 L 30 135 L 30 130 L 15 130 z M 40 130 L 40 135 L 55 135 L 55 130 L 40 130 z M 140 130 L 140 135 L 155 135 L 155 130 L 140 130 z M 165 130 L 165 135 L 180 135 L 180 130 L 165 130 z M 65 140 L 65 155 L 70 155 L 70 140 L 65 140 z M 130 140 L 130 155 L 135 155 L 135 140 L 130 140 z M 65 165 L 65 180 L 70 180 L 70 165 L 65 165 z M 130 165 L 130 180 L 135 180 L 135 165 L 130 165 z "
       transform="scale(0.26458333)" />
  </g>
</svg>
