<?xml version="1.0" encoding="UTF-8" standalone="no"?>
<svg
   xmlns:dc="http://purl.org/dc/elements/1.1/"
   xmlns:cc="http://creativecommons.org/ns#"
   xmlns:rdf="http://www.w3.org/1999/02/22-rdf-syntax-ns#"
   xmlns:svg="http://www.w3.org/2000/svg"
   xmlns="http://www.w3.org/2000/svg"
   xmlns:sodipodi="http://sodipodi.sourceforge.net/DTD/sodipodi-0.dtd"
   xmlns:inkscape="http://www.inkscape.org/namespaces/inkscape"
   width="200"
   height="200"
   viewBox="0 0 52.916666 52.916666"
   version="1.1"
   id="svg8"
   inkscape:version="1.0.1 (c497b03c, 2020-09-10)"
   sodipodi:docname="snapauto.svg">
  <defs
     id="defs2">
    <rect
       x="7.9375"
       y="21.166667"
       width="35.71875"
       height="11.90625"
       id="rect3041" />
  </defs>
  <sodipodi:namedview
     id="base"
     pagecolor="#ffffff"
     bordercolor="#666666"
     borderopacity="1.0"
     inkscape:pageopacity="0.0"
     inkscape:pageshadow="2"
     inkscape:zoom="3.959798"
     inkscape:cx="124.97458"
     inkscape:cy="100"
     inkscape:document-units="mm"
     inkscape:current-layer="layer1"
     inkscape:document-rotation="0"
     showgrid="true"
     units="px"
     inkscape:window-width="1792"
     inkscape:window-height="1075"
     inkscape:window-x="0"
     inkscape:window-y="23"
     inkscape:window-maximized="1">
    <inkscape:grid
       type="xygrid"
       id="grid833" />
  </sodipodi:namedview>
  <metadata
     id="metadata5">
    <rdf:RDF>
      <cc:Work
         rdf:about="">
        <dc:format>image/svg+xml</dc:format>
        <dc:type
           rdf:resource="http://purl.org/dc/dcmitype/StillImage" />
        <dc:title></dc:title>
      </cc:Work>
    </rdf:RDF>
  </metadata>
  <g
     inkscape:label="图层 1"
     inkscape:groupmode="layer"
     id="layer1">
    <path
       id="rect2923"
       style="fill:#4d4d4d;stroke:none;stroke-width:5.00001;stroke-linecap:square;stroke-linejoin:round;stroke-miterlimit:4;stroke-dasharray:5.00001, 15;stroke-dashoffset:0;stroke-opacity:1;paint-order:markers stroke fill"
       d="M 15 65 L 15 70 L 30 70 L 30 65 L 15 65 z M 40 65 L 40 70 L 55 70 L 55 65 L 40 65 z M 65 65 L 65 70 L 80 70 L 80 65 L 65 65 z M 90 65 L 90 70 L 105 70 L 105 65 L 90 65 z M 115 65 L 115 70 L 130 70 L 130 65 L 115 65 z M 140 65 L 140 70 L 155 70 L 155 65 L 140 65 z M 165 65 L 165 70 L 180 70 L 180 65 L 165 65 z M 15 130 L 15 135 L 30 135 L 30 130 L 15 130 z M 40 130 L 40 135 L 55 135 L 55 130 L 40 130 z M 65 130 L 65 135 L 80 135 L 80 130 L 65 130 z M 90 130 L 90 135 L 105 135 L 105 130 L 90 130 z M 115 130 L 115 135 L 130 135 L 130 130 L 115 130 z M 140 130 L 140 135 L 155 135 L 155 130 L 140 130 z M 165 130 L 165 135 L 180 135 L 180 130 L 165 130 z "
       transform="scale(0.26458333)" />
    <g
       aria-label="AUTO"
       transform="matrix(0.93967741,0,0,1,3.0081025,-0.60135643)"
       id="text3039"
       style="font-style:normal;font-variant:normal;font-weight:bold;font-stretch:normal;font-size:10.5833px;line-height:1.25;font-family:sans-serif;-inkscape-font-specification:'sans-serif Bold';white-space:pre;shape-inside:url(#rect3041);fill:#333333;fill-opacity:1;stroke:none;stroke-width:0.529167;stroke-miterlimit:4;stroke-dasharray:none;stroke-opacity:1">
      <path
         d="M 16.030004,30.821481 H 13.978456 L 13.44619,29.266025 h -2.85253 l -0.532265,1.555456 H 8.061523 l 2.842195,-7.694597 h 2.284091 z m -3.064403,-2.966218 -0.945676,-2.759513 -0.945676,2.759513 z"
         style="font-style:normal;font-variant:normal;font-weight:bold;font-stretch:normal;font-family:sans-serif;-inkscape-font-specification:'sans-serif Bold';fill:#333333;stroke:none;stroke-width:0.529167;stroke-miterlimit:4;stroke-dasharray:none;stroke-opacity:1"
         id="path3107" />
      <path
         d="m 23.884796,28.03613 q 0,1.426265 -0.868161,2.185906 -0.868161,0.759641 -2.557975,0.759641 -1.689814,0 -2.557975,-0.759641 -0.862994,-0.759641 -0.862994,-2.180738 v -4.914414 h 1.994704 v 4.800726 q 0,0.800982 0.335896,1.193722 0.335895,0.392739 1.090369,0.392739 0.744138,0 1.085201,-0.377237 0.346231,-0.377236 0.346231,-1.209224 v -4.800726 h 1.994704 z"
         style="font-style:normal;font-variant:normal;font-weight:bold;font-stretch:normal;font-family:sans-serif;-inkscape-font-specification:'sans-serif Bold';fill:#333333;stroke:none;stroke-width:0.529167;stroke-miterlimit:4;stroke-dasharray:none;stroke-opacity:1"
         id="path3109" />
      <path
         d="m 31.765429,24.615161 h -2.402947 v 6.20632 h -1.984369 v -6.20632 h -2.402946 v -1.488277 h 6.790262 z"
         style="font-style:normal;font-variant:normal;font-weight:bold;font-stretch:normal;font-family:sans-serif;-inkscape-font-specification:'sans-serif Bold';fill:#333333;stroke:none;stroke-width:0.529167;stroke-miterlimit:4;stroke-dasharray:none;stroke-opacity:1"
         id="path3111" />
      <path
         d="m 40.441873,26.976766 q 0,1.839676 -1.054196,2.924877 -1.054195,1.080034 -2.914541,1.080034 -1.855178,0 -2.909374,-1.080034 -1.054196,-1.085201 -1.054196,-2.924877 0,-1.855178 1.054196,-2.930044 1.054196,-1.080034 2.909374,-1.080034 1.85001,0 2.909374,1.080034 1.059363,1.074866 1.059363,2.930044 z m -2.630322,1.948196 q 0.289387,-0.351399 0.428913,-0.826821 0.139526,-0.480589 0.139526,-1.126542 0,-0.692462 -0.160196,-1.178219 -0.160197,-0.485757 -0.418578,-0.785479 -0.263549,-0.310058 -0.60978,-0.449584 -0.341063,-0.139526 -0.713132,-0.139526 -0.377237,0 -0.713133,0.134358 -0.330728,0.134359 -0.60978,0.444416 -0.258381,0.289387 -0.423745,0.800983 -0.160197,0.506427 -0.160197,1.178218 0,0.687295 0.155029,1.173052 0.160197,0.480589 0.418578,0.785479 0.258381,0.30489 0.604612,0.449583 0.346231,0.144694 0.728636,0.144694 0.382404,0 0.728635,-0.144694 0.346231,-0.149861 0.604612,-0.459918 z"
         style="font-style:normal;font-variant:normal;font-weight:bold;font-stretch:normal;font-family:sans-serif;-inkscape-font-specification:'sans-serif Bold';fill:#333333;stroke:none;stroke-width:0.529167;stroke-miterlimit:4;stroke-dasharray:none;stroke-opacity:1"
         id="path3113" />
    </g>
    <path
       id="rect3053"
       style="fill:#333333;stroke:none;stroke-width:2;stroke-linecap:square;stroke-linejoin:round;stroke-miterlimit:4;stroke-dasharray:none;stroke-dashoffset:0;stroke-opacity:1;paint-order:markers stroke fill"
       d="M 30 50 L 30 60 L 35 60 L 35 50 L 30 50 z M 160 50 L 160 60 L 165 60 L 165 50 L 160 50 z M 30 70 L 30 85 L 35 85 L 35 70 L 30 70 z M 160 70 L 160 85 L 165 85 L 165 70 L 160 70 z M 30 95 L 30 110 L 35 110 L 35 95 L 30 95 z M 160 95 L 160 110 L 165 110 L 165 95 L 160 95 z M 30 120 L 30 130 L 35 130 L 35 120 L 30 120 z M 160 120 L 160 130 L 165 130 L 165 120 L 160 120 z M 30 140 L 30 150 L 35 150 L 35 140 L 30 140 z M 160 140 L 160 150 L 165 150 L 165 140 L 160 140 z "
       transform="scale(0.26458333)" />
  </g>
</svg>
