<svg width="24" height="24" viewBox="0 0 24 24" fill="none" xmlns="http://www.w3.org/2000/svg">
<path d="M19.5 6.16669C19.5 7.5474 16.1421 8.66669 12 8.66669C7.85786 8.66669 4.5 7.5474 4.5 6.16669M19.5 6.16669C19.5 4.78598 16.1421 3.66669 12 3.66669C7.85786 3.66669 4.5 4.78598 4.5 6.16669M19.5 6.16669V17.8334C19.5 19.2167 16.1667 20.3334 12 20.3334C7.83333 20.3334 4.5 19.2167 4.5 17.8334V6.16669M19.5 12C19.5 13.3834 16.1667 14.5 12 14.5C7.83333 14.5 4.5 13.3834 4.5 12" stroke="#1E1E1E" stroke-width="2" stroke-linecap="round" stroke-linejoin="round"/>
</svg>
