<?xml version="1.0" encoding="UTF-8" standalone="no"?>
<svg
   xmlns:dc="http://purl.org/dc/elements/1.1/"
   xmlns:cc="http://creativecommons.org/ns#"
   xmlns:rdf="http://www.w3.org/1999/02/22-rdf-syntax-ns#"
   xmlns:svg="http://www.w3.org/2000/svg"
   xmlns="http://www.w3.org/2000/svg"
   xmlns:sodipodi="http://sodipodi.sourceforge.net/DTD/sodipodi-0.dtd"
   xmlns:inkscape="http://www.inkscape.org/namespaces/inkscape"
   class="icon"
   width="200"
   height="200"
   viewBox="0 0 200 200"
   version="1.1"
   id="svg16"
   sodipodi:docname="var_num.svg"
   inkscape:version="1.0.1 (c497b03c, 2020-09-10)">
  <metadata
     id="metadata22">
    <rdf:RDF>
      <cc:Work
         rdf:about="">
        <dc:format>image/svg+xml</dc:format>
        <dc:type
           rdf:resource="http://purl.org/dc/dcmitype/StillImage" />
        <dc:title />
      </cc:Work>
    </rdf:RDF>
  </metadata>
  <defs
     id="defs20" />
  <sodipodi:namedview
     pagecolor="#ffffff"
     bordercolor="#666666"
     borderopacity="1"
     objecttolerance="10"
     gridtolerance="10"
     guidetolerance="10"
     inkscape:pageopacity="0"
     inkscape:pageshadow="2"
     inkscape:window-width="1792"
     inkscape:window-height="1075"
     id="namedview18"
     showgrid="true"
     inkscape:zoom="4"
     inkscape:cx="110.13368"
     inkscape:cy="108.44871"
     inkscape:window-x="0"
     inkscape:window-y="23"
     inkscape:window-maximized="0"
     inkscape:current-layer="svg16"
     inkscape:document-rotation="0">
    <inkscape:grid
       type="xygrid"
       id="grid2131" />
  </sodipodi:namedview>
  <g
     aria-label="3.14"
     transform="scale(0.87526212,1.1425149)"
     id="text960"
     style="font-size:57.7865px;line-height:1.25;font-family:'Big Caslon';-inkscape-font-specification:'Big Caslon';letter-spacing:14.4466px;word-spacing:14.4466px;stroke-width:1.44466">
    <path
       d="m 75.835352,87.92712 q 1.382588,1.185075 2.200853,2.765175 0.818266,1.580099 0.818266,4.204193 0,2.962687 -1.185074,5.530352 -1.156859,2.56766 -3.583441,4.4017 -2.370149,1.77761 -5.58678,2.73696 -3.188415,0.93113 -7.759418,0.93113 -5.219972,0 -8.972708,-0.81826 -3.724521,-0.81827 -6.066454,-1.83405 v -9.226652 h 1.100427 q 2.426581,1.467235 5.784293,2.539446 3.385927,1.072206 6.179318,1.072206 1.636531,0 3.555224,-0.25394 1.918692,-0.282161 3.244847,-1.185075 1.043995,-0.705402 1.664748,-1.692964 0.620753,-1.015778 0.620753,-2.906254 0,-1.834045 -0.846482,-2.821607 -0.846482,-1.015778 -2.229069,-1.439019 -1.382587,-0.451457 -3.329495,-0.479673 -1.946909,-0.05643 -3.611656,-0.05643 h -2.313718 v -7.505473 h 2.398366 q 2.200853,0 3.893817,-0.141081 1.692963,-0.14108 2.878038,-0.648969 1.241507,-0.536105 1.86226,-1.410803 0.620754,-0.902914 0.620754,-2.624094 0,-1.269723 -0.64897,-2.031557 -0.648969,-0.79005 -1.636531,-1.241507 -1.100427,-0.507889 -2.595878,-0.677185 -1.495452,-0.169297 -2.567662,-0.169297 -2.65231,0 -5.756077,0.93113 -3.103767,0.902915 -6.010022,2.624094 h -1.043994 v -9.113788 q 2.313717,-0.93113 6.292182,-1.777612 3.978465,-0.874698 8.069794,-0.874698 3.978465,0 6.969368,0.705401 2.990903,0.677186 4.937811,1.834044 2.313718,1.382588 3.44236,3.357712 1.128643,1.975125 1.128643,4.627435 0,3.498792 -2.172637,6.263966 -2.172637,2.736958 -5.727861,3.498792 v 0.395025 q 1.439019,0.197512 3.047335,0.790049 1.608315,0.592538 2.93447,1.72118 z"
       style="font-style:normal;font-variant:normal;font-weight:bold;font-stretch:normal;font-family:'Al Bayan';-inkscape-font-specification:'Al Bayan Bold';letter-spacing:0px;stroke-width:1.44466"
       id="path2868" />
    <path
       d="m 87.513642,104.44368 q 0,-1.15573 0.809011,-2.02253 0.809011,-0.8668 1.964741,-0.8668 1.15573,0 2.022527,0.8668 0.866798,0.8668 0.866798,2.08031 0,1.09795 -0.809011,1.96474 -0.809011,0.8668 -1.964741,0.8668 -1.15573,0 -2.022528,-0.8668 -0.866797,-0.86679 -0.866797,-2.02252 z"
       style="font-style:normal;font-variant:normal;font-weight:bold;font-stretch:normal;font-family:'Al Bayan';-inkscape-font-specification:'Al Bayan Bold';letter-spacing:0px;stroke-width:1.44466"
       id="path2870" />
    <path
       d="m 138.47501,107.62193 h -28.04677 v -7.33617 h 8.85985 V 78.079714 h -8.85985 V 71.22321 q 2.03156,0 3.89382,-0.225728 1.86226,-0.253945 3.10377,-0.846482 1.46723,-0.705402 2.20085,-1.834044 0.73362,-1.128643 0.84648,-2.821607 h 9.33952 v 34.790411 h 8.66233 z"
       style="font-style:normal;font-variant:normal;font-weight:bold;font-stretch:normal;font-family:'Al Bayan';-inkscape-font-specification:'Al Bayan Bold';letter-spacing:0px;stroke-width:1.44466"
       id="path2872" />
    <path
       d="m 182.80245,97.943823 h -5.72786 v 9.790977 h -10.3553 v -9.790977 h -20.34378 v -7.95693 l 19.6666,-24.378679 h 11.03248 v 24.66084 h 5.72786 z M 166.71929,90.269054 V 75.088811 l -12.21755,15.180243 z"
       style="font-style:normal;font-variant:normal;font-weight:bold;font-stretch:normal;font-family:'Al Bayan';-inkscape-font-specification:'Al Bayan Bold';letter-spacing:0px;stroke-width:1.44466"
       id="path2874" />
  </g>
  <rect
     style="fill:none;fill-rule:evenodd;stroke:#333333;stroke-width:10;stroke-linecap:round;stroke-miterlimit:4;stroke-dasharray:none;stroke-opacity:1;paint-order:markers fill stroke"
     id="rect964"
     width="160"
     height="120"
     x="20"
     y="40"
     rx="20"
     ry="20" />
  <circle
     style="fill:#333333;fill-rule:evenodd;stroke:none;stroke-width:10;stroke-linecap:round;stroke-miterlimit:4;stroke-dasharray:none;stroke-opacity:1;paint-order:markers fill stroke"
     id="path1040"
     cx="80.5"
     cy="118.5"
     r="5" />
</svg>
