<?xml version="1.0" encoding="UTF-8" standalone="no"?>
<svg
   xmlns:dc="http://purl.org/dc/elements/1.1/"
   xmlns:cc="http://creativecommons.org/ns#"
   xmlns:rdf="http://www.w3.org/1999/02/22-rdf-syntax-ns#"
   xmlns:svg="http://www.w3.org/2000/svg"
   xmlns="http://www.w3.org/2000/svg"
   xmlns:sodipodi="http://sodipodi.sourceforge.net/DTD/sodipodi-0.dtd"
   xmlns:inkscape="http://www.inkscape.org/namespaces/inkscape"
   class="icon"
   width="200"
   height="200"
   viewBox="0 0 200 200"
   version="1.1"
   id="svg16"
   sodipodi:docname="var_int.svg"
   inkscape:version="1.0.1 (c497b03c, 2020-09-10)">
  <metadata
     id="metadata22">
    <rdf:RDF>
      <cc:Work
         rdf:about="">
        <dc:format>image/svg+xml</dc:format>
        <dc:type
           rdf:resource="http://purl.org/dc/dcmitype/StillImage" />
        <dc:title />
      </cc:Work>
    </rdf:RDF>
  </metadata>
  <defs
     id="defs20" />
  <sodipodi:namedview
     pagecolor="#ffffff"
     bordercolor="#666666"
     borderopacity="1"
     objecttolerance="10"
     gridtolerance="10"
     guidetolerance="10"
     inkscape:pageopacity="0"
     inkscape:pageshadow="2"
     inkscape:window-width="1792"
     inkscape:window-height="1075"
     id="namedview18"
     showgrid="true"
     inkscape:zoom="4"
     inkscape:cx="110.13368"
     inkscape:cy="108.44871"
     inkscape:window-x="0"
     inkscape:window-y="23"
     inkscape:window-maximized="0"
     inkscape:current-layer="svg16"
     inkscape:document-rotation="0">
    <inkscape:grid
       type="xygrid"
       id="grid2131" />
  </sodipodi:namedview>
  <g
     aria-label="123"
     transform="scale(0.88494917,1.1300084)"
     id="text960"
     style="font-size:58.426px;line-height:1.25;font-family:'Big Caslon';-inkscape-font-specification:'Big Caslon';letter-spacing:14.6065px;word-spacing:14.6065px;stroke-width:1.46065">
    <path
       d="m 84.857571,109.73423 h -28.35715 v -7.41736 h 8.957893 V 79.865079 h -8.957893 v -6.932381 q 2.054039,0 3.936908,-0.228227 1.882869,-0.256755 3.138115,-0.855849 1.483473,-0.713208 2.225209,-1.854341 0.741737,-1.141133 0.85585,-2.852832 h 9.442874 v 35.175421 h 8.758194 z"
       style="font-style:normal;font-variant:normal;font-weight:bold;font-stretch:normal;font-family:'Al Bayan';-inkscape-font-specification:'Al Bayan Bold';letter-spacing:0px;stroke-width:1.46065"
       id="path1113" />
    <path
       d="M 129.07647,109.73423 H 95.726863 v -7.01797 q 3.822794,-2.767244 7.645587,-5.87683 3.85133,-3.109587 6.16212,-5.363325 3.45193,-3.337813 4.90687,-5.819777 1.45494,-2.481964 1.45494,-4.906871 0,-2.909888 -1.88286,-4.478946 -1.85435,-1.597586 -5.36333,-1.597586 -2.6246,0 -5.53449,1.084076 -2.88136,1.084076 -5.363327,2.767247 h -0.912906 v -9.442873 q 2.025511,-0.884378 5.962423,-1.768756 3.96543,-0.884378 7.93087,-0.884378 7.98793,0 12.18159,3.366342 4.19366,3.337813 4.19366,9.471402 0,4.022493 -2.02551,7.645589 -1.99698,3.623097 -6.13359,7.47442 -2.59607,2.396379 -5.22068,4.42189 -2.6246,1.996986 -3.73721,2.795776 h 19.08545 z"
       style="font-style:normal;font-variant:normal;font-weight:bold;font-stretch:normal;font-family:'Al Bayan';-inkscape-font-specification:'Al Bayan Bold';letter-spacing:0px;stroke-width:1.46065"
       id="path1115" />
    <path
       d="m 166.44857,89.821463 q 1.39789,1.198189 2.22521,2.795775 0.82732,1.597586 0.82732,4.25072 0,2.995473 -1.19819,5.591552 -1.16966,2.59608 -3.6231,4.45042 -2.39638,1.79728 -5.6486,2.76724 -3.2237,0.94144 -7.84529,0.94144 -5.27774,0 -9.07201,-0.82732 -3.76574,-0.82732 -6.13359,-1.85434 v -9.328765 h 1.11261 q 2.45343,1.483475 5.8483,2.567545 3.4234,1.08408 6.24771,1.08408 1.65464,0 3.59456,-0.25675 1.93993,-0.28529 3.28076,-1.19819 1.05555,-0.71321 1.68317,-1.711703 0.62762,-1.02702 0.62762,-2.938417 0,-1.854341 -0.85585,-2.852832 -0.85584,-1.02702 -2.25373,-1.454944 -1.39789,-0.456454 -3.36634,-0.484982 -1.96846,-0.05706 -3.65163,-0.05706 h -2.33932 v -7.588533 h 2.42491 q 2.2252,0 3.9369,-0.142642 1.7117,-0.142642 2.90989,-0.656151 1.25525,-0.542039 1.88287,-1.426416 0.62762,-0.912907 0.62762,-2.653134 0,-1.283775 -0.65615,-2.054039 -0.65615,-0.798793 -1.65464,-1.255246 -1.1126,-0.51351 -2.6246,-0.68468 -1.51201,-0.17117 -2.59608,-0.17117 -2.68166,0 -5.81978,0.941435 -3.13811,0.912906 -6.07653,2.653133 h -1.05555 v -9.214647 q 2.33932,-0.941434 6.36182,-1.797284 4.02249,-0.884378 8.1591,-0.884378 4.02249,0 7.04649,0.713208 3.024,0.68468 4.99246,1.854341 2.33932,1.397888 3.48045,3.39487 1.14113,1.996982 1.14113,4.678644 0,3.537512 -2.19668,6.333287 -2.19668,2.767247 -5.79124,3.537512 v 0.399396 q 1.45494,0.199699 3.08105,0.798793 1.62612,0.599095 2.96695,1.740228 z"
       style="font-style:normal;font-variant:normal;font-weight:bold;font-stretch:normal;font-family:'Al Bayan';-inkscape-font-specification:'Al Bayan Bold';letter-spacing:0px;stroke-width:1.46065"
       id="path1117" />
  </g>
  <rect
     style="fill:none;fill-rule:evenodd;stroke:#333333;stroke-width:10;stroke-linecap:round;stroke-miterlimit:4;stroke-dasharray:none;stroke-opacity:1;paint-order:markers fill stroke"
     id="rect964"
     width="160"
     height="120"
     x="20"
     y="40"
     rx="20"
     ry="20" />
</svg>
