<?xml version="1.0" encoding="UTF-8" standalone="no"?>
<svg
   xmlns:dc="http://purl.org/dc/elements/1.1/"
   xmlns:cc="http://creativecommons.org/ns#"
   xmlns:rdf="http://www.w3.org/1999/02/22-rdf-syntax-ns#"
   xmlns:svg="http://www.w3.org/2000/svg"
   xmlns="http://www.w3.org/2000/svg"
   xmlns:sodipodi="http://sodipodi.sourceforge.net/DTD/sodipodi-0.dtd"
   xmlns:inkscape="http://www.inkscape.org/namespaces/inkscape"
   class="icon"
   width="200"
   height="200"
   viewBox="0 0 200 200"
   version="1.1"
   id="svg16"
   sodipodi:docname="var_str.svg"
   inkscape:version="1.0.1 (c497b03c, 2020-09-10)">
  <metadata
     id="metadata22">
    <rdf:RDF>
      <cc:Work
         rdf:about="">
        <dc:format>image/svg+xml</dc:format>
        <dc:type
           rdf:resource="http://purl.org/dc/dcmitype/StillImage" />
        <dc:title />
      </cc:Work>
    </rdf:RDF>
  </metadata>
  <defs
     id="defs20" />
  <sodipodi:namedview
     pagecolor="#ffffff"
     bordercolor="#666666"
     borderopacity="1"
     objecttolerance="10"
     gridtolerance="10"
     guidetolerance="10"
     inkscape:pageopacity="0"
     inkscape:pageshadow="2"
     inkscape:window-width="1792"
     inkscape:window-height="1075"
     id="namedview18"
     showgrid="true"
     inkscape:zoom="4"
     inkscape:cx="110.13368"
     inkscape:cy="108.44871"
     inkscape:window-x="0"
     inkscape:window-y="23"
     inkscape:window-maximized="0"
     inkscape:current-layer="svg16"
     inkscape:document-rotation="0">
    <inkscape:grid
       type="xygrid"
       id="grid2131" />
  </sodipodi:namedview>
  <g
     aria-label="Str"
     transform="scale(0.97249937,1.0282783)"
     id="text960"
     style="font-size:64.5392px;line-height:1.25;font-family:'Big Caslon';-inkscape-font-specification:'Big Caslon';letter-spacing:16.1348px;word-spacing:16.1348px;stroke-width:1.61348">
    <path
       d="m 91.530324,105.96338 q 0,6.93292 -5.892983,11.28175 -5.861471,4.31732 -15.945721,4.31732 -5.829957,0 -10.17879,-1.00842 -4.317319,-1.03994 -8.098913,-2.61561 v -11.25024 h 1.323558 q 3.75008,2.99377 8.382533,4.60094 4.663965,1.60718 8.949772,1.60718 1.102965,0 2.899222,-0.18908 1.796257,-0.18908 2.930735,-0.63027 1.386584,-0.56723 2.268956,-1.41809 0.913885,-0.85086 0.913885,-2.52107 0,-1.54415 -1.323558,-2.64711 -1.292044,-1.13448 -3.813107,-1.73323 -2.647115,-0.63027 -5.609364,-1.16599 -2.930735,-0.56724 -5.514824,-1.4181 -5.924497,-1.922311 -8.540099,-5.199692 -2.584089,-3.308895 -2.584089,-8.193453 0,-6.554763 5.86147,-10.683003 5.892984,-4.159753 15.126375,-4.159753 4.632452,0 9.138852,0.913886 4.537912,0.882371 7.846807,2.237442 v 10.809056 h -1.292045 q -2.836195,-2.268956 -6.964435,-3.781594 -4.096727,-1.544151 -8.382533,-1.544151 -1.512637,0 -3.025275,0.220593 -1.481124,0.18908 -2.867708,0.756319 -1.229018,0.472699 -2.11139,1.449611 -0.882372,0.945399 -0.882372,2.174416 0,1.859284 1.418097,2.867709 1.418098,0.976912 5.357258,1.796257 2.584089,0.535726 4.947585,1.039938 2.39501,0.504213 5.136665,1.386585 5.388771,1.764743 7.941347,4.821532 2.584089,3.025272 2.584089,7.878322 z"
       style="font-style:normal;font-variant:normal;font-weight:bold;font-stretch:normal;font-family:'Al Bayan';-inkscape-font-specification:'Al Bayan Bold';letter-spacing:0px;stroke-width:1.61348"
       id="path1714" />
    <path
       d="m 121.8461,120.39646 q -1.82777,0.4727 -3.87613,0.72481 -2.04836,0.28362 -5.01061,0.28362 -6.61779,0 -9.86366,-2.67863 -3.214355,-2.67863 -3.214355,-9.17037 V 93.011419 H 95.21738 v -7.68924 h 4.663965 V 75.206416 h 11.344785 v 10.115763 h 10.61997 v 7.68924 h -10.61997 v 12.542291 q 0,1.85928 0.0315,3.24586 0.0315,1.38659 0.50421,2.48955 0.44119,1.10297 1.54415,1.76475 1.13448,0.63026 3.27738,0.63026 0.88238,0 2.30047,-0.37816 1.44961,-0.37816 2.01685,-0.69329 h 0.9454 z"
       style="font-style:normal;font-variant:normal;font-weight:bold;font-stretch:normal;font-family:'Al Bayan';-inkscape-font-specification:'Al Bayan Bold';letter-spacing:0px;stroke-width:1.61348"
       id="path1716" />
    <path
       d="m 154.24175,96.131234 h -1.00842 q -0.72481,-0.252106 -2.33198,-0.378159 -1.60718,-0.126053 -2.67863,-0.126053 -2.42653,0 -4.28581,0.315133 -1.85928,0.315132 -4.00219,1.071451 V 120.71159 H 128.58994 V 85.322179 h 11.34478 v 5.199691 q 3.75008,-3.214354 6.52325,-4.254293 2.77317,-1.071451 5.10515,-1.071451 0.59876,0 1.35508,0.03151 0.75631,0.03151 1.32355,0.09454 z"
       style="font-style:normal;font-variant:normal;font-weight:bold;font-stretch:normal;font-family:'Al Bayan';-inkscape-font-specification:'Al Bayan Bold';letter-spacing:0px;stroke-width:1.61348"
       id="path1718" />
  </g>
  <rect
     style="fill:none;fill-rule:evenodd;stroke:#333333;stroke-width:10;stroke-linecap:round;stroke-miterlimit:4;stroke-dasharray:none;stroke-opacity:1;paint-order:markers fill stroke"
     id="rect964"
     width="160"
     height="120"
     x="20"
     y="40"
     rx="20"
     ry="20" />
</svg>
