<?xml version="1.0" encoding="UTF-8" standalone="no"?>
<svg
   xmlns:dc="http://purl.org/dc/elements/1.1/"
   xmlns:cc="http://creativecommons.org/ns#"
   xmlns:rdf="http://www.w3.org/1999/02/22-rdf-syntax-ns#"
   xmlns:svg="http://www.w3.org/2000/svg"
   xmlns="http://www.w3.org/2000/svg"
   xmlns:sodipodi="http://sodipodi.sourceforge.net/DTD/sodipodi-0.dtd"
   xmlns:inkscape="http://www.inkscape.org/namespaces/inkscape"
   class="icon"
   width="200"
   height="200"
   viewBox="0 0 200 200"
   version="1.1"
   id="svg16"
   sodipodi:docname="var_auto.svg"
   inkscape:version="1.0.1 (c497b03c, 2020-09-10)">
  <metadata
     id="metadata22">
    <rdf:RDF>
      <cc:Work
         rdf:about="">
        <dc:format>image/svg+xml</dc:format>
        <dc:type
           rdf:resource="http://purl.org/dc/dcmitype/StillImage" />
        <dc:title />
      </cc:Work>
    </rdf:RDF>
  </metadata>
  <defs
     id="defs20" />
  <sodipodi:namedview
     pagecolor="#ffffff"
     bordercolor="#666666"
     borderopacity="1"
     objecttolerance="10"
     gridtolerance="10"
     guidetolerance="10"
     inkscape:pageopacity="0"
     inkscape:pageshadow="2"
     inkscape:window-width="1792"
     inkscape:window-height="1075"
     id="namedview18"
     showgrid="true"
     inkscape:zoom="4"
     inkscape:cx="110.13368"
     inkscape:cy="108.44871"
     inkscape:window-x="0"
     inkscape:window-y="23"
     inkscape:window-maximized="0"
     inkscape:current-layer="svg16"
     inkscape:document-rotation="0">
    <inkscape:grid
       type="xygrid"
       id="grid2131" />
  </sodipodi:namedview>
  <g
     aria-label="VAR"
     transform="scale(0.8376736,1.1937824)"
     id="text960"
     style="font-size:57.6076px;line-height:1.25;font-family:'Big Caslon';-inkscape-font-specification:'Big Caslon';letter-spacing:14.4019px;word-spacing:14.4019px;stroke-width:1.44019">
    <path
       d="M 102.45162,62.825531 87.177733,104.70918 H 75.082387 L 59.808497,62.825531 h 11.33587 L 81.270704,92.248164 91.39704,62.825531 Z"
       style="letter-spacing:-7.20095px;stroke-width:1.44019"
       id="path2291" />
    <path
       d="m 139.97532,104.70918 h -11.16709 l -2.89726,-8.466739 h -15.52705 l -2.89726,8.466739 H 96.600851 L 112.07164,62.825531 h 12.43289 z M 123.295,88.563302 118.14744,73.54257 112.99989,88.563302 Z"
       style="letter-spacing:-7.20095px;stroke-width:1.44019"
       id="path2293" />
    <path
       d="m 162.33765,75.652224 q 0,-1.575208 -0.64696,-2.700357 -0.64696,-1.125148 -2.22217,-1.772108 -1.09702,-0.45006 -2.55971,-0.534446 -1.46269,-0.112515 -3.40357,-0.112515 h -3.90989 v 11.279614 h 3.31918 q 2.58784,0 4.33182,-0.253159 1.74398,-0.253158 2.92539,-1.153277 1.12515,-0.87199 1.63147,-1.912752 0.53444,-1.068891 0.53444,-2.841 z m 16.8491,29.056956 H 165.99438 L 154.57413,89.350906 h -4.97878 V 104.70918 H 138.85018 V 62.825531 h 18.11489 q 3.71299,0 6.38521,0.421931 2.67223,0.421931 5.00692,1.828366 2.36281,1.406436 3.74111,3.656733 1.40644,2.222168 1.40644,5.597613 0,4.641238 -2.16591,7.566624 -2.13778,2.925386 -6.13206,4.866267 z"
       style="font-style:normal;font-variant:normal;font-weight:bold;font-stretch:normal;font-family:'Al Bayan';-inkscape-font-specification:'Al Bayan Bold';letter-spacing:0px;stroke-width:1.44019"
       id="path2295" />
  </g>
  <rect
     style="fill:none;fill-rule:evenodd;stroke:#333333;stroke-width:10;stroke-linecap:round;stroke-miterlimit:4;stroke-dasharray:none;stroke-opacity:1;paint-order:markers fill stroke"
     id="rect964"
     width="160"
     height="120"
     x="20"
     y="40"
     rx="20"
     ry="20" />
</svg>
