<?xml version="1.0" encoding="UTF-8" standalone="no"?>
<svg
   xmlns:dc="http://purl.org/dc/elements/1.1/"
   xmlns:cc="http://creativecommons.org/ns#"
   xmlns:rdf="http://www.w3.org/1999/02/22-rdf-syntax-ns#"
   xmlns:svg="http://www.w3.org/2000/svg"
   xmlns="http://www.w3.org/2000/svg"
   xmlns:sodipodi="http://sodipodi.sourceforge.net/DTD/sodipodi-0.dtd"
   xmlns:inkscape="http://www.inkscape.org/namespaces/inkscape"
   class="icon"
   width="200"
   height="200"
   viewBox="0 0 200 200"
   version="1.1"
   id="svg16"
   sodipodi:docname="wait.svg"
   inkscape:version="1.0.1 (c497b03c, 2020-09-10)">
  <metadata
     id="metadata22">
    <rdf:RDF>
      <cc:Work
         rdf:about="">
        <dc:format>image/svg+xml</dc:format>
        <dc:type
           rdf:resource="http://purl.org/dc/dcmitype/StillImage" />
        <dc:title></dc:title>
      </cc:Work>
    </rdf:RDF>
  </metadata>
  <defs
     id="defs20" />
  <sodipodi:namedview
     pagecolor="#ffffff"
     bordercolor="#666666"
     borderopacity="1"
     objecttolerance="10"
     gridtolerance="10"
     guidetolerance="10"
     inkscape:pageopacity="0"
     inkscape:pageshadow="2"
     inkscape:window-width="1792"
     inkscape:window-height="1075"
     id="namedview18"
     showgrid="true"
     inkscape:zoom="3.7463453"
     inkscape:cx="122.68491"
     inkscape:cy="100.22404"
     inkscape:window-x="0"
     inkscape:window-y="23"
     inkscape:window-maximized="1"
     inkscape:current-layer="svg16"
     inkscape:document-rotation="0">
    <inkscape:grid
       type="xygrid"
       id="grid2131" />
  </sodipodi:namedview>
  <path
     id="path858-1"
     style="fill:#333333;fill-opacity:0.7;stroke:none;stroke-width:8.94427;stroke-linecap:butt;stroke-linejoin:miter;stroke-miterlimit:4;stroke-dasharray:none;stroke-opacity:1"
     d="M 53.975,150 C 52.733941,153.30976 52,156.65428 52,160 v 10 h 96 v -10 c 0,-3.34572 -0.73394,-6.69024 -1.975,-10 0,0 -29.29744,-25 -46.025,-25 -16.727558,0 -46.025,25 -46.025,25 z"
     sodipodi:nodetypes="csccscac" />
  <path
     id="path858-7"
     style="fill:#333333;fill-opacity:0.7;stroke:none;stroke-width:8.94427;stroke-linecap:butt;stroke-linejoin:miter;stroke-miterlimit:4;stroke-dasharray:none;stroke-opacity:1"
     d="M 62.8,65 C 74.646818,80.316633 92,93.412977 92,100 c 0,0 5.018576,5 8,5 2.98142,0 8,-5 8,-5 0,-6.587023 17.35318,-19.683367 29.2,-35 0,0 -24.5165,10 -37.2,10 C 87.316502,75 62.8,65 62.8,65 Z"
     sodipodi:nodetypes="ccaccac" />
  <path
     style="fill:none;fill-opacity:1;stroke:#333333;stroke-width:10;stroke-linecap:butt;stroke-linejoin:miter;stroke-miterlimit:4;stroke-dasharray:none;stroke-opacity:1"
     d="m 52,40 c 0,25 40,50 40,60 0,10 -40,35 -40,60 v 10 h 96 v -10 c 0,-25 -40,-50 -40,-60 0,-10 40,-35 40,-60 V 30 H 52 Z"
     id="path858"
     sodipodi:nodetypes="ssscccssccs" />
  <rect
     style="fill:#333333;fill-opacity:1;fill-rule:evenodd;stroke:none;stroke-width:8.94427;stroke-linecap:round;stroke-miterlimit:4;stroke-dasharray:none;stroke-opacity:1;paint-order:markers fill stroke"
     id="rect860"
     width="120"
     height="15"
     x="40"
     y="15" />
  <rect
     style="fill:#333333;fill-opacity:1;fill-rule:evenodd;stroke:none;stroke-width:8.94427;stroke-linecap:round;stroke-miterlimit:4;stroke-dasharray:none;stroke-opacity:1;paint-order:markers fill stroke"
     id="rect862"
     width="120"
     height="15"
     x="40"
     y="170"
     ry="0.266922"
     rx="0.266922" />
</svg>
