<?xml version="1.0" encoding="UTF-8" standalone="no"?>
<svg
   xmlns:dc="http://purl.org/dc/elements/1.1/"
   xmlns:cc="http://creativecommons.org/ns#"
   xmlns:rdf="http://www.w3.org/1999/02/22-rdf-syntax-ns#"
   xmlns:svg="http://www.w3.org/2000/svg"
   xmlns="http://www.w3.org/2000/svg"
   xmlns:sodipodi="http://sodipodi.sourceforge.net/DTD/sodipodi-0.dtd"
   xmlns:inkscape="http://www.inkscape.org/namespaces/inkscape"
   width="200"
   height="200"
   viewBox="0 0 52.916666 52.916666"
   version="1.1"
   id="svg8"
   inkscape:version="1.0.1 (c497b03c, 2020-09-10)"
   sodipodi:docname="web.svg">
  <defs
     id="defs2" />
  <sodipodi:namedview
     id="base"
     pagecolor="#ffffff"
     bordercolor="#666666"
     borderopacity="1.0"
     inkscape:pageopacity="0.0"
     inkscape:pageshadow="2"
     inkscape:zoom="4"
     inkscape:cx="95.287637"
     inkscape:cy="99.681047"
     inkscape:document-units="mm"
     inkscape:current-layer="layer1"
     inkscape:document-rotation="0"
     showgrid="true"
     units="px"
     inkscape:window-width="1792"
     inkscape:window-height="1075"
     inkscape:window-x="0"
     inkscape:window-y="23"
     inkscape:window-maximized="1">
    <inkscape:grid
       type="xygrid"
       id="grid833" />
  </sodipodi:namedview>
  <metadata
     id="metadata5">
    <rdf:RDF>
      <cc:Work
         rdf:about="">
        <dc:format>image/svg+xml</dc:format>
        <dc:type
           rdf:resource="http://purl.org/dc/dcmitype/StillImage" />
        <dc:title></dc:title>
      </cc:Work>
    </rdf:RDF>
  </metadata>
  <g
     inkscape:label="图层 1"
     inkscape:groupmode="layer"
     id="layer1">
    <circle
       style="fill:none;stroke-width:2.64583333;stroke-linecap:round;stroke-linejoin:round;paint-order:markers stroke fill;fill-opacity:1;stroke:#333333;stroke-opacity:1;stroke-miterlimit:4;stroke-dasharray:none"
       id="path9900"
       cx="26.458332"
       cy="26.458332"
       r="22.489584" />
    <path
       id="rect9902"
       style="fill:#333333;fill-opacity:1;stroke:none;stroke-width:9.99999;stroke-linecap:round;stroke-linejoin:round;stroke-miterlimit:4;stroke-dasharray:none;stroke-opacity:1;paint-order:markers stroke fill"
       d="M 120.11719 17.416016 C 120.04509 18.268123 120 19.128618 120 20 L 120 40 C 103.38 40 90 53.38 90 70 L 120 70 L 120 80 C 120 96.62 133.38 110 150 110 C 166.62 110 180 96.62 180 80 L 180 71.28125 A 85.000003 85.000003 0 0 0 120.11719 17.416016 z M 15.453125 91.25 A 85.000003 85.000003 0 0 0 15 100 A 85.000003 85.000003 0 0 0 75 181.24023 L 75 130 L 110 130 C 110 108.5325 96.62 91.25 80 91.25 L 15.453125 91.25 z "
       transform="scale(0.26458333)" />
  </g>
</svg>
