<?xml version="1.0" encoding="UTF-8" standalone="no"?>
<svg
   xmlns:dc="http://purl.org/dc/elements/1.1/"
   xmlns:cc="http://creativecommons.org/ns#"
   xmlns:rdf="http://www.w3.org/1999/02/22-rdf-syntax-ns#"
   xmlns:svg="http://www.w3.org/2000/svg"
   xmlns="http://www.w3.org/2000/svg"
   xmlns:sodipodi="http://sodipodi.sourceforge.net/DTD/sodipodi-0.dtd"
   xmlns:inkscape="http://www.inkscape.org/namespaces/inkscape"
   class="icon"
   width="32"
   height="32"
   viewBox="0 0 163.84 163.84"
   version="1.1"
   id="svg12"
   sodipodi:docname="xiazai.svg"
   inkscape:version="1.0.1 (c497b03c, 2020-09-10)">
  <metadata
     id="metadata18">
    <rdf:RDF>
      <cc:Work
         rdf:about="">
        <dc:format>image/svg+xml</dc:format>
        <dc:type
           rdf:resource="http://purl.org/dc/dcmitype/StillImage" />
        <dc:title></dc:title>
      </cc:Work>
    </rdf:RDF>
  </metadata>
  <defs
     id="defs16" />
  <sodipodi:namedview
     pagecolor="#ffffff"
     bordercolor="#666666"
     borderopacity="1"
     objecttolerance="10"
     gridtolerance="10"
     guidetolerance="10"
     inkscape:pageopacity="0"
     inkscape:pageshadow="2"
     inkscape:window-width="1792"
     inkscape:window-height="1075"
     id="namedview14"
     showgrid="false"
     inkscape:zoom="3.285"
     inkscape:cx="100"
     inkscape:cy="100"
     inkscape:window-x="0"
     inkscape:window-y="23"
     inkscape:window-maximized="0"
     inkscape:current-layer="svg12"
     inkscape:document-rotation="0" />
  <path
     d="m 120.51692,126.03077 c 0,-3.01607 -2.49777,-5.51385 -5.51384,-5.51385 -3.01608,0 -5.51385,2.49778 -5.51385,5.51385 0,3.01607 2.49777,5.51384 5.51385,5.51384 3.01607,0 5.51384,-2.49777 5.51384,-5.51384 z m 22.05539,0 c 0,-3.01607 -2.49778,-5.51385 -5.51385,-5.51385 -3.01607,0 -5.51385,2.49778 -5.51385,5.51385 0,3.01607 2.49778,5.51384 5.51385,5.51384 3.01607,0 5.51385,-2.49777 5.51385,-5.51384 z M 153.6,106.7323 v 27.56924 a 8.2707692,8.2707692 0 0 1 -8.27077,8.27077 H 18.510769 A 8.2707692,8.2707692 0 0 1 10.24,134.30154 V 106.7323 a 8.2707692,8.2707692 0 0 1 8.270769,-8.270767 h 40.063606 l 11.628701,11.716927 c 3.187004,3.09878 7.322385,4.82462 11.716925,4.82462 4.39453,0 8.52992,-1.72584 11.71692,-4.82462 L 105.35384,98.461533 h 39.97539 A 8.2707692,8.2707692 0 0 1 153.6,106.7323 Z M 125.60069,57.708702 a 5.4256246,5.4256246 0 0 1 -1.20754,6.032147 L 85.796231,102.33777 c -1.03109,1.11931 -2.49777,1.63761 -3.87623,1.63761 -1.37846,0 -2.84515,-0.5183 -3.87623,-1.63761 L 39.446844,63.740849 A 5.4256246,5.4256246 0 0 1 38.23931,57.708702 c 0.860161,-1.979471 2.845145,-3.357933 5.083767,-3.357933 H 65.378461 V 15.753846 c 0,-3.016074 2.497772,-5.513846 5.513846,-5.513846 h 22.055384 c 3.01608,0 5.51385,2.497772 5.51385,5.513846 v 38.596923 h 22.055379 c 2.23862,0 4.22361,1.378462 5.08377,3.357933 z"
     id="path10"
     style="stroke-width:1;fill:#4d4d4d" />
  <path
     style="fill:#4d4d4d;stroke-width:1"
     d="M 11.682347,16.237706 C 6.6669308,11.271427 6.5957031,10.999983 10.273973,10.870489 l 2.511415,-0.08841 V 7.1214052 c 0,-2.0133681 0.141806,-3.9256363 0.315125,-4.2494848 0.275144,-0.5141113 0.657227,-0.5888154 3.011571,-0.5888154 2.177987,0 2.731974,0.092584 2.881222,0.4815183 0.101627,0.264835 0.184776,2.1771032 0.184776,4.2494848 v 3.7679669 l 2.508049,0.08841 c 3.624296,0.127765 3.570864,0.387753 -1.031798,5.020465 -2.067646,2.081145 -4.01078,3.922932 -4.318075,4.092861 -0.475209,0.262781 -1.170819,-0.297142 -4.653911,-3.746109 z"
     id="path15"
     transform="scale(5.12)" />
  <path
     style="fill:#4d4d4d;stroke-width:1"
     d="M 11.657481,16.213083 C 6.66901,11.273486 6.5981618,10.999897 10.273973,10.870489 l 2.511415,-0.08841 V 7.1214052 c 0,-2.0133681 0.141806,-3.9256363 0.315125,-4.2494848 0.275144,-0.5141113 0.657227,-0.5888154 3.011571,-0.5888154 2.177987,0 2.731974,0.092584 2.881222,0.4815183 0.101627,0.264835 0.184776,2.1771032 0.184776,4.2494848 v 3.7679669 l 2.508049,0.08841 c 3.656561,0.128903 3.597051,0.365928 -1.33193,5.305076 -2.232776,2.237381 -4.187123,4.067966 -4.342994,4.067966 -0.15587,0 -2.115047,-1.813701 -4.353726,-4.030448 z"
     id="path17"
     transform="scale(5.12)" />
  <path
     style="fill:#4d4d4d;stroke-width:1"
     d="M 3.348554,27.642624 C 2.3484008,27.285178 2.130898,26.532501 2.130898,23.428876 c 0,-4.168165 -0.087789,-4.098587 5.1712643,-4.098587 h 4.0578757 l 1.468125,1.507229 c 2.365965,2.428982 4.232027,2.346968 6.816309,-0.299577 l 1.179241,-1.207652 h 4.000628 c 5.165175,0 5.061955,-0.09275 4.942836,4.441489 -0.08354,3.179882 -0.115498,3.318925 -0.847847,3.688783 -0.577107,0.291456 -3.703882,0.379621 -12.937595,0.3648 C 9.2846271,27.814611 3.5996956,27.732379 3.348554,27.642624 Z M 23.427755,25.28097 c 0.441608,-0.532105 0.169467,-1.563368 -0.478138,-1.811878 -1.061833,-0.407463 -2.229857,1.258786 -1.437694,2.050948 0.361757,0.361758 1.539121,0.214839 1.915832,-0.23907 z m 4.393557,-0.0395 c 0.49503,-1.290026 -0.480971,-2.270587 -1.641708,-1.64938 -0.583307,0.312176 -0.833456,1.500385 -0.405885,1.927955 0.399083,0.399084 1.864033,0.199777 2.047593,-0.278575 z"
     id="path19"
     transform="scale(5.12)" />
  <path
     style="fill:#4d4d4d;stroke-width:1"
     d="M 11.657481,16.213083 C 6.66901,11.273486 6.5981618,10.999897 10.273973,10.870489 l 2.511415,-0.08841 V 7.1214052 c 0,-2.0133681 0.141806,-3.9256363 0.315125,-4.2494848 0.275144,-0.5141113 0.657227,-0.5888154 3.011571,-0.5888154 2.177987,0 2.731974,0.092584 2.881222,0.4815183 0.101627,0.264835 0.184776,2.1771032 0.184776,4.2494848 v 3.7679669 l 2.508049,0.08841 c 3.656561,0.128903 3.597051,0.365928 -1.33193,5.305076 -2.232776,2.237381 -4.187123,4.067966 -4.342994,4.067966 -0.15587,0 -2.115047,-1.813701 -4.353726,-4.030448 z"
     id="path21"
     transform="scale(5.12)" />
  <path
     style="fill:#4d4d4d;stroke-width:1"
     d="M 11.657481,16.213083 C 6.66901,11.273486 6.5981618,10.999897 10.273973,10.870489 l 2.511415,-0.08841 V 7.1214052 c 0,-2.0133681 0.141806,-3.9256363 0.315125,-4.2494848 0.275144,-0.5141113 0.657227,-0.5888154 3.011571,-0.5888154 2.177987,0 2.731974,0.092584 2.881222,0.4815183 0.101627,0.264835 0.184776,2.1771032 0.184776,4.2494848 v 3.7679669 l 2.508049,0.08841 c 3.656561,0.128903 3.597051,0.365928 -1.33193,5.305076 -2.232776,2.237381 -4.187123,4.067966 -4.342994,4.067966 -0.15587,0 -2.115047,-1.813701 -4.353726,-4.030448 z"
     id="path23"
     transform="scale(5.12)" />
  <path
     style="fill:#4d4d4d;stroke-width:1"
     d="M 11.657481,16.213083 C 6.66901,11.273486 6.5981618,10.999897 10.273973,10.870489 l 2.511415,-0.08841 V 7.1214052 c 0,-2.0133681 0.141806,-3.9256363 0.315125,-4.2494848 0.275144,-0.5141113 0.657227,-0.5888154 3.011571,-0.5888154 2.177987,0 2.731974,0.092584 2.881222,0.4815183 0.101627,0.264835 0.184776,2.1771032 0.184776,4.2494848 v 3.7679669 l 2.508049,0.08841 c 3.656561,0.128903 3.597051,0.365928 -1.33193,5.305076 -2.232776,2.237381 -4.187123,4.067966 -4.342994,4.067966 -0.15587,0 -2.115047,-1.813701 -4.353726,-4.030448 z"
     id="path25"
     transform="scale(5.12)" />
</svg>
