<?xml version="1.0" encoding="UTF-8" standalone="no"?>
<svg
   xmlns:dc="http://purl.org/dc/elements/1.1/"
   xmlns:cc="http://creativecommons.org/ns#"
   xmlns:rdf="http://www.w3.org/1999/02/22-rdf-syntax-ns#"
   xmlns:svg="http://www.w3.org/2000/svg"
   xmlns="http://www.w3.org/2000/svg"
   xmlns:sodipodi="http://sodipodi.sourceforge.net/DTD/sodipodi-0.dtd"
   xmlns:inkscape="http://www.inkscape.org/namespaces/inkscape"
   class="icon"
   width="200px"
   height="200.00px"
   viewBox="0 0 1024 1024"
   version="1.1"
   id="svg835"
   sodipodi:docname="yincang.svg"
   inkscape:version="1.0.1 (c497b03c, 2020-09-10)">
  <metadata
     id="metadata841">
    <rdf:RDF>
      <cc:Work
         rdf:about="">
        <dc:format>image/svg+xml</dc:format>
        <dc:type
           rdf:resource="http://purl.org/dc/dcmitype/StillImage" />
      </cc:Work>
    </rdf:RDF>
  </metadata>
  <defs
     id="defs839" />
  <sodipodi:namedview
     pagecolor="#ffffff"
     bordercolor="#666666"
     borderopacity="1"
     objecttolerance="10"
     gridtolerance="10"
     guidetolerance="10"
     inkscape:pageopacity="0"
     inkscape:pageshadow="2"
     inkscape:window-width="1792"
     inkscape:window-height="1075"
     id="namedview837"
     showgrid="false"
     inkscape:zoom="3.765"
     inkscape:cx="100"
     inkscape:cy="100"
     inkscape:window-x="0"
     inkscape:window-y="23"
     inkscape:window-maximized="1"
     inkscape:current-layer="svg835" />
  <path
     d="M930.624 355.072a32 32 0 0 1 15.168 42.688 480.768 480.768 0 0 1-92.096 131.392 29.184 29.184 0 0 1 6.016 7.424l64 110.848a32 32 0 0 1-55.424 32l-62.272-107.968c-28.032 21.76-58.368 40.32-90.56 55.36l27.776 103.68a32 32 0 1 1-61.824 16.64l-25.984-97.024a479.168 479.168 0 0 1-111.36 20.8L544 768a32 32 0 1 1-64 0v-97.088a478.976 478.976 0 0 1-126.592-25.792l-27.328 102.016a32 32 0 1 1-61.824-16.64l29.76-110.784a480.32 480.32 0 0 1-75.968-48.192l-62.336 107.904a32 32 0 1 1-55.424-32l64-110.848a32 32 0 0 1 5.952-7.488 479.808 479.808 0 0 1-92.032-131.328 32 32 0 0 1 57.856-27.52A416 416 0 0 0 512 608a416 416 0 0 0 376-237.76 32 32 0 0 1 42.624-15.168z"
     id="path833"
     style="fill:#1a1a1a" />
</svg>
