<?xml version="1.0" standalone="no"?><!DOCTYPE svg PUBLIC "-//W3C//DTD SVG 1.1//EN" "http://www.w3.org/Graphics/SVG/1.1/DTD/svg11.dtd"><svg class="icon" width="200px" height="200.00px" viewBox="0 0 1024 1024" version="1.1" xmlns="http://www.w3.org/2000/svg"><path d="M741.938962 508.432717c0 128.953232-104.55482 233.491796-233.508052 233.491796s-233.48999-104.538564-233.48999-233.491796 104.536758-233.491796 233.491797-233.491797 233.506246 104.538564 233.506245 233.491797z m-233.47554-66.714523c0.016256-36.841458-29.853195-66.730778-66.714522-66.745227-36.843265 0-66.730778 29.871257-66.747034 66.712716 0 36.859521 29.871257 66.747034 66.714522 66.747034 36.861327 0 66.747034-29.855001 66.747034-66.714523z" fill="#231815" /><path d="M995.712797 599.399347c-144.10922 173.015956-305.512991 260.845184-482.970441 260.845184-177.45745 0-338.877477-87.829228-482.970441-260.845184-36.680705-44.046468-35.945574-108.196158 1.697847-151.409959C189.280962 266.8906 349.738275 174.861912 512.742356 174.861912c163.005888 0 323.445138 92.028688 481.272595 273.127476 37.64342 43.213801 38.362295 107.361685 1.697846 151.409959z m-51.999252-107.576625c-146.247784-167.821269-289.898224-250.246288-430.971189-250.246288-141.071159 0-284.689087 82.425019-430.971188 250.2788-16.134958 18.502912-16.445628 46.006216-0.71707 64.868566C213.25672 715.497716 356.7446 793.562521 512.742356 793.562521c155.999563 0 299.487443-78.064805 431.690064-236.838721 15.726753-18.86235 15.416083-46.363847-0.718875-64.901078z" fill="#231815" /></svg>