<?xml version="1.0" encoding="UTF-8" standalone="no"?>
<svg
   xmlns:dc="http://purl.org/dc/elements/1.1/"
   xmlns:cc="http://creativecommons.org/ns#"
   xmlns:rdf="http://www.w3.org/1999/02/22-rdf-syntax-ns#"
   xmlns:svg="http://www.w3.org/2000/svg"
   xmlns="http://www.w3.org/2000/svg"
   xmlns:sodipodi="http://sodipodi.sourceforge.net/DTD/sodipodi-0.dtd"
   xmlns:inkscape="http://www.inkscape.org/namespaces/inkscape"
   width="200mm"
   height="200mm"
   viewBox="0 0 200 200"
   version="1.1"
   id="svg8"
   inkscape:version="1.0.1 (c497b03c, 2020-09-10)"
   sodipodi:docname="zip.svg">
  <defs
     id="defs2" />
  <sodipodi:namedview
     id="base"
     pagecolor="#ffffff"
     bordercolor="#666666"
     borderopacity="1.0"
     inkscape:pageopacity="0.0"
     inkscape:pageshadow="2"
     inkscape:zoom="0.58539063"
     inkscape:cx="413.17393"
     inkscape:cy="414.17461"
     inkscape:document-units="mm"
     inkscape:current-layer="layer1"
     inkscape:document-rotation="0"
     showgrid="true"
     inkscape:window-width="1792"
     inkscape:window-height="1075"
     inkscape:window-x="0"
     inkscape:window-y="23"
     inkscape:window-maximized="1">
    <inkscape:grid
       type="xygrid"
       id="grid833" />
  </sodipodi:namedview>
  <metadata
     id="metadata5">
    <rdf:RDF>
      <cc:Work
         rdf:about="">
        <dc:format>image/svg+xml</dc:format>
        <dc:type
           rdf:resource="http://purl.org/dc/dcmitype/StillImage" />
        <dc:title></dc:title>
      </cc:Work>
    </rdf:RDF>
  </metadata>
  <g
     inkscape:label="图层 1"
     inkscape:groupmode="layer"
     id="layer1">
    <rect
       style="fill:#ffffff;stroke:#333333;stroke-width:11.8507;stroke-linecap:round;stroke-linejoin:round;stroke-miterlimit:4;stroke-dasharray:none"
       id="rect835"
       width="168.14926"
       height="38.149334"
       x="15.92535"
       y="140.92535"
       rx="15"
       ry="15" />
    <rect
       style="fill:#333333;stroke:#333333;stroke-width:0;stroke-linecap:round;stroke-linejoin:round;stroke-miterlimit:4;stroke-dasharray:none"
       id="rect837"
       width="70"
       height="15.999999"
       x="30"
       y="152.5"
       rx="5"
       ry="5" />
    <rect
       style="fill:#333333;stroke:#333333;stroke-width:0;stroke-linecap:round;stroke-linejoin:round;stroke-miterlimit:4;stroke-dasharray:none"
       id="rect837-6"
       width="15.999999"
       height="15.999999"
       x="120"
       y="152.5"
       rx="5"
       ry="5" />
    <rect
       style="fill:#333333;stroke:#333333;stroke-width:0;stroke-linecap:round;stroke-linejoin:round;stroke-miterlimit:4;stroke-dasharray:none"
       id="rect837-6-2"
       width="15.999999"
       height="15.999999"
       x="150"
       y="152.5"
       rx="5"
       ry="5" />
    <g
       aria-label="ZIP"
       transform="matrix(0.7601833,0,0,1.3154722,0,4.9999994)"
       id="text871"
       style="font-style:normal;font-weight:normal;font-size:104.557px;line-height:1.25;font-family:sans-serif;fill:#333333;fill-opacity:1;stroke:none;stroke-width:2.61394">
      <path
         d="M 77.022303,87.420998 H 13.154722 V 73.177149 L 51.036213,26.106078 H 14.992638 V 11.40275 H 74.980174 V 25.901865 L 37.149736,72.71767 h 39.872567 z"
         style="font-style:normal;font-variant:normal;font-weight:bold;font-stretch:normal;font-family:sans-serif;-inkscape-font-specification:'sans-serif Bold';fill:#333333;stroke-width:2.61394"
         id="path898" />
      <path
         d="M 131.64925,87.420998 H 87.130837 V 73.942947 H 99.587823 V 24.8808 H 87.130837 V 11.40275 H 131.64925 V 24.8808 h -12.45699 v 49.062147 h 12.45699 z"
         style="font-style:normal;font-variant:normal;font-weight:bold;font-stretch:normal;font-family:sans-serif;-inkscape-font-specification:'sans-serif Bold';fill:#333333;stroke-width:2.61394"
         id="path900" />
      <path
         d="m 210.47542,35.397764 q 0,5.105322 -1.78687,10.006432 -1.78686,4.850056 -5.10532,8.168515 -4.54374,4.492684 -10.15959,6.790079 -5.5648,2.297395 -13.88648,2.297395 H 167.33544 V 87.420998 H 147.73101 V 11.40275 h 32.26563 q 7.24956,0 12.20172,1.27633 5.00322,1.225278 8.83221,3.726885 4.59479,3.012141 6.99429,7.709037 2.45056,4.696896 2.45056,11.282762 z m -20.26813,0.459479 q 0,-3.216353 -1.73581,-5.513748 -1.73581,-2.348448 -4.03321,-3.267406 -3.06319,-1.225277 -5.97322,-1.327384 -2.91004,-0.15316 -7.76009,-0.15316 h -3.36952 v 22.769738 h 5.61586 q 5.00321,0 8.21957,-0.612639 3.2674,-0.612639 5.46269,-2.450555 1.88897,-1.633703 2.70582,-3.880045 0.86791,-2.297395 0.86791,-5.564801 z"
         style="font-style:normal;font-variant:normal;font-weight:bold;font-stretch:normal;font-family:sans-serif;-inkscape-font-specification:'sans-serif Bold';fill:#333333;stroke-width:2.61394"
         id="path902" />
    </g>
    <path
       style="fill:#333333;stroke:#000000;stroke-width:0.264583px;stroke-linecap:butt;stroke-linejoin:miter;stroke-opacity:1"
       d="m 153.45833,47.624996 h 21.16666 V 95.25 h 21.16667 l -31.75,31.75 -31.75,-31.75 h 21.16667 z"
       id="path891"
       sodipodi:nodetypes="cccccccc" />
    <rect
       style="fill:#333333;stroke:#333333;stroke-width:0;stroke-linecap:round;stroke-linejoin:round;stroke-miterlimit:4;stroke-dasharray:none"
       id="rect905"
       width="42.333332"
       height="52.916664"
       x="148.16667"
       y="37.041668" />
  </g>
</svg>
