<?xml version="1.0" encoding="UTF-8" standalone="no"?>
<svg
   xmlns:dc="http://purl.org/dc/elements/1.1/"
   xmlns:cc="http://creativecommons.org/ns#"
   xmlns:rdf="http://www.w3.org/1999/02/22-rdf-syntax-ns#"
   xmlns:svg="http://www.w3.org/2000/svg"
   xmlns="http://www.w3.org/2000/svg"
   xmlns:sodipodi="http://sodipodi.sourceforge.net/DTD/sodipodi-0.dtd"
   xmlns:inkscape="http://www.inkscape.org/namespaces/inkscape"
   width="200"
   height="200"
   viewBox="0 0 52.916666 52.916666"
   version="1.1"
   id="svg8"
   inkscape:version="1.0.1 (c497b03c, 2020-09-10)"
   sodipodi:docname="zipdownload.svg">
  <defs
     id="defs2">
    <rect
       x="3.96875"
       y="2.6458333"
       width="30.427083"
       height="25.135417"
       id="rect893" />
  </defs>
  <sodipodi:namedview
     id="base"
     pagecolor="#ffffff"
     bordercolor="#666666"
     borderopacity="1.0"
     inkscape:pageopacity="0.0"
     inkscape:pageshadow="2"
     inkscape:zoom="4"
     inkscape:cx="116.19674"
     inkscape:cy="96.314547"
     inkscape:document-units="mm"
     inkscape:current-layer="text899"
     inkscape:document-rotation="0"
     showgrid="true"
     units="px"
     inkscape:window-width="1792"
     inkscape:window-height="1075"
     inkscape:window-x="0"
     inkscape:window-y="23"
     inkscape:window-maximized="1">
    <inkscape:grid
       type="xygrid"
       id="grid833" />
  </sodipodi:namedview>
  <metadata
     id="metadata5">
    <rdf:RDF>
      <cc:Work
         rdf:about="">
        <dc:format>image/svg+xml</dc:format>
        <dc:type
           rdf:resource="http://purl.org/dc/dcmitype/StillImage" />
        <dc:title></dc:title>
      </cc:Work>
    </rdf:RDF>
  </metadata>
  <g
     inkscape:label="图层 1"
     inkscape:groupmode="layer"
     id="layer1">
    <path
       id="rect901"
       style="fill:#000000;fill-opacity:0.1;fill-rule:evenodd;stroke:#000000;stroke-width:5.00001;stroke-opacity:1;paint-order:markers fill stroke"
       d="M 10 10 L 10 150 L 90.25 150 A 49.999997 49.999997 0 0 1 90 145 A 49.999997 49.999997 0 0 1 140 95 A 49.999997 49.999997 0 0 1 190 144.94727 L 190 10 L 10 10 z M 190 145 A 49.999997 49.999997 0 0 1 189.74805 150 L 190 150 L 190 145 z "
       transform="scale(0.26458333)" />
    <path
       id="path6978"
       style="color:#000000;font-style:normal;font-variant:normal;font-weight:normal;font-stretch:normal;font-size:medium;line-height:normal;font-family:sans-serif;font-variant-ligatures:normal;font-variant-position:normal;font-variant-caps:normal;font-variant-numeric:normal;font-variant-alternates:normal;font-variant-east-asian:normal;font-feature-settings:normal;font-variation-settings:normal;text-indent:0;text-align:start;text-decoration:none;text-decoration-line:none;text-decoration-style:solid;text-decoration-color:#000000;letter-spacing:normal;word-spacing:normal;text-transform:none;writing-mode:lr-tb;direction:ltr;text-orientation:mixed;dominant-baseline:auto;baseline-shift:baseline;text-anchor:start;white-space:normal;shape-padding:0;shape-margin:0;inline-size:0;clip-rule:nonzero;display:inline;overflow:visible;visibility:visible;opacity:1;isolation:auto;mix-blend-mode:normal;color-interpolation:sRGB;color-interpolation-filters:linearRGB;solid-color:#000000;solid-opacity:1;vector-effect:none;fill:#333333;fill-opacity:1;fill-rule:nonzero;stroke:none;stroke-width:9.99999;stroke-linecap:butt;stroke-linejoin:round;stroke-miterlimit:4;stroke-dasharray:none;stroke-dashoffset:0;stroke-opacity:1;paint-order:markers stroke fill;color-rendering:auto;image-rendering:auto;shape-rendering:auto;text-rendering:auto;enable-background:accumulate;stop-color:#000000;stop-opacity:1"
       d="M 139.99805 100.00195 C 116.89543 100.00195 97.783766 117.54813 95.283203 140 L 105.35938 140 C 107.77329 122.99742 122.30866 109.99805 139.99805 109.99805 C 157.68743 109.99805 172.22781 122.99742 174.64258 140 L 184.71289 140 C 182.21233 117.54813 163.10065 100.00195 139.99805 100.00195 z "
       transform="scale(0.26458333)" />
    <rect
       style="fill:#333333;stroke:none;stroke-width:2.64582;stroke-linecap:round;stroke-linejoin:round;stroke-miterlimit:4;stroke-dasharray:none;stroke-opacity:1;paint-order:markers stroke fill"
       id="rect6991"
       width="7.9374986"
       height="7.9375014"
       x="33.072918"
       y="33.072918" />
    <path
       style="fill:#333333;stroke:none;stroke-width:0.264583px;stroke-linecap:butt;stroke-linejoin:miter;stroke-opacity:1"
       d="m 27.78125,41.010416 18.520833,10e-7 -9.260417,9.260416 z"
       id="path6993"
       sodipodi:nodetypes="cccc" />
    <g
       aria-label="ZIP"
       id="text899"
       style="font-size:28.22220000000000084px;line-height:1.25;font-family:'Big Caslon';-inkscape-font-specification:'Big Caslon';letter-spacing:2.64583000000000013px;word-spacing:2.64583000000000013px;stroke-width:0.264583;stroke:none;fill:#000000;fill-opacity:1">
      <path
         id="path923"
         style="font-style:normal;font-variant:normal;font-weight:bold;font-stretch:normal;font-size:28.2222px;font-family:Arial;-inkscape-font-specification:'Arial Bold';letter-spacing:0px;fill:#000000;fill-opacity:1;stroke:none;stroke-width:0.999999"
         d="M 24.427734 42.25 L 24.427734 55.166016 L 60 55.166016 L 19.896484 104.69727 L 19.896484 118.60352 L 81.927734 118.60352 L 81.927734 105.74023 L 38.490234 105.74023 L 80.3125 54.228516 L 80.3125 42.25 L 24.427734 42.25 z M 91.25 42.25 L 91.25 118.60352 L 97.537109 118.60352 A 50.000001 50.000001 0 0 1 106.66602 107.73438 L 106.66602 42.25 L 91.25 42.25 z M 121.30273 42.25 L 121.30273 98.626953 A 50.000001 50.000001 0 0 1 136.71875 95.109375 L 136.71875 89.802734 L 146.77148 89.802734 C 153.75065 89.802734 159.07921 89.438151 162.75977 88.708984 C 165.4681 88.118708 168.12435 86.920788 170.72852 85.115234 C 173.3674 83.274957 175.53884 80.756942 177.24023 77.5625 C 178.94162 74.368058 179.79102 70.42773 179.79102 65.740234 C 179.79102 59.66385 178.31662 54.715926 175.36523 50.896484 C 172.41385 47.042321 168.75 44.542319 164.375 43.396484 C 161.52778 42.632597 155.41601 42.25 146.04102 42.25 L 121.30273 42.25 z M 136.71875 55.166016 L 144.16602 55.166016 C 149.72157 55.166016 153.41949 55.340277 155.25977 55.6875 C 157.75976 56.138889 159.82704 57.266712 161.45898 59.072266 C 163.09093 60.877819 163.90625 63.169489 163.90625 65.947266 C 163.90625 68.204208 163.31532 70.183376 162.13477 71.884766 C 160.98893 73.586153 159.39236 74.836156 157.34375 75.634766 C 155.29514 76.433377 151.23263 76.833984 145.15625 76.833984 L 136.71875 76.833984 L 136.71875 55.166016 z "
         transform="scale(0.26458333)" />
    </g>
  </g>
</svg>
