<?xml version="1.0" encoding="UTF-8" standalone="no"?>
<svg
   xmlns:dc="http://purl.org/dc/elements/1.1/"
   xmlns:cc="http://creativecommons.org/ns#"
   xmlns:rdf="http://www.w3.org/1999/02/22-rdf-syntax-ns#"
   xmlns:svg="http://www.w3.org/2000/svg"
   xmlns="http://www.w3.org/2000/svg"
   xmlns:sodipodi="http://sodipodi.sourceforge.net/DTD/sodipodi-0.dtd"
   xmlns:inkscape="http://www.inkscape.org/namespaces/inkscape"
   width="200mm"
   height="200mm"
   viewBox="0 0 200 200"
   version="1.1"
   id="svg8"
   inkscape:version="1.0.1 (c497b03c, 2020-09-10)"
   sodipodi:docname="zipupload.svg">
  <defs
     id="defs2" />
  <sodipodi:namedview
     id="base"
     pagecolor="#ffffff"
     bordercolor="#666666"
     borderopacity="1.0"
     inkscape:pageopacity="0.0"
     inkscape:pageshadow="2"
     inkscape:zoom="0.58539063"
     inkscape:cx="413.17393"
     inkscape:cy="414.17461"
     inkscape:document-units="mm"
     inkscape:current-layer="layer1"
     inkscape:document-rotation="0"
     showgrid="true"
     inkscape:window-width="1792"
     inkscape:window-height="1075"
     inkscape:window-x="0"
     inkscape:window-y="23"
     inkscape:window-maximized="1">
    <inkscape:grid
       type="xygrid"
       id="grid833" />
  </sodipodi:namedview>
  <metadata
     id="metadata5">
    <rdf:RDF>
      <cc:Work
         rdf:about="">
        <dc:format>image/svg+xml</dc:format>
        <dc:type
           rdf:resource="http://purl.org/dc/dcmitype/StillImage" />
        <dc:title></dc:title>
      </cc:Work>
    </rdf:RDF>
  </metadata>
  <g
     inkscape:label="图层 1"
     inkscape:groupmode="layer"
     id="layer1">
    <rect
       style="fill:#ffffff;stroke:#333333;stroke-width:11.8507;stroke-linecap:round;stroke-linejoin:round;stroke-miterlimit:4;stroke-dasharray:none"
       id="rect835"
       width="168.14926"
       height="38.149334"
       x="15.92535"
       y="135.92535"
       rx="15"
       ry="15" />
    <rect
       style="fill:#333333;stroke:#333333;stroke-width:0;stroke-linecap:round;stroke-linejoin:round;stroke-miterlimit:4;stroke-dasharray:none"
       id="rect837"
       width="70"
       height="15.999999"
       x="30"
       y="147.5"
       rx="5"
       ry="5" />
    <rect
       style="fill:#333333;stroke:#333333;stroke-width:0;stroke-linecap:round;stroke-linejoin:round;stroke-miterlimit:4;stroke-dasharray:none"
       id="rect837-6"
       width="15.999999"
       height="15.999999"
       x="120"
       y="147.5"
       rx="5"
       ry="5" />
    <rect
       style="fill:#333333;stroke:#333333;stroke-width:0;stroke-linecap:round;stroke-linejoin:round;stroke-miterlimit:4;stroke-dasharray:none"
       id="rect837-6-2"
       width="15.999999"
       height="15.999999"
       x="150"
       y="147.5"
       rx="5"
       ry="5" />
    <g
       aria-label="ZIP"
       transform="matrix(0.7601833,0,0,1.3154722,0,4.9999994)"
       id="text871"
       style="font-style:normal;font-weight:normal;font-size:104.557px;line-height:1.25;font-family:sans-serif;fill:#333333;fill-opacity:1;stroke:none;stroke-width:2.61394">
      <path
         d="M 77.022303,87.420998 H 13.154722 V 73.177149 L 51.036213,26.106078 H 14.992638 V 11.40275 H 74.980174 V 25.901865 L 37.149736,72.71767 h 39.872567 z"
         style="font-style:normal;font-variant:normal;font-weight:bold;font-stretch:normal;font-family:sans-serif;-inkscape-font-specification:'sans-serif Bold';fill:#333333;stroke-width:2.61394"
         id="path898" />
      <path
         d="M 131.64925,87.420998 H 87.130837 V 73.942947 H 99.587823 V 24.8808 H 87.130837 V 11.40275 H 131.64925 V 24.8808 h -12.45699 v 49.062147 h 12.45699 z"
         style="font-style:normal;font-variant:normal;font-weight:bold;font-stretch:normal;font-family:sans-serif;-inkscape-font-specification:'sans-serif Bold';fill:#333333;stroke-width:2.61394"
         id="path900" />
      <path
         id="path902"
         style="font-style:normal;font-variant:normal;font-weight:bold;font-stretch:normal;font-family:sans-serif;-inkscape-font-specification:'sans-serif Bold';fill:#333333;stroke-width:9.87946"
         d="M 424.45117 75.589844 L 424.45117 453.54297 L 480.77734 453.54297 L 480.77734 330.43555 L 494.47266 330.43555 A 132.28346 132.28346 0 0 1 602.39453 228.48633 C 603.93483 217.43888 604.72461 206.24269 604.72461 194.89062 C 604.72461 173.06127 602.37745 154.36314 597.68359 138.79492 C 593.08754 123.2267 586.38885 110.45077 577.58789 100.4668 C 570.25376 92.175031 561.79422 85.996823 552.21094 81.935547 C 542.72546 77.705055 531.04027 75.589844 517.1543 75.589844 L 424.45117 75.589844 z M 480.77734 146.1543 L 490.45898 146.1543 C 499.74888 146.1543 507.17995 146.40836 512.75391 146.91602 C 518.32784 147.25446 524.04871 149.45435 529.91602 153.51562 C 534.31651 156.56158 538.1791 161.97761 541.50391 169.76172 C 544.82872 177.37661 546.49023 186.51494 546.49023 197.17578 C 546.49023 208.00585 545.66046 217.22691 543.99805 224.8418 C 542.43343 232.28747 539.84083 238.71778 536.22266 244.13281 C 532.01775 250.22472 526.7858 254.28577 520.52734 256.31641 C 514.36666 258.34704 506.49537 259.36328 496.91211 259.36328 L 480.77734 259.36328 L 480.77734 146.1543 z "
         transform="matrix(0.34805202,0,0,0.20113183,0,-3.8009161)" />
    </g>
    <g
       id="g1073"
       transform="matrix(0.10432969,0,0,0.10479258,69.499993,0.0807148)">
      <ellipse
         style="fill:#ffffff;fill-opacity:1;fill-rule:evenodd;stroke-width:38.34"
         id="path246"
         cx="912.97125"
         cy="905.78247"
         rx="256.39874"
         ry="268.38" />
      <path
         d="m 1118.6839,703.31355 c -54.3092,-54.04505 -126.49158,-83.81086 -203.29051,-83.81086 -76.79888,0 -149.00785,29.76581 -203.32153,83.81022 -54.31372,54.04433 -84.25434,125.97621 -84.25434,202.46697 0,76.49081 29.92572,148.40842 84.25371,202.47222 54.32789,54.0638 126.49668,83.8102 203.30275,83.8102 76.80607,0 149.00072,-29.7335 203.28982,-83.8096 54.2891,-54.076 84.2537,-126.0021 84.2537,-202.49228 0,-76.49004 -29.8811,-148.38305 -84.2349,-202.44687 z m -59.5058,223.00879 H 935.93581 v 123.24876 c 0,11.3449 -9.19687,20.5424 -20.54179,20.5424 -11.34487,0 -20.54242,-9.1975 -20.54242,-20.5418 V 926.32167 H 771.60224 c -11.34493,0 -20.54178,-9.19692 -20.54178,-20.54179 0,-11.34492 9.19685,-20.54242 20.54178,-20.54242 H 894.85098 V 761.99455 c 0,-11.34494 9.19686,-20.54178 20.54178,-20.54178 11.34618,0 20.54237,9.19684 20.54237,20.54178 v 123.24871 h 123.24227 c 11.345,0 20.5418,9.19754 20.5418,20.54179 0,11.34429 -9.1968,20.54309 -20.5418,20.54309 v -0.005 z"
         fill="#515151"
         id="path203"
         style="stroke-width:0.64739" />
    </g>
  </g>
</svg>
