<?xml version="1.0" standalone="no"?><!DOCTYPE svg PUBLIC "-//W3C//DTD SVG 1.1//EN" "http://www.w3.org/Graphics/SVG/1.1/DTD/svg11.dtd"><svg class="icon" width="200px" height="200.00px" viewBox="0 0 1024 1024" version="1.1" xmlns="http://www.w3.org/2000/svg"><path d="M764.8 992.2c-15.8 0-32.5-0.2-49.6-0.7-19.7-0.5-32.6-2.3-40.3-10.3-7.6-7.8-9.1-20.1-9.3-40.1V926c0.2-19.4 0.3-37.7-4-56.1-7.8-33.5-33.4-54.3-66.8-54.3-2 0-4 0.1-6 0.2-34.2 2.5-59.5 28.7-61.7 63.7-0.8 13.3-0.9 27-1 40.2-0.1 10.6-0.1 21.5-0.6 32.3-0.9 24.4-13.3 36.2-38.9 37.2-25.6 1-55.9 2-86.3 2-28.1 0-53.5-0.9-77.4-2.6-36.1-2.6-66.9-15.9-89.1-38.3-22.3-22.7-34.6-53.6-35.5-89.4-0.5-20.9-0.4-42.1-0.3-62.6 0-8.7 0.1-17.3 0.1-26-0.1-15.2-1.4-22.4-4.8-26.3-3.4-3.9-10.2-6-25-7.7-34.8-4.1-63.3-16.1-87.1-36.8-22.3-19.4-37-42.2-43.9-67.9-6.5-24.2-6-50.9 1.5-79.4 7.5-28.4 21.6-51.6 42-69.2 19.3-16.6 44.3-28 74.3-34 8.2-1.7 15.7-2.8 22.9-3.5 14.1-1.4 20.2-8.6 20.1-24.1-0.2-29.3-0.2-56.1 0.1-81.8 0.4-46 12.6-81.7 36.2-105.9 23.7-24.3 59.1-37.4 105.3-38.9 16-0.5 30.3-0.8 43.8-0.8 12.7 0 24.5 0.2 36 0.7 1.1 0 2.3 0.1 3.3 0.1 17.9 0 24.6-6.5 26.6-25.6 7-67.9 42.4-113.7 102.5-132.5 14.8-4.6 29.9-7 44.8-7 35.6 0 69.6 13.6 95.6 38.3 26.3 25 43.3 60.2 47.9 99.3 1.7 14.1 2.9 20.9 6.1 23.8 3.4 3.1 11.6 3.5 23.7 3.7 4 0.1 8.3 0.1 13.1 0.1 6.4 0 12.8-0.1 19.1-0.1 6.3-0.1 12.8-0.1 19.2-0.1 17.9 0 39 0.5 60.2 3.9C945.7 211 988.3 258.4 990 321.5c1 34.6 0.8 69.7 0.7 103.7-0.1 20.3-0.2 41.4-0.1 62 0.2 23.6-12.6 36.6-37 37.4-11.8 0.4-23.8 0.4-35.4 0.4-10.7 0-21.8 0-32.7 0.4-37.1 1.2-65 25.7-67.9 59.5-3.6 41.6 15.9 68.1 56.4 76.6 12 2.5 24.1 2.9 33.2 2.9 5.3 0 10.7-0.1 15.9-0.2 5.3-0.1 10.7-0.3 16.1-0.3h4c20.7 0.3 31.7 1.6 38.7 8.4 7.1 6.9 8.4 17.7 8.4 37.8 0.4 25.6 0.3 51.7 0.2 77v0.2c0 7.9 0 15.8 0.1 23.7 0.1 17.5 0.2 35.6-0.2 53.5-0.6 32.3-12.5 62.4-33.6 84.9-21.1 22.5-50.3 36.2-82.4 38.8-34.6 2.6-70.5 4-109.6 4zM205.1 529.8c-10 0-23.2 0.4-36.2 3.3-19.1 4.3-32.3 12-40.5 23.5-8.2 11.6-11.4 27-9.7 47.2 1.3 14.9 7.5 27.6 17.9 36.6 10.6 9.1 25.4 14.3 42.7 15 10.9 0.4 22.1 0.4 32.8 0.4 11.5 0 23.4 0 35.2 0.5 23.1 0.9 35.6 13.9 35.2 36.6-0.3 15.8-0.2 31.9-0.1 47.5 0 4.5 0.1 9.1 0.1 13.6 0.1 10.6 0 21.4-0.1 31.8-0.1 25.2-0.3 51.3 1.3 76.7 1.8 30.1 13.4 41.1 44.3 42.1 9.2 0.3 19.2 0.5 30.6 0.5 8.4 0 16.6-0.1 23.6-0.2h6.5c3.7 0 7.1 0 10.3 0.1h7.6c14.2 0 20.8-0.9 25.2-6.3 5.1-6.3 8.2-19 13-43.6 6.1-31.5 22-59.8 45.9-81.9 23.6-21.7 52.7-35.5 84.4-39.9 6.6-0.9 13.4-1.4 20.1-1.4 54 0 104.6 29.8 132 77.9 11.7 20.5 18.9 44.3 22.1 73 1.7 15.4 8.5 22 22.6 22 8.3 0 16.6 0 24.8 0.1 8.1 0 16.4 0.1 24.7 0.1 18.3 0 32.4-0.2 45.7-0.8 24.9-1 35.6-11 38.1-35.7 1.4-13.9 1.3-28.3 1.3-42.2 0-5.3-0.1-10.8 0-16.3 0.4-29.7 0.1-44.5-4.4-51.8-4-6.5-12.1-8.2-31.9-12-4.8-0.9-10.3-1.9-16.4-3.2-35.3-7.3-65.4-25.7-87.1-53.3-21.5-27.3-32.8-60.9-32.7-97.3 0.1-35.1 11.7-67.9 33.6-94.7 21.9-26.8 52-45.1 87-52.8 7.3-1.6 14.7-2.7 21.8-3.7 4.7-0.7 9.5-1.3 14.2-2.2 13.2-2.4 15-8.7 15.1-14 0.1-7.5 0.4-15.1 0.6-22.5 0.8-28.9 1.7-58.7-2.1-87.7-2.6-19.3-13.9-29.4-33.5-30.2-53-1.8-93.5-2.9-131.3-3.5h-1.1c-5.7 0-11.4 0.5-17.4 1-6 0.5-12.1 1.1-18.4 1.1-4 0-7.6-0.2-11.1-0.7-22.9-3.1-34-15.5-34-38 0-4.7 0.1-9.4 0.1-14.1 0.2-18.4 0.3-37.4-0.8-55.9-2-35.1-26.4-57.8-62-57.8-35.4 0-59.8 22.7-62.2 57.8-0.9 11.9-0.7 24.2-0.6 36.1 0 4.4 0.1 9 0.1 13.5 0 24.7-0.6 40.3-9.4 49.1-8.7 8.9-24.5 9.8-49.3 10.4h-70.4c-24.4 0-50.6 0.1-76.9 0.6-29.2 0.6-38.8 9.1-41 36.6-1.8 21.2-1.4 43-1 64.1 0.2 9.3 0.4 18.9 0.4 28.3v5h-1.6c0 6.3 0 12.5 0.1 18.8 0.1 18.2 0.1 37.1-0.2 55.7-0.4 28-8.9 36.3-37.7 37.1-2.5 0.1-5.1 0.1-8 0.1-5.3 0-10.7-0.1-16-0.2-5.3 0.3-10.6 0.1-15.9 0.1z"  /><path d="M985.5 787.2c0 25.7 0.4 51.4-0.1 77.1-1.2 64.2-47.7 113.8-111.4 118.8-52.8 4.2-105.7 4.8-158.7 3.4-39-1-44.4-7.2-44.8-45.4-0.2-24.2 1.5-48.4-4.1-72.3-8.8-37.8-39.3-60.7-78-57.9-36.3 2.7-64 30.5-66.3 68.4-1.5 24.1-0.6 48.4-1.6 72.6-0.8 21.4-10.5 31.5-34.1 32.4-54.4 2.1-108.6 3.4-163.1-0.6-70.8-5.1-118.2-52.2-119.9-122.9-0.7-29.5-0.2-59-0.2-88.5-0.1-30.4-4.6-35.5-34.2-39-31.6-3.7-60.1-14.5-84.4-35.6-44.4-38.6-55-88.5-40.9-142.3 14.8-56.3 55.5-88.2 112.4-99.5 7.4-1.5 14.9-2.7 22.4-3.4 17.8-1.8 24.7-12.2 24.6-29.1-0.2-27.2-0.2-54.5 0.1-81.7 0.8-89.8 46.5-136.8 136.7-139.9 26.4-0.9 53-1.2 79.4-0.1 22.1 0.9 32.6-6.2 35.1-30 6.4-62.5 37.7-109.1 99-128.3C641.3 16 724.2 74.9 735.2 169.8c3.5 29.8 5.4 31.4 34.7 32 37 0.7 74-2.3 110.9 3.7 60.6 9.8 102.5 54.5 104.2 116.1 1.6 55.2 0.2 110.4 0.6 165.6 0.2 22.3-11.9 31.7-32.2 32.4-22.7 0.8-45.4 0.1-68.1 0.8-39.7 1.3-69.6 28-72.7 64.1-3.8 44 17.5 72.9 60.4 81.9 23.2 4.9 46.7 2.2 70.1 2.5 37.9 0.5 42.1 4.3 42.2 41.2 0.4 25.7 0.3 51.4 0.2 77.1 0.1 0 0.1 0 0 0zM279.2 413.6h-1.6c0 26.5 0.3 52.9-0.1 79.4-0.4 25.6-6.8 31.5-32.8 32.2-25.6 0.7-51.4-2.7-76.9 3.1-40.3 9.1-57.7 33.6-54.1 76 2.8 33.1 27.7 54.7 65.4 56.1 22.7 0.8 45.4 0 68 0.9 19.6 0.8 30.8 10.5 30.4 31.5-0.4 20.4-0.1 40.8 0 61.2 0.2 36.3-1 72.7 1.2 108.8 2 33.6 16.3 45.7 49.1 46.8 18.1 0.6 36.3 0.5 54.4 0.3 52.9-0.6 55.5 7.6 67.4-53.8 12.1-62.6 64.3-109.2 126.1-117.8 58.6-8.2 117.1 21.4 147.1 74 12.6 22.1 18.7 46.2 21.5 71.1 1.9 17.1 10 26.4 27.6 26.4 31.8 0 63.5 0.7 95.3-0.6 27.5-1.1 40.1-12.9 42.9-40.2 2-19.5 1.1-39.3 1.3-58.9 0.9-68.5-1.5-60.5-56.7-71.9-69.9-14.5-116-74.2-115.8-145.7 0.1-69.2 47.6-127.3 116.7-142.6 11.8-2.6 23.9-3.7 35.8-5.8 10.6-1.9 19-6.9 19.2-18.8 0.7-37 3.3-74.1-1.6-110.9-2.9-21.7-16.3-33.7-38.3-34.5-43.8-1.5-87.6-2.8-131.4-3.5-15.8-0.2-31.4 3.6-47.4 1.5-20-2.7-29.6-12.9-29.6-33 0.1-23.4 0.7-46.9-0.7-70.3-2.2-38.1-29.1-62.5-67-62.5-37.7 0-64.6 24.6-67.2 62.5-1.2 16.6-0.5 33.3-0.5 49.9 0 50.1-3.3 53.4-53.8 54.5-4.5 0.1-9.1 0-13.6 0-44.6 0.1-89.2-0.3-133.8 0.6-31.2 0.6-43.4 10.3-45.9 41.2-2.6 30.7-0.6 61.8-0.6 92.8z"  /></svg>