<?xml version="1.0" encoding="UTF-8" standalone="no"?>
<svg
   xmlns:dc="http://purl.org/dc/elements/1.1/"
   xmlns:cc="http://creativecommons.org/ns#"
   xmlns:rdf="http://www.w3.org/1999/02/22-rdf-syntax-ns#"
   xmlns:svg="http://www.w3.org/2000/svg"
   xmlns="http://www.w3.org/2000/svg"
   xmlns:sodipodi="http://sodipodi.sourceforge.net/DTD/sodipodi-0.dtd"
   xmlns:inkscape="http://www.inkscape.org/namespaces/inkscape"
   width="200"
   height="200"
   viewBox="0 0 52.916666 52.916666"
   version="1.1"
   id="svg8"
   inkscape:version="1.0.1 (c497b03c, 2020-09-10)"
   sodipodi:docname="ft_html.svg">
  <defs
     id="defs2" />
  <sodipodi:namedview
     id="base"
     pagecolor="#ffffff"
     bordercolor="#666666"
     borderopacity="1.0"
     inkscape:pageopacity="0.0"
     inkscape:pageshadow="2"
     inkscape:zoom="4"
     inkscape:cx="86.994562"
     inkscape:cy="102.31467"
     inkscape:document-units="mm"
     inkscape:current-layer="layer1"
     inkscape:document-rotation="0"
     showgrid="true"
     units="px"
     inkscape:window-width="1792"
     inkscape:window-height="1075"
     inkscape:window-x="0"
     inkscape:window-y="23"
     inkscape:window-maximized="1"
     showguides="false">
    <inkscape:grid
       type="xygrid"
       id="grid833" />
  </sodipodi:namedview>
  <metadata
     id="metadata5">
    <rdf:RDF>
      <cc:Work
         rdf:about="">
        <dc:format>image/svg+xml</dc:format>
        <dc:type
           rdf:resource="http://purl.org/dc/dcmitype/StillImage" />
        <dc:title />
      </cc:Work>
    </rdf:RDF>
  </metadata>
  <g
     inkscape:label="图层 1"
     inkscape:groupmode="layer"
     id="layer1">
    <path
       style="fill:none;stroke:#333333;stroke-width:2.64583;stroke-linecap:round;stroke-linejoin:round;stroke-miterlimit:4;stroke-dasharray:none;stroke-opacity:1"
       d="M 11.90625,17.197917 H 15.875 c 2.753347,0 2.645833,-1.398135 2.645833,-5.291667 V 5.2916667 L 7.9375,15.875 v 26.560905 c 0,5.178425 0.162732,5.178425 5.291667,5.178425 H 39.6875 c 5.291667,0 5.291667,0 5.291667,-5.291667 v -31.73933 c 0,-5.1230929 0,-5.3022832 -5.291667,-5.3022832 h -15.875"
       id="path2133"
       sodipodi:nodetypes="cssccssssssc" />
    <ellipse
       style="fill:none;fill-opacity:1;stroke:#333333;stroke-width:1.67432;stroke-linecap:round;stroke-linejoin:round;stroke-miterlimit:4;stroke-dasharray:none;stroke-opacity:1;paint-order:markers stroke fill"
       id="path9900"
       cx="26.458418"
       cy="30.427084"
       rx="11.069174"
       ry="11.06909" />
    <path
       id="rect9902"
       style="fill:#333333;fill-opacity:1;stroke:none;stroke-width:1.30234;stroke-linecap:round;stroke-linejoin:round;stroke-miterlimit:4;stroke-dasharray:none;stroke-opacity:1;paint-order:markers stroke fill"
       d="m 28.892149,19.486576 c -0.0094,0.110969 -0.01527,0.223022 -0.01527,0.3365 v 2.604491 c -2.164348,0 -3.906766,1.742406 -3.906766,3.906739 h 3.906772 v 1.302243 c 0,2.164334 1.742418,3.906738 3.906766,3.906738 2.16435,0 3.906767,-1.742404 3.906767,-3.906738 v -1.135395 a 11.069174,11.06909 0 0 0 -7.798267,-7.014578 z m -13.629938,9.615 a 11.069174,11.06909 0 0 0 -0.05901,1.139467 11.069174,11.06909 0 0 0 7.813534,10.579475 v -6.672739 h 4.557895 c 0,-2.795594 -1.742421,-5.046203 -3.906768,-5.046203 z" />
  </g>
</svg>
