<?xml version="1.0" encoding="UTF-8" standalone="no"?>
<svg
   xmlns:dc="http://purl.org/dc/elements/1.1/"
   xmlns:cc="http://creativecommons.org/ns#"
   xmlns:rdf="http://www.w3.org/1999/02/22-rdf-syntax-ns#"
   xmlns:svg="http://www.w3.org/2000/svg"
   xmlns="http://www.w3.org/2000/svg"
   xmlns:sodipodi="http://sodipodi.sourceforge.net/DTD/sodipodi-0.dtd"
   xmlns:inkscape="http://www.inkscape.org/namespaces/inkscape"
   width="200"
   height="200"
   viewBox="0 0 52.916666 52.916666"
   version="1.1"
   id="svg8"
   inkscape:version="1.0.1 (c497b03c, 2020-09-10)"
   sodipodi:docname="ft_json.svg">
  <defs
     id="defs2" />
  <sodipodi:namedview
     id="base"
     pagecolor="#ffffff"
     bordercolor="#666666"
     borderopacity="1.0"
     inkscape:pageopacity="0.0"
     inkscape:pageshadow="2"
     inkscape:zoom="4"
     inkscape:cx="86.994562"
     inkscape:cy="102.31467"
     inkscape:document-units="mm"
     inkscape:current-layer="layer1"
     inkscape:document-rotation="0"
     showgrid="true"
     units="px"
     inkscape:window-width="1792"
     inkscape:window-height="1075"
     inkscape:window-x="0"
     inkscape:window-y="23"
     inkscape:window-maximized="1"
     showguides="false">
    <inkscape:grid
       type="xygrid"
       id="grid833" />
  </sodipodi:namedview>
  <metadata
     id="metadata5">
    <rdf:RDF>
      <cc:Work
         rdf:about="">
        <dc:format>image/svg+xml</dc:format>
        <dc:type
           rdf:resource="http://purl.org/dc/dcmitype/StillImage" />
        <dc:title></dc:title>
      </cc:Work>
    </rdf:RDF>
  </metadata>
  <g
     inkscape:label="图层 1"
     inkscape:groupmode="layer"
     id="layer1">
    <path
       style="fill:none;stroke:#333333;stroke-width:2.64583;stroke-linecap:round;stroke-linejoin:round;stroke-miterlimit:4;stroke-dasharray:none;stroke-opacity:1"
       d="m 11.906248,17.208532 h 3.96875 c 2.753347,0 2.645833,-1.398135 2.645833,-5.291667 V 5.302282 L 7.9374983,15.885615 v 26.560904 c 0,5.178425 0.162732,5.178425 5.2916667,5.178425 h 26.458332 c 5.291669,0 5.291669,0 5.291669,-5.291666 v -31.73933 c 0,-5.123093 0,-5.302283 -5.291669,-5.302283 H 23.812498"
       id="path2133"
       sodipodi:nodetypes="cssccssssssc" />
    <g
       aria-label="{J}"
       transform="matrix(1.0294756,0,0,1.0147711,-2.0927836,-1.3228439)"
       id="text1526"
       style="font-style:normal;font-variant:normal;font-weight:bold;font-stretch:normal;font-size:22.22599999999999909px;line-height:1.25;font-family:Arial;-inkscape-font-specification:'Arial Bold';fill:#333333;fill-opacity:1;stroke:#333333;stroke-width:0.5557203;stroke-opacity:1;stroke-miterlimit:4;stroke-dasharray:none">
      <path
         d="m 13.598218,32.590086 v -2.604609 q 0.792235,-0.04341 1.193779,-0.238756 0.401544,-0.195346 0.694562,-0.651152 0.293019,-0.46666 0.401544,-1.161222 0.08682,-0.520922 0.08682,-1.812374 0,-2.105393 0.195345,-2.930186 0.195346,-0.835645 0.705415,-1.334862 0.51007,-0.510069 1.486798,-0.803088 0.662005,-0.195346 2.083688,-0.195346 h 0.575184 v 2.593757 q -1.204631,0 -1.551913,0.141083 -0.336428,0.130231 -0.499217,0.412397 -0.162788,0.271313 -0.162788,0.944171 0,0.68371 -0.09767,2.593756 -0.05426,1.074402 -0.282166,1.747259 -0.227904,0.662005 -0.586038,1.096107 -0.347281,0.434101 -1.074401,0.90076 0.6403,0.368987 1.041844,0.868204 0.412396,0.488364 0.629447,1.193779 0.217051,0.705415 0.282166,1.888342 0.07597,1.801521 0.07597,2.300738 0,0.716267 0.17364,0.998433 0.173641,0.282166 0.520922,0.423249 0.358134,0.151936 1.530208,0.151936 v 2.604609 H 20.44617 q -1.465093,0 -2.246476,-0.238755 -0.781383,-0.227904 -1.32401,-0.770531 -0.531774,-0.542627 -0.716267,-1.345715 -0.184493,-0.792235 -0.184493,-2.506936 0,-1.996867 -0.173641,-2.593757 -0.238756,-0.868203 -0.72712,-1.237189 -0.477512,-0.379839 -1.475945,-0.434102 z"
         style="font-style:normal;font-variant:normal;font-weight:bold;font-stretch:normal;font-family:Arial;-inkscape-font-specification:'Arial Bold';fill:#333333;stroke-width:0.5557203;stroke:#333333;stroke-opacity:1;stroke-miterlimit:4;stroke-dasharray:none"
         id="path2202" />
      <path
         d="m 28.943708,23.197276 h 3.201499 v 10.071156 c 0,1.316775 -0.11576,2.329678 -0.347281,3.038711 -0.311106,0.926083 -0.875438,1.671291 -1.692996,2.235623 -0.817558,0.557097 -1.895577,0.835646 -3.234057,0.835646 -1.570001,0 -2.77825,-0.437719 -3.624748,-1.313158 -0.846498,-0.882673 -1.273364,-2.174125 -1.280599,-3.874356 l 3.027858,-0.347281 c 0.03617,0.911613 0.170021,1.555531 0.401544,1.931752 0.347281,0.571567 0.875438,0.85735 1.584471,0.85735 0.716267,0 1.222719,-0.202581 1.519355,-0.607742 0.296636,-0.412397 0.444954,-1.262512 0.444954,-2.550347 z"
         style="font-style:normal;font-variant:normal;font-weight:bold;font-stretch:normal;font-family:Arial;-inkscape-font-specification:'Arial Bold';fill:#333333;stroke-width:0.5557203;stroke:#333333;stroke-opacity:1;stroke-miterlimit:4;stroke-dasharray:none"
         id="path2204"
         sodipodi:nodetypes="ccsccsccccscsc" />
      <path
         d="m 41.869083,32.590086 q -0.792235,0.04341 -1.193779,0.238756 -0.401544,0.195346 -0.694562,0.662005 -0.282166,0.455806 -0.401544,1.150369 -0.08682,0.520922 -0.08682,1.801521 0,2.105393 -0.195345,2.941038 -0.184494,0.835646 -0.694563,1.334863 -0.510069,0.510069 -1.49765,0.803088 -0.662005,0.195345 -2.083688,0.195345 h -0.575184 v -2.604609 q 1.161221,0 1.519355,-0.151936 0.358134,-0.141083 0.520922,-0.423249 0.173641,-0.271313 0.173641,-0.933318 0.01085,-0.662005 0.09767,-2.528641 0.05426,-1.128665 0.293018,-1.801522 0.238756,-0.68371 0.629447,-1.150369 0.401544,-0.477512 1.020139,-0.835646 -0.803088,-0.520921 -1.172074,-1.020138 -0.51007,-0.716268 -0.694563,-1.823227 -0.119378,-0.759678 -0.17364,-3.342582 -0.01085,-0.81394 -0.151936,-1.085254 -0.13023,-0.271313 -0.488364,-0.412396 -0.347281,-0.151936 -1.573618,-0.151936 v -2.593757 h 0.575184 q 1.465093,0 2.246476,0.227904 0.781383,0.227903 1.313157,0.781383 0.531774,0.542627 0.716268,1.345714 0.195345,0.792236 0.195345,2.506937 0,1.986015 0.162788,2.593757 0.238756,0.868203 0.727121,1.248042 0.488364,0.368986 1.486797,0.423249 z"
         style="font-style:normal;font-variant:normal;font-weight:bold;font-stretch:normal;font-family:Arial;-inkscape-font-specification:'Arial Bold';fill:#333333;stroke-width:0.5557203;stroke:#333333;stroke-opacity:1;stroke-miterlimit:4;stroke-dasharray:none"
         id="path2206" />
    </g>
  </g>
</svg>
