<?xml version="1.0" encoding="UTF-8" standalone="no"?>
<svg
   xmlns:dc="http://purl.org/dc/elements/1.1/"
   xmlns:cc="http://creativecommons.org/ns#"
   xmlns:rdf="http://www.w3.org/1999/02/22-rdf-syntax-ns#"
   xmlns:svg="http://www.w3.org/2000/svg"
   xmlns="http://www.w3.org/2000/svg"
   xmlns:sodipodi="http://sodipodi.sourceforge.net/DTD/sodipodi-0.dtd"
   xmlns:inkscape="http://www.inkscape.org/namespaces/inkscape"
   width="200"
   height="200"
   viewBox="0 0 52.916666 52.916666"
   version="1.1"
   id="svg8"
   inkscape:version="1.0.1 (c497b03c, 2020-09-10)"
   sodipodi:docname="additem.svg">
  <defs
     id="defs2" />
  <sodipodi:namedview
     id="base"
     pagecolor="#ffffff"
     bordercolor="#666666"
     borderopacity="1.0"
     inkscape:pageopacity="0.0"
     inkscape:pageshadow="2"
     inkscape:zoom="4"
     inkscape:cx="95.287637"
     inkscape:cy="99.681047"
     inkscape:document-units="mm"
     inkscape:current-layer="layer1"
     inkscape:document-rotation="0"
     showgrid="true"
     units="px"
     inkscape:window-width="1792"
     inkscape:window-height="1075"
     inkscape:window-x="0"
     inkscape:window-y="23"
     inkscape:window-maximized="1">
    <inkscape:grid
       type="xygrid"
       id="grid833" />
  </sodipodi:namedview>
  <metadata
     id="metadata5">
    <rdf:RDF>
      <cc:Work
         rdf:about="">
        <dc:format>image/svg+xml</dc:format>
        <dc:type
           rdf:resource="http://purl.org/dc/dcmitype/StillImage" />
        <dc:title></dc:title>
      </cc:Work>
    </rdf:RDF>
  </metadata>
  <g
     inkscape:label="图层 1"
     inkscape:groupmode="layer"
     id="layer1">
    <path
       style="color:#000000;font-style:normal;font-variant:normal;font-weight:normal;font-stretch:normal;font-size:medium;line-height:normal;font-family:sans-serif;font-variant-ligatures:normal;font-variant-position:normal;font-variant-caps:normal;font-variant-numeric:normal;font-variant-alternates:normal;font-variant-east-asian:normal;font-feature-settings:normal;font-variation-settings:normal;text-indent:0;text-align:start;text-decoration:none;text-decoration-line:none;text-decoration-style:solid;text-decoration-color:#000000;letter-spacing:normal;word-spacing:normal;text-transform:none;writing-mode:lr-tb;direction:ltr;text-orientation:mixed;dominant-baseline:auto;baseline-shift:baseline;text-anchor:start;white-space:normal;shape-padding:0;shape-margin:0;inline-size:0;clip-rule:nonzero;display:inline;overflow:visible;visibility:visible;isolation:auto;mix-blend-mode:normal;color-interpolation:sRGB;color-interpolation-filters:linearRGB;solid-color:#000000;solid-opacity:1;vector-effect:none;fill:#333333;fill-opacity:1;fill-rule:nonzero;stroke:none;stroke-width:2.64583;stroke-linecap:round;stroke-linejoin:round;stroke-miterlimit:4;stroke-dasharray:none;stroke-dashoffset:0;stroke-opacity:1;paint-order:markers stroke fill;color-rendering:auto;image-rendering:auto;shape-rendering:auto;text-rendering:auto;enable-background:accumulate;stop-color:#000000;stop-opacity:1;opacity:1"
       d="M 26.458984 7.2753906 C 15.880569 7.2753906 7.2753906 15.880569 7.2753906 26.458984 C 7.2753906 37.0374 15.880569 45.640625 26.458984 45.640625 C 37.0374 45.640625 45.640625 37.0374 45.640625 26.458984 C 45.640625 15.880569 37.0374 7.2753906 26.458984 7.2753906 z M 26.458984 9.921875 C 35.607487 9.921875 42.994141 17.310481 42.994141 26.458984 C 42.994141 35.607487 35.607487 42.994141 26.458984 42.994141 C 17.310481 42.994141 9.921875 35.607487 9.921875 26.458984 C 9.921875 17.310481 17.310481 9.921875 26.458984 9.921875 z M 26.458984 15.212891 A 1.322915 1.322915 0 0 0 25.134766 16.537109 L 25.134766 25.134766 L 16.537109 25.134766 A 1.322915 1.322915 0 0 0 15.212891 26.458984 A 1.322915 1.322915 0 0 0 16.537109 27.78125 L 25.134766 27.78125 L 25.134766 36.380859 A 1.322915 1.322915 0 0 0 26.458984 37.703125 A 1.322915 1.322915 0 0 0 27.78125 36.380859 L 27.78125 27.78125 L 36.380859 27.78125 A 1.322915 1.322915 0 0 0 37.703125 26.458984 A 1.322915 1.322915 0 0 0 36.380859 25.134766 L 27.78125 25.134766 L 27.78125 16.537109 A 1.322915 1.322915 0 0 0 26.458984 15.212891 z "
       id="path847" />
  </g>
</svg>
